<svg width="120" height="96" xmlns="http://www.w3.org/2000/svg" xmlns:xlink="http://www.w3.org/1999/xlink"><svg width="24" height="24" fill="none" xmlns="http://www.w3.org/2000/svg"><path d="M17.707 2.487a1 1 0 010-1.414l.707-.707a1 1 0 011.414 0l.707.707a1 1 0 010 1.414l-.707.708a1 1 0 01-1.414 0l-.707-.708z" fill="#888E94"/><path fill-rule="evenodd" clip-rule="evenodd" d="M1.172 9.172l5.585-5.586a4 4 0 015.657 0L18 9.172a4 4 0 010 5.656l-5.586 5.586a4 4 0 01-5.657 0l-5.585-5.586a4 4 0 010-5.656zm2.12 2.121a1 1 0 000 1.414l5.587 5.586a1 1 0 001.414 0l5.586-5.586a1 1 0 000-1.414l-5.586-5.586a1 1 0 00-1.414 0l-5.586 5.586z" fill="#888E94"/><path d="M17.707 19.073a1 1 0 000 1.414l2.072 2.072a1 1 0 001.414 0l2.072-2.072a1 1 0 000-1.414l-2.072-2.072a1 1 0 00-1.414 0l-2.072 2.072z" fill="#888E94"/></svg><svg width="24" height="24" fill="none" x="24" xmlns="http://www.w3.org/2000/svg"><path d="M5.5 16a1.5 1.5 0 100-3 1.5 1.5 0 000 3zm13 0a1.5 1.5 0 100-3 1.5 1.5 0 000 3z" fill="#888E94"/><path fill-rule="evenodd" clip-rule="evenodd" d="M2.115 6.631A1.5 1.5 0 00.107 8.557l.587 1.467-.075.178A8 8 0 000 13.291v7.077a2 2 0 002 2h5.127a2 2 0 002-2v-.894h5.746v.894a2 2 0 002 2H22a2 2 0 002-2v-7.077c0-1.06-.21-2.11-.62-3.089l-.074-.177.587-1.468a1.5 1.5 0 00-2.007-1.925l-.91-2.176A4 4 0 0017.285 2H6.714a4 4 0 00-3.69 2.456l-.91 2.175zm4.014 12.737a3 3 0 012.998-2.894h5.746a3 3 0 012.998 2.894H21v-6.077c0-.437-.057-.871-.17-1.291H3.17A5 5 0 003 13.29v6.078h3.129zM4.375 9l1.417-3.386A1 1 0 016.715 5h10.57a1 1 0 01.923.614L19.625 9H4.375z" fill="#888E94"/></svg><svg width="24" height="24" fill="none" y="24" xmlns="http://www.w3.org/2000/svg"><path fill-rule="evenodd" clip-rule="evenodd" d="M11.272 11.239a1.5 1.5 0 011.648-1.336c.394.041.77.218 1 .337.286.15.6.35.915.594.616.479 1.329 1.206 1.768 2.173a1.5 1.5 0 11-2.732 1.24c-.176-.388-.507-.757-.878-1.045a3.16 3.16 0 00-.535-.338 1.5 1.5 0 01-1.186-1.625zm1.157 1.612l.002.001a.065.065 0 01-.002 0z" fill="#888E94"/><path fill-rule="evenodd" clip-rule="evenodd" d="M14 4.5a4.5 4.5 0 10-9 0v.9c0 .273.03.539.088.795A6.993 6.993 0 002 12v6a6 6 0 006 6h8c3.314 0 6-2.684 6-5.997V15c0-5.55-5.468-8.913-8-9.777V4.5zm-3.6-1.2a1.494 1.494 0 00-1.296-.247A1.498 1.498 0 008 4.5v.9a.6.6 0 00.6.6h1.8a.6.6 0 00.6-.6v-.9a1.5 1.5 0 00-.6-1.2zm2.477 4.713A3.588 3.588 0 0110.4 9H8.6c-.607 0-1.18-.15-1.682-.416A3.998 3.998 0 005 12v6a3 3 0 003 3h8c1.659 0 3-1.342 3-2.997V15c0-2.002-1.147-3.733-2.837-5.116a11.855 11.855 0 00-2.4-1.52 6.782 6.782 0 00-.886-.351z" fill="#888E94"/></svg><svg width="24" height="24" fill="none" x="24" y="24" xmlns="http://www.w3.org/2000/svg"><path fill-rule="evenodd" clip-rule="evenodd" d="M19 18V3.05a2.5 2.5 0 012 2.45V15a1.5 1.5 0 003 0V5.5A5.5 5.5 0 0018.5 0H4.722A4 4 0 00.776 4.658l1.142 6.852a6 6 0 01.082.987V18a6 6 0 006 6h5a6 6 0 006-6zM7 3H4.722a1 1 0 00-.987 1.164l1.142 6.853A9 9 0 015 12.497V18a3 3 0 003 3h5a3 3 0 003-3V3h-6v11.5a1.5 1.5 0 01-3 0V3z" fill="#888E94"/></svg><svg width="24" height="24" fill="none" x="48" xmlns="http://www.w3.org/2000/svg"><path fill-rule="evenodd" clip-rule="evenodd" d="M19 20v-6.917a1 1 0 00-.426-.82l-6-4.2a1 1 0 00-1.147 0l-6 4.2a1 1 0 00-.427.82V20a1 1 0 001 1h12a1 1 0 001-1zM3.706 9.806A4 4 0 002 13.083V20a4 4 0 004 4h12a4 4 0 004-4v-6.917a4 4 0 00-1.706-3.277l-6-4.2a4 4 0 00-4.588 0l-6 4.2z" fill="#888E94"/><path fill-rule="evenodd" clip-rule="evenodd" d="M13.434 3.834a2.5 2.5 0 00-2.867 0L2.86 9.23a1.5 1.5 0 11-1.72-2.46l7.706-5.394a5.5 5.5 0 016.308 0L22.86 6.77a1.5 1.5 0 11-1.72 2.458l-7.706-5.395z" fill="#888E94"/></svg><svg width="24" height="24" fill="none" x="48" y="24" xmlns="http://www.w3.org/2000/svg"><path fill-rule="evenodd" clip-rule="evenodd" d="M8.284 3.721C7.55 2.068 8.76.207 10.57.207h2.889c1.825 0 3.035 1.892 2.27 3.549l-2.262 4.89v1.3l.1.04 7.196 3.064c3.244 1.38 3.244 5.98 0 7.36l-7.197 3.064a4 4 0 01-3.133 0L3.236 20.41c-3.244-1.381-3.244-5.98 0-7.361l7.196-3.063.034-.014V8.635L8.284 3.72zm3.71.962l.682-1.476h-1.338l.656 1.476zm-.387 8.064L4.411 15.81c-.811.345-.811 1.495 0 1.84l7.196 3.063a1 1 0 00.784 0l5.793-2.466h-7.055a1.5 1.5 0 110-3h7.136l-5.874-2.5a1 1 0 00-.784 0z" fill="#888E94"/></svg><svg width="24" height="24" fill="none" y="48" xmlns="http://www.w3.org/2000/svg"><path fill-rule="evenodd" clip-rule="evenodd" d="M2.096 7.444A4.5 4.5 0 015.5 0h13a4.5 4.5 0 110 9H6a3 3 0 100 6h14.25a.75.75 0 000-1.5H6a1.5 1.5 0 010-3h14.25a3.75 3.75 0 012.178 6.803A4.5 4.5 0 0118.5 24h-13a4.5 4.5 0 01-3.404-7.444A5.987 5.987 0 010 12c0-1.823.813-3.456 2.096-4.556zM5.5 3h13a1.5 1.5 0 010 3h-13a1.5 1.5 0 110-3zm13 15a1.5 1.5 0 010 3h-13a1.5 1.5 0 010-3h13z" fill="#888E94"/></svg><svg width="24" height="24" fill="none" x="24" y="48" xmlns="http://www.w3.org/2000/svg"><path fill-rule="evenodd" clip-rule="evenodd" d="M15 3H9a4 4 0 00-4 4v10a4 4 0 004 4h6a4 4 0 004-4V7a4 4 0 00-4-4zM9 0a7 7 0 00-7 7v10a7 7 0 007 7h6a7 7 0 007-7V7a7 7 0 00-7-7H9z" fill="#888E94"/><path d="M7 7a2 2 0 114 0v2a2 2 0 11-4 0V7z" fill="#888E94"/></svg><svg width="24" height="24" fill="none" x="48" y="48" xmlns="http://www.w3.org/2000/svg"><path fill-rule="evenodd" clip-rule="evenodd" d="M8.001 8.001c-2.606 2.607-3.986 5.01-4.72 6.838-.716 1.782.015 3.864 1.764 5.614l.808.808a1.5 1.5 0 11-2.12 2.121l-.81-.808C.752 20.4-.854 17.086.498 13.72c.885-2.202 2.49-4.947 5.383-7.84s5.638-4.498 7.84-5.383c3.366-1.352 6.68.254 8.854 2.427l.808.808a1.5 1.5 0 11-2.121 2.121l-.808-.808c-1.75-1.75-3.832-2.48-5.614-1.764C13.01 4.015 10.608 5.395 8 8z" fill="#888E94"/><path fill-rule="evenodd" clip-rule="evenodd" d="M4.51 15.82a1.5 1.5 0 012.122 0l2.33 2.33a1.5 1.5 0 01-2.121 2.122l-2.33-2.33a1.5 1.5 0 010-2.122zM15.896 4.435a1.5 1.5 0 012.121 0l2.33 2.33a1.5 1.5 0 11-2.12 2.12l-2.33-2.33a1.5 1.5 0 010-2.12zM6.344 12.03a1.5 1.5 0 012.122 0l3.308 3.308a1.5 1.5 0 11-2.122 2.121l-3.308-3.308a1.5 1.5 0 010-2.12zm2.359-3.326a1.5 1.5 0 012.121 0l3.792 3.792a1.5 1.5 0 11-2.121 2.121l-3.792-3.792a1.5 1.5 0 010-2.121zm3.365-2.397a1.5 1.5 0 012.12 0l3.309 3.308a1.5 1.5 0 01-2.121 2.121l-3.308-3.308a1.5 1.5 0 010-2.121z" fill="#888E94"/></svg><svg width="24" height="24" fill="none" x="72" xmlns="http://www.w3.org/2000/svg"><path fill-rule="evenodd" clip-rule="evenodd" d="M13.373 12.522a5.984 5.984 0 004.566-2.11 4.177 4.177 0 003.46-2.651H22.5a1.5 1.5 0 000-3h-1.1a4.177 4.177 0 00-3.46-2.652A5.984 5.984 0 0013.372 0H4.998A5 5 0 000 5v2.522c0 1.762.911 3.31 2.288 4.201.044.251.087.519.126.8.112.808.194 1.73.194 2.695 0 1.45-.232 3.484-.477 5.23C1.871 22.301 3.29 24 5.162 24h.696A3.999 3.999 0 009.7 21.108l2.475-8.586h1.198zm0-9.522H4.998a2 2 0 00-1.985 1.761h2.56a1.5 1.5 0 010 3h-2.56a2 2 0 001.985 1.76h8.375c.457 0 .89-.102 1.278-.285a3.497 3.497 0 01-.868-2.31v-1.33c0-.885.327-1.693.868-2.31A2.987 2.987 0 0013.373 3zm-7.935 9.523c.1.82.17 1.734.17 2.695 0 1.678-.26 3.893-.507 5.646a.135.135 0 00.004.06.14.14 0 00.03.055c.01.013.02.019.022.021h.701a1 1 0 00.96-.723l2.236-7.754H5.438zm12.066-7.436h-.213a.51.51 0 00-.51.51v1.328c0 .282.229.51.51.51h.213a1.174 1.174 0 000-2.348z" fill="#888E94"/></svg><svg width="24" height="24" fill="none" x="72" y="24" xmlns="http://www.w3.org/2000/svg"><path fill-rule="evenodd" clip-rule="evenodd" d="M18.07 4.287a5.114 5.114 0 00-7.231 0l-5.917 5.917A1.395 1.395 0 012.95 8.232l5.917-5.917A7.903 7.903 0 1120.043 13.49l-8.875 8.875a5.578 5.578 0 01-7.89-7.889l8.876-8.875a3.254 3.254 0 014.602 4.602l-5.26 5.26a1.395 1.395 0 01-1.972-1.973l5.26-5.26a.465.465 0 10-.658-.657L5.25 16.45a2.79 2.79 0 003.944 3.945l8.875-8.875a5.114 5.114 0 000-7.232z" fill="#888E94"/></svg><svg width="24" height="24" fill="none" x="72" y="48" xmlns="http://www.w3.org/2000/svg"><path fill-rule="evenodd" clip-rule="evenodd" d="M10.45 6.045a1.55 1.55 0 012.739-.992 1.5 1.5 0 102.303-1.923 4.55 4.55 0 10-4.991 7.212v.974L.552 19.867a1.5 1.5 0 00.978 2.637h20.937a1.5 1.5 0 00.977-2.637L13.5 11.316V9.24c0-.03 0-.061-.002-.091v-.055a1.5 1.5 0 00-1.5-1.5 1.55 1.55 0 01-1.549-1.549zm-4.873 13.46L12 13.982l6.422 5.521H5.577z" fill="#888E94"/></svg><svg width="24" height="24" fill="none" y="72" xmlns="http://www.w3.org/2000/svg"><path d="M0 3.5A1.5 1.5 0 011.5 2h21a1.5 1.5 0 010 3h-21A1.5 1.5 0 010 3.5zM0 12a1.5 1.5 0 011.5-1.5h21a1.5 1.5 0 010 3h-21A1.5 1.5 0 010 12zm24 8.5a1.5 1.5 0 00-1.5-1.5h-21a1.5 1.5 0 000 3h21a1.5 1.5 0 001.5-1.5z" fill="#888E94"/></svg><svg width="24" height="24" fill="none" x="24" y="72" xmlns="http://www.w3.org/2000/svg"><path d="M7.5 12a1.5 1.5 0 100-3 1.5 1.5 0 000 3zm7.5 1.5a1.5 1.5 0 11-3 0 1.5 1.5 0 013 0zM14.5 9a1.5 1.5 0 100-3 1.5 1.5 0 000 3z" fill="#888E94"/><path fill-rule="evenodd" clip-rule="evenodd" d="M23 11c0 2.617-.914 5.02-2.44 6.908.177.23.311.45.403.633.43.855 1.048 3.2-.995 4.733a3.633 3.633 0 01-2.18.726H6.21a3.633 3.633 0 01-2.18-.726c-2.042-1.532-1.424-3.878-.994-4.733a4.07 4.07 0 01.402-.634A10.954 10.954 0 011 11C1 4.925 5.925 0 12 0s11 4.925 11 11zM12 3a8 8 0 015.946 13.352 3.705 3.705 0 00-1.179.074C15.277 16.754 13.61 17 12 17c-1.61 0-3.277-.246-4.768-.574a3.703 3.703 0 00-1.178-.074A8 8 0 0112 3zm5.412 16.356c-1.521.335-3.282.608-5.057.64A19.12 19.12 0 0112 20h-.022l-.333-.003a23.73 23.73 0 01-3.148-.283 30.184 30.184 0 01-1.91-.358.596.596 0 00-.128-.014c-.347 0-.655.305-.79.655-.124.32-.104.677.161.877.11.082.243.126.38.126h11.578c.137 0 .27-.044.38-.126.485-.364.153-1.256-.38-1.48a.637.637 0 00-.376-.038z" fill="#888E94"/></svg><svg width="24" height="24" fill="none" x="48" y="72" xmlns="http://www.w3.org/2000/svg"><path fill-rule="evenodd" clip-rule="evenodd" d="M5.543 5c-.97-2.1.36-5 3.19-5h6.415c2.823 0 4.164 2.896 3.19 5H20.5A3.5 3.5 0 0124 8.5V10a3.5 3.5 0 01-2 3.163V20.5a3.5 3.5 0 01-3.5 3.5h-13A3.5 3.5 0 012 20.5v-7.337A3.5 3.5 0 010 10V8.5A3.5 3.5 0 013.5 5h2.043zM10.5 8h-7a.5.5 0 00-.5.5V10a.5.5 0 00.5.5h7V8zm0 5.5H5v7a.5.5 0 00.5.5h5v-7.5zm3 7.5v-7.5H19v7a.5.5 0 01-.5.5h-5zm0-10.5V8h7a.5.5 0 01.5.5V10a.5.5 0 01-.5.5h-7zm0-5.661l1.863-.888c.158-.075.22-.162.25-.231a.536.536 0 00.023-.33.536.536 0 00-.163-.288c-.057-.05-.15-.102-.325-.102H13.5v1.839zM10.5 3H8.733c-.178 0-.27.054-.327.103a.537.537 0 00-.161.291.537.537 0 00.026.332c.031.068.093.156.255.23l1.974.896V3z" fill="#888E94"/></svg><svg width="24" height="24" fill="none" x="72" y="72" xmlns="http://www.w3.org/2000/svg"><path fill-rule="evenodd" clip-rule="evenodd" d="M3 .544a1.5 1.5 0 011.5 1.5V8.8c0 .817.393 1.544 1 2V2.58a1.5 1.5 0 013 0v8.22c.607-.456 1-1.183 1-2V2.044a1.5 1.5 0 013 0V8.8a5.502 5.502 0 01-4 5.292v8.388a1.5 1.5 0 11-3 0v-8.388a5.502 5.502 0 01-4-5.292V2.044A1.5 1.5 0 013 .544zm16.5 8.294l-1.154 3.302a.5.5 0 00.472.665h.682V8.838zm0 6.967v6.675a1.5 1.5 0 103 0V2.946c0-2.252-3.145-2.786-3.888-.66l-3.098 8.865c-.796 2.275.893 4.654 3.304 4.654h.682z" fill="#888E94"/></svg><svg width="24" height="24" fill="none" x="96" xmlns="http://www.w3.org/2000/svg"><path fill-rule="evenodd" clip-rule="evenodd" d="M11.242 4.01l6.84-1.026a1.5 1.5 0 10-.446-2.967L6.264 1.723l-.989.149a5 5 0 00-4.203 5.686 4.002 4.002 0 001.091 2.2L.108 18.492a4 4 0 003.894 4.916H7.18a4 4 0 003.993-3.765l.076-1.294a1 1 0 01.998-.941h9.704a2 2 0 002-2v-2c0-2.21-1-3.5-4-3.916-1.176-.163-3.31-.365-5.269-.55-1.272-.12-2.47-.234-3.282-.325.479-.776.696-1.72.55-2.692a4.983 4.983 0 00-.708-1.916zm-4.533.68l-.989.148a2 2 0 00-1.68 2.276 1 1 0 001.137.84l2.967-.444a1 1 0 00.84-1.138 2 2 0 00-2.274-1.68zm-3.68 14.49l1.932-8.215c.218.003.438-.011.66-.044l2.509-.377a3.97 3.97 0 001.976.93c.601.1 2.268.258 4.094.43 1.976.188 4.139.394 5.339.56.922.128 1.265.32 1.354.38.023.07.058.236.058.565v1h-8.704a4 4 0 00-3.993 3.765l-.076 1.294a1 1 0 01-.998.94H4.002a1 1 0 01-.974-1.228zm17.844-6.38s.006.006.013.025a.105.105 0 01-.013-.025z" fill="#888E94"/></svg><svg width="24" height="24" fill="none" x="96" y="24" xmlns="http://www.w3.org/2000/svg"><path fill-rule="evenodd" clip-rule="evenodd" d="M24 12c0 6.627-5.373 12-12 12S0 18.627 0 12 5.373 0 12 0s12 5.373 12 12zm-3 0c0 1.188-.23 2.322-.648 3.36-.044-1.145-.293-2.32-.863-3.378a1.5 1.5 0 10-2.642 1.42c.489.909.617 2.147.429 3.446-.19 1.3-.664 2.439-1.124 3.066a1.489 1.489 0 00-.075.112c-.254.13-.515.247-.782.352a9.27 9.27 0 00.552-5.047 1.5 1.5 0 00-2.96.487c.395 2.402-.62 4.221-1.398 5.168a8.98 8.98 0 01-6.284-3.084 7.99 7.99 0 004.02.138 1.5 1.5 0 10-.634-2.932c-2.566.553-4.679-.885-5.575-2.566a9.004 9.004 0 016.81-9.278C8.015 4.583 6.494 6.63 5.794 9.622a1.5 1.5 0 102.92.683c1.145-4.887 5.17-6.267 7.929-6.017.287.174.565.363.83.567a8.434 8.434 0 00-2.4.616c-2.011.859-3.674 2.588-4.321 5.384a1.5 1.5 0 102.923.676c.429-1.854 1.437-2.815 2.576-3.301 1.164-.496 2.568-.535 3.796-.264A8.962 8.962 0 0121 12z" fill="#888E94"/></svg><svg width="24" height="24" fill="none" x="96" y="48" xmlns="http://www.w3.org/2000/svg"><path fill-rule="evenodd" clip-rule="evenodd" d="M6.62 2.406a1.5 1.5 0 011.412-.996h7.915a1.5 1.5 0 011.412.993l6.531 18.18a1.5 1.5 0 01-1.411 2.007H1.539a1.5 1.5 0 01-1.413-2.004L6.62 2.406zm1.348 5.143l3.93 12.041h-8.23l4.3-12.04zm7.085 12.041h5.293L14.892 4.41h-4.793l4.954 15.18z" fill="#888E94"/></svg></svg>