<svg width="419" height="200" fill="none" xmlns="http://www.w3.org/2000/svg"><rect width="419" height="200" rx="12" fill="#F6F8FA"/><path fill-rule="evenodd" clip-rule="evenodd" d="M129 162a7 7 0 100-14 7 7 0 000 14zm0 4c6.075 0 11-4.925 11-11s-4.925-11-11-11-11 4.925-11 11 4.925 11 11 11z" fill="#DEE1E5"/><path fill-rule="evenodd" clip-rule="evenodd" d="M129 162.5a2.5 2.5 0 012.5 2.5v8.5a2.5 2.5 0 11-5 0V165a2.5 2.5 0 012.5-2.5z" fill="#DEE1E5"/><circle cx="40.571" cy="171.809" r="4.19" fill="#DEE1E5"/><circle cx="54.286" cy="171.809" r="4.19" fill="#DEE1E5"/><path fill-rule="evenodd" clip-rule="evenodd" d="M27.523 146.286a2 2 0 012-2h4.429a2 2 0 011.917 1.43l4.741 15.941h14.342v-2.4H44a2 2 0 110-4h10.952v-2.4H42.166a2 2 0 110-4h14.786a2 2 0 012 2v12.8a2 2 0 01-2 2H40.237l-.912 1.486h17.627a2 2 0 110 4H35.75a2 2 0 01-1.705-3.047l2.902-4.725-4.487-15.085h-2.937a2 2 0 01-2-2zm273.066 24.877C304.265 167.358 308 162.087 308 157a9 9 0 00-9-9 9 9 0 00-9 9c0 5.087 3.735 10.358 7.411 14.163.912.944 2.266.944 3.178 0zm2.877 2.779C307.227 170.049 312 163.774 312 157c0-7.18-5.82-13-13-13s-13 5.82-13 13c0 6.774 4.773 13.049 8.534 16.942 2.485 2.572 6.447 2.572 8.932 0z" fill="#DEE1E5"/><circle cx="299" cy="157" r="3" fill="#DEE1E5"/><circle cx="384" cy="160" r="14" stroke="#DEE1E5" stroke-width="4"/><path d="M380.5 146.5c3 3.5 1.5 8-1 9s-4.5 2.5-7.5-1m0 8c3-1.5 7-1 7 2.5 0 2.8-1 5.5 0 7.5m18-15c-6-1.5-10.5.5-10 2.5s3.106 4.211 4 6c.5 1 2 4.5-2 7" stroke="#DEE1E5" stroke-width="4" stroke-linecap="round"/><path fill-rule="evenodd" clip-rule="evenodd" d="M198 149.784c0-.876.57-1.651 1.407-1.91l6.888-2.138a8.007 8.007 0 014.743 0l7.703 2.39c.386.12.799.12 1.185 0l7.481-2.321a2 2 0 012.593 1.91v22.501c0 .876-.57 1.651-1.407 1.91l-6.888 2.138a8.007 8.007 0 01-4.743 0l-7.703-2.39a1.995 1.995 0 00-1.185 0l-7.481 2.321a2 2 0 01-2.593-1.91v-22.501zm4 19.786v-18.313l5-1.552v18.315l-.112.033L202 169.57zm9-1.344l6 1.862v-18.314l-6-1.862v18.314zm10-16.246v18.315l5-1.552V150.43l-4.888 1.517-.112.033zM42.996 24.27a2 2 0 012.008 0l14 8.13A2 2 0 0160 34.129v11.742a2 2 0 01-.996 1.73l-14 8.129a2 2 0 01-2.008 0l-14-8.13A2 2 0 0128 45.871V34.129a2 2 0 01.996-1.73l14-8.129zM32 37.603v7.117l10 5.806v-7.117l-3-1.742V43a2 2 0 11-4 0v-3.655l-3-1.742zm8.983.59L44 39.946l10.017-5.816L51 32.377l-10.017 5.816zm6.034-8.128L44 28.313l-10.017 5.816L37 35.881l10.017-5.817zM56 37.602l-10 5.806v7.117l10-5.806v-7.117zM373 102v2h22v-2h-22zm22-4h-22v-2h22v2zm0-6v-2h-22v2h22zm0 16h-22v2h22v-2zm-22-22h22a4 4 0 014 4v20a4 4 0 01-4 4h-22a4 4 0 01-4-4V90a4 4 0 014-4zM208 32.5a2 2 0 01-2-2V29a3 3 0 00-3 3v2h22v-2a3 3 0 00-3-3v1.5a2 2 0 11-4 0V29h-8v1.5a2 2 0 01-2 2zm14-7.5a7 7 0 017 7v16a7 7 0 01-7 7h-16a7 7 0 01-7-7V32a7 7 0 017-7h16zm-19 13v10a3 3 0 003 3h16a3 3 0 003-3V38h-22zM44 88a6 6 0 016 6H38a6 6 0 016-6zm-10 6c0-5.523 4.477-10 10-10s10 4.477 10 10h1.084a4 4 0 013.917 4.814l-2.91 14A4 4 0 0152.176 116H35.827a4 4 0 01-3.917-3.186l-2.909-14A4 4 0 0132.917 94H34zm20 4H32.917l2.91 14h16.348l2.91-14H54zm73.586-73.414a2 2 0 012.828 0c.514.513 1.401 1.084 2.594 1.659 1.163.56 2.483 1.06 3.749 1.483a54.263 54.263 0 004.591 1.3l.068.016.015.003h.003A2 2 0 01143 31v9.498c0 3.258-.841 6.73-3.216 9.412-1.179 1.332-2.709 2.824-4.49 3.994C133.52 55.071 131.372 56 129 56c-2.372 0-4.52-.93-6.294-2.096-1.781-1.17-3.311-2.662-4.49-3.994-2.375-2.682-3.216-6.154-3.216-9.412V31a2 2 0 011.566-1.952l.003-.001.015-.003.068-.016.273-.064a54.263 54.263 0 004.318-1.236c1.266-.422 2.586-.923 3.749-1.483 1.193-.575 2.08-1.146 2.594-1.66zM119 32.565v7.933c0 2.63.683 5.035 2.211 6.76 1.043 1.179 2.309 2.395 3.693 3.304a9.822 9.822 0 002.096 1.07V36a2 2 0 114 0v15.632a9.822 9.822 0 002.096-1.07c1.384-.91 2.65-2.125 3.693-3.303 1.528-1.726 2.211-4.13 2.211-6.76v-7.934a58.251 58.251 0 01-3.507-1.043c-1.359-.453-2.851-1.014-4.22-1.673-.775-.373-1.559-.8-2.273-1.285-.714.485-1.498.912-2.273 1.285-1.369.659-2.861 1.22-4.22 1.673A58.093 58.093 0 01119 32.565zM304 35v-2a5 5 0 00-10 0v2h10zm-14-2v2h-.5a3.5 3.5 0 00-3.5 3.5V43c0 7.18 5.82 13 13 13s13-5.82 13-13v-4.5a3.5 3.5 0 00-3.5-3.5h-.5v-2a9 9 0 00-9-9 9 9 0 00-9 9zm0 10v-4h18v4a9 9 0 01-9 9 9 9 0 01-9-9zm9 6a3 3 0 100-6 3 3 0 000 6zm99.702-21.127a2 2 0 10-1.404-3.745l-4 1.5A2 2 0 00392 27.5V45h-22a2 2 0 100 4h24a2 2 0 002-2V28.886l2.702-1.013zM377 53a3 3 0 11-6 0 3 3 0 016 0zm18 0a3 3 0 11-6 0 3 3 0 016 0z" fill="#DEE1E5"/></svg>