<svg width="419" height="200" fill="none" xmlns="http://www.w3.org/2000/svg"><rect width="419" height="200" rx="12" fill="#F6F8FA"/><path d="M36 160a2 2 0 10.001-4 2 2 0 000 4zm10 2a2 2 0 11-3.999 0 2 2 0 014 0zm-.666-6a2 2 0 100-4 2 2 0 000 4z" fill="#DEE1E5"/><path fill-rule="evenodd" clip-rule="evenodd" d="M56.667 158.667c0 3.488-1.218 6.693-3.252 9.21.235.307.414.601.536.844.574 1.14 1.398 4.267-1.326 6.31a4.844 4.844 0 01-2.907.969H34.281a4.844 4.844 0 01-2.906-.969c-2.724-2.043-1.9-5.17-1.327-6.31.123-.244.302-.538.537-.845a14.603 14.603 0 01-3.251-9.209c0-8.101 6.567-14.667 14.667-14.667s14.666 6.566 14.666 14.667zM42.001 148c5.89 0 10.666 4.776 10.666 10.667 0 2.743-1.036 5.245-2.738 7.135a4.958 4.958 0 00-1.572.099c-1.987.437-4.21.766-6.357.766-2.147 0-4.37-.329-6.358-.766a4.947 4.947 0 00-1.57-.099 10.627 10.627 0 01-2.738-7.135c0-5.891 4.776-10.667 10.667-10.667zm7.216 21.808c-2.029.446-4.376.81-6.743.854-.158.003-.316.005-.473.005h-.03a31.44 31.44 0 01-4.64-.382 39.304 39.304 0 01-2.547-.477.775.775 0 00-.172-.019c-.463 0-.873.406-1.053.873-.165.426-.139.903.216 1.169.146.11.324.169.506.169h15.437c.183 0 .36-.059.507-.169.646-.485.204-1.674-.507-1.973a.854.854 0 00-.33-.069.775.775 0 00-.171.019zm72.829-20.846c-.979-2.204.635-4.686 3.046-4.686h3.852c2.434 0 4.047 2.523 3.026 4.732l-3.015 6.521v1.733l.132.054 9.595 4.084c4.327 1.841 4.327 7.973 0 9.814l-9.595 4.084a5.333 5.333 0 01-4.177 0l-9.595-4.084c-4.326-1.841-4.326-7.973 0-9.814l9.595-4.084.045-.019v-1.784l-2.909-6.551zm4.946 1.282l.909-1.968h-1.783l.874 1.968zm-.515 10.752l-9.596 4.084c-1.081.46-1.081 1.993 0 2.454l9.596 4.084c.333.142.71.142 1.044 0l7.724-3.288h-9.406a2 2 0 110-4h9.515l-7.833-3.334a1.333 1.333 0 00-1.044 0zM200 144.725a2 2 0 012 2v9.008c0 1.09.524 2.058 1.333 2.667v-10.958a2 2 0 014 0V158.4a3.33 3.33 0 001.334-2.667v-9.008a2 2 0 114 0v9.008a7.338 7.338 0 01-5.334 7.057v11.183a2 2 0 11-4 0V162.79a7.337 7.337 0 01-5.333-7.057v-9.008a2 2 0 012-2zm22 11.059l-1.539 4.403a.666.666 0 00.629.887h.91v-5.29zm0 9.29v8.899a2 2 0 104 0v-26.045c0-3.003-4.193-3.715-5.184-.88l-4.131 11.819c-1.06 3.034 1.191 6.207 4.405 6.207h.91zm73.99-15.728l9.119-1.368a2 2 0 10-.594-3.956l-15.163 2.276-1.319.198a6.666 6.666 0 00-5.603 7.582 5.334 5.334 0 001.455 2.932l-2.741 11.647c-.788 3.348 1.753 6.555 5.192 6.555h4.237a5.333 5.333 0 005.324-5.02l.102-1.725a1.333 1.333 0 011.331-1.255h12.938a2.667 2.667 0 002.667-2.667v-2.667c0-2.945-1.333-4.666-5.333-5.221-1.568-.218-4.415-.487-7.026-.733-1.697-.161-3.294-.312-4.376-.433a5.308 5.308 0 00.734-3.59 6.656 6.656 0 00-.944-2.555zm-6.045.907l-1.318.198a2.668 2.668 0 00-2.242 3.033c.11.728.789 1.23 1.517 1.121l3.956-.594a1.332 1.332 0 001.12-1.516 2.667 2.667 0 00-3.033-2.242zm-4.907 19.32l2.577-10.953c.29.004.584-.015.88-.059l3.345-.502a5.29 5.29 0 002.635 1.241c.802.131 3.024.342 5.458.573 2.635.25 5.519.524 7.119.746 1.229.17 1.687.426 1.805.505.031.094.078.315.078.754v1.334H297.33a5.334 5.334 0 00-5.325 5.02l-.101 1.725a1.333 1.333 0 01-1.331 1.255h-4.237c-.86 0-1.495-.802-1.298-1.639zm23.793-8.506s.008.008.017.032c-.013-.019-.017-.032-.017-.032zM397 161c0 8.837-7.164 16-16 16-8.837 0-16-7.163-16-16 0-8.836 7.163-16 16-16 8.836 0 16 7.164 16 16zm-4 0c0 1.584-.307 3.097-.865 4.481-.058-1.528-.39-3.094-1.149-4.506a2.001 2.001 0 00-3.523 1.895c.652 1.211.823 2.862.571 4.594-.252 1.734-.885 3.252-1.498 4.087a2.057 2.057 0 00-.1.15c-.339.172-.687.329-1.043.469a12.361 12.361 0 00.736-6.729 2 2 0 00-3.947.65c.528 3.203-.827 5.628-1.863 6.89a11.974 11.974 0 01-8.379-4.112c1.612.484 3.422.602 5.359.184a2 2 0 00-.844-3.91c-3.421.739-6.238-1.179-7.434-3.42-.014-.239-.021-.48-.021-.723 0-5.628 3.874-10.351 9.102-11.648-2.416 1.759-4.443 4.487-5.377 8.477a2 2 0 103.895.911c1.525-6.516 6.892-8.357 10.57-8.022.384.231.754.484 1.108.755a11.273 11.273 0 00-3.2.822c-2.682 1.145-4.899 3.45-5.762 7.178a2 2 0 103.897.902c.572-2.472 1.916-3.753 3.435-4.402 1.551-.661 3.424-.713 5.062-.352A11.959 11.959 0 01393 161zM136.333 48V28.067A3.334 3.334 0 01139 31.334V44a2 2 0 104 0V31.334A7.333 7.333 0 00135.667 24h-18.371c-3.296 0-5.803 2.96-5.261 6.21l1.523 9.137c.072.435.108.875.108 1.315V48a8 8 0 008 8h6.667a8 8 0 008-8zm-16-20h-3.037c-.824 0-1.451.74-1.316 1.553l1.523 9.137c.109.652.163 1.311.163 1.972V48a4 4 0 004 4h6.667a4 4 0 004-4V28h-8v15.334a2 2 0 11-4 0V28zm90.695 10.986a2 2 0 012.197-1.781c.527.055 1.028.29 1.334.449.381.198.801.466 1.22.791.821.639 1.772 1.609 2.357 2.898a2 2 0 11-3.642 1.654c-.235-.518-.676-1.01-1.17-1.394a4.243 4.243 0 00-.614-.402 2.094 2.094 0 00-.1-.05 2 2 0 01-1.582-2.166zm1.543 2.15h.003c-.013-.004-.014-.005-.003 0z" fill="#DEE1E5"/><path fill-rule="evenodd" clip-rule="evenodd" d="M214.666 30a6 6 0 10-12 0v1.2c0 .364.041.719.117 1.06a9.323 9.323 0 00-4.117 7.74v8a8 8 0 008 8h10.667c4.418 0 8-3.578 8-7.996V44c0-7.4-7.291-11.884-10.667-13.036V30zm-4.8-1.6a1.994 1.994 0 00-2.4 0c-.486.365-.8.946-.8 1.6v1.2a.8.8 0 00.8.8h2.4a.8.8 0 00.8-.8V30c0-.654-.314-1.235-.8-1.6zm3.302 6.284A4.783 4.783 0 01209.866 36h-2.4c-.81 0-1.573-.2-2.242-.554A5.33 5.33 0 00202.666 40v8a4 4 0 004 4h10.667c2.211 0 4-1.79 4-3.996V44c0-2.67-1.53-4.977-3.783-6.82a15.818 15.818 0 00-3.2-2.029 9.118 9.118 0 00-1.115-.447l-.067-.02zm78.501-.015c-3.476 3.475-5.316 6.68-6.295 9.116-.954 2.376.02 5.153 2.353 7.485l1.078 1.078a2 2 0 11-2.829 2.828l-1.078-1.077c-2.897-2.898-5.038-7.317-3.235-11.805 1.179-2.936 3.319-6.596 7.177-10.453 3.858-3.858 7.518-5.998 10.454-7.178 4.488-1.803 8.907.338 11.804 3.236l1.078 1.078a2 2 0 01-2.828 2.828l-1.078-1.078c-2.333-2.332-5.109-3.307-7.485-2.352-2.436.979-5.641 2.819-9.116 6.294z" fill="#DEE1E5"/><path fill-rule="evenodd" clip-rule="evenodd" d="M287.014 45.094a2 2 0 012.829 0l3.106 3.107a2 2 0 01-2.828 2.828l-3.107-3.107a2 2 0 010-2.828zm15.181-15.181a2 2 0 012.828 0l3.107 3.107a2 2 0 01-2.828 2.828l-3.107-3.106a2 2 0 010-2.829zM289.459 40.04a2 2 0 012.829 0l4.41 4.411a2 2 0 01-2.828 2.829l-4.411-4.411a2 2 0 010-2.828zm3.145-4.434a2 2 0 012.828 0l5.056 5.056a2 2 0 01-2.828 2.828l-5.056-5.056a2 2 0 010-2.828zm4.486-3.196a2 2 0 012.828 0l4.411 4.41a2 2 0 01-2.828 2.829l-4.411-4.41a2 2 0 010-2.83zm94.243 18.257v-9.223c0-.435-.212-.843-.569-1.093l-8-5.6a1.333 1.333 0 00-1.529 0l-8 5.6c-.357.25-.569.658-.569 1.093v9.223c0 .736.597 1.333 1.334 1.333h16c.736 0 1.333-.597 1.333-1.333zm-20.392-13.593a5.333 5.333 0 00-2.275 4.37v9.223A5.334 5.334 0 00374 56h16a5.333 5.333 0 005.333-5.333v-9.223c0-1.74-.849-3.372-2.275-4.37l-8-5.6a5.333 5.333 0 00-6.117 0l-8 5.6z" fill="#DEE1E5"/><path fill-rule="evenodd" clip-rule="evenodd" d="M383.911 29.113a3.333 3.333 0 00-3.823 0l-10.275 7.192a2 2 0 11-2.294-3.277l10.275-7.192a7.334 7.334 0 018.411 0l10.275 7.192a2 2 0 11-2.294 3.277l-10.275-7.192zm-15.116 64.812A6 6 0 01373.333 84h17.334a6 6 0 010 12H374a4 4 0 000 8h19a1 1 0 100-2h-19a2 2 0 110-4h19a5 5 0 012.904 9.071 6 6 0 01-5.237 8.929h-17.334a6 6 0 01-4.538-9.924A7.984 7.984 0 01366 100a7.982 7.982 0 012.795-6.075zM373.333 88h17.334a2 2 0 010 4h-17.334a2 2 0 010-4zm17.334 20a2 2 0 010 4h-17.334a2 2 0 010-4h17.334zM43.83 100.696a7.98 7.98 0 006.089-2.813 5.569 5.569 0 004.613-3.535h1.469a2 2 0 000-4h-1.469a5.569 5.569 0 00-4.613-3.535A7.979 7.979 0 0043.83 84H32.665A6.666 6.666 0 0026 90.667v3.362a6.662 6.662 0 003.05 5.602c.06.335.116.692.168 1.066.15 1.078.26 2.306.26 3.594 0 1.933-.31 4.645-.636 6.972-.347 2.473 1.544 4.737 4.04 4.737h.929a5.332 5.332 0 005.123-3.855l3.3-11.449h1.596zm0-12.696H32.665a2.667 2.667 0 00-2.647 2.348h3.411a2 2 0 010 4h-3.411a2.667 2.667 0 002.647 2.348H43.83c.61 0 1.188-.136 1.705-.38a4.662 4.662 0 01-1.158-3.082v-1.772a4.66 4.66 0 011.158-3.081A3.983 3.983 0 0043.83 88zm-10.58 12.697a29.85 29.85 0 01.226 3.594c0 2.237-.346 5.191-.674 7.528a.182.182 0 00.005.081.215.215 0 00.04.073.106.106 0 00.03.027h.934c.594 0 1.116-.393 1.28-.964l2.98-10.339h-4.82zm16.089-9.914h-.284a.68.68 0 00-.68.679v1.772c0 .375.305.68.68.68h.284a1.565 1.565 0 000-3.131z" fill="#DEE1E5"/><path d="M33.333 45.334a2 2 0 100-4 2 2 0 000 4zm17.334 0a2 2 0 100-4 2 2 0 000 4z" fill="#DEE1E5"/><path fill-rule="evenodd" clip-rule="evenodd" d="M28.82 32.842a2 2 0 00-2.676 2.568l.782 1.956-.1.237A10.666 10.666 0 0026 41.721v9.437a2.667 2.667 0 002.667 2.667h6.836a2.667 2.667 0 002.667-2.667v-1.193h7.66v1.193a2.667 2.667 0 002.667 2.667h6.836A2.667 2.667 0 0058 51.158v-9.437c0-1.414-.281-2.813-.827-4.118l-.099-.236.784-1.957a2 2 0 00-2.677-2.568l-1.214-2.9a5.333 5.333 0 00-4.92-3.275H34.953a5.333 5.333 0 00-4.92 3.274l-1.214 2.901zm5.352 16.983a4 4 0 013.998-3.86h7.66a4 4 0 013.998 3.86H54V41.72c0-.582-.076-1.16-.226-1.72H30.226A6.665 6.665 0 0030 41.72v8.104h4.172zM31.834 36l1.89-4.515a1.333 1.333 0 011.23-.818h14.093c.537 0 1.022.323 1.23.818L52.167 36H31.833z" fill="#DEE1E5"/></svg>