<svg width="418" height="200" fill="none" xmlns="http://www.w3.org/2000/svg"><rect width="418" height="200" rx="12" fill="#F6F8FA"/><path fill-rule="evenodd" clip-rule="evenodd" d="M49.014 37.9L36.606 50.306a2 2 0 01-2.829 0l-5.192-5.192a2 2 0 010-2.828l12.407-12.407a3 3 0 012.514-.853l4.857.642a1 1 0 01.86.86l.642 4.857a3 3 0 01-.852 2.515zm-10.85-10.85a7 7 0 015.867-1.99l4.857.642a5 5 0 014.302 4.302l.642 4.857a7 7 0 01-1.99 5.867L39.435 53.135a6 6 0 01-8.485 0l-5.193-5.192a6 6 0 010-8.486L38.164 27.05zm6.852 9.315a2.5 2.5 0 100-5 2.5 2.5 0 000 5zM124 29.468l-2.446 3.934a7.066 7.066 0 01-4.307 3.129l-4.497 1.11 2.986 3.542a7.066 7.066 0 011.645 5.063l-.334 4.62 4.291-1.745a7.067 7.067 0 015.324 0l4.291 1.745-.334-4.62a7.066 7.066 0 011.645-5.063l2.986-3.542-4.497-1.11a7.066 7.066 0 01-4.307-3.13L124 29.469zm2.604-3.387c-1.2-1.93-4.008-1.93-5.208 0l-3.239 5.209a3.064 3.064 0 01-1.869 1.358l-5.955 1.47c-2.206.545-3.073 3.216-1.609 4.953l3.953 4.69c.516.611.772 1.4.714 2.197l-.441 6.118c-.164 2.266 2.108 3.917 4.213 3.061l5.682-2.31a3.066 3.066 0 012.31 0l5.682 2.31c2.105.856 4.377-.795 4.213-3.06l-.441-6.119a3.061 3.061 0 01.714-2.197l3.953-4.69c1.464-1.737.597-4.408-1.609-4.953l-5.955-1.47a3.064 3.064 0 01-1.869-1.358l-3.239-5.21zM201 34a2 2 0 100-4 2 2 0 000 4zm0 4a6 6 0 100-12 6 6 0 000 12zm16 12a2 2 0 100-4 2 2 0 000 4zm0 4a6 6 0 100-12 6 6 0 000 12zm4.414-26.414a2 2 0 010 2.828l-22 22a2 2 0 11-2.828-2.828l22-22a2 2 0 012.828 0zm71.452 17.657l9.36 6.24c3.323 2.216 7.774-.166 7.774-4.16V30.008c0-3.993-4.451-6.375-7.774-4.16L292 32.666h-9a5 5 0 00-5 5v2a5.002 5.002 0 004 4.9v6.25a3.85 3.85 0 003.85 3.85 5.083 5.083 0 004.77-3.326l2.246-6.097zM296 42.525l8.445 5.63a1 1 0 001.555-.832V30.008a1 1 0 00-1.555-.832L296 34.806v7.72zm-4-5.86v4h-2v-4h2zm-3.184 8l-1.949 5.292c-.14.378-.476.644-.867.698v-5.99h2.816zm-2.816-8h-3a1 1 0 00-1 1v2a1 1 0 001 1h3v-4zm97.64-12.56a2 2 0 011.256 2.535l-3.845 11.389.391 1.193 1.687 4.75a7 7 0 11-2.026 6.231 1.674 1.674 0 01-.06-.15l-2.077-5.849-2.132 6.316A7.002 7.002 0 01363 49a7 7 0 0111.835-5.062l1.24-3.675-1.452-.786a8 8 0 01-3.303-10.705l1.904-3.69a1.999 1.999 0 013.677.295l2.07 6.309 2.135-6.326a2 2 0 012.534-1.255zm-10.68 25.387a3 3 0 10-.307.91l.009-.03.298-.88zm1.654-18.255a4.004 4.004 0 001.453 4.432l-1.453-4.432zM388 52a3 3 0 100-6 3 3 0 000 6zM128.56 167.032l3.44 4.733V151a2 2 0 00-2-2h-12a2 2 0 00-2 2v20.765l3.44-4.733.163-.175a6 6 0 018.794 0l.163.175zm-9.629 7.504c-2.474 2.664-6.931.913-6.931-2.722V151a6 6 0 016-6h12a6 6 0 016 6v20.814c0 3.635-4.457 5.386-6.931 2.722l-3.603-4.958a2.001 2.001 0 00-2.932 0l-3.603 4.958zM219.712 157.9c-1.428.795-3.162 2.037-4.389 3.877-.953 1.429-1.381 3.155-1.587 4.636-1.348-.816-3.023-1.437-4.979-1.437-2.495 0-4.411.961-5.833 2.195-1.033-1.529-2.5-4.585-2.5-8.154 0-2.065.861-3.432 2.083-4.384 1.338-1.042 3.13-1.574 4.624-1.574.797 0 1.423.076 1.898.174 1.76.365 3.576-.047 4.908-.662.37-.171.822-.415 1.286-.744.449.762 1.094 1.637 2.018 2.312a55.293 55.293 0 003.096 2.107c.154.097.268.222.337.338a.462.462 0 01.076.231c0 .009.001.118-.157.338-.171.239-.472.519-.881.747zm-1.061 6.096c-.898 1.347-1.144 3.754-1.121 5.988a29.823 29.823 0 00.115 2.321c.076.871-.595 1.65-1.469 1.65-.557 0-1.056-.327-1.342-.804a11.138 11.138 0 00-1.259-1.704c-1.171-1.299-2.82-2.471-4.818-2.471-2.038 0-3.481 1.22-4.403 2.551l-.096.142a8.533 8.533 0 00-.629 1.132c-.306.661-.934 1.154-1.661 1.154a1.614 1.614 0 01-1.614-1.614v-1.196a2.018 2.018 0 00-.083-.575 2.439 2.439 0 00-.378-.756c-1.166-1.596-2.84-4.723-3.33-8.598-1.204.107-2.555-.317-3.309-1.727a2 2 0 013.147-2.388c.12-.116.254-.31.325-.62a1.97 1.97 0 01.069-.237c1.39-4.908 6.405-7.185 10.336-7.185 1.051 0 1.951.1 2.711.258 1.392.288 3.717-.623 4.009-2.015.379-1.806 3.206-1.741 3.77.017.527 1.64 1.18 3.006 1.979 3.589a51 51 0 002.871 1.954c1.364.86 2.279 2.34 2.279 3.953 0 1.958-1.381 3.627-3.091 4.579-1.132.631-2.268 1.492-3.008 2.602zm-12.062-5.056c-.723.066-1.228.214-1.409.313a2 2 0 01-1.922-3.509c.905-.495 2.064-.705 2.968-.787.911-.084 1.969-.072 2.76.132a2 2 0 11-.999 3.873c-.148-.038-.681-.087-1.398-.022zm-10.408-1.698l.005-.001-.005.001zm93.6-7.684l-.873 1.998a6.133 6.133 0 01-3.262 3.206l-2.013.837.796 2.031a6.129 6.129 0 01-.04 4.573l-.831 2.016 1.998.873a6.133 6.133 0 013.206 3.262l.837 2.013 2.031-.796a6.129 6.129 0 014.573.04l2.016.831.873-1.998a6.133 6.133 0 013.262-3.206l2.013-.837-.796-2.031a6.129 6.129 0 01.04-4.573l.831-2.016-1.998-.873a6.133 6.133 0 01-3.206-3.262l-.837-2.013-2.031.796a6.129 6.129 0 01-4.573-.04l-2.016-.831zm-.169-4.397a2.13 2.13 0 00-2.763 1.117l-1.606 3.677c-.22.503-.626.902-1.134 1.114l-3.705 1.541a2.13 2.13 0 00-1.164 2.743l1.465 3.737c.2.511.195 1.08-.014 1.588l-1.53 3.71a2.13 2.13 0 001.117 2.763l3.677 1.606c.503.22.902.626 1.114 1.134l1.541 3.705a2.13 2.13 0 002.743 1.164l3.737-1.465c.511-.2 1.08-.195 1.588.014l3.71 1.53a2.13 2.13 0 002.763-1.117l1.606-3.677c.22-.503.626-.902 1.134-1.114l3.705-1.541a2.13 2.13 0 001.164-2.743l-1.465-3.737c-.2-.511-.195-1.08.014-1.588l1.53-3.71a2.13 2.13 0 00-1.117-2.763l-3.677-1.606a2.134 2.134 0 01-1.114-1.134l-1.541-3.705a2.13 2.13 0 00-2.743-1.164l-3.737 1.465c-.511.2-1.08.195-1.588-.014l-3.71-1.53zM371 148h16a2 2 0 012 2v3.05a2.501 2.501 0 00-.5-.05h-1.188a2.5 2.5 0 000 5h1.188c.171 0 .338-.017.5-.05V170a2 2 0 01-2 2h-16a2 2 0 01-2-2v-12.05c.162.033.329.05.5.05h1.187a2.5 2.5 0 10.001-5H369.5c-.171 0-.338.017-.5.05V150a2 2 0 012-2zm-6 2a6 6 0 016-6h16a6 6 0 016 6v20a6 6 0 01-6 6h-16a6 6 0 01-6-6v-20zm12.812 3a2.5 2.5 0 000 5h2.376a2.5 2.5 0 000-5h-2.376zM39 149.16a13.716 13.716 0 01-.77-.585c-1.405-1.111-3.89-3.075-6.692-3.075-5.174 0-11.564 5.278-6.946 14.96 3.319 6.956 9.422 11.649 12.904 13.978a2.921 2.921 0 003.008 0c3.483-2.329 9.586-7.022 12.904-13.978 4.618-9.682-1.772-14.96-6.946-14.96-2.802 0-5.287 1.964-6.692 3.075-.313.248-.573.453-.77.585zm0 21.462c3.326-2.317 8.151-6.337 10.798-11.884 1.85-3.879 1.197-6.083.47-7.188-.867-1.315-2.45-2.05-3.806-2.05-.607 0-1.43.28-2.47.938a17.51 17.51 0 00-1.389.998c-.065.05-.142.112-.228.18-.338.268-.808.64-1.157.872a4 4 0 01-4.436 0 19.78 19.78 0 01-1.157-.872c-.086-.068-.163-.13-.228-.18a17.339 17.339 0 00-1.39-.998c-1.039-.658-1.862-.938-2.47-.938-1.355 0-2.938.735-3.804 2.05-.728 1.105-1.38 3.309.47 7.188 2.646 5.547 7.47 9.567 10.797 11.884zm1.645-81.734c-.546 1.251-1.25 2.653-2.086 3.644-1.378 1.632-3.57 3.377-5.147 4.523a10 10 0 01.588 3.378v6.757c0 1.084-.176 2.162-.522 3.19l-.058.172 1.835 1.051a3 3 0 001.49.397h6.921a3 3 0 002.75-1.799l3.5-8.017a.991.991 0 00.084-.401V99.51a1 1 0 00-1-1h-8.092a2 2 0 01-1.752-2.965l2.514-4.568-1.025-2.09zm-11.323 21.298l.365-1.082A6.003 6.003 0 0030 107.19v-6.757a6 6 0 00-.373-2.083l-.02-.051H29a2 2 0 00-2 2v9.567a1 1 0 001.555.832l.767-.512zm1.064-15.887c1.433-.995 3.836-2.83 5.117-4.348.554-.657 1.167-1.895 1.754-3.317.559-1.355 1.763-2.317 3.233-2.37 1.475-.054 2.748.824 3.396 2.147l1.375 2.806a4 4 0 01-.087 3.689l-.883 1.604H49a5 5 0 015 5v2.273a5 5 0 01-.418 2.002l-3.501 8.016A7 7 0 0143.666 116h-6.92c-1.22 0-2.42-.319-3.479-.926l-2.187-1.252-.306.204c-3.323 2.215-7.774-.167-7.774-4.16v-9.567a6 6 0 016-6h1.386zm340.005-3.632c-1.294-2.801.48-6.667 4.253-6.667h8.553c3.764 0 5.552 3.862 4.253 6.667h2.883A4.666 4.666 0 01395 95.333v2a4.667 4.667 0 01-2.667 4.218v9.782a4.666 4.666 0 01-4.666 4.667h-17.334a4.666 4.666 0 01-4.666-4.667v-9.782A4.667 4.667 0 01363 97.333v-2a4.666 4.666 0 014.667-4.666h2.724zm6.609 4h-9.333a.666.666 0 00-.667.666v2c0 .368.298.667.667.667H377v-3.333zm0 7.333h-7.333v9.333c0 .369.298.667.666.667H377v-10zm4 10v-10h7.333v9.333a.666.666 0 01-.666.667H381zm0-14v-3.333h9.333c.369 0 .667.298.667.666v2a.666.666 0 01-.667.667H381zm0-7.549l2.484-1.182c.211-.1.292-.217.333-.31a.717.717 0 00.031-.44.722.722 0 00-.217-.383c-.077-.066-.2-.136-.434-.136H381v2.451zM377 88h-2.356c-.237 0-.36.072-.435.137a.71.71 0 00-.216.388.721.721 0 00.035.443c.042.091.124.207.34.306L377 90.47V88z" fill="#DEE1E5"/></svg>