<svg width="189" height="64" fill="none" xmlns="http://www.w3.org/2000/svg"><path d="M.5 19.2c0-3.369 0-5.865.162-7.84.16-1.971.48-3.38 1.091-4.58A11.5 11.5 0 016.78 1.752c1.2-.611 2.61-.929 4.58-1.09C13.335.5 15.831.5 19.2.5h135.482c3.091 0 4.551.003 5.912.344 1.219.305 2.379.808 3.436 1.489 1.179.76 2.181 1.823 4.294 4.077l12 12.8c2.173 2.318 3.783 4.036 4.954 5.502 1.167 1.462 1.872 2.642 2.255 3.876a11.493 11.493 0 010 6.824c-.383 1.234-1.088 2.414-2.255 3.876-1.171 1.466-2.781 3.184-4.954 5.502l-12 12.8c-2.113 2.254-3.115 3.317-4.294 4.077a11.508 11.508 0 01-3.436 1.489c-1.361.34-2.821.344-5.912.344H19.2c-3.369 0-5.865 0-7.84-.162-1.971-.16-3.38-.48-4.58-1.091a11.5 11.5 0 01-5.027-5.026c-.612-1.201-.93-2.61-1.091-4.58C.5 50.665.5 48.169.5 44.8V19.2z" stroke="#EB222D"/></svg>