<svg width="24" height="24" viewBox="0 0 24 24" fill="none" xmlns="http://www.w3.org/2000/svg">
<path fill-rule="evenodd" clip-rule="evenodd" d="M5.90138 2.49333C5.51086 2.10281 4.87769 2.10281 4.48717 2.49333L3.11856 3.86194C3.08593 3.89457 3.05633 3.9285 3.02961 3.96343L3.01199 3.98647L2.99307 4.00845C2.28101 4.83544 1.81605 6.56667 2.31492 8.93251C2.80516 11.2575 4.21358 14.078 7.03518 16.8996C9.92663 19.791 12.878 21.2005 15.2802 21.6746C17.5393 22.1205 19.1448 21.7218 19.8915 21.1657L20.1258 20.9585C20.1413 20.9447 20.1566 20.9303 20.1717 20.9153L21.5403 19.5467C21.9308 19.1562 21.9308 18.523 21.5403 18.1325L19.0676 15.6598C18.6771 15.2693 18.044 15.2693 17.6534 15.6598L16.2848 17.0285C16.2708 17.0424 16.2574 17.0566 16.2446 17.0711L16.1957 17.1258L16.1556 17.1593C15.2562 18.026 13.8004 18.0917 12.528 17.8046C11.1712 17.4985 9.68766 16.7327 8.4449 15.4899C7.15908 14.2041 6.51748 12.6076 6.31178 11.2207C6.20885 10.5268 6.21071 9.85786 6.3116 9.27876C6.40253 8.7568 6.59691 8.17828 6.99421 7.76649L7.00996 7.7442L8.374 6.38016C8.76452 5.98964 8.76452 5.35647 8.374 4.96595L5.90138 2.49333ZM21.5117 22.4012L21.4969 22.416C20.1722 23.7407 17.6491 24.1807 14.8929 23.6367C12.0628 23.0782 8.76347 21.4563 5.62097 18.3138C2.56601 15.2589 0.939329 12.1023 0.357952 9.34516C-0.212052 6.64194 0.208051 4.19662 1.45932 2.72469C1.53456 2.62833 1.61627 2.5358 1.70435 2.44773L3.07295 1.07912C4.24453 -0.0924565 6.14402 -0.0924512 7.3156 1.07912L9.78821 3.55174C10.9598 4.72331 10.9598 6.6228 9.78821 7.79438L8.52436 9.05823C8.49486 9.09315 8.46318 9.12694 8.42928 9.15937M21.5117 22.4012C21.5367 22.3778 21.5615 22.3539 21.5859 22.3295L22.9545 20.9609C24.126 19.7893 24.126 17.8898 22.9545 16.7183L20.4819 14.2456C19.3103 13.0741 17.4108 13.0741 16.2392 14.2456L14.8706 15.6142C14.8439 15.641 14.8177 15.6681 14.7921 15.6957C14.7849 15.7025 14.7778 15.7094 14.7707 15.7163C14.6106 15.8736 14.0277 16.0927 12.9682 15.8537C11.9851 15.6319 10.838 15.0546 9.85911 14.0757C8.92328 13.1399 8.44329 11.9598 8.29013 10.9273C8.21363 10.4115 8.22303 9.96004 8.28192 9.62203C8.33521 9.31613 8.41273 9.1888 8.42857 9.16277C8.43202 9.15711 8.43255 9.15624 8.42928 9.15937" fill="#EB222D"/>
</svg>
