<svg width="48" height="48" fill="none" xmlns="http://www.w3.org/2000/svg"><path fill-rule="evenodd" clip-rule="evenodd" d="M24 27.951c-1.656 0-3 1.344-3 3V45a3.001 3.001 0 006 0V30.951c0-1.656-1.344-3-3-3zM9 39c-1.656 0-3 1.344-3 3v3a3.001 3.001 0 006 0v-3c0-1.656-1.344-3-3-3zm30 0c-1.656 0-3 1.344-3 3v3a3.001 3.001 0 006 0v-3c0-1.656-1.344-3-3-3zM6 24c3.312 0 6 2.688 6 6s-2.688 6-6 6-6-2.688-6-6 2.688-6 6-6zm36 0c3.312 0 6 2.688 6 6s-2.688 6-6 6-6-2.688-6-6 2.688-6 6-6zM34.809 8.241a2.726 2.726 0 011.431 5.043h.003l-.03.015a2.454 2.454 0 01-.318.165l-5.043 2.61 2.67 6.873a2.723 2.723 0 01-4.065 3.42l-5.433-3.915-5.436 3.915a2.723 2.723 0 01-4.272-2.883v-.003c.048-.174.114-.348.198-.513l2.646-6.894-4.995-2.601a2.726 2.726 0 011.065-5.232h5.802l2.382-6.267c.042-.153.102-.306.171-.447v-.003a2.709 2.709 0 015.052.477l2.34 6.24h5.832z" fill="#333"/></svg>