<svg width="48" height="48" fill="none" xmlns="http://www.w3.org/2000/svg"><path fill-rule="evenodd" clip-rule="evenodd" d="M8.007 42l-2.862 2.988-.012.009-.01.012a2.99 2.99 0 01-2.108.87 3.002 3.002 0 01-2.997-3V18c0-3.312 2.685-6 5.994-6h1.77v15.525c0 5.259 4.263 9.528 9.516 9.528h16.344A6 6 0 0127.74 42H8.007zM48 37.176a3 3 0 01-2.997 3c-.822 0-1.566-.33-2.106-.867l-.003-.003-.01-.009-.008-.009L36.732 33H18.036c-3.306 0-5.991-2.688-5.991-6V9c0-3.312 2.685-6 5.99-6h23.97A5.999 5.999 0 0148 9v28.176zM21.033 15a3 3 0 010 6 3 3 0 010-6zm8.988 0a2.999 2.999 0 012.997 3c0 1.656-1.341 3-2.997 3a3 3 0 010-6zm8.99 0a2.998 2.998 0 012.995 3c0 1.656-1.341 3-2.994 3a2.999 2.999 0 01-2.997-3c0-1.656 1.34-3 2.997-3z" fill="#333"/></svg>