<svg width="24" height="24" fill="none" xmlns="http://www.w3.org/2000/svg"><path fill-rule="evenodd" clip-rule="evenodd" d="M3.847 17.86c.197.096.419.15.653.15h15c.234 0 .456-.054.653-.15l-5.908-5.56-1.927 1.586a.5.5 0 01-.636 0L9.755 12.3l-5.908 5.56zm-.704-.71a.637.637 0 01.014-.014l5.82-5.478-5.795-4.772a.504.504 0 01-.036-.033A1.494 1.494 0 003 7.5v9.01c0 .229.051.446.143.64zm17.714 0a1.49 1.49 0 00.143-.64V7.5c0-.232-.052-.45-.146-.647a.478.478 0 01-.036.033l-5.795 4.772 5.82 5.478.014.014zm-.713-11.005A1.494 1.494 0 0019.5 6h-15c-.23 0-.45.052-.644.145L12 12.852l8.144-6.707zM4.5 5h15A2.5 2.5 0 0122 7.5v9.01a2.5 2.5 0 01-2.5 2.5h-15a2.5 2.5 0 01-2.5-2.5V7.5A2.5 2.5 0 014.5 5z" fill="#EB222D"/></svg>