<svg width="42" height="42" fill="none" xmlns="http://www.w3.org/2000/svg"><path fill-rule="evenodd" clip-rule="evenodd" d="M24.52 29h-7.04A4.482 4.482 0 0113 24.52v-7.04A4.482 4.482 0 0117.48 13h7.04A4.482 4.482 0 0129 17.48v7.04A4.482 4.482 0 0124.52 29zm-.04-14h-6.96A2.521 2.521 0 0015 17.52v6.96A2.521 2.521 0 0017.52 27h6.96A2.521 2.521 0 0027 24.48v-6.96A2.521 2.521 0 0024.48 15zm.52 1a1 1 0 110 2 1 1 0 010-2zm-4 1c2.208 0 4 1.792 4 4s-1.792 4-4 4-4-1.792-4-4 1.792-4 4-4zm0 2a2 2 0 11-.001 4.001A2 2 0 0121 19z" fill="#BDBDBD"/><circle cx="21" cy="21" r="19.5" stroke="#BDBDBD" stroke-width="3"/></svg>