<svg width="32" height="29" fill="none" xmlns="http://www.w3.org/2000/svg"><path d="M15.414 4.007l.586.249.586-.249 3.88-1.646c4.086-1.733 8.753.61 9.802 4.925.646 2.654-.076 5.444-1.94 7.417-2.184 2.315-5.04 5.297-7.563 7.791-1.263 1.249-2.43 2.362-3.38 3.205a23.11 23.11 0 01-1.214 1.017l-.171.128a9.541 9.541 0 01-.17-.128c-.331-.253-.74-.595-1.215-1.017-.95-.843-2.117-1.956-3.38-3.205-2.523-2.494-5.379-5.476-7.564-7.79-1.863-1.974-2.585-4.764-1.94-7.418C2.782 2.972 7.449.628 11.536 2.36l3.88 1.646z" stroke="#333" stroke-width="3"/></svg>