<svg width="42" height="42" fill="none" xmlns="http://www.w3.org/2000/svg"><path d="M20.219 7.913l.781.332.781-.332 5.092-2.16c5.346-2.268 11.451.799 12.824 6.442.845 3.473-.1 7.124-2.538 9.707-2.868 3.038-6.616 6.95-9.927 10.224-1.657 1.639-3.188 3.1-4.434 4.206a29.98 29.98 0 01-1.593 1.333c-.072.056-.14.107-.205.154a12.169 12.169 0 01-.205-.154 29.93 29.93 0 01-1.593-1.333c-1.246-1.106-2.777-2.567-4.434-4.206-3.31-3.273-7.06-7.186-9.927-10.224-2.437-2.583-3.383-6.234-2.538-9.707 1.373-5.643 7.478-8.71 12.824-6.442l5.092 2.16z" stroke="#EB222D" stroke-width="4"/></svg>