<svg width="200" height="59" fill="none" xmlns="http://www.w3.org/2000/svg"><path d="M58.207 17.198h-.09l-.736 1.645-.748 1.596c-.108.245-.215.407-.327.497-.11.093-.27.14-.48.14h-.967c-.242 0-.407-.047-.497-.14-.094-.09-.196-.252-.31-.497l-.648-1.294-.838-1.774h-.086v4.612c0 .136-.026.216-.069.24a.636.636 0 01-.247.032h-2.006a.675.675 0 01-.244-.032c-.055-.024-.087-.104-.087-.24V13.31c0-.454.084-.757.245-.912.166-.154.428-.23.793-.23h1.112c.307 0 .528.056.663.165.133.111.263.293.388.541l1.153 2.393 1.124 2.362h.061l1.123-2.333 1.151-2.377c.126-.25.265-.44.42-.563.15-.125.414-.187.776-.187h.893c.153 0 .294.01.42.035a.73.73 0 01.323.146.64.64 0 01.21.315c.046.14.072.32.072.541v8.777c0 .136-.026.216-.072.24-.048.024-.132.032-.26.032h-1.9a.62.62 0 01-.24-.032c-.053-.024-.075-.104-.075-.24v-4.785zm9.521-2.447h1.544c.138 0 .248.112.248.251v7.007c0 .136-.11.246-.248.246h-1.544a.247.247 0 01-.248-.246v-.328a2.95 2.95 0 01-1.03.618 3.296 3.296 0 01-1.088.187 3.6 3.6 0 01-2.64-1.15c-.63-.671-1.036-1.617-1.036-2.768 0-1.152.404-2.153 1.062-2.868a3.577 3.577 0 012.666-1.174c.539 0 1.022.116 1.444.335.23.12.438.273.622.458v-.317c0-.14.112-.25.248-.25zm-.78 2.378c-.306-.322-.741-.514-1.267-.514-.534 0-.982.203-1.3.54-.327.348-.515.84-.515 1.413 0 .534.187.995.51 1.32.312.316.762.504 1.305.504.527 0 .967-.188 1.273-.513.312-.332.486-.813.486-1.389 0-.551-.178-1.027-.493-1.36zm3.695 4.88v-7.007c0-.14.111-.25.248-.25h3.97a.25.25 0 01.251.25v1.49c0 .137-.113.25-.25.25h-2.04v5.267a.248.248 0 01-.25.246h-1.68a.247.247 0 01-.249-.246zm10.747-7.258h1.544c.136 0 .246.112.246.251v7.007c0 .136-.11.246-.246.246H81.39a.25.25 0 01-.25-.246v-.328c-.333.31-.697.503-1.03.618a3.28 3.28 0 01-1.085.187c-.996 0-1.953-.41-2.645-1.15-.626-.671-1.033-1.617-1.033-2.768 0-1.152.407-2.153 1.059-2.868a3.585 3.585 0 012.667-1.174 3.1 3.1 0 011.448.335c.226.12.433.273.619.458v-.317c0-.14.115-.25.25-.25zm-.785 2.378c-.3-.322-.74-.514-1.264-.514-.531 0-.98.203-1.3.54-.324.348-.512.84-.512 1.413 0 .534.184.995.507 1.32.315.316.766.504 1.305.504.53 0 .97-.188 1.276-.513.307-.332.485-.813.485-1.389 0-.551-.179-1.027-.497-1.36zm5.857-.384a.499.499 0 00-.167.335.252.252 0 01-.25.244h-1.68l-.018-.001a.246.246 0 01-.232-.262c.042-.704.322-1.37.825-1.843.45-.425 1.074-.692 1.863-.692.832 0 1.45.23 1.883.582.516.425.757 1.023.757 1.625 0 .399-.13.761-.359 1.063-.121.155-.27.293-.433.407.211.128.39.293.53.483.26.352.388.797.388 1.26 0 .752-.281 1.393-.79 1.848-.484.437-1.177.692-2.014.692-.007 0-.044 0-.104-.005-1.074-.023-1.755-.43-2.17-.977-.414-.542-.555-1.215-.555-1.787v-.073a.25.25 0 01.247-.249h1.684c.137 0 .25.113.25.25 0 .212.06.421.195.56.11.118.28.187.517.187.035 0 .19 0 .328-.068.12-.058.23-.178.23-.417 0-.242-.085-.357-.182-.415a.7.7 0 00-.314-.07H86.5a.245.245 0 01-.245-.246V17.73c0-.134.109-.246.245-.246h.317c.182 0 .3-.043.369-.109.085-.078.116-.204.116-.326 0-.21-.068-.317-.151-.369a.607.607 0 00-.31-.066c-.16 0-.29.048-.38.13zm3.915 5.264v-7.007c0-.14.11-.25.245-.25h1.683c.138 0 .25.11.25.25v3.739l2.65-3.867a.248.248 0 01.212-.123H97.1c.135 0 .246.112.246.251v7.007c0 .136-.11.246-.246.246h-1.683a.248.248 0 01-.248-.246v-3.741l-2.648 3.867a.25.25 0 01-.216.12h-1.684a.246.246 0 01-.244-.246zm8.091 0v-7.007c0-.14.114-.25.253-.25h1.681c.138 0 .248.11.248.25v2.331h2.111v-2.33c0-.14.109-.252.245-.252h1.682a.25.25 0 01.252.251v7.007a.248.248 0 01-.252.246h-1.682a.245.245 0 01-.245-.246v-2.687h-2.111v2.687c0 .136-.11.246-.248.246h-1.681a.25.25 0 01-.253-.246zM58.478 33.89c0 .116-.019.193-.051.236-.035.044-.131.064-.293.064h-2.05c-.22 0-.33-.098-.33-.3v-7.452h-3.2v7.453c0 .115-.016.192-.05.235-.033.044-.133.064-.294.064h-2.05c-.22 0-.332-.098-.332-.3v-8.835c0-.318.059-.554.176-.715.114-.157.368-.236.763-.236h6.774c.392 0 .647.079.764.236.115.161.173.397.173.715v8.836zm1.937-6.283a3.93 3.93 0 012.815-1.146c1.127 0 2.107.44 2.813 1.146a4.031 4.031 0 011.151 2.844 3.97 3.97 0 01-1.154 2.824 3.943 3.943 0 01-2.81 1.145 3.941 3.941 0 01-2.815-1.145 3.964 3.964 0 01-1.156-2.824c0-1.105.432-2.115 1.156-2.844zm4.081 1.47a1.714 1.714 0 00-1.266-.528 1.71 1.71 0 00-1.27.528c-.335.352-.522.848-.522 1.374 0 .526.187 1.012.522 1.356.303.323.738.523 1.27.523.526 0 .962-.2 1.266-.523a1.94 1.94 0 00.522-1.356 2 2 0 00-.522-1.374zm7.867 3.134c.27-.1.557-.29.755-.645a.26.26 0 01.23-.146h1.897a.249.249 0 01.236.33c-.287.809-.767 1.494-1.422 1.968-.615.442-1.382.702-2.282.702-1.262 0-2.23-.446-2.91-1.11-.812-.797-1.209-1.905-1.209-2.92 0-1.742 1.267-3.93 4.057-3.93.92 0 1.724.265 2.36.729a3.814 3.814 0 011.399 1.983c.013.027.019.06.019.093a.25.25 0 01-.248.248h-1.898a.251.251 0 01-.222-.138 1.437 1.437 0 00-.565-.61 1.74 1.74 0 00-.87-.216c-.567 0-1.018.197-1.329.51-.34.344-.524.83-.524 1.356 0 .552.187 1.042.524 1.389.316.326.77.526 1.328.526.13 0 .396-.01.674-.119zm3.392-3.781v-1.495c0-.137.111-.246.248-.246h5.048c.138 0 .248.109.248.246v1.495c0 .136-.11.247-.248.247h-1.435v5.267a.25.25 0 01-.249.248h-1.679a.25.25 0 01-.252-.248v-5.267h-1.433a.248.248 0 01-.248-.247zm6.92-.823a3.94 3.94 0 012.817-1.146c1.13 0 2.11.44 2.81 1.146a4.016 4.016 0 011.157 2.844 3.96 3.96 0 01-1.16 2.824 3.929 3.929 0 01-2.807 1.145 3.943 3.943 0 01-2.815-1.145 3.963 3.963 0 01-1.156-2.824c0-1.105.432-2.115 1.153-2.844zm4.084 1.47a1.705 1.705 0 00-1.267-.528 1.71 1.71 0 00-1.27.528c-.333.352-.52.848-.52 1.374 0 .526.187 1.012.52 1.356.305.323.74.523 1.27.523.525 0 .963-.2 1.27-.523.33-.344.516-.83.516-1.356 0-.526-.185-1.022-.52-1.374zm6.13-2.388h3.048c.14 0 .247.109.247.246v7.009a.246.246 0 01-.247.248h-1.681a.248.248 0 01-.25-.248v-1.965l-1.618 2.101a.248.248 0 01-.205.112h-2.1v-.002a.253.253 0 01-.165-.059.245.245 0 01-.024-.347l1.838-2.16a2.262 2.262 0 01-1.07-.703c-.37-.44-.575-1.022-.575-1.656 0-.703.278-1.382.813-1.87.47-.43 1.144-.706 1.99-.706zm.062 3.25h1.056v-1.262H92.95c-.22 0-.392.065-.507.175-.115.116-.18.289-.18.5 0 .187.067.325.17.419.129.112.32.167.517.167zm4.356 4.005v-7.009a.25.25 0 01.252-.246h1.68c.138 0 .248.109.248.246v2.333h2.108v-2.333c0-.137.113-.246.248-.246h1.686c.137 0 .246.109.246.246v7.009a.246.246 0 01-.246.248h-1.686a.25.25 0 01-.248-.248v-2.687h-2.108v2.687c0 .137-.11.248-.248.248h-1.68a.25.25 0 01-.252-.248zm7.592 0v-7.009c0-.137.109-.246.248-.246h1.682c.136 0 .248.109.248.246v2.333h2.111v-2.333c0-.137.11-.246.246-.246h1.684c.136 0 .248.109.248.246v7.009a.249.249 0 01-.248.248h-1.684a.247.247 0 01-.246-.248v-2.687h-2.111v2.687a.249.249 0 01-.248.248h-1.682a.247.247 0 01-.248-.248zm7.589 0v-7.009c0-.137.107-.246.248-.246h1.681c.137 0 .248.109.248.246v2.206h1.26c.825 0 1.446.262 1.876.676.494.48.724 1.152.724 1.85 0 .769-.267 1.392-.717 1.826-.468.453-1.128.699-1.883.699h-3.189a.246.246 0 01-.248-.248zm3.26-2.813h-1.083v1.073h1.083a.864.864 0 00.363-.074c.121-.065.236-.196.236-.464 0-.145-.033-.301-.145-.4-.087-.08-.229-.135-.454-.135zm4.982 3.06h-1.683a.25.25 0 01-.248-.247v-7.009c0-.137.114-.246.248-.246h1.683c.136 0 .248.109.248.246v7.009a.249.249 0 01-.248.248zm3.061 0h-2.074v-.001a.269.269 0 01-.137-.038.249.249 0 01-.069-.345l2.277-3.46-2.078-3.256a.263.263 0 01-.052-.156c0-.137.113-.246.248-.246h1.96a.25.25 0 01.21.114l1.121 1.772 1.106-1.755a.245.245 0 01.222-.131h1.96c.047 0 .093.011.136.04a.25.25 0 01.072.343l-2.139 3.276 2.337 3.436a.25.25 0 01-.19.408h-2.076a.26.26 0 01-.212-.116l-1.203-1.93-1.2 1.917a.249.249 0 01-.219.129zm-68.613 5.275a1.6 1.6 0 00-.041-.336 1.043 1.043 0 00-.152-.354.973.973 0 00-.31-.274 1.039 1.039 0 00-.52-.116H52.6v2.176h1.557c.336 0 .588-.112.762-.338a1.21 1.21 0 00.26-.758zm8.989-.848h1.544a.25.25 0 01.248.248v7.01a.246.246 0 01-.248.246h-1.544a.246.246 0 01-.248-.246v-.328c-.339.31-.7.5-1.03.619a3.32 3.32 0 01-1.09.184 3.607 3.607 0 01-2.642-1.148c-.627-.671-1.03-1.618-1.03-2.766 0-1.157.399-2.153 1.056-2.872a3.587 3.587 0 012.669-1.173c.54 0 1.025.113 1.444.335.226.12.436.273.623.459v-.32a.25.25 0 01.248-.248zm-.783 2.378c-.303-.322-.74-.515-1.266-.515-.532 0-.98.202-1.3.54-.325.347-.515.84-.515 1.416 0 .532.186.99.508 1.318.318.314.767.504 1.307.504.527 0 .967-.19 1.275-.514.309-.33.487-.812.487-1.388 0-.55-.18-1.03-.496-1.361zm8.097 3.147c.27-.1.556-.292.756-.645a.248.248 0 01.23-.148h1.892v.002c.029 0 .057.003.084.01a.25.25 0 01.153.317c-.282.809-.767 1.496-1.42 1.969-.616.446-1.383.703-2.28.703-1.265 0-2.23-.448-2.907-1.11-.818-.799-1.212-1.907-1.212-2.92 0-1.742 1.267-3.929 4.053-3.929.924 0 1.725.265 2.362.728a3.82 3.82 0 011.4 1.98.265.265 0 01.019.094.25.25 0 01-.252.248h-1.893a.238.238 0 01-.222-.136 1.476 1.476 0 00-.567-.612 1.694 1.694 0 00-.87-.213c-.567 0-1.018.197-1.329.509-.342.342-.521.83-.521 1.356 0 .55.187 1.04.521 1.388.318.327.774.525 1.33.525.128 0 .392-.011.673-.116zm3.948 1.733v-7.01a.25.25 0 01.248-.248h5.97a.25.25 0 01.248.248v7.01c0 .139-.11.246-.248.246h-1.68a.247.247 0 01-.251-.246v-5.267h-2.109v5.267a.246.246 0 01-.248.246h-1.682a.246.246 0 01-.248-.246zm9.518 2.586h-1.68a.248.248 0 01-.249-.246v-9.35a.25.25 0 01.248-.248h1.542a.25.25 0 01.25.248v.254a2.55 2.55 0 01.575-.393 3.317 3.317 0 011.452-.335c1.051 0 2.017.415 2.71 1.148.65.693 1.056 1.66 1.056 2.83 0 1.07-.377 2.113-1.082 2.861-.645.683-1.551 1.12-2.684 1.12-.306 0-.7-.04-1.108-.197a2.643 2.643 0 01-.781-.452v2.514a.245.245 0 01-.25.246zm3.726-6.105c0-.825-.522-1.876-1.764-1.876-.535 0-.983.197-1.302.523-.322.336-.51.814-.51 1.366 0 .588.176 1.057.478 1.377.313.331.758.512 1.273.512.529 0 .984-.194 1.307-.53.325-.337.518-.817.518-1.372zm3.745-2.817a3.922 3.922 0 012.814-1.148c1.13 0 2.11.439 2.814 1.148a4.016 4.016 0 011.154 2.845c0 1.1-.432 2.098-1.154 2.822a3.938 3.938 0 01-2.814 1.145 3.936 3.936 0 01-2.813-1.145 3.985 3.985 0 01-1.152-2.822c0-1.108.43-2.116 1.151-2.845zm4.083 1.47a1.702 1.702 0 00-1.27-.529c-.528 0-.962.204-1.269.53-.33.35-.515.843-.515 1.374 0 .52.186 1.007.515 1.352a1.72 1.72 0 001.27.522c.528 0 .963-.2 1.27-.522.332-.345.519-.832.519-1.352 0-.53-.187-1.024-.52-1.375zm6.576-2.392h1.514c.097 0 .185.054.226.145l2.501 5.37h.677a.25.25 0 01.249.248v3.265a.248.248 0 01-.249.248h-1.643a.247.247 0 01-.249-.248v-1.524h-4.538v1.524a.25.25 0 01-.248.248h-1.644a.247.247 0 01-.248-.248v-3.265a.25.25 0 01.248-.248h.676l2.498-5.36a.248.248 0 01.23-.155zm.757 3.14l-1.048 2.375h2.095l-1.047-2.374zm10.675-3.14h1.541a.25.25 0 01.252.248v7.01a.246.246 0 01-.252.246h-1.541a.245.245 0 01-.248-.246v-.328c-.336.31-.697.5-1.029.619a3.322 3.322 0 01-1.089.184 3.603 3.603 0 01-2.64-1.148c-.631-.671-1.036-1.618-1.036-2.766 0-1.157.405-2.153 1.062-2.872a3.573 3.573 0 012.664-1.173 3.07 3.07 0 011.449.335c.223.12.434.273.619.459v-.32a.25.25 0 01.248-.248zm-.78 2.378c-.305-.322-.74-.515-1.267-.515a1.75 1.75 0 00-1.301.54c-.322.347-.514.84-.514 1.416 0 .532.187.99.511 1.318.311.314.764.504 1.304.504.529 0 .967-.19 1.271-.514.313-.33.492-.812.492-1.388 0-.55-.182-1.03-.496-1.361zm9.422 5.126h-1.686a.245.245 0 01-.248-.246V43.32l-1.815 2.684a.238.238 0 01-.209.117h-1.986a.224.224 0 01-.142-.045.246.246 0 01-.065-.344l2.454-3.522-2.285-3.182a.234.234 0 01-.063-.163.25.25 0 01.252-.248h1.983a.24.24 0 01.206.113l1.67 2.523v-2.388a.25.25 0 01.248-.248h1.686c.136 0 .245.113.245.248v2.388l1.662-2.51a.249.249 0 01.217-.126h1.985a.26.26 0 01.146.05.242.242 0 01.055.344l-2.302 3.2 2.45 3.513a.233.233 0 01.051.15c0 .14-.11.247-.248.247h-1.988a.253.253 0 01-.204-.107l-1.824-2.694v2.555a.243.243 0 01-.245.246zm-70.552-.284c0 .115-.018.193-.052.23-.032.038-.132.057-.293.057h-2.05c-.221 0-.328-.094-.328-.287v-8.85c0-.261.058-.483.172-.672.111-.186.369-.28.763-.28h3.661c.564 0 1.07.08 1.506.247.437.163.805.389 1.104.682.295.296.522.637.677 1.03.152.397.23.823.23 1.284 0 .154-.016.347-.042.577a3.426 3.426 0 01-.577 1.476 2.684 2.684 0 01-.7.686 3.65 3.65 0 01-1.096.49c-.437.125-.96.186-1.563.186H52.6v3.144z" fill="#fff"/><path d="M196.905 3.11A10.477 10.477 0 00189.464 0H10.534c-2.898 0-5.53 1.19-7.439 3.11A10.591 10.591 0 000 10.595v37.586a10.59 10.59 0 003.095 7.484 10.457 10.457 0 007.44 3.11h178.929a10.47 10.47 0 007.441-3.11A10.59 10.59 0 00200 48.182V10.596c0-2.917-1.184-5.566-3.095-7.487zm-6.938 18.9a.243.243 0 01-.244.245h-1.684a.246.246 0 01-.249-.246v-7.007c0-.14.11-.251.249-.251h1.684c.137 0 .244.112.244.251v7.007zm-5.051-4.803c.829 0 1.447.261 1.877.677.492.477.723 1.15.723 1.846 0 .771-.27 1.393-.718 1.829-.468.452-1.132.696-1.882.696h-3.189a.247.247 0 01-.248-.246v-7.007a.25.25 0 01.248-.251h1.681c.138 0 .252.112.252.251v2.205h1.256zm-9.622 28.96a3.286 3.286 0 01-1.087.184c-.998 0-1.955-.41-2.645-1.148-.628-.672-1.031-1.618-1.031-2.766 0-1.158.402-2.154 1.063-2.872a3.572 3.572 0 012.663-1.172c.542 0 1.024.111 1.446.334.226.12.435.272.62.458v-.319c0-.135.115-.248.251-.248h1.54c.139 0 .252.113.252.248v7.01a.247.247 0 01-.252.245h-1.54a.248.248 0 01-.251-.245v-.329c-.337.311-.696.5-1.029.62zm-9.095-.225a.245.245 0 01-.24.18h-1.391a.25.25 0 01-.233-.161l-1.388-3.826v3.741a.246.246 0 01-.249.245h-1.684a.243.243 0 01-.248-.245v-7.01c0-.135.109-.248.248-.248h2.443c.099 0 .196.063.231.165l1.576 4.342 1.569-4.326a.25.25 0 01.242-.18h2.437c.137 0 .251.112.251.247v7.01a.247.247 0 01-.251.245h-1.682a.242.242 0 01-.243-.245v-3.741l-1.388 3.807zm-21.041-11.75v1.522c0 .137-.11.249-.245.249h-1.644a.248.248 0 01-.249-.249v-3.261c0-.14.11-.25.249-.25h.675l2.494-5.365a.253.253 0 01.232-.149h1.52c.091 0 .181.052.223.14l2.501 5.375h.675c.138 0 .25.108.25.249v1.31l2.817-6.907a.25.25 0 01.236-.167h1.517c.097 0 .19.058.229.156l2.856 6.994a.234.234 0 01.022.105.247.247 0 01-.248.248h-1.871a.25.25 0 01-.233-.163l-1.514-4.1-1.508 4.087a.247.247 0 01-.237.176h-1.87a.257.257 0 01-.096-.015.33.33 0 01-.1-.078v1.615a.25.25 0 01-.25.249h-1.644a.249.249 0 01-.248-.249v-1.522h-4.539zM143.27 14.38a.25.25 0 01-.25-.248v-1.728a.25.25 0 01.25-.25h5.334c.136 0 .25.112.25.25v1.728a.252.252 0 01-.25.248h-1.535v7.63a.243.243 0 01-.244.245h-1.777a.246.246 0 01-.248-.246v-7.63h-1.53zm5.724 4.138c0-1.108.432-2.114 1.154-2.844a3.933 3.933 0 012.816-1.148c1.128 0 2.108.441 2.813 1.148a4.03 4.03 0 011.154 2.844 3.98 3.98 0 01-1.157 2.823 3.938 3.938 0 01-2.81 1.144 3.937 3.937 0 01-2.813-1.144 3.978 3.978 0 01-1.157-2.823zm14.152.229c.267.33.41.736.41 1.173 0 .649-.248 1.268-.744 1.708-.44.385-1.062.627-1.866.627h-3.002a.246.246 0 01-.246-.246v-7.007c0-.14.111-.251.246-.251h3.089c.711 0 1.243.225 1.613.562.455.414.659.987.659 1.523 0 .377-.124.713-.333.996a1.91 1.91 0 01-.417.42c.233.129.431.3.591.495zm-9.931 20.794c.704-.71 1.687-1.148 2.815-1.148 1.129 0 2.108.438 2.812 1.148a4.014 4.014 0 011.156 2.844c0 1.1-.432 2.098-1.156 2.822-.705.707-1.687 1.144-2.812 1.144a3.925 3.925 0 01-2.811-1.144 3.972 3.972 0 01-1.158-2.822c0-1.108.433-2.116 1.154-2.844zm6.649-5.349v-.002a.24.24 0 01-.163-.059.247.247 0 01-.025-.347l1.84-2.16c-.436-.136-.8-.38-1.07-.704-.377-.44-.578-1.022-.578-1.655 0-.703.278-1.382.812-1.87.474-.431 1.144-.706 1.992-.706h3.047c.139 0 .247.109.247.246v7.01a.246.246 0 01-.247.247h-1.684a.25.25 0 01-.247-.248V31.98l-1.616 2.1a.257.257 0 01-.208.113h-2.1zm9.852-12.183v-.328a2.93 2.93 0 01-1.032.618 3.29 3.29 0 01-1.087.186c-.998 0-1.953-.41-2.643-1.148-.628-.672-1.031-1.618-1.031-2.77 0-1.15.403-2.152 1.06-2.866a3.568 3.568 0 012.666-1.175c.541 0 1.022.116 1.443.335.229.121.436.273.624.457v-.316c0-.14.111-.251.247-.251h1.544c.139 0 .246.112.246.251v7.007a.244.244 0 01-.246.246h-1.544a.247.247 0 01-.247-.246zm7.229.476c-.307 0-.7-.044-1.11-.198a2.727 2.727 0 01-.779-.452v2.514c0 .139-.11.249-.248.249h-1.681a.25.25 0 01-.253-.25v-9.346a.25.25 0 01.253-.251h1.541c.14 0 .249.112.249.251v.254c.178-.166.373-.296.573-.395a3.353 3.353 0 011.455-.335c1.048 0 2.013.417 2.707 1.148.652.692 1.06 1.662 1.06 2.829 0 1.073-.381 2.111-1.087 2.864-.641.679-1.548 1.118-2.68 1.118zM143.02 44.381a.25.25 0 01.249-.249h.675l2.494-5.36a.252.252 0 01.232-.154h1.52c.091 0 .181.054.223.144l2.501 5.37h.675c.138 0 .25.114.25.249v3.265a.248.248 0 01-.25.248h-1.644a.248.248 0 01-.248-.248V46.12h-4.539v1.525c0 .139-.11.248-.245.248h-1.644a.246.246 0 01-.249-.248V44.38zM5.337 53.41a7.389 7.389 0 01-2.165-5.228V10.596c0-2.035.828-3.888 2.165-5.232a7.318 7.318 0 015.198-2.176h125.16V55.59H10.535a7.308 7.308 0 01-5.198-2.18z" fill="#fff"/><path d="M147.428 41.759l-1.046 2.374h2.096l-1.05-2.374zm20.487-25.145c-.533 0-.983.203-1.301.541-.323.347-.513.839-.513 1.413 0 .534.184.994.506 1.32.316.315.767.504 1.308.504.528 0 .967-.189 1.273-.513.308-.332.487-.813.487-1.389 0-.552-.181-1.027-.494-1.36-.305-.323-.74-.516-1.266-.516zM156.03 44.258c.53 0 .962-.2 1.271-.522.33-.344.517-.831.517-1.35 0-.532-.187-1.025-.522-1.376-.304-.326-.736-.529-1.266-.529s-.962.203-1.268.529c-.334.35-.522.844-.522 1.375 0 .52.188 1.007.52 1.352.305.322.74.521 1.27.521zm-1.8-24.386c.333-.346.519-.831.519-1.354 0-.528-.186-1.024-.519-1.373a1.696 1.696 0 00-1.266-.53c-.532 0-.967.204-1.271.53-.334.35-.518.845-.518 1.373 0 .523.184 1.008.516 1.354.306.32.743.52 1.273.52.525 0 .96-.2 1.266-.52zm6.827-2.524a.364.364 0 00.102-.274c0-.1-.026-.21-.104-.283-.063-.061-.167-.1-.325-.1h-.856v.767h.856a.478.478 0 00.327-.11zm-.227 2.05h-.956v.92h.956c.218 0 .361-.052.448-.126a.438.438 0 00.137-.336.458.458 0 00-.137-.336c-.085-.068-.223-.122-.448-.122zm1.903 10.54h1.054v-1.26h-1.054c-.22 0-.396.064-.51.174-.113.116-.177.289-.177.499 0 .188.065.326.168.42a.798.798 0 00.519.167zm-16.351 2.266h2.096l-1.05-2.376-1.046 2.376zm30.385-15.589c-.537 0-.987.198-1.302.522-.322.337-.509.814-.509 1.366 0 .59.18 1.058.477 1.38.315.33.757.509 1.271.509.53 0 .985-.195 1.307-.529.326-.336.519-.817.519-1.372 0-.825-.522-1.876-1.763-1.876zm6.893 3.651h1.077c.056 0 .222 0 .366-.074.119-.062.233-.191.233-.462 0-.142-.034-.3-.144-.4-.084-.08-.229-.134-.455-.134h-1.077v1.07zm-9.137 20.215c-.533 0-.981.202-1.296.541-.33.346-.517.839-.517 1.415 0 .531.187.99.508 1.318.316.314.768.503 1.305.503.53 0 .97-.189 1.274-.512.312-.332.49-.813.49-1.389 0-.55-.183-1.03-.497-1.36-.3-.324-.741-.516-1.267-.516zM41.775 38.757H22.25l1.037-2.88c.132.055.278.089.43.089h17.917c.485 0 1.068-.405 1.068-.853V21.956c0-.542-.48-1.265-1.256-1.265h-2.335a3.986 3.986 0 00.548-2.018 4.01 4.01 0 00-4.008-4.006 4.01 4.01 0 00-4.005 4.006c0 .735.2 1.426.548 2.018h-2.922l6.459-11.11c.29-.495.12-1.128-.375-1.417a1.037 1.037 0 00-1.415.375l-7.064 12.152h-3.719a1.117 1.117 0 000 2.233h17.66v2.006h-15.21a1.116 1.116 0 000 2.233h15.208l.005 2.09h-13.91a1.116 1.116 0 000 2.232h13.905l.004 2.25H24.51l-6.237-17.983a.721.721 0 00-.715-.502h-7.085a1.116 1.116 0 000 2.234h6.037l5.787 16.679a.909.909 0 00-.57.559l-1.675 4.65a.924.924 0 00.874 1.244h.863a3.325 3.325 0 00-.863 2.234 3.352 3.352 0 003.349 3.347c1.847 0 3.35-1.5 3.35-3.347a3.33 3.33 0 00-.862-2.234h8.989a3.338 3.338 0 00-.861 2.234 3.351 3.351 0 003.35 3.347 3.35 3.35 0 003.347-3.347c0-.857-.329-1.64-.858-2.234h1.044a.93.93 0 000-1.859zm-6.123-22.02a1.94 1.94 0 011.937 1.936 1.94 1.94 0 01-1.938 1.936 1.938 1.938 0 01-1.933-1.936c0-1.067.868-1.937 1.933-1.937zm-11.376 27.6a1.489 1.489 0 11.001-2.979 1.489 1.489 0 01-.001 2.978zm13.966 0a1.488 1.488 0 11-.001-2.976 1.488 1.488 0 010 2.975z" fill="#fff"/><path d="M27.409 15.396a3.339 3.339 0 003.336-3.336 3.339 3.339 0 00-3.336-3.336 3.34 3.34 0 00-3.337 3.336 3.34 3.34 0 003.337 3.335zm0-4.602c.699 0 1.267.57 1.267 1.266 0 .698-.568 1.267-1.267 1.267a1.268 1.268 0 01-1.265-1.267c0-.697.568-1.266 1.265-1.266z" fill="#fff"/></svg>