<svg width="28" height="28" fill="none" xmlns="http://www.w3.org/2000/svg"><path d="M27.5 7.608a1.885 1.885 0 00-.271-2.323l-3.992-3.992a3.667 3.667 0 00-5.185 0L1.292 18.052a3.667 3.667 0 000 5.185l3.993 3.992a1.885 1.885 0 002.323.27L1.84 21.732l.696-.696 5.805 5.804.78-.78-5.804-5.805.696-.696 5.804 5.804.78-.78-5.804-5.804.696-.696 5.805 5.804.78-.78L6.27 17.3l.696-.696 5.804 5.804.78-.78-5.803-5.805.696-.695 5.804 5.804.78-.78-5.804-5.805.696-.696 5.805 5.804.78-.78L10.7 12.87l.696-.696 5.804 5.805.78-.78-5.804-5.805.696-.696 5.805 5.804.78-.78-5.804-5.805.696-.696 5.804 5.805.78-.781-5.804-5.804.696-.696 5.805 5.804.78-.78-5.804-5.805.696-.696 5.804 5.804.78-.78-5.804-5.804.697-.696 5.804 5.804.78-.78-5.804-5.805.696-.696 5.804 5.804.78-.78-5.803-5.805.696-.696L27.5 7.61z" fill="#fff"/></svg>