<svg width="18" height="28" fill="none" xmlns="http://www.w3.org/2000/svg"><path fill-rule="evenodd" clip-rule="evenodd" d="M2.835 11.533c1.394-1.43 1.964-3.156 1.895-4.995h1.15V8.26h4.575V6.152l.722-1.082a.573.573 0 01.478-.256h1.14a.57.57 0 01.442.21c1.141 1.476 2.6 4.114 2.99 5.674a.575.575 0 001.128-.078c.287-2.647-.636-5.977-1.382-8.667-.126-.456-.248-.894-.357-1.307A.576.576 0 0015.06.22H4.146a.574.574 0 00-.514.317l-.415.832H.7a.577.577 0 00-.574.574v4.021c0 .315.26.575.574.575h1.215c.274 1.42.267 2.907-.054 4.48a.577.577 0 00.975.515zm.212 16.248h10.242A1.713 1.713 0 0015 25.998v-.001a43914.997 43914.997 0 00-.454-10.907 4.014 4.014 0 00-1.676-3.098h-.002l-.708-.506-.499-.356a2.884 2.884 0 01-1.139-1.72h-4.71a2.884 2.884 0 01-1.139 1.72l-.57.408-.637.454A4.012 4.012 0 001.79 15.09l-.454 10.908a1.713 1.713 0 001.712 1.783zm7.41-14.35h.008c.944 0 1.733.75 1.783 1.692a111304.368 111304.368 0 01.516 9.817c0 .316-.26.575-.575.575a.577.577 0 01-.574-.565l-.515-9.768a.629.629 0 00-.635-.602h-.008a.577.577 0 01-.575-.575c0-.315.26-.574.575-.574z" fill="#fff"/></svg>