<svg width="24" height="25" fill="none" xmlns="http://www.w3.org/2000/svg"><path d="M17.954 6.217a1.985 1.985 0 11-2.807 2.807 1.985 1.985 0 012.807-2.807z" fill="#EB222D"/><path fill-rule="evenodd" clip-rule="evenodd" d="M13.424 3.577l-9.865 9.865a1.985 1.985 0 000 2.807l4.21 4.21a1.985 1.985 0 002.807 0l9.865-9.864a1.985 1.985 0 00.53-1.85l-.789-3.421a1.985 1.985 0 00-1.487-1.488l-3.422-.79a1.985 1.985 0 00-1.85.53zm-11.97 7.76a4.962 4.962 0 000 7.017l4.21 4.21a4.962 4.962 0 007.018 0l9.865-9.864a4.962 4.962 0 001.326-4.625l-.79-3.42a4.962 4.962 0 00-3.719-3.72l-3.421-.79a4.962 4.962 0 00-4.625 1.327l-9.865 9.864z" fill="#EB222D"/></svg>