<svg width="13" height="28" fill="none" xmlns="http://www.w3.org/2000/svg"><path d="M9.465 8.377V5.18c0-.33-.22-.551-.551-.551h-.551V.77c0-.33-.221-.551-.552-.551H4.504c-.331 0-.551.22-.551.551v3.859H3.4c-.33 0-.551.22-.551.551v3.197C1.196 9.48.094 11.354.094 13.45v13.78c0 .33.22.551.551.551H11.67c.33 0 .551-.22.551-.551V13.449c0-2.15-1.102-3.97-2.756-5.072zm-3.308 2.316a2.73 2.73 0 012.757 2.756 2.73 2.73 0 01-2.756 2.756A2.73 2.73 0 013.4 13.449a2.73 2.73 0 012.756-2.756zM5.055 1.32H7.26v1.103h-.551c-.331 0-.551.22-.551.551 0 .33.22.551.55.551h.552V4.63H5.055V1.32zM3.953 5.73h4.41v2.095a5.827 5.827 0 00-2.205-.441c-.772 0-1.544.165-2.206.441V5.731z" fill="#fff"/></svg>