<svg width="29" height="28" fill="none" xmlns="http://www.w3.org/2000/svg"><path fill-rule="evenodd" clip-rule="evenodd" d="M6.081.875h18.487c.441 0 .794.309.883.75l2.956 12.553a.877.877 0 01-.662 1.08.907.907 0 01-1.081-.683L23.84 2.684h-2.647c1.787 5.074 2.118 14.538.132 20.693H5.133c-1.214-4.214-1.368-9.905-.86-14.693l-3.398-6L6.081.875zm-.838 24.31h16.193c.75 0 1.367.597 1.367 1.347v1.345H3.897v-1.345c0-.75.596-1.346 1.346-1.346zm8.096-18.464c.75 0 1.346.618 1.346 1.346v8.118c0 .728-.596 1.346-1.346 1.346a1.35 1.35 0 01-1.345-1.346V8.067a1.35 1.35 0 011.345-1.346z" fill="#fff"/></svg>