<svg width="28" height="21" fill="none" xmlns="http://www.w3.org/2000/svg"><path fill-rule="evenodd" clip-rule="evenodd" d="M4.766 7.25c.559-1.223 1.083-2.481 1.782-3.879.384-.664.804-1.258 1.573-1.328h11.776c.769.07 1.188.664 1.572 1.328.7 1.398 1.223 2.656 1.783 3.879H4.766zm5.521 5.032h7.408c.455 0 .804.384.804.839 0 .42-.35.803-.804.803h-7.408c-.42 0-.804-.384-.804-.803 0-.455.385-.839.804-.839zM8.121.156c-1.258 0-2.027.455-3.076 1.922L3.298 6.027H.642c-.419 0-1.188 2.167 1.608 2.236l-.944 2.272c.035 2.9.035 5.766.035 8.631 0 .594.49 1.083 1.084 1.083h3.634c.594 0 1.048-.489 1.048-1.083V16.79h13.768v2.376c0 .594.49 1.083 1.084 1.083h3.634c.594 0 1.048-.489 1.048-1.083 0-2.865.035-5.73.035-8.631l-.943-2.272c2.83-.07 2.026-2.236 1.642-2.236H24.72l-1.747-3.949C21.924.611 21.155.156 19.897.156H8.12zm14.606 10.588c-.943 0-1.747.77-1.747 1.748 0 .943.804 1.747 1.747 1.747.979 0 1.748-.804 1.748-1.747a1.73 1.73 0 00-1.748-1.748zm-17.437 0c.944 0 1.747.77 1.747 1.748 0 .943-.803 1.747-1.747 1.747a1.752 1.752 0 01-1.747-1.747 1.73 1.73 0 011.747-1.748z" fill="#fff"/></svg>