<svg width="42" height="42" fill="none" xmlns="http://www.w3.org/2000/svg"><path fill-rule="evenodd" clip-rule="evenodd" d="M17.325 24.028a1.345 1.345 0 01.569-2.56c.223 0 .433.054.619.15a5.636 5.636 0 002.487.574c.894 0 1.739-.207 2.492-.576a1.344 1.344 0 111.181 2.413 8.21 8.21 0 01-1.6.59l1.835 2.08a1.345 1.345 0 01-2.015 1.778l-1.894-2.146-1.894 2.146A1.345 1.345 0 0117.09 26.7l1.835-2.08a8.303 8.303 0 01-1.6-.59zM21 13.068a4.117 4.117 0 014.114 4.114A4.117 4.117 0 0121 21.296a4.117 4.117 0 01-4.114-4.114A4.117 4.117 0 0121 13.068zm0 2.5a1.616 1.616 0 010 3.23 1.616 1.616 0 010-3.23z" fill="#BDBDBD"/><circle cx="21" cy="21" r="19.5" stroke="#BDBDBD" stroke-width="3"/></svg>