<svg width="42" height="42" fill="none" xmlns="http://www.w3.org/2000/svg"><path d="M6 13v20a7 7 0 007 7h16a7 7 0 007-7V13" stroke="#EB222D" stroke-width="4"/><path d="M.712 14.47a2 2 0 102.576 3.06L.712 14.47zm38 3.06a2 2 0 102.576-3.06l-2.576 3.06zM26.153 4.34l-1.288 1.53 1.288-1.53zM3.288 17.53L17.135 5.87 14.56 2.81.712 14.47l2.576 3.06zM24.865 5.87l13.847 11.66 2.576-3.06L27.441 2.81l-2.576 3.06zm-7.73 0a6 6 0 017.73 0l2.576-3.06a10 10 0 00-12.882 0l2.576 3.06z" fill="#EB222D"/><path d="M15 30a3 3 0 013-3h6a3 3 0 013 3v10H15V30z" stroke="#EB222D" stroke-width="4"/><circle cx="21" cy="12" r="3" fill="#EB222D"/></svg>