<svg xmlns="http://www.w3.org/2000/svg" xmlns:xlink="http://www.w3.org/1999/xlink" width="918" height="319.844"><defs><linearGradient id="linear-gradient" x1="630" y1="293.5" x2="619.531" y2="293.5" gradientUnits="userSpaceOnUse"><stop offset="0" stop-color="#198eca"/><stop offset="1" stop-color="#1db5e4"/></linearGradient><linearGradient id="linear-gradient-2" x1="747" y1="299.956" x2="734" y2="293.044" gradientUnits="userSpaceOnUse"><stop offset="0" stop-color="#19a7f5"/><stop offset="1" stop-color="#1d90e9"/></linearGradient><linearGradient id="linear-gradient-3" x1="884.969" y1="96" x2="865.063" y2="96" xlink:href="#linear-gradient"/><linearGradient id="linear-gradient-4" x1="1058" y1="107.707" x2="1040" y2="98.137" xlink:href="#linear-gradient-2"/><style>.cls-1,.cls-10,.cls-2,.cls-3,.cls-4,.cls-5,.cls-6,.cls-7,.cls-8{fill:#fff}.cls-1,.cls-11,.cls-12,.cls-14,.cls-15,.cls-16,.cls-17,.cls-18,.cls-19,.cls-2,.cls-20,.cls-21,.cls-22,.cls-23,.cls-28,.cls-30,.cls-31,.cls-32,.cls-33,.cls-35,.cls-36,.cls-37,.cls-38,.cls-39,.cls-4,.cls-40,.cls-45,.cls-48,.cls-49,.cls-5,.cls-50,.cls-52,.cls-53,.cls-54,.cls-55,.cls-56,.cls-57,.cls-6,.cls-60,.cls-61,.cls-63,.cls-68,.cls-7,.cls-8,.cls-9{fill-rule:evenodd}.cls-1,.cls-10,.cls-13,.cls-22{opacity:.5}.cls-17,.cls-27,.cls-3,.cls-8{opacity:.7}.cls-11,.cls-15,.cls-4{opacity:.4}.cls-20,.cls-5{opacity:.55}.cls-6{opacity:.8}.cls-7{opacity:.75}.cls-21,.cls-56,.cls-60,.cls-63,.cls-68,.cls-9{fill:none;stroke-linecap:round}.cls-60,.cls-9{stroke:#fff}.cls-21,.cls-56,.cls-9{stroke-width:2px}.cls-11{fill:#080808}.cls-14{opacity:.35}.cls-16{opacity:.45}.cls-18{opacity:.3}.cls-19{opacity:.65}.cls-21,.cls-63{stroke:#000}.cls-23{fill:#f3c4b7}.cls-25{fill:#76a158}.cls-27{fill:#9fd17d}.cls-28{fill:#669248}.cls-29,.cls-30{fill:#1470b0}.cls-29{fill-opacity:0}.cls-31{fill:#ffb927}.cls-32{fill:#ffcf06}.cls-33{fill:#d3ac06}.cls-61{fill:#231f20}.cls-35{fill:#0083de}.cls-36{fill:#f78300}.cls-37{fill:#009ddf}.cls-38{fill:#0048a0}.cls-39{fill:#003172}.cls-40{fill:#369a1e}.cls-41{fill:#ec0020}.cls-42{fill:#fe9a0c}.cls-43{fill:#e70025}.cls-44{fill:#f59e2d}.cls-45{fill:#fc5d1d}.cls-46{fill:#d2181c}.cls-47{fill:#179adc}.cls-48{fill:#6c6bbb}.cls-49{fill:#fc0018}.cls-50{fill:#52b461}.cls-52{fill:#1060ac}.cls-53{fill:#df003f}.cls-54{fill:#48a83b}.cls-55{fill:#30993d}.cls-56,.cls-68{stroke:#2d927d}.cls-57,.cls-59{fill:#28efbd}.cls-60,.cls-63,.cls-68{stroke-width:3px}</style></defs><g id="payment_small_white" data-name="payment small white"><g id="Наличными"><path id="Rounded_Rectangle_224_copy" data-name="Rounded Rectangle 224 copy" class="cls-1" d="M159 392v-3a1 1 0 012 0v3h-2zm-3 0v-5a1 1 0 012 0v5h-2zm-3 0v-3a1 1 0 012 0v3h-2zm-3 0v-1a1 1 0 012 0v1h-2z" transform="translate(-146 -88)"/><path class="cls-2" d="M163 402v-7a1 1 0 00-2 0v3.051a3.443 3.443 0 00-.5-.051 3.5 3.5 0 00-3.5 3.5 3.3 3.3 0 00.056.5H146v-10h20v10h-3zm-12-7a2 2 0 102 2 2 2 0 00-2-2z" transform="translate(-146 -88)"/><circle id="Ellipse_51_copy" data-name="Ellipse 51 copy" class="cls-3" cx="5" cy="309" r="2"/><path id="Ellipse_50_copy" data-name="Ellipse 50 copy" class="cls-1" d="M163 402.937a6.479 6.479 0 01-5.5 3.063h-1a6.5 6.5 0 01-6-4h6.556a3.3 3.3 0 01-.056-.5 3.5 3.5 0 013.5-3.5 3.443 3.443 0 01.5.051V395a1 1 0 012 0v7.937z" transform="translate(-146 -88)"/></g><g id="visa"><path id="Shape_338_copy_3" data-name="Shape 338 copy 3" class="cls-2" d="M215.108 402s-.23-1.4-.307-1.752h-3.318c-.092.275-.551 1.752-.551 1.752h-2.707l3.839-9.156a1.268 1.268 0 011.346-.84h2l2.1 10h-2.4zm-1.331-6.441l-.184-.854c-.122.381-.352.977-.336.961 0 0-.826 2.212-1.025 2.792h2.141c-.107-.503-.596-2.899-.596-2.899zm-5.568-1.25a4.337 4.337 0 00-1.927-.382c-1.025 0-1.484.427-1.5.854 0 .474.551.778 1.468 1.236 1.484.7 2.172 1.572 2.157 2.716-.015 2.059-1.774 3.4-4.5 3.4a7.9 7.9 0 01-2.875-.533l.351-2.243.352.168a5.213 5.213 0 002.417.534 1.347 1.347 0 001.56-.977c0-.442-.336-.763-1.346-1.251-.979-.472-2.279-1.265-2.264-2.7.016-1.937 1.805-3.3 4.36-3.3a6.559 6.559 0 012.325.411l-.352 2.167zM196.829 402l1.622-10h2.585l-1.621 10h-2.586zm-6.225 0l-2.007-7.528-.157-.611a5.9 5.9 0 011 .633 10.8 10.8 0 012.381 2.726l-.008-.043.05.259.276 1.373 2.534-6.809h2.738l-4.069 10H190.6z" transform="translate(-146 -88)"/><path id="Shape_338_copy_2" data-name="Shape 338 copy 2" class="cls-1" d="M189.435 394.494a5.9 5.9 0 00-1-.633l-.147-.554a10.341 10.341 0 00-2.323-1.009v-.31h3.971a1.04 1.04 0 011.015.825l.86 4.407a10.8 10.8 0 00-2.376-2.726z" transform="translate(-146 -88)"/></g><g id="yandexdengi"><path class="cls-2" d="M252 405h-13a1 1 0 01-1-1v-9.026a1.2 1.2 0 01.33-.826l.447-.4 9.448-7.75.775.002v7l-.011 5.236-9.486 6.012 11.49-3.757L251 394h2v11h-1zm-7.073-11.517a1.152 1.152 0 011.719.236 1.5 1.5 0 01-.68 1.811 1.154 1.154 0 01-1.72-.236 1.5 1.5 0 01.681-1.811z" transform="translate(-146 -88)"/><path id="Shape_1_copy" data-name="Shape 1 copy" class="cls-4" d="M249 394h2l-.007 6.491-11.49 3.757 9.486-6.012z" transform="translate(-146 -88)"/></g><g id="webmoney"><path id="Shape_336_copy" data-name="Shape 336 copy" class="cls-2" d="M281.973 386.993a8.854 8.854 0 013.925.914q.279.133.558.294l-.824.743-1.239-1.288-2.093 1.874-1.242-1.362-3.9 3.528 2.5 2.767-.982.867 2.46 2.771-.976.865 3.515 3.933 2.087-1.931 1.8 2.068a9.42 9.42 0 01-1.18.788 8.849 8.849 0 01-4.409 1.176 9 9 0 010-18.007zm-1.633 8.435l2.13-1.928 1.919 2.141-2.13 1.927-1.919-2.14zm1.515 3.7l2.13-1.929 1.919 2.141-2.131 1.929-1.918-2.141zm-3.039-7.356l2.13-1.928 1.918 2.141-2.13 1.927-1.918-2.14zm3.909-1.038l1.6-1.445 1.438 1.605-1.6 1.447-1.439-1.607zm2.839 6.622l1.6-1.446 1.438 1.606-1.6 1.445-1.438-1.605zm1.4 3.243l1.6-1.446 1.439 1.606-1.6 1.445-1.439-1.605zm.644-7.432l1.065-.964.959 1.07-1.065.963-.959-1.069zm-1.361-3.182l1.065-.963.959 1.07-1.065.964-.959-1.071zm2.722 6.361l1.066-.964.965 1.071-1.065.964-.959-1.071zm-4.776-2.383l1.6-1.446 1.439 1.605-1.6 1.447-1.439-1.606z" transform="translate(-146 -88)"/></g><g id="qiwi"><path id="Shape_340_copy" data-name="Shape 340 copy" class="cls-2" d="M327.593 401.383a3.366 3.366 0 00-1.08-1.886 2.787 2.787 0 00-.653-.471 2.44 2.44 0 00-.382-.18 2.3 2.3 0 00-1.081-.178 2.078 2.078 0 01.9-.114 4.362 4.362 0 01.764.18c.2.111.407.223.608.337a7.452 7.452 0 00-.247-4.783 8.555 8.555 0 00-2.318-3.368 7.716 7.716 0 00-3.759-1.931 6.21 6.21 0 00-2.477.023 5.56 5.56 0 00-1.913.919 5.675 5.675 0 00-1.328 1.528 3.089 3.089 0 00-.27.449c-.069.17-.147.333-.225.494a7.555 7.555 0 00-.4 3.638 8.342 8.342 0 00.608 2.223c.164.315.313.645.494.942a9.183 9.183 0 00.586.832 8.492 8.492 0 001.508 1.325 8.267 8.267 0 004.277 1.414.714.714 0 00-.068-.314c-.027-.108-.037-.232-.068-.337a3.357 3.357 0 010-.763.316.316 0 01.113.157.352.352 0 00.113.134 2.486 2.486 0 00.2.315 2.812 2.812 0 00.518.516 4.981 4.981 0 001.283.763 5.35 5.35 0 001.644.4c.6.081 1.181.183 1.732.314a6.666 6.666 0 011.441.606 5.937 5.937 0 01.63.4 1.674 1.674 0 01.293.225c.118.047.17.159.292.2a9.44 9.44 0 01.992 1.056 4.8 4.8 0 01.382.652c.082.09.106.238.18.337a.461.461 0 01.022.382c-.167.023-.133-.152-.2-.225a1.349 1.349 0 01-.158-.269c-.264-.277-.5-.58-.788-.831a6.165 6.165 0 00-.9-.7 6.787 6.787 0 00-2.206-1.011 8.333 8.333 0 00-2.858-.27 6.472 6.472 0 00-1.329.292 12.691 12.691 0 01-1.373.225 11.423 11.423 0 01-5.267-.988 8.332 8.332 0 01-1.981-1.235 6.191 6.191 0 01-.832-.786 5.2 5.2 0 01-.676-.921 8.994 8.994 0 01-.585-1.033 9.181 9.181 0 01-.405-1.19 5.939 5.939 0 01-.27-1.347c-.008-.135-.069-.395-.068-.606a.355.355 0 00.023-.068 2.151 2.151 0 010-.651 6.854 6.854 0 01.157-1.415 8.315 8.315 0 01.338-1.258c.134-.4.311-.766.472-1.144.109-.162.191-.349.293-.516.086-.177.215-.31.293-.5a2.178 2.178 0 00.18-.224c.035-.1.128-.142.157-.247a.748.748 0 00.18-.225.691.691 0 00.18-.224c.269-.264.509-.556.788-.808s.591-.489.879-.741c.182-.087.314-.225.494-.315.137-.125.337-.188.473-.314a11.388 11.388 0 011.1-.517 8.65 8.65 0 011.171-.426 9.5 9.5 0 012.813-.337c.039 0 .058-.039.067 0a8.858 8.858 0 014.8 1.5 8.481 8.481 0 012.926 3.346 8.805 8.805 0 01.743 5.232 8.843 8.843 0 01-1.306 3.413 2.852 2.852 0 01-.315.472.939.939 0 01-.157.224 1.088 1.088 0 01-.09.113.068.068 0 01-.045.045c0 .061-.022.069-.029.044zm-.539.585a1.106 1.106 0 01-.429-.674.559.559 0 010-.314.147.147 0 01.045-.023.259.259 0 01.225.045 1.387 1.387 0 01.271.561.38.38 0 01-.112.405zm-1.981-.382c0-.025.022-.013.022 0a.681.681 0 01.608.741.477.477 0 01-.383.426.692.692 0 01-.653-.987.459.459 0 01.406-.18z" transform="translate(-146 -88)"/></g><g id="PayPal_copy_2" data-name="PayPal copy 2"><path id="Shape_452_copy" data-name="Shape 452 copy" class="cls-5" d="M355.746 397.247c.332-2.211.78-4.55.9-5.321.076-.5.338-.912 1.34-.912h3.655c.848 0 2.878-.1 3.784 1.173 1.049 1.475.362 4.193-.087 5.135a5.186 5.186 0 01-1.894 2.129 7.133 7.133 0 01-2.773.56c-1.01.014-1.275-.117-1.444.99s-.535 3.067-.566 3.311a.72.72 0 01-.844.684h-2.532c-.339 0-.647.078-.555-.635.143-1.114.816-5.779 1.016-7.114z" transform="translate(-146 -88)"/><path class="cls-6" d="M352.238 394.581c.355-2.182.956-5.92 1.082-6.68.082-.5.363-.9 1.436-.9h5c.908 0 3.25.107 4.259 1.221 1.047 1.157 1.353 2.86.478 5.061a5.567 5.567 0 01-2.986 3.2 11.3 11.3 0 01-4.177.506c-1.082.014-1.426-.1-1.607.994s-.719 4.1-.752 4.343-.013.675-.9.675h-2.481c-.364 0-.712.074-.595-.627.17-1.027 1.029-6.474 1.243-7.793z" transform="translate(-146 -88)"/><path id="Shape_452_copy_4" data-name="Shape 452 copy 4" class="cls-2" d="M364.494 393.283a5.567 5.567 0 01-2.986 3.2 12.123 12.123 0 01-4.334.506c-1.081.014-1.331-.1-1.513.994 0 0-.033.011-.033.015h.007l.111-.753c.332-2.211.78-4.55.9-5.321.076-.5.338-.912 1.34-.912h3.655a5.634 5.634 0 013.3.693 7.335 7.335 0 01-.447 1.578z" transform="translate(-146 -88)"/></g><g id="sberbank"><path id="Rectangle_293_copy_8" data-name="Rectangle 293 copy 8" class="cls-2" d="M391.835 398.212v.007-.007l12.1-6.971a9.354 9.354 0 011.065 4.312 9.5 9.5 0 01-19 0c0-.231.011-.459.028-.686zm.007-1.164l-5.672-3.268a9.216 9.216 0 01.235-.957l5.43 3.129v.006-.006l11.026-6.352q.3.369.564.767zm10.334-8.214l-10.334 5.953-5.086-2.931a9.177 9.177 0 01.417-.851l4.662 2.686v.006-.006l9.578-5.518a9.8 9.8 0 01.763.661zm-10.337 2.6v-.006l7.698-4.428a9.282 9.282 0 01.977.529l-8.672 5-4.13-2.379a9.51 9.51 0 01.588-.753l3.535 2.036z" transform="translate(-146 -88)"/></g><g id="Maestro_copy_2" data-name="Maestro copy 2"><path id="Ellipse_52_copy_4" data-name="Ellipse 52 copy 4" class="cls-1" d="M441 404a7.955 7.955 0 01-4-1.079 7.988 7.988 0 000-13.842A8 8 0 11441 404z" transform="translate(-146 -88)"/><path id="Ellipse_52_copy_5" data-name="Ellipse 52 copy 5" class="cls-2" d="M433 396a7.991 7.991 0 004 6.921 8 8 0 110-13.842 7.991 7.991 0 00-4 6.921z" transform="translate(-146 -88)"/><path id="Ellipse_52_copy_9" data-name="Ellipse 52 copy 9" class="cls-7" d="M437 402.921a7.988 7.988 0 010-13.842 7.988 7.988 0 010 13.842z" transform="translate(-146 -88)"/></g><g id="alfabank"><path id="Rounded_Rectangle_230" data-name="Rounded Rectangle 230" class="cls-2" d="M481.839 400.268l-2.02.734a.264.264 0 01-.333-.154l-1.047-2.832h-4.9l-1.044 2.826a.264.264 0 01-.332.155l-2.017-.734a.249.249 0 01-.161-.319l4.078-10.7a2.1 2.1 0 013.844 0L482 399.95a.248.248 0 01-.161.318zm-5.53-8.324l-.321-.9v-.007L474.143 396h3.692zM469.984 403h12.032a.985.985 0 010 1.969h-12.032a.985.985 0 010-1.969z" transform="translate(-146 -88)"/></g><g id="mir"><path id="Rectangle_295_copy" data-name="Rectangle 295 copy" class="cls-2" d="M512.01 401v-5.345h-.244l-1.74 5.345h-2.072l-1.736-5.345h-.242V401H503v-9h2.976a1.724 1.724 0 011.66 1.186l1.223 4.16h.257l1.225-4.16A1.726 1.726 0 01512.01 392h2.976v9h-2.976z" transform="translate(-146 -88)"/><path class="cls-2" d="M522.978 401v-5.345h-.227l-1.881 4.485a1.46 1.46 0 01-1.332.86h-2.525v-9h3v5.345h.238l1.905-4.49.015-.034a1.46 1.46 0 011.312-.817h2.525v9h-3.028zm11.569-2.986h-3.528V401h-3v-5.007h9.953a3.6 3.6 0 01-3.425 2.021z" transform="translate(-146 -88)"/><path id="Ellipse_53_copy_2" data-name="Ellipse 53 copy 2" class="cls-8" d="M537.919 395.006h-5.412c-2.472 0-4.528-1.3-4.961-3.006h7.023c1.89 0 3.422 1.117 3.422 2.494a1.873 1.873 0 01-.072.512z" transform="translate(-146 -88)"/></g><g id="Group_1_copy_4" data-name="Group 1 copy 4"><path id="Rounded_Rectangle_231_copy_2" data-name="Rounded Rectangle 231 copy 2" class="cls-2" d="M562.383 392.969v3.831a1.279 1.279 0 01-1.487 1.2h-.214a5.568 5.568 0 01-2.693-.882V390.2a3.114 3.114 0 013.042-3.181h3.978v5.954h-2.626zM560.65 399h.867c1.886 0 3.308-.958 3.492-2.184v5a3.114 3.114 0 01-3.042 3.184h-3.978v-6.5a10.177 10.177 0 002.661.5z" transform="translate(-146 -88)"/><path class="cls-2" d="M569.961 405H566v-6.523a7.764 7.764 0 003.251.555 8.239 8.239 0 002.719-.33v-1.38a5.285 5.285 0 01-2.593.579 1.894 1.894 0 010-3.787 5.308 5.308 0 012.593.581v-1.363a8.238 8.238 0 00-2.72-.332 7.78 7.78 0 00-3.251.555V390.2a3.108 3.108 0 013.03-3.181h3.961v14.8a3.108 3.108 0 01-3.029 3.181z" transform="translate(-146 -88)"/><path id="Rounded_Rectangle_232_copy_2" data-name="Rounded Rectangle 232 copy 2" class="cls-2" d="M577.72 397.326a.709.709 0 01-.742.671H575v-1.343h1.981a.71.71 0 01.739.672zm-2.72-3.34h1.733a.676.676 0 110 1.345H575v-1.345zM577.4 405H574v-5.992h3.928a1.511 1.511 0 100-3h-.554a1.506 1.506 0 100-3h-3.373V390.2a2.934 2.934 0 012.6-3.181H580v14.8a2.933 2.933 0 01-2.6 3.181z" transform="translate(-146 -88)"/></g><g id="Assist_copy_4" data-name="Assist copy 4"><path id="Shape_453_copy_3" data-name="Shape 453 copy 3" class="cls-9" d="M600.983 394.516s1.165 1.506 4.628 1.506c3.638 0 7-3.607 10.6-3.65 3.818-.045 4.806 1.46 4.806 1.46" transform="translate(-146 -88)"/><path id="Shape_453_copy_2" data-name="Shape 453 copy 2" class="cls-9" d="M600.983 398.146a8.1 8.1 0 005.165 1.5c3.639 0 7.33-3.6 10.923-3.649 3.167-.045 3.945 1.46 3.945 1.46" transform="translate(-146 -88)"/><path id="Ellipse_54_copy_2" data-name="Ellipse 54 copy 2" class="cls-9" d="M618.77 396.716a7.982 7.982 0 01-15.113 2.794m-.759-4.461a7.981 7.981 0 0115.046-2.66" transform="translate(-146 -88)"/></g><g id="Яндекс_Касса_copy_2" data-name="Яндекс Касса copy 2"><path class="cls-1" d="M643.761 391.5l5.883-5.5 5.349 5-5.884 5.5z" transform="translate(-146 -88)"/><path id="Rectangle_301_copy" data-name="Rectangle 301 copy" class="cls-2" d="M647.505 393l7.488 7-5.349 5-5.883-5.5a5.4 5.4 0 010-8l1.07-1 2.674-2.5a3.374 3.374 0 000 5z" transform="translate(-146 -88)"/><circle class="cls-10" cx="511.5" cy="307.5" r="2.5"/></g></g><g id="payment_small_black" data-name="payment small black"><g id="Наличными-2" data-name="Наличными"><path id="Rounded_Rectangle_224_copy-2" data-name="Rounded Rectangle 224 copy" class="cls-11" d="M159 342v-3a1 1 0 012 0v3h-2zm-3 0v-5a1 1 0 012 0v5h-2zm-3 0v-3a1 1 0 012 0v3h-2zm-3 0v-1a1 1 0 012 0v1h-2z" transform="translate(-146 -88)"/><path class="cls-12" d="M163 352v-7a1 1 0 00-2 0v3.051a3.443 3.443 0 00-.5-.051 3.5 3.5 0 00-3.5 3.5 3.3 3.3 0 00.056.5H146v-10h20v10h-3zm-12-7a2 2 0 102 2 2 2 0 00-2-2z" transform="translate(-146 -88)"/><circle id="Ellipse_51_copy-2" data-name="Ellipse 51 copy" class="cls-13" cx="5" cy="259" r="2"/><path id="Ellipse_50_copy-2" data-name="Ellipse 50 copy" class="cls-11" d="M163 352.937a6.479 6.479 0 01-5.5 3.063h-1a6.5 6.5 0 01-6-4h6.556a3.3 3.3 0 01-.056-.5 3.5 3.5 0 013.5-3.5 3.443 3.443 0 01.5.051V345a1 1 0 012 0v7.937z" transform="translate(-146 -88)"/></g><g id="visa-2" data-name="visa"><path id="Shape_338_copy_3-2" data-name="Shape 338 copy 3" class="cls-12" d="M215.108 352s-.23-1.4-.307-1.752h-3.318c-.092.275-.551 1.752-.551 1.752h-2.707l3.839-9.156a1.268 1.268 0 011.346-.84h2l2.1 10h-2.4zm-1.331-6.441l-.184-.854c-.122.381-.352.976-.336.961 0 0-.826 2.212-1.025 2.792h2.141c-.107-.503-.596-2.899-.596-2.899zm-5.568-1.25a4.337 4.337 0 00-1.927-.382c-1.025 0-1.484.427-1.5.854 0 .474.551.778 1.468 1.236 1.484.7 2.172 1.572 2.157 2.716-.015 2.059-1.774 3.4-4.5 3.4a7.9 7.9 0 01-2.875-.533l.351-2.243.352.168a5.213 5.213 0 002.417.534 1.347 1.347 0 001.56-.977c0-.442-.336-.763-1.346-1.251-.979-.472-2.279-1.266-2.264-2.7.016-1.937 1.805-3.3 4.36-3.3a6.559 6.559 0 012.325.411l-.352 2.167zM196.829 352l1.622-10h2.585l-1.621 10h-2.586zm-6.225 0l-2.007-7.528-.157-.611a5.9 5.9 0 011 .633 10.8 10.8 0 012.381 2.726l-.008-.043.05.259.276 1.373 2.534-6.809h2.738l-4.069 10H190.6z" transform="translate(-146 -88)"/><path id="Shape_338_copy_2-2" data-name="Shape 338 copy 2" class="cls-14" d="M189.435 344.494a5.9 5.9 0 00-1-.633l-.147-.554a10.387 10.387 0 00-2.323-1.009v-.31h3.971a1.04 1.04 0 011.015.825l.86 4.407a10.8 10.8 0 00-2.376-2.726z" transform="translate(-146 -88)"/></g><g id="yandexdengi-2" data-name="yandexdengi"><path class="cls-12" d="M252 355h-13a1 1 0 01-1-1v-9.026a1.2 1.2 0 01.33-.826l.447-.4 9.448-7.75.775.002v7l-.011 5.236-9.486 6.012 11.49-3.757L251 344h2v11h-1zm-7.073-11.517a1.152 1.152 0 011.719.236 1.5 1.5 0 01-.68 1.811 1.154 1.154 0 01-1.72-.236 1.5 1.5 0 01.681-1.811z" transform="translate(-146 -88)"/><path id="Shape_1_copy-2" data-name="Shape 1 copy" class="cls-15" d="M249 344h2l-.007 6.491-11.49 3.757 9.486-6.012z" transform="translate(-146 -88)"/></g><g id="webmoney-2" data-name="webmoney"><path id="Shape_336_copy-2" data-name="Shape 336 copy" class="cls-12" d="M281.973 336.993a8.854 8.854 0 013.925.914q.279.133.558.294l-.824.743-1.239-1.288-2.093 1.874-1.242-1.362-3.9 3.528 2.5 2.767-.982.867 2.46 2.771-.976.865 3.515 3.933 2.087-1.931 1.8 2.068a9.42 9.42 0 01-1.18.788 8.849 8.849 0 01-4.409 1.176 9 9 0 010-18.007zm-1.633 8.435l2.13-1.928 1.919 2.141-2.13 1.927-1.919-2.14zm1.515 3.7l2.13-1.929 1.919 2.141-2.131 1.929-1.918-2.141zm-3.039-7.356l2.13-1.928 1.918 2.141-2.13 1.927-1.918-2.14zm3.909-1.038l1.6-1.445 1.438 1.605-1.6 1.447-1.439-1.607zm2.839 6.622l1.6-1.446 1.438 1.606-1.6 1.445-1.438-1.605zm1.4 3.243l1.6-1.446 1.439 1.606-1.6 1.445-1.439-1.605zm.644-7.432l1.065-.964.959 1.07-1.065.963-.959-1.069zm-1.361-3.182l1.065-.963.959 1.07-1.065.964-.959-1.071zm2.722 6.361l1.066-.964.965 1.071-1.065.964-.959-1.071zm-4.776-2.383l1.6-1.446 1.439 1.605-1.6 1.447-1.439-1.606z" transform="translate(-146 -88)"/></g><g id="qiwi-2" data-name="qiwi"><path id="Shape_340_copy-2" data-name="Shape 340 copy" class="cls-12" d="M327.593 351.383a3.366 3.366 0 00-1.08-1.886 2.787 2.787 0 00-.653-.471 2.44 2.44 0 00-.382-.18 2.3 2.3 0 00-1.081-.178 2.078 2.078 0 01.9-.114 4.362 4.362 0 01.764.18c.2.111.407.223.608.337a7.452 7.452 0 00-.247-4.783 8.555 8.555 0 00-2.318-3.368 7.716 7.716 0 00-3.759-1.931 6.21 6.21 0 00-2.477.023 5.56 5.56 0 00-1.913.919 5.675 5.675 0 00-1.328 1.528 3.089 3.089 0 00-.27.449c-.069.17-.147.333-.225.494a7.555 7.555 0 00-.4 3.638 8.342 8.342 0 00.608 2.223c.164.315.313.645.494.942a9.183 9.183 0 00.586.832 8.492 8.492 0 001.508 1.325 8.267 8.267 0 004.277 1.414.717.717 0 00-.068-.314c-.027-.108-.037-.232-.068-.337a3.357 3.357 0 010-.763.316.316 0 01.113.157.352.352 0 00.113.134 2.486 2.486 0 00.2.315 2.843 2.843 0 00.518.516 5.058 5.058 0 001.283.763 5.35 5.35 0 001.644.4c.6.081 1.181.183 1.732.314a6.666 6.666 0 011.441.606 5.937 5.937 0 01.63.4 1.674 1.674 0 01.293.225c.118.047.17.159.292.2a9.44 9.44 0 01.992 1.056 4.8 4.8 0 01.382.652c.082.09.106.238.18.337a.461.461 0 01.022.382c-.167.024-.133-.152-.2-.225a1.349 1.349 0 01-.158-.269c-.264-.277-.5-.58-.788-.831a6.165 6.165 0 00-.9-.7 6.787 6.787 0 00-2.206-1.011 8.333 8.333 0 00-2.858-.27 6.472 6.472 0 00-1.329.292 12.691 12.691 0 01-1.373.225 11.423 11.423 0 01-5.267-.988 8.332 8.332 0 01-1.981-1.235 6.191 6.191 0 01-.832-.786 5.2 5.2 0 01-.676-.921 8.994 8.994 0 01-.585-1.033 9.181 9.181 0 01-.405-1.19 5.939 5.939 0 01-.27-1.347c-.008-.135-.069-.395-.068-.606a.332.332 0 00.023-.068 2.151 2.151 0 010-.651 6.854 6.854 0 01.157-1.415 8.283 8.283 0 01.338-1.258c.134-.4.311-.766.472-1.144.109-.162.191-.349.293-.516.086-.177.215-.31.293-.5a2.178 2.178 0 00.18-.224c.035-.1.128-.142.157-.247a.748.748 0 00.18-.225.691.691 0 00.18-.224c.269-.264.509-.556.788-.808s.591-.489.879-.741c.182-.087.314-.225.494-.315.137-.125.337-.188.473-.314a11.388 11.388 0 011.1-.517 8.65 8.65 0 011.171-.426 9.5 9.5 0 012.813-.337c.039 0 .058-.039.067 0a8.858 8.858 0 014.8 1.5 8.481 8.481 0 012.926 3.346 8.805 8.805 0 01.743 5.232 8.843 8.843 0 01-1.306 3.413 2.852 2.852 0 01-.315.472.939.939 0 01-.157.224 1.088 1.088 0 01-.09.113.068.068 0 01-.045.045c0 .061-.022.069-.029.044zm-.539.585a1.106 1.106 0 01-.429-.674.559.559 0 010-.314.147.147 0 01.045-.023.259.259 0 01.225.045 1.387 1.387 0 01.271.561.38.38 0 01-.112.405zm-1.981-.382c0-.025.022-.013.022 0a.681.681 0 01.608.741.477.477 0 01-.383.426.692.692 0 01-.653-.987.459.459 0 01.406-.18z" transform="translate(-146 -88)"/></g><g id="PayPal_copy_2-2" data-name="PayPal copy 2"><path id="Shape_452_copy-2" data-name="Shape 452 copy" class="cls-16" d="M355.746 347.247c.332-2.211.78-4.55.9-5.321.076-.5.338-.912 1.34-.912h3.655c.848 0 2.878-.1 3.784 1.173 1.049 1.475.362 4.193-.087 5.135a5.186 5.186 0 01-1.894 2.129 7.133 7.133 0 01-2.773.56c-1.01.014-1.275-.117-1.444.99s-.535 3.067-.566 3.311a.72.72 0 01-.844.684h-2.532c-.339 0-.647.078-.555-.635.143-1.114.816-5.779 1.016-7.114z" transform="translate(-146 -88)"/><path class="cls-17" d="M352.238 344.581c.355-2.182.956-5.92 1.082-6.68.082-.5.363-.9 1.436-.9h5c.908 0 3.25.107 4.259 1.221 1.047 1.157 1.353 2.86.478 5.061a5.567 5.567 0 01-2.986 3.2 11.3 11.3 0 01-4.177.506c-1.082.014-1.426-.1-1.607.994s-.719 4.1-.752 4.343-.013.675-.9.675h-2.481c-.364 0-.712.074-.595-.627.17-1.028 1.029-6.474 1.243-7.793z" transform="translate(-146 -88)"/><path id="Shape_452_copy_4-2" data-name="Shape 452 copy 4" class="cls-12" d="M364.494 343.283a5.567 5.567 0 01-2.986 3.2 12.123 12.123 0 01-4.334.506c-1.081.014-1.331-.1-1.513.994 0 0-.033.011-.033.015h.007l.111-.753c.332-2.211.78-4.55.9-5.321.076-.5.338-.912 1.34-.912h3.655a5.634 5.634 0 013.3.693 7.335 7.335 0 01-.447 1.578z" transform="translate(-146 -88)"/></g><g id="sberbank-2" data-name="sberbank"><path id="Rectangle_293_copy_8-2" data-name="Rectangle 293 copy 8" class="cls-12" d="M391.835 348.212v.007-.007l12.1-6.971a9.354 9.354 0 011.065 4.312 9.5 9.5 0 01-19 0c0-.231.011-.459.028-.686zm.007-1.164l-5.672-3.268a9.216 9.216 0 01.235-.957l5.43 3.129v.006-.006l11.026-6.352q.3.369.564.767zm10.334-8.214l-10.334 5.953-5.086-2.931a9.177 9.177 0 01.417-.851l4.662 2.686v.006-.006l9.578-5.518a9.8 9.8 0 01.763.661zm-10.337 2.6v-.006l7.698-4.428a9.282 9.282 0 01.977.529l-8.672 5-4.13-2.379a9.51 9.51 0 01.588-.753l3.535 2.036z" transform="translate(-146 -88)"/></g><g id="Maestro_copy_2-2" data-name="Maestro copy 2"><path id="Ellipse_52_copy_4-2" data-name="Ellipse 52 copy 4" class="cls-18" d="M441 354a7.955 7.955 0 01-4-1.079 7.988 7.988 0 000-13.842A8 8 0 11441 354z" transform="translate(-146 -88)"/><path id="Ellipse_52_copy_5-2" data-name="Ellipse 52 copy 5" class="cls-12" d="M433 346a7.991 7.991 0 004 6.921 8 8 0 110-13.842 7.991 7.991 0 00-4 6.921z" transform="translate(-146 -88)"/><path id="Ellipse_52_copy_9-2" data-name="Ellipse 52 copy 9" class="cls-19" d="M437 352.921a7.988 7.988 0 010-13.842 7.988 7.988 0 010 13.842z" transform="translate(-146 -88)"/></g><g id="alfabank-2" data-name="alfabank"><path id="Rounded_Rectangle_230-2" data-name="Rounded Rectangle 230" class="cls-12" d="M481.839 350.268l-2.02.734a.265.265 0 01-.333-.154l-1.047-2.832h-4.9l-1.044 2.826a.264.264 0 01-.332.155l-2.017-.734a.249.249 0 01-.161-.319l4.078-10.7a2.1 2.1 0 013.844 0L482 349.95a.248.248 0 01-.161.318zm-5.53-8.324l-.321-.9v-.007L474.143 346h3.692zM469.984 353h12.032a.985.985 0 010 1.969h-12.032a.985.985 0 010-1.969z" transform="translate(-146 -88)"/></g><g id="mir-2" data-name="mir"><path id="Rectangle_295_copy-2" data-name="Rectangle 295 copy" class="cls-12" d="M512.01 351v-5.345h-.244l-1.74 5.345h-2.072l-1.736-5.345h-.242V351H503v-9h2.976a1.724 1.724 0 011.66 1.186l1.223 4.16h.257l1.225-4.16A1.726 1.726 0 01512.01 342h2.976v9h-2.976z" transform="translate(-146 -88)"/><path class="cls-12" d="M522.978 351v-5.345h-.227l-1.881 4.485a1.46 1.46 0 01-1.332.86h-2.525v-9h3v5.345h.238l1.905-4.49.015-.034a1.46 1.46 0 011.312-.817h2.525v9h-3.028zm11.569-2.986h-3.528V351h-3v-5.007h9.953a3.6 3.6 0 01-3.425 2.021z" transform="translate(-146 -88)"/><path id="Ellipse_53_copy_2-2" data-name="Ellipse 53 copy 2" class="cls-20" d="M537.919 345.006h-5.412c-2.472 0-4.528-1.3-4.961-3.006h7.023c1.89 0 3.422 1.117 3.422 2.494a1.873 1.873 0 01-.072.512z" transform="translate(-146 -88)"/></g><g id="Group_1_copy_4-2" data-name="Group 1 copy 4"><path id="Rounded_Rectangle_231_copy_2-2" data-name="Rounded Rectangle 231 copy 2" class="cls-12" d="M562.383 342.969v3.831a1.279 1.279 0 01-1.487 1.2h-.214a5.568 5.568 0 01-2.693-.882V340.2a3.114 3.114 0 013.042-3.181h3.978v5.954h-2.626zM560.65 349h.867c1.886 0 3.308-.958 3.492-2.184v5a3.114 3.114 0 01-3.042 3.184h-3.978v-6.5a10.177 10.177 0 002.661.5z" transform="translate(-146 -88)"/><path class="cls-12" d="M569.961 355H566v-6.523a7.726 7.726 0 003.251.68 8.161 8.161 0 002.719-.455v-1.38a5.377 5.377 0 01-2.593.7 2.028 2.028 0 010-4.037 5.4 5.4 0 012.593.706v-1.363a8.161 8.161 0 00-2.719-.456 7.742 7.742 0 00-3.251.68V340.2a3.108 3.108 0 013.03-3.181h3.961v14.8a3.108 3.108 0 01-3.03 3.181z" transform="translate(-146 -88)"/><path id="Rounded_Rectangle_232_copy_2-2" data-name="Rounded Rectangle 232 copy 2" class="cls-12" d="M577.72 347.326a.709.709 0 01-.742.671H575v-1.343h1.981a.71.71 0 01.739.672zm-2.72-3.34h1.733a.676.676 0 110 1.345H575v-1.345zM577.4 355H574v-5.992h3.928a1.511 1.511 0 100-3h-.554a1.506 1.506 0 100-3h-3.373V340.2a2.934 2.934 0 012.6-3.181H580v14.8a2.933 2.933 0 01-2.6 3.181z" transform="translate(-146 -88)"/></g><g id="Assist_copy" data-name="Assist copy"><path id="Shape_453_copy_3-2" data-name="Shape 453 copy 3" class="cls-21" d="M600.983 344.516s1.165 1.506 4.628 1.506c3.638 0 7-3.607 10.6-3.65 3.818-.045 4.806 1.46 4.806 1.46" transform="translate(-146 -88)"/><path id="Shape_453_copy_2-2" data-name="Shape 453 copy 2" class="cls-21" d="M600.983 348.146a8.1 8.1 0 005.165 1.5c3.639 0 7.33-3.6 10.923-3.649 3.167-.045 3.945 1.46 3.945 1.46" transform="translate(-146 -88)"/><path id="Ellipse_54_copy_2-2" data-name="Ellipse 54 copy 2" class="cls-21" d="M618.77 346.716a7.982 7.982 0 01-15.113 2.8m-.759-4.463a7.982 7.982 0 0115.046-2.659" transform="translate(-146 -88)"/></g><g id="Яндекс_Касса_copy" data-name="Яндекс Касса copy"><path class="cls-22" d="M643.761 341.5l5.883-5.5 5.349 5-5.884 5.5z" transform="translate(-146 -88)"/><path id="Rectangle_301_copy-2" data-name="Rectangle 301 copy" class="cls-12" d="M647.505 343l7.488 7-5.349 5-5.883-5.5a5.4 5.4 0 010-8l1.07-1 2.674-2.5a3.374 3.374 0 000 5z" transform="translate(-146 -88)"/><circle class="cls-13" cx="511.5" cy="257.5" r="2.5"/></g></g><g id="payment_small" data-name="payment small"><g id="Наличными-3" data-name="Наличными"><path id="Rounded_Rectangle_224_copy-3" data-name="Rounded Rectangle 224 copy" class="cls-23" d="M157 286a1 1 0 011 1v6a1 1 0 01-2 0v-6a1 1 0 011-1zm3 2a1 1 0 011 1v6a1 1 0 01-2 0v-6a1 1 0 011-1zm-6 0a1 1 0 011 1v5a1 1 0 01-2 0v-5a1 1 0 011-1zm-3 2a1 1 0 011 1v4a1 1 0 01-2 0v-4a1 1 0 011-1z" transform="translate(-146 -88)"/><path d="M159 292.011v-1.026h2.011v1.026H159zm-1 0h-2v-1.026h2v1.026zm-5-1.026h2v1.026h-2v-1.026zm-2.989 0H152v1.026h-1.989v-1.026z" transform="translate(-146 -88)" fill="#d09889" opacity=".5" fill-rule="evenodd"/><path id="Rounded_Rectangle_226_copy" data-name="Rounded Rectangle 226 copy" class="cls-23" d="M163 297v5.931a6.479 6.479 0 01-5.5 3.069h-1a6.5 6.5 0 01-6.5-6.5v-1a6.136 6.136 0 01.21-1.5H163z" transform="translate(-146 -88)"/><path id="Rectangle_100_copy" data-name="Rectangle 100 copy" class="cls-25" d="M0 204h20v10H0z"/><path fill="#89af6d" d="M0 204h20v1H0z"/><circle class="cls-27" cx="5.5" cy="208.5" r="2.5"/><path id="Rounded_Rectangle_229" data-name="Rounded Rectangle 229" class="cls-28" d="M163 302v-1h3v1h-3zm-6.859 0H146v-1h10a4 4 0 014-4v-2a1 1 0 012 0v2.555a4.055 4.055 0 01.988.844V302h-6.847z" transform="translate(-146 -88)"/><path id="Ellipse_50_copy-3" data-name="Ellipse 50 copy" class="cls-23" d="M163 301v1.937h-5.684a3.434 3.434 0 013.684-4.886V295a1 1 0 012 0v6z" transform="translate(-146 -88)"/></g><g id="visa-3" data-name="visa"><path class="cls-29" d="M40 199h32v19H40z"/><path id="Shape_337_copy_2" data-name="Shape 337 copy 2" class="cls-30" d="M215.108 302s-.23-1.4-.307-1.752h-3.318c-.092.275-.551 1.752-.551 1.752h-2.707l3.839-9.156a1.268 1.268 0 011.346-.84h2l2.1 10h-2.4zm-1.331-6.441l-.184-.854c-.122.381-.352.977-.336.961 0 0-.826 2.212-1.025 2.792h2.141c-.107-.503-.596-2.899-.596-2.899zm-5.568-1.25a4.337 4.337 0 00-1.927-.382c-1.025 0-1.484.427-1.5.854 0 .474.551.778 1.468 1.236 1.484.7 2.172 1.572 2.157 2.716-.015 2.059-1.774 3.4-4.5 3.4a7.9 7.9 0 01-2.875-.533l.351-2.243.352.168a5.213 5.213 0 002.417.534 1.347 1.347 0 001.56-.977c0-.442-.336-.763-1.346-1.251-.979-.472-2.279-1.265-2.264-2.7.016-1.937 1.805-3.3 4.36-3.3a6.582 6.582 0 012.325.411l-.352 2.167zM196.829 302l1.622-10h2.585l-1.621 10h-2.586zm-6.225 0l-2.305-8.671c-.078-.046-.161-.088-.242-.132h1.543l.57.4 1.046 1.6.444 1.226.2 1.013.276 1.373 2.537-6.809h2.738l-4.069 10H190.6z" transform="translate(-146 -88)"/><path id="Shape_338_copy_2-3" data-name="Shape 338 copy 2" class="cls-31" d="M189.435 294.494a5.9 5.9 0 00-1-.633l-.147-.554a10.387 10.387 0 00-2.323-1.009v-.31h3.971a1.04 1.04 0 011.015.825l.86 4.407a10.8 10.8 0 00-2.376-2.726z" transform="translate(-146 -88)"/></g><g id="yandexdengi-3" data-name="yandexdengi"><path id="Rounded_Rectangle_1" data-name="Rounded Rectangle 1" class="cls-32" d="M252.014 305H239a1 1 0 01-1-1v-9.026a.989.989 0 01.33-.733l.041-.307 9.854-7.969h.752v8.009h4.037V305h-1z" transform="translate(-146 -88)"/><path class="cls-33" d="M248.989 293.978h2v6.513l-11.49 3.757 9.486-6.012v-4.258z" transform="translate(-146 -88)"/><circle cx="99.453" cy="206.485" r="1.297" fill="#231f20"/></g><g id="webmoney-3" data-name="webmoney"><path id="Shape_336_copy-3" data-name="Shape 336 copy" class="cls-35" d="M281.973 286.993a8.854 8.854 0 013.925.914q.279.133.558.294l-.824.743-1.239-1.288-2.093 1.874-1.242-1.362-3.9 3.528 2.5 2.767-.982.867 2.46 2.771-.976.865 3.515 3.933 2.087-1.931 1.8 2.068a9.42 9.42 0 01-1.18.788 8.849 8.849 0 01-4.409 1.176 9 9 0 010-18.007zm-1.633 8.435l2.13-1.928 1.919 2.141-2.13 1.927-1.919-2.14zm1.515 3.7l2.13-1.929 1.919 2.141-2.131 1.929-1.918-2.141zm-3.039-7.356l2.13-1.928 1.918 2.141-2.13 1.927-1.918-2.14zm3.909-1.038l1.6-1.445 1.438 1.605-1.6 1.447-1.439-1.607zm2.839 6.622l1.6-1.446 1.438 1.606-1.6 1.445-1.438-1.605zm1.4 3.243l1.6-1.446 1.439 1.606-1.6 1.445-1.439-1.605zm.644-7.432l1.065-.964.959 1.07-1.065.963-.959-1.069zm-1.361-3.182l1.065-.963.959 1.07-1.065.964-.959-1.071zm2.722 6.361l1.066-.964.965 1.071-1.065.964-.959-1.071zm-4.776-2.383l1.6-1.446 1.439 1.605-1.6 1.447-1.439-1.606z" transform="translate(-146 -88)"/></g><g id="qiwi-3" data-name="qiwi"><path id="Shape_340_copy-3" data-name="Shape 340 copy" class="cls-36" d="M327.593 301.383a3.366 3.366 0 00-1.08-1.886 2.787 2.787 0 00-.653-.471 2.44 2.44 0 00-.382-.18 2.283 2.283 0 00-1.081-.178 2.078 2.078 0 01.9-.114 4.362 4.362 0 01.764.18c.2.111.407.223.608.337a7.452 7.452 0 00-.247-4.783 8.555 8.555 0 00-2.318-3.368 7.716 7.716 0 00-3.759-1.931 6.21 6.21 0 00-2.477.023 5.56 5.56 0 00-1.913.919 5.675 5.675 0 00-1.328 1.528 3.089 3.089 0 00-.27.449c-.069.17-.147.333-.225.494a7.555 7.555 0 00-.4 3.638 8.342 8.342 0 00.608 2.223c.164.315.313.645.494.942a9.183 9.183 0 00.586.832 8.492 8.492 0 001.508 1.325 8.267 8.267 0 004.277 1.414.717.717 0 00-.068-.314c-.027-.108-.037-.232-.068-.337a3.357 3.357 0 010-.763.316.316 0 01.113.157.352.352 0 00.113.134 2.486 2.486 0 00.2.315 2.812 2.812 0 00.518.516 4.981 4.981 0 001.283.763 5.35 5.35 0 001.644.4c.6.081 1.181.183 1.732.314a6.666 6.666 0 011.441.606 5.937 5.937 0 01.63.4 1.674 1.674 0 01.293.225c.118.047.17.159.292.2a9.44 9.44 0 01.992 1.056 4.8 4.8 0 01.382.652c.082.09.106.238.18.337a.461.461 0 01.022.382c-.167.024-.133-.152-.2-.225a1.349 1.349 0 01-.158-.269c-.264-.277-.5-.58-.788-.831a6.165 6.165 0 00-.9-.7 6.787 6.787 0 00-2.206-1.011 8.333 8.333 0 00-2.858-.27 6.472 6.472 0 00-1.329.292 12.691 12.691 0 01-1.373.225 11.436 11.436 0 01-5.267-.988 8.332 8.332 0 01-1.981-1.235 6.191 6.191 0 01-.832-.786 5.2 5.2 0 01-.676-.921 8.994 8.994 0 01-.585-1.033 9.181 9.181 0 01-.405-1.19 5.939 5.939 0 01-.27-1.347c-.008-.135-.069-.395-.068-.606a.332.332 0 00.023-.068 2.151 2.151 0 010-.651 6.854 6.854 0 01.157-1.415 8.315 8.315 0 01.338-1.258c.134-.4.311-.766.472-1.144.109-.162.191-.349.293-.516.086-.177.215-.31.293-.5a2.178 2.178 0 00.18-.224c.035-.1.128-.142.157-.247a.748.748 0 00.18-.225.691.691 0 00.18-.224c.269-.264.509-.556.788-.808s.591-.489.879-.741c.182-.087.314-.225.494-.315.137-.125.337-.188.473-.314a11.388 11.388 0 011.1-.517 8.65 8.65 0 011.171-.426 9.5 9.5 0 012.813-.337c.039 0 .058-.039.067 0a8.858 8.858 0 014.8 1.5 8.481 8.481 0 012.926 3.346 8.805 8.805 0 01.743 5.232 8.843 8.843 0 01-1.306 3.413 2.852 2.852 0 01-.315.472.939.939 0 01-.157.224 1.088 1.088 0 01-.09.113.068.068 0 01-.045.045c0 .061-.022.069-.029.044zm-.539.585a1.106 1.106 0 01-.429-.674.559.559 0 010-.314.147.147 0 01.045-.023.259.259 0 01.225.045 1.387 1.387 0 01.271.561.38.38 0 01-.112.405zm-1.981-.382c0-.025.022-.013.022 0a.681.681 0 01.608.741.477.477 0 01-.383.426.692.692 0 01-.653-.987.459.459 0 01.406-.18z" transform="translate(-146 -88)"/></g><g id="PayPal_copy_2-3" data-name="PayPal copy 2"><path id="Shape_452_copy-3" data-name="Shape 452 copy" class="cls-37" d="M355.746 297.247c.332-2.211.78-4.55.9-5.321.076-.5.338-.912 1.34-.912h3.655c.848 0 2.878-.1 3.784 1.173 1.049 1.475.362 4.193-.087 5.135a5.186 5.186 0 01-1.894 2.129 7.133 7.133 0 01-2.773.56c-1.01.014-1.275-.117-1.444.99s-.535 3.067-.566 3.311a.72.72 0 01-.844.684h-2.532c-.339 0-.647.078-.555-.635.143-1.114.816-5.779 1.016-7.114z" transform="translate(-146 -88)"/><path class="cls-38" d="M352.238 294.581c.355-2.182.956-5.92 1.082-6.68.082-.5.363-.9 1.436-.9h5c.908 0 3.25.107 4.259 1.221 1.047 1.157 1.353 2.86.478 5.061a5.567 5.567 0 01-2.986 3.2 11.3 11.3 0 01-4.177.506c-1.082.014-1.426-.1-1.607.994s-.719 4.1-.752 4.343-.013.675-.9.675h-2.481c-.364 0-.712.074-.595-.627.17-1.027 1.029-6.474 1.243-7.793z" transform="translate(-146 -88)"/><path id="Shape_452_copy_4-3" data-name="Shape 452 copy 4" class="cls-39" d="M364.494 293.283a5.567 5.567 0 01-2.986 3.2 12.123 12.123 0 01-4.334.506c-1.081.014-1.331-.1-1.513.994 0 0-.033.011-.033.015h.007l.111-.753c.332-2.211.78-4.55.9-5.321.076-.5.338-.912 1.34-.912h3.655a5.634 5.634 0 013.3.693 7.335 7.335 0 01-.447 1.578z" transform="translate(-146 -88)"/></g><g id="sberbank-3" data-name="sberbank"><path id="Rectangle_293_copy_8-3" data-name="Rectangle 293 copy 8" class="cls-40" d="M391.835 298.212v.007-.007l12.1-6.971a9.354 9.354 0 011.065 4.312 9.5 9.5 0 01-19 0c0-.231.011-.459.028-.686zm.007-1.164l-5.672-3.268a9.216 9.216 0 01.235-.957l5.43 3.129v.006-.006l11.026-6.352q.3.369.564.767zm10.334-8.214l-10.334 5.953-5.086-2.931a9.177 9.177 0 01.417-.851l4.662 2.686v.006-.006l9.578-5.518a9.8 9.8 0 01.763.661zm-10.337 2.6v-.006l7.698-4.428a9.282 9.282 0 01.977.529l-8.672 5-4.13-2.379a9.51 9.51 0 01.588-.753l3.535 2.036z" transform="translate(-146 -88)"/></g><g id="mastercard"><path id="Rectangle_292_copy" data-name="Rectangle 292 copy" class="cls-29" d="M279 198h28v19h-28z"/><ellipse class="cls-41" cx="286.781" cy="208" rx="7.781" ry="8"/><circle class="cls-42" cx="299.219" cy="208" r="7.781"/><path id="Shape_341_copy_3" data-name="Shape 341 copy 3" class="cls-2" d="M430.412 297.968h-.688l.629-3.238h-.011l-1.286 3.238h-.837l-.019-3.238h-.011l-.511 3.238h-.688l.754-3.977h1.075l.047 3.1h.012l1.219-3.1h1.064l-.749 3.977zm5.18-2.22a3.987 3.987 0 00-.924-.062c-.373.042-.454.146-.478.266-.085.446 1.612.018 1.406 1.05a1.285 1.285 0 01-1.332 1 2.894 2.894 0 01-1.1-.137l.1-.545a4.683 4.683 0 001.052.088.591.591 0 00.571-.285c.094-.471-1.6-.117-1.394-1.166a1.11 1.11 0 011.243-.829 3.735 3.735 0 01.947.133l-.093.491zm.389-.132l.252-1.05h.687l-.147.526h.427l-.1.524h-.427l-.3 1.519c-.031.166-.039.229.241.229a.845.845 0 00.144-.013l-.1.566c-.108 0-.233.075-.341.075h-.086c-.594 0-.652-.312-.578-.678l.334-1.7zm1.657 1.212a.457.457 0 00.494.606 1.932 1.932 0 001.2-.32l-.109.525a1.909 1.909 0 01-1.223.32c-.734 0-1.227-.379-1-1.527a1.629 1.629 0 011.534-1.419c.516 0 1.177.409.92 1.686l-.023.129h-1.8zm1.181-.545a.505.505 0 00-.415-.662.774.774 0 00-.652.662h1.067zm1.068-1.141h.657l-.1.429h.011a1 1 0 01.828-.554c.046 0 .147.021.19.026l-.253.728a.764.764 0 00-.147-.009.731.731 0 00-.769.666l-.288 1.566h-.687l.555-2.852zm4.152-.3a1.218 1.218 0 00-.858-.142 1.377 1.377 0 00-1.138 1.319 1 1 0 00.516 1.322 1.484 1.484 0 001.146-.2l-.186.686a1.248 1.248 0 01-1.006.171c-.94-.058-1.48-.682-1.22-1.988a2.153 2.153 0 012.02-1.993 1.17 1.17 0 01.85.353l-.124.475zm6.2 3.129h-.672l.07-.43h-.008a1.018 1.018 0 01-.842.421c-.777 0-.956-.733-.8-1.5a1.55 1.55 0 011.375-1.444.647.647 0 01.667.437h.012L450.3 294h.688l-.75 3.968zm-1.165-.612a.865.865 0 00.769-.8c.089-.449.058-.9-.412-.9a.889.889 0 00-.753.861c-.066.329-.043.845.4.845zm-2.983-.063s-.066.3-.081.449l-.035.252h-.61a2.38 2.38 0 010-.439 1.281 1.281 0 01-.924.4.607.607 0 01-.633-.812 1.063 1.063 0 01.94-.894l.637-.1c.112-.017.252.062.287-.1a.324.324 0 00-.388-.374 2.586 2.586 0 00-1.053.183l.156-.545a2.2 2.2 0 011.1-.183.734.734 0 01.893.8l-.284 1.357zm-.539-.77a1.166 1.166 0 01-.5.15.546.546 0 00-.547.424.247.247 0 00.252.337.743.743 0 00.723-.553l.07-.358zm1.176-1.381h.657l-.1.482h.015a.994.994 0 01.827-.553c.047 0 .148.021.191.025l-.253.728a.764.764 0 00-.147-.009.694.694 0 00-.769.613l-.288 1.566h-.687l.555-2.852zm-13.716 2.151s-.066.3-.082.449l-.035.253h-.61a2.483 2.483 0 010-.44 1.294 1.294 0 01-.924.439.634.634 0 01-.633-.847 1.064 1.064 0 01.94-.894l.637-.1a.3.3 0 00.287-.221c.059-.311-.213-.263-.388-.267a2.6 2.6 0 00-1.052.183l.155-.545a2.212 2.212 0 011.095-.183.734.734 0 01.893.8l-.283 1.374zm-.54-.77a1.165 1.165 0 01-.5.15.547.547 0 00-.548.424.247.247 0 00.253.337.742.742 0 00.722-.553l.07-.358z" transform="translate(-146 -88)"/><path id="Shape_341_copy_4" data-name="Shape 341 copy 4" class="cls-2" d="M430.412 297.968h-.688l.629-3.238h-.011l-1.286 3.238h-.837l-.019-3.238h-.011l-.511 3.238h-.688l.754-3.977h1.075l.047 3.1h.012l1.219-3.1h1.064l-.749 3.977zm5.18-2.22a3.987 3.987 0 00-.924-.062c-.373.042-.454.146-.478.266-.085.446 1.612.018 1.406 1.05a1.285 1.285 0 01-1.332 1 2.894 2.894 0 01-1.1-.137l.1-.545a4.683 4.683 0 001.052.088.591.591 0 00.571-.285c.094-.471-1.6-.117-1.394-1.166a1.11 1.11 0 011.243-.829 3.735 3.735 0 01.947.133l-.093.491zm.389-.132l.252-1.05h.687l-.147.526h.427l-.1.524h-.427l-.3 1.519c-.031.166-.039.229.241.229a.845.845 0 00.144-.013l-.1.566c-.108 0-.233.075-.341.075h-.086c-.594 0-.652-.312-.578-.678l.334-1.7zm1.657 1.212a.457.457 0 00.494.606 1.932 1.932 0 001.2-.32l-.109.525a1.909 1.909 0 01-1.223.32c-.734 0-1.227-.379-1-1.527a1.629 1.629 0 011.534-1.419c.516 0 1.177.409.92 1.686l-.023.129h-1.8zm1.181-.545a.505.505 0 00-.415-.662.774.774 0 00-.652.662h1.067zm1.068-1.141h.657l-.1.429h.011a1 1 0 01.828-.554c.046 0 .147.021.19.026l-.253.728a.764.764 0 00-.147-.009.731.731 0 00-.769.666l-.288 1.566h-.687l.555-2.852zm4.152-.3a1.218 1.218 0 00-.858-.142 1.377 1.377 0 00-1.138 1.319 1 1 0 00.516 1.322 1.484 1.484 0 001.146-.2l-.186.686a1.248 1.248 0 01-1.006.171c-.94-.058-1.48-.682-1.22-1.988a2.153 2.153 0 012.02-1.993 1.17 1.17 0 01.85.353l-.124.475zm6.2 3.129h-.672l.07-.43h-.008a1.018 1.018 0 01-.842.421c-.777 0-.956-.733-.8-1.5a1.55 1.55 0 011.375-1.444.647.647 0 01.667.437h.012L450.3 294h.688l-.75 3.968zm-1.165-.612a.865.865 0 00.769-.8c.089-.449.058-.9-.412-.9a.889.889 0 00-.753.861c-.066.329-.043.845.4.845zm-2.983-.063s-.066.3-.081.449l-.035.252h-.61a2.38 2.38 0 010-.439 1.281 1.281 0 01-.924.4.607.607 0 01-.633-.812 1.063 1.063 0 01.94-.894l.637-.1c.112-.017.252.062.287-.1a.324.324 0 00-.388-.374 2.586 2.586 0 00-1.053.183l.156-.545a2.2 2.2 0 011.1-.183.734.734 0 01.893.8l-.284 1.357zm-.539-.77a1.166 1.166 0 01-.5.15.546.546 0 00-.547.424.247.247 0 00.252.337.743.743 0 00.723-.553l.07-.358zm1.176-1.381h.657l-.1.482h.015a.994.994 0 01.827-.553c.047 0 .148.021.191.025l-.253.728a.764.764 0 00-.147-.009.694.694 0 00-.769.613l-.288 1.566h-.687l.555-2.852zm-13.716 2.151s-.066.3-.082.449l-.035.253h-.61a2.483 2.483 0 010-.44 1.294 1.294 0 01-.924.439.634.634 0 01-.633-.847 1.064 1.064 0 01.94-.894l.637-.1a.3.3 0 00.287-.221c.059-.311-.213-.263-.388-.267a2.6 2.6 0 00-1.052.183l.155-.545a2.212 2.212 0 011.095-.183.734.734 0 01.893.8l-.283 1.374zm-.54-.77a1.165 1.165 0 01-.5.15.547.547 0 00-.548.424.247.247 0 00.253.337.742.742 0 00.722-.553l.07-.358z" transform="translate(-146 -88)"/></g><g id="Mastercard_copy_2" data-name="Mastercard copy 2"><circle id="Ellipse_52_copy" data-name="Ellipse 52 copy" class="cls-43" cx="335" cy="208" r="8"/><circle class="cls-44" cx="343" cy="208" r="8"/><path id="Ellipse_52_copy_8" data-name="Ellipse 52 copy 8" class="cls-45" d="M485 302.921a7.988 7.988 0 010-13.842 7.988 7.988 0 010 13.842z" transform="translate(-146 -88)"/></g><g id="Maestro_copy_2-3" data-name="Maestro copy 2"><circle id="Ellipse_52_copy_5-3" data-name="Ellipse 52 copy 5" class="cls-46" cx="379" cy="208" r="8"/><circle id="Ellipse_52_copy_4-3" data-name="Ellipse 52 copy 4" class="cls-47" cx="387" cy="208" r="8"/><path id="Ellipse_52_copy_9-3" data-name="Ellipse 52 copy 9" class="cls-48" d="M529 302.921a7.988 7.988 0 010-13.842 7.988 7.988 0 010 13.842z" transform="translate(-146 -88)"/></g><g id="alfabank-3" data-name="alfabank"><path id="Rounded_Rectangle_230-3" data-name="Rounded Rectangle 230" class="cls-49" d="M573.839 300.268l-2.02.734a.265.265 0 01-.333-.154l-1.047-2.832h-4.9l-1.044 2.826a.264.264 0 01-.332.155l-2.017-.734a.249.249 0 01-.161-.319l4.078-10.7a2.1 2.1 0 013.844 0L574 299.95a.248.248 0 01-.161.318zm-5.53-8.324l-.321-.9v-.007L566.143 296h3.692zM561.984 303h12.032a.985.985 0 010 1.969h-12.032a.985.985 0 010-1.969z" transform="translate(-146 -88)"/></g><g id="mir-3" data-name="mir"><path id="Rectangle_295_copy-3" data-name="Rectangle 295 copy" class="cls-50" d="M604.01 301v-5.345h-.244l-1.74 5.345h-2.072l-1.736-5.345h-.242V301H595v-9h2.976a1.724 1.724 0 011.66 1.186l1.223 4.16h.257l1.225-4.16A1.726 1.726 0 01604.01 292h2.976v9h-2.976z" transform="translate(-146 -88)"/><path class="cls-50" d="M614.978 301v-5.345h-.227l-1.881 4.485a1.46 1.46 0 01-1.332.86h-2.525v-9h3v5.345h.238l1.905-4.49.015-.034a1.46 1.46 0 011.312-.817h2.525v9h-3.028zm11.569-2.986h-3.528V301h-3v-5.007h9.953a3.6 3.6 0 01-3.425 2.021z" transform="translate(-146 -88)"/><path id="Ellipse_53_copy_2-3" data-name="Ellipse 53 copy 2" d="M629.919 295.006h-5.412c-2.472 0-4.528-1.3-4.961-3.006h7.023c1.89 0 3.422 1.117 3.422 2.494a1.873 1.873 0 01-.072.512z" transform="translate(-146 -88)" fill="url(#linear-gradient)" fill-rule="evenodd"/></g><g id="JCB"><path id="Rounded_Rectangle_233" data-name="Rounded Rectangle 233" class="cls-52" d="M653.031 287.015h3.978v14.8a3.114 3.114 0 01-3.042 3.185h-3.978v-14.8a3.114 3.114 0 013.042-3.185z" transform="translate(-146 -88)"/><path id="Rounded_Rectangle_233_copy" data-name="Rounded Rectangle 233 copy" class="cls-53" d="M661.029 287.015h3.961v14.8a3.108 3.108 0 01-3.03 3.185H658v-14.8a3.108 3.108 0 013.029-3.185z" transform="translate(-146 -88)"/><path id="Rounded_Rectangle_233_copy_2" data-name="Rounded Rectangle 233 copy 2" class="cls-54" d="M668.605 287.015H672v14.8a2.933 2.933 0 01-2.6 3.185H666v-14.8a2.934 2.934 0 012.605-3.185z" transform="translate(-146 -88)"/><path class="cls-2" d="M661.376 298.026a5.378 5.378 0 002.593-.7v1.38a8.161 8.161 0 01-2.719.455 7.722 7.722 0 01-3.25-.68v-4.921a7.737 7.737 0 013.25-.68 8.161 8.161 0 012.719.456v1.363a5.4 5.4 0 00-2.593-.706 2.028 2.028 0 000 4.033z" transform="translate(-146 -88)"/><path id="Rounded_Rectangle_231_copy_2-3" data-name="Rounded Rectangle 231 copy 2" class="cls-2" d="M653.517 299h-.867a10.212 10.212 0 01-2.65-.5v-1.378a5.623 5.623 0 002.682.872h.218a1.279 1.279 0 001.487-1.2v-3.826h2.6v3.588c-.004 1.353-1.45 2.444-3.47 2.444z" transform="translate(-146 -88)"/><path id="Rounded_Rectangle_232_copy" data-name="Rounded Rectangle 232 copy" class="cls-2" d="M671.634 297.508a1.655 1.655 0 01-1.7 1.5H666v-6h3.38a1.506 1.506 0 110 3h.554a1.656 1.656 0 011.7 1.5z" transform="translate(-146 -88)"/><path id="Rounded_Rectangle_232" data-name="Rounded Rectangle 232" class="cls-55" d="M668.73 295.331H667v-1.345h1.733a.676.676 0 11-.003 1.345z" transform="translate(-146 -88)"/><path id="Rounded_Rectangle_232_copy_2-3" data-name="Rounded Rectangle 232 copy 2" class="cls-55" d="M668.978 298H667v-1.343h1.981a.675.675 0 11-.003 1.343z" transform="translate(-146 -88)"/></g><g id="Assist"><path id="Shape_453_copy_3-3" data-name="Shape 453 copy 3" class="cls-56" d="M692.983 294.516s1.165 1.506 4.628 1.506c3.638 0 7-3.607 10.6-3.65 3.818-.045 4.806 1.46 4.806 1.46" transform="translate(-146 -88)"/><path id="Shape_453_copy_2-3" data-name="Shape 453 copy 2" class="cls-56" d="M692.983 298.146a8.1 8.1 0 005.165 1.5c3.639 0 7.33-3.6 10.923-3.649 3.167-.045 3.945 1.46 3.945 1.46" transform="translate(-146 -88)"/><path id="Ellipse_54_copy_2-3" data-name="Ellipse 54 copy 2" class="cls-56" d="M710.77 296.716a7.982 7.982 0 01-15.113 2.8m-.759-4.462a7.981 7.981 0 0115.046-2.66" transform="translate(-146 -88)"/></g><g id="Яндекс_Касса" data-name="Яндекс Касса"><path class="cls-57" d="M735.761 291.5l5.883-5.5 5.349 5-5.883 5.5z" transform="translate(-146 -88)"/><path id="Rectangle_301_copy-3" data-name="Rectangle 301 copy" d="M739.505 293l7.488 7-5.349 5-5.883-5.5a5.4 5.4 0 010-8l1.07-1 2.674-2.5a3.374 3.374 0 000 5z" transform="translate(-146 -88)" fill="url(#linear-gradient-2)" fill-rule="evenodd"/><circle class="cls-59" cx="603.5" cy="207.5" r="2.5"/></g></g><g id="payment_big_white" data-name="payment big white"><g id="Наличными_copy" data-name="Наличными copy"><path id="Rounded_Rectangle_224_copy-4" data-name="Rounded Rectangle 224 copy" class="cls-1" d="M162 227v-3.5a1.5 1.5 0 113 0v3.5h-3zm-4 0v-5.5a1.5 1.5 0 013 0v5.5h-3zm-4 0v-3.517a1.484 1.484 0 011.484-1.483h.032a1.485 1.485 0 011.484 1.483V227h-3zm-4 0v-.5a1.5 1.5 0 013 0v.5h-3z" transform="translate(-146 -88)"/><path id="Ellipse_50_copy_2" data-name="Ellipse 50 copy 2" class="cls-2" d="M167.9 240a1.458 1.458 0 00.1-.5v-8a1.5 1.5 0 10-3 0v4.615a4.841 4.841 0 00-1-.116 5 5 0 00-4.9 4H146V227h25v13h-3.1zm-14.4-10a3.5 3.5 0 103.5 3.5 3.5 3.5 0 00-3.5-3.5z" transform="translate(-146 -88)"/><circle id="Ellipse_51_copy_2" data-name="Ellipse 51 copy 2" class="cls-3" cx="7.5" cy="145.5" r="3.5"/><path id="Ellipse_50_copy-4" data-name="Ellipse 50 copy" class="cls-1" d="M167.535 240.58a8.029 8.029 0 01-.535 1.209V242h-.131a7.926 7.926 0 01-6.869 4h-2a8 8 0 01-7.737-6h8.837a5 5 0 014.9-4 4.841 4.841 0 011 .116V231.5a1.5 1.5 0 113 0v8a1.494 1.494 0 01-.465 1.08z" transform="translate(-146 -88)"/></g><g id="webmoney-4" data-name="webmoney"><path id="Shape_336_copy-4" data-name="Shape 336 copy" class="cls-2" d="M347.387 220.991a12.2 12.2 0 015.43 1.271c.258.124.515.26.772.41l-1.14 1.032-1.714-1.791-2.893 2.607-1.718-1.9-5.388 4.907 3.454 3.847-1.358 1.206 3.4 3.853-1.349 1.2 4.862 5.47 2.886-2.686 2.5 2.877a13.141 13.141 0 01-1.631 1.106 12.2 12.2 0 01-6.11 1.635 12.521 12.521 0 010-25.04zm-2.258 11.73l2.947-2.681 2.653 2.977-2.946 2.68-2.654-2.976zm2.1 5.144l2.946-2.681 2.654 2.977-2.947 2.682-2.653-2.978zm-4.205-10.228l2.947-2.682 2.653 2.978-2.947 2.68-2.653-2.976zm5.408-1.443l2.21-2.01 1.99 2.232-2.21 2.011-1.99-2.233zm3.927 9.208l2.21-2.011 1.99 2.233-2.21 2.01-1.99-2.232zm1.944 4.509l2.209-2.01 1.991 2.233-2.21 2.01-1.99-2.233zm.89-10.335l1.473-1.34 1.327 1.488-1.473 1.339-1.327-1.487zm-1.882-4.424l1.473-1.34 1.327 1.489-1.474 1.34-1.326-1.489zm3.762 8.848l1.473-1.34 1.327 1.489-1.474 1.341-1.326-1.49zm-6.608-3.313l2.21-2.011 1.99 2.232-2.21 2.012-1.99-2.233z" transform="translate(-146 -88)"/></g><g id="yandexdengi-4" data-name="yandexdengi"><path class="cls-2" d="M303 246h-16a2 2 0 01-2-2v-11a1.985 1.985 0 01.544-1.363v-.032L298 221h1v16l-12 8 15-5v-9h3v15h-2zm-8.949-15.658a1.533 1.533 0 012.288.313 2 2 0 01-.9 2.409 1.533 1.533 0 01-2.288-.313 2 2 0 01.9-2.409z" transform="translate(-146 -88)"/><path class="cls-4" d="M299 231h3v9l-15 5 12-8v-6z" transform="translate(-146 -88)"/></g><g id="qiwi-4" data-name="qiwi"><path id="Shape_340_copy-4" data-name="Shape 340 copy" class="cls-2" d="M412.98 240.919a4.666 4.666 0 00-1.5-2.612 3.814 3.814 0 00-.9-.652 3.114 3.114 0 00-.529-.249 3.17 3.17 0 00-1.5-.248A2.886 2.886 0 01409.8 237a5.932 5.932 0 011.059.249c.284.154.564.309.843.467a10.332 10.332 0 00-.343-6.624 11.843 11.843 0 00-3.21-4.664 10.683 10.683 0 00-5.206-2.674 8.6 8.6 0 00-3.43.031 7.679 7.679 0 00-2.649 1.274 7.847 7.847 0 00-1.84 2.115 4.419 4.419 0 00-.374.622c-.1.235-.2.46-.311.684a9.688 9.688 0 00-.437 1.524 9.853 9.853 0 00-.124 3.514 11.572 11.572 0 00.842 3.078c.226.437.433.895.684 1.306a12.836 12.836 0 00.812 1.151 11.631 11.631 0 002.088 1.835 11.434 11.434 0 005.923 1.958.993.993 0 00-.094-.435c-.037-.149-.052-.321-.094-.466a4.613 4.613 0 010-1.057.441.441 0 01.157.218.48.48 0 00.156.186 3.445 3.445 0 00.28.436 3.878 3.878 0 00.717.714 5.119 5.119 0 00.842.591 5.036 5.036 0 00.935.466 7.4 7.4 0 002.276.561 24.49 24.49 0 012.4.435 9.149 9.149 0 012 .839 8.006 8.006 0 01.872.56 2.31 2.31 0 01.406.311c.164.066.236.22.4.279a12.839 12.839 0 011.372 1.463 6.716 6.716 0 01.53.9c.114.124.147.329.249.466a.643.643 0 01.031.529c-.231.033-.184-.211-.28-.311a1.884 1.884 0 01-.219-.373c-.365-.383-.692-.8-1.091-1.151a8.573 8.573 0 00-1.247-.964 9.427 9.427 0 00-3.055-1.4 11.51 11.51 0 00-3.958-.373 8.947 8.947 0 00-1.84.4 17.339 17.339 0 01-1.9.311 15.813 15.813 0 01-7.3-1.367 11.5 11.5 0 01-2.742-1.711 8.615 8.615 0 01-1.154-1.088 7.278 7.278 0 01-.935-1.275 12.582 12.582 0 01-.811-1.431 13.008 13.008 0 01-.561-1.648 8.277 8.277 0 01-.373-1.866c-.012-.187-.1-.547-.1-.84a.411.411 0 00.032-.093 2.988 2.988 0 010-.9 9.439 9.439 0 01.218-1.96 11.423 11.423 0 01.468-1.742c.186-.56.431-1.062.654-1.585.15-.224.264-.483.4-.715.119-.244.3-.428.406-.685a3.127 3.127 0 00.249-.31c.048-.139.178-.2.218-.342a1.043 1.043 0 00.249-.312.965.965 0 00.25-.311c.371-.364.7-.769 1.091-1.119s.818-.676 1.216-1.026c.253-.12.436-.311.685-.436.19-.173.467-.26.655-.434a15.871 15.871 0 011.528-.716 11.969 11.969 0 011.621-.591 13.251 13.251 0 013.9-.467c.053.007.081-.052.093 0a12.275 12.275 0 016.64 2.084 11.76 11.76 0 014.053 4.633 12.208 12.208 0 011.029 7.246 12.234 12.234 0 01-1.809 4.727 4.1 4.1 0 01-.436.653 1.305 1.305 0 01-.218.311 1.345 1.345 0 01-.125.155.091.091 0 01-.062.063c.019.062-.019.07-.021.036zm-.748.81a1.53 1.53 0 01-.593-.934.767.767 0 010-.435.2.2 0 01.063-.032.365.365 0 01.311.063 1.923 1.923 0 01.374.777.523.523 0 01-.155.561zm-2.743-.529c.005-.035.031-.018.031 0a.943.943 0 01.842 1.026.662.662 0 01-.531.59.957.957 0 01-.9-1.367.635.635 0 01.558-.249z" transform="translate(-146 -88)"/></g><g id="visa-4" data-name="visa"><path id="Shape_338_copy_2-4" data-name="Shape 338 copy 2" class="cls-2" d="M250.631 241.993s-.391-2.386-.522-2.984h-5.653c-.156.468-.937 2.984-.937 2.984h-4.612l6.54-15.595a2.159 2.159 0 012.292-1.43h3.413l3.569 17.025h-4.09zm-2.267-10.97l-.313-1.456c-.208.65-.6 1.664-.573 1.638 0 0-1.407 3.768-1.745 4.755h3.647c-.18-.86-1.016-4.937-1.016-4.937zm-9.483-2.13a7.376 7.376 0 00-3.282-.65c-1.746 0-2.528.727-2.554 1.455 0 .806.939 1.325 2.5 2.1 2.528 1.195 3.7 2.676 3.674 4.624-.026 3.508-3.022 5.794-7.66 5.794a13.434 13.434 0 01-4.9-.908l.6-3.82.6.286a8.885 8.885 0 004.116.909c1.277 0 2.631-.52 2.658-1.663 0-.753-.573-1.3-2.293-2.13-1.667-.806-3.882-2.157-3.856-4.6.026-3.3 3.074-5.613 7.425-5.613a11.192 11.192 0 013.96.7l-.6 3.691zm-19.382 13.1l2.761-17.025h4.4l-2.76 17.025h-4.4zm-10.6 0l-3.689-13.863a10.079 10.079 0 011.694 1.078 18.444 18.444 0 014.055 4.644l.073.367.469 2.339 4.324-11.59h4.664l-6.93 17.025H208.9zm1.8-9.5l.182.93z" transform="translate(-146 -88)"/><path id="Shape_338_copy_4" data-name="Shape 338 copy 4" class="cls-1" d="M206.9 229.208a10.079 10.079 0 00-1.694-1.078l-.251-.943a17.636 17.636 0 00-3.955-1.666v-.527h6.764a1.773 1.773 0 011.729 1.4l1.464 7.454a18.444 18.444 0 00-4.057-4.64z" transform="translate(-146 -88)"/></g><g id="PayPal_copy" data-name="PayPal copy"><path id="Shape_452_copy-4" data-name="Shape 452 copy" class="cls-5" d="M453.487 235.472c.484-3 1.138-6.177 1.31-7.225.112-.682.495-1.238 1.957-1.238h4.925c1.236 0 4.2-.138 5.522 1.592 1.531 2 .528 5.694-.126 6.974a6.586 6.586 0 01-2.765 2.636 11.115 11.115 0 01-4.048.76c-1.474.019-1.86-.159-2.107 1.344s-.782 4.42-.827 4.751a1.025 1.025 0 01-1.228.934h-3.285c-.5 0-.944.106-.809-.862.206-1.518 1.194-7.853 1.481-9.666z" transform="translate(-146 -88)"/><path class="cls-6" d="M448.719 231.426c.481-3 1.293-8.141 1.464-9.187.111-.682.491-1.238 1.943-1.238h6.767c1.229 0 4.4.147 5.763 1.68 1.417 1.591 1.831 3.933.647 6.96a8.4 8.4 0 01-4.04 4.662c-1.586.773-4.268.677-5.653.695-1.464.02-1.929-.135-2.174 1.368s-.973 5.383-1.017 5.715-.018.928-1.224.928h-3.358c-.492 0-.963.1-.8-.862.23-1.416 1.392-8.909 1.682-10.721z" transform="translate(-146 -88)"/><path id="Shape_452_copy_3" data-name="Shape 452 copy 3" class="cls-2" d="M465.3 229.641a8.4 8.4 0 01-4.04 4.662c-1.586.773-4.362.677-5.747.695-1.327.018-1.83-.094-2.1 1h-.013l.084-.528c.484-3 1.138-6.177 1.31-7.225.112-.682.495-1.238 1.957-1.238h4.925a10.4 10.4 0 014.2.585 10.265 10.265 0 01-.576 2.049z" transform="translate(-146 -88)"/></g><g id="Maestro"><path id="Ellipse_52_copy_5-4" data-name="Ellipse 52 copy 5" class="cls-2" d="M513 233.5a12.467 12.467 0 005 9.983 12.5 12.5 0 110-19.966 12.467 12.467 0 00-5 9.983z" transform="translate(-146 -88)"/><path id="Ellipse_52_copy_4-4" data-name="Ellipse 52 copy 4" class="cls-1" d="M525.5 246a12.43 12.43 0 01-7.5-2.517 12.466 12.466 0 000-19.966A12.494 12.494 0 11525.5 246z" transform="translate(-146 -88)"/><path id="Ellipse_52_copy_3" data-name="Ellipse 52 copy 3" class="cls-7" d="M513 233.5a12.467 12.467 0 015-9.983 12.466 12.466 0 010 19.966 12.467 12.467 0 01-5-9.983z" transform="translate(-146 -88)"/></g><g id="Сбербанк"><path id="Rectangle_293_copy_9" data-name="Rectangle 293 copy 9" class="cls-2" d="M575.985 236.95v.008-.008l16.561-9.3a12.228 12.228 0 011.454 5.755 13.007 13.007 0 01-26 0c0-.309.015-.613.038-.916zm.015-1.55l-7.763-4.358a12.07 12.07 0 01.322-1.275l7.431 4.172v.008-.008l15.088-8.469a12.784 12.784 0 01.772 1.022zm14.14-10.952L576 232.383l-6.961-3.908a12.411 12.411 0 01.571-1.135l6.38 3.581v.008-.008l13.107-7.356a12.828 12.828 0 011.038.88zm-14.145 3.47v-.008l10.529-5.91a12.976 12.976 0 011.337.7L576 229.368l-5.653-3.172q.378-.522.806-1l4.837 2.715z" transform="translate(-146 -88)"/></g><g id="alfabank_copy" data-name="alfabank copy"><path id="Rounded_Rectangle_230-4" data-name="Rounded Rectangle 230" class="cls-2" d="M642.342 238.926l-2.887 1.081a.374.374 0 01-.475-.228l-1.5-3.8h-7l-1.48 3.83a.373.373 0 01-.474.227l-2.881-1.081a.368.368 0 01-.231-.469l5.825-15.647a2.969 2.969 0 015.491 0l5.84 15.617a.369.369 0 01-.228.47zm-7.9-12.115l-.459-1.325v-.01l-2.636 7.5h5.275zM624.984 243h18.032a.985.985 0 01.984.984v1.032a.985.985 0 01-.984.984h-18.032a.985.985 0 01-.984-.984v-1.032a.985.985 0 01.984-.984z" transform="translate(-146 -88)"/></g><g id="mir_copy" data-name="mir copy"><path id="Rectangle_295_copy-4" data-name="Rectangle 295 copy" class="cls-2" d="M690.546 242v-10.1h-.446l-3.2 10.1h-3.811l-3.189-10.1h-.443V242H674v-17h5.465a3.175 3.175 0 013.049 2.24l2.246 7.857h.473l2.25-7.857a3.18 3.18 0 013.059-2.24h5.465v17h-5.465z" transform="translate(-146 -88)"/><path class="cls-2" d="M711.449 242v-10.011h-.431l-3.727 8.387a2.762 2.762 0 01-2.52 1.624h-4.776v-17h5.5v10.011h.451l3.774-8.4.029-.064v-.006a2.762 2.762 0 012.482-1.541h4.776v17h-5.558zm21.684-4.992h-6.552V242h-5.562v-9H739.5a6.821 6.821 0 01-6.367 4.008z" transform="translate(-146 -88)"/><path id="Ellipse_53_copy_2-4" data-name="Ellipse 53 copy 2" class="cls-8" d="M739.85 231h-10.571c-4.591 0-8.408-2.772-9.212-6h13.561c3.511 0 6.356 2.433 6.356 5.035a3.55 3.55 0 01-.134.965z" transform="translate(-146 -88)"/></g><g id="Group_1_copy_2" data-name="Group 1 copy 2"><path id="Rounded_Rectangle_231_copy_2-4" data-name="Rounded Rectangle 231 copy 2" class="cls-2" d="M776.006 229v5.844c0 .92-.719 1.666-2.073 1.666h-.3a8.347 8.347 0 01-3.623-1.109v-9.979a4.378 4.378 0 014.334-4.422h5.663v8h-4zm-2.04 9h1.208c2.706 0 4.682-1.41 4.833-3.187v6.769a4.377 4.377 0 01-4.331 4.418h-5.664v-8.783a14.573 14.573 0 003.954.783z" transform="translate(-146 -88)"/><path class="cls-2" d="M786.332 221h5.659v20.578a4.375 4.375 0 01-4.327 4.422h-5.659v-20.578a4.376 4.376 0 014.327-4.422zm.5 15.306a8.984 8.984 0 004.22-1.087v2.13a11.143 11.143 0 01-3.791.651 9.617 9.617 0 01-5.872-1.776v-5.448a9.617 9.617 0 015.877-1.776 11.143 11.143 0 013.791.651v2.131a9.009 9.009 0 00-4.22-1.088 2.806 2.806 0 100 5.612z" transform="translate(-146 -88)"/><path id="Rounded_Rectangle_232_copy_2-4" data-name="Rounded Rectangle 232 copy 2" class="cls-2" d="M798.337 221H804v20.578a4.377 4.377 0 01-4.331 4.422h-5.663v-20.578a4.377 4.377 0 014.331-4.422zm4.643 14.753a2.307 2.307 0 01-2.244 2.247h-7.608v-9h6.739a2.255 2.255 0 010 4.506h.866a2.307 2.307 0 012.247 2.247zm-5.02-5.077h-1.978v2h1.978a1 1 0 100-2zm.345 3.638h-2.292v2.041h2.292a1.021 1.021 0 100-2.041z" transform="translate(-146 -88)"/></g><g id="Assist_copy_3" data-name="Assist copy 3"><path class="cls-60" d="M835.5 231.465s1.629 2.074 6.474 2.074c5.09 0 9.8-4.968 14.827-5.027 5.342-.063 6.724 2.011 6.724 2.011" transform="translate(-146 -88)"/><path id="Shape_453_copy" data-name="Shape 453 copy" class="cls-60" d="M835.5 236.465s2.381 2.074 7.226 2.074c5.09 0 10.253-4.955 15.28-5.027 4.431-.063 5.519 2.011 5.519 2.011" transform="translate(-146 -88)"/><path id="Ellipse_54_copy" data-name="Ellipse 54 copy" class="cls-60" d="M860.447 234.5a10.994 10.994 0 01-20.816 3.85m-1.047-6.146a10.994 10.994 0 0120.725-3.664" transform="translate(-146 -88)"/></g><g id="Group_3_copy_2" data-name="Group 3 copy 2"><path class="cls-1" d="M897.439 227.817l8.145-7.817 7.406 7.1-8.146 7.815z" transform="translate(-146 -88)"/><path id="Rectangle_301_copy-4" data-name="Rectangle 301 copy" class="cls-2" d="M902.622 229.948l10.368 9.946-7.406 7.1-8.145-7.814a7.807 7.807 0 010-11.366l1.481-1.421 3.7-3.552a4.88 4.88 0 00.002 7.107z" transform="translate(-146 -88)"/><circle class="cls-10" cx="769.5" cy="145.5" r="3.5"/></g></g><g id="payment_big_black" data-name="payment big black"><g id="Наличными_copy-2" data-name="Наличными copy"><path id="Rounded_Rectangle_224_copy-5" data-name="Rounded Rectangle 224 copy" class="cls-15" d="M162 161v-3.5a1.5 1.5 0 013 0v3.5h-3zm-4 0v-5.5a1.5 1.5 0 013 0v5.5h-3zm-4 0v-3.517a1.484 1.484 0 011.484-1.483h.032a1.485 1.485 0 011.484 1.483V161h-3zm-4 0v-.5a1.5 1.5 0 013 0v.5h-3z" transform="translate(-146 -88)"/><path id="Ellipse_50_copy_2-2" data-name="Ellipse 50 copy 2" class="cls-12" d="M167.9 174a1.459 1.459 0 00.1-.5v-8a1.5 1.5 0 00-3 0v4.616a4.841 4.841 0 00-1-.116 5 5 0 00-4.9 4H146v-13h25v13h-3.1zm-14.4-10a3.5 3.5 0 103.5 3.5 3.5 3.5 0 00-3.5-3.5z" transform="translate(-146 -88)"/><circle id="Ellipse_51_copy_2-2" data-name="Ellipse 51 copy 2" class="cls-13" cx="7.5" cy="79.5" r="3.5"/><path id="Ellipse_50_copy-5" data-name="Ellipse 50 copy" class="cls-15" d="M167.535 174.58a8.074 8.074 0 01-.535 1.209V176h-.131a7.926 7.926 0 01-6.869 4h-2a8 8 0 01-7.737-6h8.837a5 5 0 014.9-4 4.841 4.841 0 011 .116V165.5a1.5 1.5 0 013 0v8a1.493 1.493 0 01-.465 1.08z" transform="translate(-146 -88)"/></g><g id="webmoney-5" data-name="webmoney"><path id="Shape_336_copy-5" data-name="Shape 336 copy" class="cls-12" d="M347.387 154.991a12.2 12.2 0 015.43 1.271c.258.124.515.26.772.41l-1.14 1.032-1.714-1.791-2.893 2.607-1.718-1.9-5.388 4.907 3.454 3.847-1.358 1.206 3.4 3.853-1.349 1.2 4.862 5.47 2.886-2.686 2.5 2.877a13.141 13.141 0 01-1.631 1.106 12.2 12.2 0 01-6.11 1.635 12.521 12.521 0 010-25.04zm-2.258 11.73l2.947-2.681 2.653 2.977-2.946 2.68-2.654-2.976zm2.1 5.144l2.946-2.681 2.654 2.977-2.947 2.682-2.653-2.978zm-4.205-10.228l2.947-2.682 2.653 2.978-2.947 2.68-2.653-2.976zm5.408-1.443l2.21-2.01 1.99 2.232-2.21 2.011-1.99-2.233zm3.927 9.208l2.21-2.011 1.99 2.233-2.21 2.01-1.99-2.232zm1.944 4.509l2.209-2.01 1.991 2.233-2.21 2.01-1.99-2.233zm.89-10.335l1.473-1.34 1.327 1.488-1.473 1.339-1.327-1.487zm-1.882-4.424l1.473-1.34 1.327 1.489-1.474 1.34-1.326-1.489zm3.762 8.848l1.473-1.34 1.327 1.489-1.474 1.341-1.326-1.49zm-6.608-3.313l2.21-2.011 1.99 2.232-2.21 2.012-1.99-2.233z" transform="translate(-146 -88)"/></g><g id="yandexdengi-5" data-name="yandexdengi"><path class="cls-61" d="M303 180h-16a2 2 0 01-2-2v-11a1.985 1.985 0 01.544-1.363v-.032L298 155h1v16l-12 8 15-5v-9h3v15h-2zm-8.949-15.658a1.533 1.533 0 012.288.313 2 2 0 01-.9 2.409 1.533 1.533 0 01-2.288-.313 2 2 0 01.9-2.409z" transform="translate(-146 -88)"/><path d="M299 165h3v9l-15 5 12-8v-6z" transform="translate(-146 -88)" fill="#231f20" opacity=".4" fill-rule="evenodd"/></g><g id="qiwi-5" data-name="qiwi"><path id="Shape_340_copy-5" data-name="Shape 340 copy" class="cls-12" d="M412.98 174.919a4.666 4.666 0 00-1.5-2.612 3.814 3.814 0 00-.9-.652 3.114 3.114 0 00-.529-.249 3.158 3.158 0 00-1.5-.248A2.886 2.886 0 01409.8 171a5.932 5.932 0 011.059.249c.284.154.564.309.843.467a10.332 10.332 0 00-.343-6.624 11.843 11.843 0 00-3.21-4.664 10.683 10.683 0 00-5.206-2.674 8.6 8.6 0 00-3.43.031 7.679 7.679 0 00-2.649 1.274 7.847 7.847 0 00-1.84 2.115 4.419 4.419 0 00-.374.622c-.1.235-.2.46-.311.684a9.688 9.688 0 00-.437 1.524 9.853 9.853 0 00-.124 3.514 11.572 11.572 0 00.842 3.078c.226.437.433.895.684 1.3a12.71 12.71 0 00.812 1.152 11.631 11.631 0 002.088 1.835 11.434 11.434 0 005.923 1.958.993.993 0 00-.094-.435c-.037-.149-.052-.321-.094-.466a4.613 4.613 0 010-1.057.441.441 0 01.157.218.48.48 0 00.156.186 3.445 3.445 0 00.28.436 3.878 3.878 0 00.717.714 5.119 5.119 0 00.842.591 5.036 5.036 0 00.935.466 7.4 7.4 0 002.276.561 24.49 24.49 0 012.4.435 9.149 9.149 0 012 .839 8.006 8.006 0 01.872.56 2.31 2.31 0 01.406.311c.164.065.236.22.4.279a12.839 12.839 0 011.372 1.463 6.716 6.716 0 01.53.9c.114.124.147.329.249.466a.643.643 0 01.031.529c-.231.033-.184-.21-.28-.311a1.884 1.884 0 01-.219-.373c-.365-.383-.692-.8-1.091-1.151a8.573 8.573 0 00-1.247-.964 9.427 9.427 0 00-3.055-1.4 11.51 11.51 0 00-3.958-.373 8.947 8.947 0 00-1.84.4 17.339 17.339 0 01-1.9.311 15.813 15.813 0 01-7.3-1.367 11.5 11.5 0 01-2.742-1.711 8.615 8.615 0 01-1.154-1.088 7.278 7.278 0 01-.935-1.275 12.582 12.582 0 01-.811-1.431 13.008 13.008 0 01-.561-1.648 8.279 8.279 0 01-.373-1.865c-.012-.188-.1-.548-.1-.841a.411.411 0 00.032-.093 2.988 2.988 0 010-.9 9.439 9.439 0 01.218-1.96 11.423 11.423 0 01.468-1.742c.186-.56.431-1.062.654-1.585.15-.224.264-.483.4-.715.119-.244.3-.428.406-.685a3.127 3.127 0 00.249-.31c.048-.139.178-.2.218-.342a1.043 1.043 0 00.249-.312.965.965 0 00.25-.311c.371-.364.7-.769 1.091-1.119s.818-.676 1.216-1.026c.253-.12.436-.311.685-.436.19-.173.467-.26.655-.434a15.871 15.871 0 011.528-.716 11.969 11.969 0 011.621-.591 13.251 13.251 0 013.9-.467c.053.007.081-.052.093 0a12.275 12.275 0 016.64 2.084 11.76 11.76 0 014.053 4.633 12.208 12.208 0 011.029 7.246 12.234 12.234 0 01-1.809 4.727 4.1 4.1 0 01-.436.653 1.305 1.305 0 01-.218.311 1.345 1.345 0 01-.125.155.091.091 0 01-.062.063c.019.067-.019.075-.021.041zm-.748.81a1.53 1.53 0 01-.593-.934.767.767 0 010-.435.2.2 0 01.063-.032.365.365 0 01.311.063 1.923 1.923 0 01.374.777.523.523 0 01-.155.561zm-2.743-.529c.005-.035.031-.018.031 0a.943.943 0 01.842 1.026.662.662 0 01-.531.59.957.957 0 01-.9-1.367.635.635 0 01.558-.249z" transform="translate(-146 -88)"/></g><g id="visa-5" data-name="visa"><path id="Shape_338_copy_2-5" data-name="Shape 338 copy 2" class="cls-12" d="M250.631 175.993s-.391-2.386-.522-2.984h-5.653c-.156.468-.937 2.984-.937 2.984h-4.612l6.54-15.595a2.159 2.159 0 012.292-1.43h3.413l3.569 17.025h-4.09zm-2.267-10.97l-.313-1.456c-.208.65-.6 1.664-.573 1.638 0 0-1.407 3.768-1.745 4.755h3.647c-.18-.86-1.016-4.937-1.016-4.937zm-9.483-2.13a7.376 7.376 0 00-3.282-.65c-1.746 0-2.528.727-2.554 1.455 0 .806.939 1.325 2.5 2.1 2.528 1.195 3.7 2.676 3.674 4.624-.026 3.508-3.022 5.794-7.66 5.794a13.434 13.434 0 01-4.9-.908l.6-3.82.6.286a8.885 8.885 0 004.116.909c1.277 0 2.631-.52 2.658-1.663 0-.753-.573-1.3-2.293-2.13-1.667-.806-3.882-2.157-3.856-4.6.026-3.3 3.074-5.613 7.425-5.613a11.192 11.192 0 013.96.7l-.6 3.691zm-19.382 13.1l2.761-17.025h4.4l-2.76 17.025h-4.4zm-10.6 0l-3.689-13.863a10.079 10.079 0 011.694 1.078 18.444 18.444 0 014.055 4.644l.073.367.469 2.339 4.324-11.59h4.664l-6.93 17.025H208.9zm1.8-9.5l.182.93z" transform="translate(-146 -88)"/><path id="Shape_338_copy_4-2" data-name="Shape 338 copy 4" class="cls-14" d="M206.9 163.208a10.016 10.016 0 00-1.694-1.078l-.251-.943a17.636 17.636 0 00-3.955-1.666v-.527h6.764a1.773 1.773 0 011.729 1.4l1.464 7.454a18.444 18.444 0 00-4.057-4.64z" transform="translate(-146 -88)"/></g><g id="PayPal_copy-2" data-name="PayPal copy"><path id="Shape_452_copy-5" data-name="Shape 452 copy" class="cls-16" d="M453.487 169.472c.484-3 1.138-6.177 1.31-7.225.112-.682.495-1.238 1.957-1.238h4.925c1.236 0 4.2-.138 5.522 1.592 1.531 2 .528 5.694-.126 6.974a6.586 6.586 0 01-2.765 2.636 11.115 11.115 0 01-4.048.76c-1.474.019-1.86-.159-2.107 1.344s-.782 4.42-.827 4.751a1.025 1.025 0 01-1.228.934h-3.285c-.5 0-.944.106-.809-.862.206-1.518 1.194-7.853 1.481-9.666z" transform="translate(-146 -88)"/><path class="cls-17" d="M448.719 165.426c.481-3 1.293-8.141 1.464-9.187.111-.682.491-1.238 1.943-1.238h6.767c1.229 0 4.4.147 5.763 1.68 1.417 1.59 1.831 3.933.647 6.96a8.4 8.4 0 01-4.04 4.662c-1.586.773-4.268.677-5.653.695-1.464.02-1.929-.135-2.174 1.368s-.973 5.383-1.017 5.715-.018.928-1.224.928h-3.358c-.492 0-.963.1-.8-.862.23-1.416 1.392-8.909 1.682-10.721z" transform="translate(-146 -88)"/><path id="Shape_452_copy_3-2" data-name="Shape 452 copy 3" class="cls-12" d="M465.3 163.641a8.4 8.4 0 01-4.04 4.662c-1.586.773-4.362.677-5.747.695-1.327.018-1.83-.094-2.1 1h-.013l.084-.528c.484-3 1.138-6.177 1.31-7.225.112-.682.495-1.238 1.957-1.238h4.925a10.4 10.4 0 014.2.585 10.265 10.265 0 01-.576 2.049z" transform="translate(-146 -88)"/></g><g id="Maestro-2" data-name="Maestro"><path id="Ellipse_52_copy_5-5" data-name="Ellipse 52 copy 5" class="cls-12" d="M513 167.5a12.467 12.467 0 005 9.983 12.5 12.5 0 110-19.966 12.467 12.467 0 00-5 9.983z" transform="translate(-146 -88)"/><path id="Ellipse_52_copy_4-5" data-name="Ellipse 52 copy 4" class="cls-18" d="M525.5 180a12.43 12.43 0 01-7.5-2.517 12.466 12.466 0 000-19.966A12.494 12.494 0 11525.5 180z" transform="translate(-146 -88)"/><path id="Ellipse_52_copy_3-2" data-name="Ellipse 52 copy 3" class="cls-19" d="M513 167.5a12.467 12.467 0 015-9.983 12.466 12.466 0 010 19.966 12.467 12.467 0 01-5-9.983z" transform="translate(-146 -88)"/></g><g id="Сбербанк-2" data-name="Сбербанк"><path id="Rectangle_293_copy_9-2" data-name="Rectangle 293 copy 9" class="cls-12" d="M575.985 170.95v.008-.008l16.561-9.3a12.228 12.228 0 011.454 5.755 13.007 13.007 0 01-26 0c0-.309.015-.613.038-.916zm.015-1.55l-7.763-4.358a12.07 12.07 0 01.322-1.275l7.431 4.172v.008-.008l15.088-8.469a12.784 12.784 0 01.772 1.022zm14.14-10.952L576 166.383l-6.961-3.908a12.411 12.411 0 01.571-1.135l6.38 3.581v.008-.008l13.107-7.356a12.828 12.828 0 011.038.88zm-14.145 3.47v-.008l10.529-5.91a12.976 12.976 0 011.337.7L576 163.368l-5.653-3.173q.378-.52.806-1l4.837 2.715z" transform="translate(-146 -88)"/></g><g id="alfabank_copy-2" data-name="alfabank copy"><path id="Rounded_Rectangle_230-5" data-name="Rounded Rectangle 230" class="cls-12" d="M642.342 172.926l-2.887 1.081a.374.374 0 01-.475-.228l-1.5-3.8h-7l-1.48 3.83a.373.373 0 01-.474.227l-2.881-1.081a.368.368 0 01-.231-.469l5.825-15.647a2.969 2.969 0 015.491 0l5.84 15.617a.369.369 0 01-.228.47zm-7.9-12.115l-.459-1.325v-.01l-2.636 7.5h5.275zM624.984 177h18.032a.985.985 0 01.984.984v1.032a.985.985 0 01-.984.984h-18.032a.985.985 0 01-.984-.984v-1.032a.985.985 0 01.984-.984z" transform="translate(-146 -88)"/></g><g id="mir_copy-2" data-name="mir copy"><path id="Rectangle_295_copy-5" data-name="Rectangle 295 copy" class="cls-12" d="M690.546 176v-10.1h-.446l-3.2 10.1h-3.811l-3.189-10.1h-.443V176H674v-17h5.465a3.175 3.175 0 013.049 2.24l2.246 7.857h.473l2.25-7.857a3.18 3.18 0 013.059-2.24h5.465v17h-5.465z" transform="translate(-146 -88)"/><path class="cls-12" d="M711.449 176v-10.011h-.431l-3.727 8.387a2.762 2.762 0 01-2.52 1.624h-4.776v-17h5.5v10.011h.451l3.774-8.4.029-.064v-.006a2.762 2.762 0 012.482-1.541h4.776v17h-5.558zm21.684-4.992h-6.552V176h-5.562v-9H739.5a6.821 6.821 0 01-6.367 4.008z" transform="translate(-146 -88)"/><path id="Ellipse_53_copy_2-5" data-name="Ellipse 53 copy 2" class="cls-20" d="M739.85 165h-10.571c-4.591 0-8.408-2.772-9.212-6h13.561c3.511 0 6.356 2.433 6.356 5.035a3.55 3.55 0 01-.134.965z" transform="translate(-146 -88)"/></g><g id="Group_1_copy_2-2" data-name="Group 1 copy 2"><path id="Rounded_Rectangle_231_copy_2-5" data-name="Rounded Rectangle 231 copy 2" class="cls-12" d="M776.006 163v5.844c0 .92-.719 1.666-2.073 1.666h-.3a8.347 8.347 0 01-3.623-1.109v-9.979a4.378 4.378 0 014.334-4.422h5.663v8h-4zm-2.04 9h1.208c2.706 0 4.682-1.41 4.833-3.187v6.769a4.377 4.377 0 01-4.331 4.418h-5.664v-8.783a14.573 14.573 0 003.954.783z" transform="translate(-146 -88)"/><path class="cls-12" d="M786.332 155h5.659v20.578a4.375 4.375 0 01-4.327 4.422h-5.659v-20.578a4.376 4.376 0 014.327-4.422zm.5 15.306a8.984 8.984 0 004.22-1.087v2.13a11.143 11.143 0 01-3.791.651 9.617 9.617 0 01-5.872-1.776v-5.448a9.617 9.617 0 015.877-1.776 11.143 11.143 0 013.791.651v2.131a9.009 9.009 0 00-4.22-1.088 2.806 2.806 0 100 5.612z" transform="translate(-146 -88)"/><path id="Rounded_Rectangle_232_copy_2-5" data-name="Rounded Rectangle 232 copy 2" class="cls-12" d="M798.337 155H804v20.578a4.377 4.377 0 01-4.331 4.422h-5.663v-20.578a4.377 4.377 0 014.331-4.422zm4.643 14.753a2.307 2.307 0 01-2.244 2.247h-7.608v-9h6.739a2.255 2.255 0 010 4.506h.866a2.307 2.307 0 012.247 2.247zm-5.02-5.077h-1.978v2h1.978a1 1 0 100-2zm.345 3.638h-2.292v2.041h2.292a1.021 1.021 0 100-2.041z" transform="translate(-146 -88)"/></g><g id="Assist_copy_2" data-name="Assist copy 2"><path class="cls-63" d="M835.5 165.465s1.629 2.074 6.474 2.074c5.09 0 9.8-4.968 14.827-5.027 5.342-.063 6.724 2.011 6.724 2.011" transform="translate(-146 -88)"/><path id="Shape_453_copy-2" data-name="Shape 453 copy" class="cls-63" d="M835.5 170.465s2.381 2.074 7.226 2.074c5.09 0 10.253-4.956 15.28-5.027 4.431-.063 5.519 2.011 5.519 2.011" transform="translate(-146 -88)"/><path id="Ellipse_54_copy-2" data-name="Ellipse 54 copy" class="cls-63" d="M860.447 168.5a10.994 10.994 0 01-20.816 3.85m-1.047-6.146a10.994 10.994 0 0120.725-3.664" transform="translate(-146 -88)"/></g><g id="Group_3_copy" data-name="Group 3 copy"><path class="cls-22" d="M897.439 161.817l8.145-7.817 7.406 7.1-8.146 7.815z" transform="translate(-146 -88)"/><path id="Rectangle_301_copy-5" data-name="Rectangle 301 copy" class="cls-12" d="M902.622 163.948l10.368 9.946-7.406 7.1-8.145-7.815a7.807 7.807 0 010-11.366l1.481-1.421 3.7-3.552a4.88 4.88 0 00.002 7.108z" transform="translate(-146 -88)"/><circle class="cls-13" cx="769.5" cy="79.5" r="3.5"/></g></g><g id="payment_big" data-name="payment big"><g id="Наличными_copy-3" data-name="Наличными copy"><path id="Rounded_Rectangle_224_copy-6" data-name="Rounded Rectangle 224 copy" class="cls-23" d="M163.5 101a1.5 1.5 0 01-1.5-1.5v-8a1.5 1.5 0 013 0v8a1.5 1.5 0 01-1.5 1.5zm-4-2a1.5 1.5 0 01-1.5-1.5v-8a1.5 1.5 0 013 0v8a1.5 1.5 0 01-1.5 1.5zm-3.984 1h-.032A1.485 1.485 0 01154 98.516v-7.032A1.485 1.485 0 01155.484 90h.032A1.485 1.485 0 01157 91.484v7.031a1.485 1.485 0 01-1.484 1.485zm-4.016 1a1.5 1.5 0 01-1.5-1.5v-5a1.5 1.5 0 013 0v5a1.5 1.5 0 01-1.5 1.5z" transform="translate(-146 -88)"/><path d="M162 95v-1h3v1h-3zm-1 0h-3v-1h3v1zm-7-1h3v1h-3v-1zm-4 0h3v1h-3v-1z" transform="translate(-146 -88)" fill="#e1aea0" fill-rule="evenodd"/><path id="Rounded_Rectangle_226_copy-2" data-name="Rounded Rectangle 226 copy" class="cls-23" d="M167.931 102a8.047 8.047 0 01.069 1v3a8 8 0 01-8 8h-2a8 8 0 01-8-8v-3a8.047 8.047 0 01.069-1h17.862z" transform="translate(-146 -88)"/><path id="Rectangle_100_copy-2" data-name="Rectangle 100 copy" class="cls-25" d="M0 7h25v13H0z"/><path fill="#87ae6b" d="M0 7h25v1H0z"/><circle class="cls-27" cx="7.5" cy="13.5" r="3.5"/><path id="Rounded_Rectangle_229-2" data-name="Rounded Rectangle 229" class="cls-28" d="M171 108h-25v-1h12.237a5.47 5.47 0 015.263-4c.171 0 .333.035.5.05V99.5a1.5 1.5 0 013 0v7.5h4v1z" transform="translate(-146 -88)"/><rect id="Rounded_Rectangle_225_copy" data-name="Rounded Rectangle 225 copy" x="19" y="10" width="3" height="11" rx="1.5" ry="1.5" fill="#f3c4b7"/><path id="Ellipse_50_copy-6" data-name="Ellipse 50 copy" class="cls-23" d="M159.1 110a4.981 4.981 0 017.9-4.977V110h-7.9z" transform="translate(-146 -88)"/></g><g id="webmoney-6" data-name="webmoney"><path id="Shape_336_copy-6" data-name="Shape 336 copy" class="cls-35" d="M347.387 88.991a12.2 12.2 0 015.43 1.27q.387.186.772.41l-1.14 1.032-1.714-1.791-2.893 2.607-1.718-1.895-5.388 4.907 3.454 3.847-1.358 1.206 3.4 3.853-1.349 1.2 4.862 5.47 2.886-2.686 2.5 2.877a13.141 13.141 0 01-1.631 1.102 12.2 12.2 0 01-6.11 1.635 12.52 12.52 0 010-25.04zm-2.258 11.73l2.947-2.681 2.653 2.977-2.946 2.68-2.654-2.976zm2.1 5.144l2.946-2.681 2.654 2.977-2.947 2.682-2.653-2.978zm-4.209-10.228l2.947-2.682 2.653 2.978-2.947 2.68-2.653-2.976zm5.408-1.443l2.21-2.01 1.99 2.233-2.21 2.011-1.99-2.234zm3.927 9.208l2.21-2.011 1.99 2.233-2.21 2.01-1.99-2.232zm1.944 4.509l2.209-2.01 1.991 2.233-2.21 2.01-1.99-2.233zm.89-10.335l1.473-1.341 1.327 1.488-1.473 1.34-1.327-1.487zm-1.882-4.424l1.473-1.34 1.327 1.489-1.474 1.341-1.326-1.489zm3.766 8.848l1.473-1.34 1.327 1.489-1.474 1.341-1.326-1.49zm-6.608-3.314l2.21-2.011 1.99 2.233-2.21 2.012-1.99-2.234z" transform="translate(-146 -88)"/></g><g id="yandexdengi-6" data-name="yandexdengi"><path id="Rounded_Rectangle_1-2" data-name="Rounded Rectangle 1" class="cls-32" d="M303 114h-16a2 2 0 01-2-2v-11a1.991 1.991 0 01.543-1.363l.006-.032L298 89h1v10h6v15h-2z" transform="translate(-146 -88)"/><path class="cls-33" d="M299 99h3v9l-15 5 12-8v-6z" transform="translate(-146 -88)"/><path class="cls-61" d="M294.051 98.342a1.533 1.533 0 012.288.313 2 2 0 01-.9 2.409 1.533 1.533 0 01-2.288-.313 2 2 0 01.9-2.409z" transform="translate(-146 -88)"/></g><g id="qiwi-6" data-name="qiwi"><path id="Shape_340_copy-6" data-name="Shape 340 copy" class="cls-36" d="M412.98 108.919a4.666 4.666 0 00-1.5-2.612 3.814 3.814 0 00-.9-.652 3.114 3.114 0 00-.529-.249 3.17 3.17 0 00-1.5-.248A2.886 2.886 0 01409.8 105a5.932 5.932 0 011.059.249c.284.154.564.309.843.467a10.332 10.332 0 00-.343-6.624 11.84 11.84 0 00-3.21-4.664 10.687 10.687 0 00-5.206-2.674 8.6 8.6 0 00-3.43.031 7.681 7.681 0 00-2.649 1.274 7.854 7.854 0 00-1.84 2.115 4.42 4.42 0 00-.374.623c-.1.235-.2.46-.311.683A9.689 9.689 0 00393.9 98a9.855 9.855 0 00-.124 3.514 11.572 11.572 0 00.842 3.078c.226.437.433.9.684 1.306a12.836 12.836 0 00.812 1.151 11.631 11.631 0 002.088 1.835 11.434 11.434 0 005.923 1.958.993.993 0 00-.094-.435c-.037-.149-.052-.321-.094-.466a4.613 4.613 0 010-1.057.441.441 0 01.157.218.48.48 0 00.156.186 3.445 3.445 0 00.28.436 3.878 3.878 0 00.717.714 5.119 5.119 0 00.842.591 5.036 5.036 0 00.935.466 7.4 7.4 0 002.276.561 24.49 24.49 0 012.4.435 9.149 9.149 0 012 .839 8.006 8.006 0 01.872.56 2.31 2.31 0 01.406.311c.164.066.236.22.4.279a12.839 12.839 0 011.372 1.463 6.716 6.716 0 01.53.9c.114.124.147.329.249.466a.643.643 0 01.031.529c-.231.033-.184-.211-.28-.311a1.884 1.884 0 01-.219-.373c-.365-.383-.692-.8-1.091-1.151a8.573 8.573 0 00-1.247-.964 9.427 9.427 0 00-3.055-1.4 11.51 11.51 0 00-3.958-.373 8.947 8.947 0 00-1.84.4 17.339 17.339 0 01-1.9.311 15.813 15.813 0 01-7.3-1.367 11.5 11.5 0 01-2.742-1.711 8.615 8.615 0 01-1.154-1.088 7.278 7.278 0 01-.935-1.275 12.582 12.582 0 01-.811-1.431 13.008 13.008 0 01-.561-1.648 8.277 8.277 0 01-.373-1.866c-.012-.187-.1-.547-.1-.84a.411.411 0 00.032-.093 2.988 2.988 0 010-.9 9.441 9.441 0 01.218-1.96 11.414 11.414 0 01.468-1.742c.186-.56.431-1.062.654-1.586.15-.224.264-.483.4-.715.119-.244.3-.428.406-.684a3.1 3.1 0 00.249-.311c.048-.138.178-.2.218-.341a1.049 1.049 0 00.249-.312.961.961 0 00.25-.31c.371-.365.7-.77 1.091-1.119s.818-.676 1.216-1.026c.253-.12.436-.311.685-.436.19-.173.467-.26.655-.434a15.894 15.894 0 011.528-.716 12.051 12.051 0 011.621-.591 13.225 13.225 0 013.9-.466c.053.007.081-.053.093 0a12.272 12.272 0 016.64 2.083 11.757 11.757 0 014.053 4.633 12.206 12.206 0 011.029 7.246 12.234 12.234 0 01-1.809 4.727 4.1 4.1 0 01-.436.653 1.305 1.305 0 01-.218.311 1.345 1.345 0 01-.125.155.091.091 0 01-.062.063c.021.065-.017.073-.019.039zm-.748.81a1.53 1.53 0 01-.593-.934.767.767 0 010-.435.2.2 0 01.063-.032.365.365 0 01.311.063 1.923 1.923 0 01.374.777.523.523 0 01-.155.561zm-2.743-.529c.005-.035.031-.018.031 0a.943.943 0 01.842 1.026.662.662 0 01-.531.59.957.957 0 01-.9-1.367.635.635 0 01.558-.249z" transform="translate(-146 -88)"/></g><g id="visa-6" data-name="visa"><path id="Shape_337_copy_2-2" data-name="Shape 337 copy 2" class="cls-30" d="M250.631 109.993s-.391-2.386-.522-2.984h-5.653c-.156.468-.937 2.984-.937 2.984h-4.612l6.54-15.595a2.159 2.159 0 012.292-1.43h3.413l3.569 17.025h-4.09zm-2.267-10.97l-.313-1.456c-.208.65-.6 1.664-.573 1.638 0 0-1.407 3.768-1.745 4.755h3.647c-.18-.86-1.016-4.937-1.016-4.937zm-9.483-2.13a7.387 7.387 0 00-3.282-.65c-1.746 0-2.528.728-2.554 1.455 0 .806.939 1.325 2.5 2.105 2.528 1.2 3.7 2.676 3.674 4.624-.026 3.508-3.022 5.794-7.66 5.794a13.434 13.434 0 01-4.9-.908l.6-3.82.6.286a8.885 8.885 0 004.116.909c1.277 0 2.631-.52 2.658-1.663 0-.753-.573-1.3-2.293-2.13-1.667-.806-3.882-2.157-3.856-4.6.026-3.3 3.074-5.613 7.425-5.613a11.174 11.174 0 013.96.7l-.6 3.69zm-19.382 13.1l2.761-17.025h4.4l-2.76 17.025h-4.4zm-10.6 0l-3.926-14.769c-.134-.078-.275-.149-.412-.224h2.628l.971.687 1.781 2.719.756 2.088.339 1.725.469 2.339 4.324-11.59h4.664l-6.93 17.025H208.9z" transform="translate(-146 -88)"/><path id="Shape_338_copy_2-6" data-name="Shape 338 copy 2" class="cls-31" d="M206.9 97.208a10.055 10.055 0 00-1.694-1.077l-.251-.944A17.644 17.644 0 00201 93.521v-.527h6.764a1.773 1.773 0 011.729 1.4l1.464 7.454a18.448 18.448 0 00-4.057-4.64z" transform="translate(-146 -88)"/></g><g id="PayPal_copy-3" data-name="PayPal copy"><path id="Shape_452_copy-6" data-name="Shape 452 copy" class="cls-37" d="M453.487 103.472c.484-3 1.138-6.177 1.31-7.224.112-.682.495-1.238 1.957-1.238h4.925c1.236 0 4.2-.139 5.522 1.592 1.531 2 .528 5.694-.126 6.974a6.586 6.586 0 01-2.765 2.636 11.115 11.115 0 01-4.048.76c-1.474.019-1.86-.159-2.107 1.344s-.782 4.42-.827 4.751a1.025 1.025 0 01-1.228.933h-3.285c-.5 0-.944.106-.809-.862.206-1.518 1.194-7.853 1.481-9.666z" transform="translate(-146 -88)"/><path class="cls-38" d="M448.719 99.426c.481-3 1.293-8.141 1.464-9.187.111-.682.491-1.237 1.943-1.237h6.767c1.229 0 4.4.147 5.763 1.679 1.417 1.591 1.831 3.933.647 6.96a8.4 8.4 0 01-4.04 4.662c-1.586.773-4.268.677-5.653.7-1.464.02-1.929-.135-2.174 1.368s-.973 5.383-1.017 5.715-.018.928-1.224.928h-3.358c-.492 0-.963.1-.8-.862.23-1.421 1.392-8.914 1.682-10.726z" transform="translate(-146 -88)"/><path id="Shape_452_copy_3-3" data-name="Shape 452 copy 3" class="cls-39" d="M465.3 97.641a8.4 8.4 0 01-4.04 4.662c-1.586.773-4.362.677-5.747.7-1.327.018-1.83-.094-2.1 1h-.013l.084-.528c.484-3 1.138-6.177 1.31-7.224.112-.682.495-1.238 1.957-1.238h4.925a10.4 10.4 0 014.2.585 10.259 10.259 0 01-.576 2.043z" transform="translate(-146 -88)"/></g><g id="mastercard-2" data-name="mastercard"><circle class="cls-41" cx="364.5" cy="13.5" r="12.5"/><circle class="cls-42" cx="384.5" cy="13.5" r="12.5"/><path id="Shape_341_copy_3-2" data-name="Shape 341 copy 3" class="cls-2" d="M506.561 104.96h-1.118l1.023-5.692h-.019l-2.09 5.692H503l-.025-5.692h-.019l-.83 5.692H501l1.225-6.991h1.75l.075 5.446h.019l1.983-5.446h1.73l-1.218 6.991zm8.423-3.9a6.1 6.1 0 00-1.5-.109c-.606.073-.738.256-.776.468-.139.783 2.62.032 2.285 1.846a2.111 2.111 0 01-2.166 1.751 4.369 4.369 0 01-1.786-.241l.164-.958a7.1 7.1 0 001.711.154.949.949 0 00.928-.5c.152-.826-2.6-.2-2.267-2.048a1.826 1.826 0 012.021-1.457 5.618 5.618 0 011.541.234l-.152.862zm.632-.231l.41-1.847h1.118l-.24.925h.696l-.17.921h-.7l-.492 2.669c-.051.293-.063.4.391.4a1.333 1.333 0 00.234-.022l-.158.994c-.177.008-.379.132-.556.132h-.139a.847.847 0 01-.94-1.192l.543-2.984zm2.694 2.13a.794.794 0 00.8 1.066 2.963 2.963 0 001.951-.564l-.177.922a2.923 2.923 0 01-1.989.563c-1.193 0-2-.665-1.623-2.684.114-.592.638-2.494 2.494-2.494.84 0 1.914.719 1.5 2.965l-.038.226h-2.918zm1.921-.959c.083-.8-.315-1.163-.675-1.163A1.312 1.312 0 00518.5 102h1.736zm1.737-2.005h1.067l-.158.754h.023a1.619 1.619 0 011.345-.973c.076 0 .24.037.31.044l-.411 1.28a1.3 1.3 0 00-1.49 1.155l-.467 2.754h-1.118l.9-5.014zm6.75-.533a1.856 1.856 0 00-1.395-.249c-.568.1-1.5.439-1.85 2.318-.177.958-.082 2.106.839 2.325a2.26 2.26 0 001.863-.358l-.3 1.207c-.133.051-.253.388-1.635.3-1.528-.1-2.406-1.2-1.983-3.495.423-2.318 1.8-3.518 3.283-3.5a1.85 1.85 0 011.383.621l-.2.834zm10.078 5.5H537.7l.113-.755h-.013a1.618 1.618 0 01-1.37.738c-1.263 0-1.554-1.287-1.308-2.639.316-1.7 1.3-2.539 2.236-2.539a1.062 1.062 0 011.086.769h.019l.429-2.55h1.118l-1.21 6.974zm-1.894-1.077a1.468 1.468 0 001.25-1.412c.145-.79.095-1.587-.669-1.587a1.526 1.526 0 00-1.225 1.515c-.108.577-.07 1.484.644 1.484zm-4.85-.11s-.107.527-.132.79l-.057.443h-.991a4.319 4.319 0 010-.772 2.026 2.026 0 01-1.5.709 1.045 1.045 0 01-1.03-1.426 1.79 1.79 0 011.529-1.572l1.035-.176c.183-.029.41.11.467-.168a.546.546 0 00-.631-.658 3.922 3.922 0 00-1.711.322l.252-.958a3.363 3.363 0 011.781-.323c.6.023 1.654.213 1.452 1.4l-.461 2.384zm-.877-1.353a1.812 1.812 0 01-.809.264.9.9 0 00-.89.745.426.426 0 00.41.593 1.228 1.228 0 001.175-.973l.114-.629zm1.913-2.428h1.067l-.155.846h.019a1.62 1.62 0 011.345-.973c.076 0 .24.037.31.044l-.411 1.279a1.223 1.223 0 00-.24-.015 1.158 1.158 0 00-1.25 1.077l-.467 2.754h-1.118l.9-5.014zm-22.3 3.781s-.107.527-.133.79l-.056.444h-.999a4.527 4.527 0 010-.773 2.056 2.056 0 01-1.5.772 1.1 1.1 0 01-1.029-1.489 1.79 1.79 0 011.528-1.572l1.036-.176a.5.5 0 00.467-.387c.095-.548-.347-.463-.631-.471a3.939 3.939 0 00-1.712.322l.253-.958a3.361 3.361 0 011.781-.322c.6.023 1.654.213 1.452 1.4l-.461 2.416zm-.878-1.353a1.8 1.8 0 01-.808.264.9.9 0 00-.89.745.426.426 0 00.41.593 1.228 1.228 0 001.175-.973l.113-.629z" transform="translate(-146 -88)"/><path id="Shape_341_copy_5" data-name="Shape 341 copy 5" class="cls-2" d="M506.561 104.96h-1.118l1.023-5.692h-.019l-2.09 5.692H503l-.025-5.692h-.019l-.83 5.692H501l1.225-6.991h1.75l.075 5.446h.019l1.983-5.446h1.73l-1.218 6.991zm8.423-3.9a6.1 6.1 0 00-1.5-.109c-.606.073-.738.256-.776.468-.139.783 2.62.032 2.285 1.846a2.111 2.111 0 01-2.166 1.751 4.369 4.369 0 01-1.786-.241l.164-.958a7.1 7.1 0 001.711.154.949.949 0 00.928-.5c.152-.826-2.6-.2-2.267-2.048a1.826 1.826 0 012.021-1.457 5.618 5.618 0 011.541.234l-.152.862zm.632-.231l.41-1.847h1.118l-.24.925h.696l-.17.921h-.7l-.492 2.669c-.051.293-.063.4.391.4a1.333 1.333 0 00.234-.022l-.158.994c-.177.008-.379.132-.556.132h-.139a.847.847 0 01-.94-1.192l.543-2.984zm2.694 2.13a.794.794 0 00.8 1.066 2.963 2.963 0 001.951-.564l-.177.922a2.923 2.923 0 01-1.989.563c-1.193 0-2-.665-1.623-2.684.114-.592.638-2.494 2.494-2.494.84 0 1.914.719 1.5 2.965l-.038.226h-2.918zm1.921-.959c.083-.8-.315-1.163-.675-1.163A1.312 1.312 0 00518.5 102h1.736zm1.737-2.005h1.067l-.158.754h.023a1.619 1.619 0 011.345-.973c.076 0 .24.037.31.044l-.411 1.28a1.3 1.3 0 00-1.49 1.155l-.467 2.754h-1.118l.9-5.014zm6.75-.533a1.856 1.856 0 00-1.395-.249c-.568.1-1.5.439-1.85 2.318-.177.958-.082 2.106.839 2.325a2.26 2.26 0 001.863-.358l-.3 1.207c-.133.051-.253.388-1.635.3-1.528-.1-2.406-1.2-1.983-3.495.423-2.318 1.8-3.518 3.283-3.5a1.85 1.85 0 011.383.621l-.2.834zm10.078 5.5H537.7l.113-.755h-.013a1.618 1.618 0 01-1.37.738c-1.263 0-1.554-1.287-1.308-2.639.316-1.7 1.3-2.539 2.236-2.539a1.062 1.062 0 011.086.769h.019l.429-2.55h1.118l-1.21 6.974zm-1.894-1.077a1.468 1.468 0 001.25-1.412c.145-.79.095-1.587-.669-1.587a1.526 1.526 0 00-1.225 1.515c-.108.577-.07 1.484.644 1.484zm-4.85-.11s-.107.527-.132.79l-.057.443h-.991a4.319 4.319 0 010-.772 2.026 2.026 0 01-1.5.709 1.045 1.045 0 01-1.03-1.426 1.79 1.79 0 011.529-1.572l1.035-.176c.183-.029.41.11.467-.168a.546.546 0 00-.631-.658 3.922 3.922 0 00-1.711.322l.252-.958a3.363 3.363 0 011.781-.323c.6.023 1.654.213 1.452 1.4l-.461 2.384zm-.877-1.353a1.812 1.812 0 01-.809.264.9.9 0 00-.89.745.426.426 0 00.41.593 1.228 1.228 0 001.175-.973l.114-.629zm1.913-2.428h1.067l-.155.846h.019a1.62 1.62 0 011.345-.973c.076 0 .24.037.31.044l-.411 1.279a1.223 1.223 0 00-.24-.015 1.158 1.158 0 00-1.25 1.077l-.467 2.754h-1.118l.9-5.014zm-22.3 3.781s-.107.527-.133.79l-.056.444h-.999a4.527 4.527 0 010-.773 2.056 2.056 0 01-1.5.772 1.1 1.1 0 01-1.029-1.489 1.79 1.79 0 011.528-1.572l1.036-.176a.5.5 0 00.467-.387c.095-.548-.347-.463-.631-.471a3.939 3.939 0 00-1.712.322l.253-.958a3.361 3.361 0 011.781-.322c.6.023 1.654.213 1.452 1.4l-.461 2.416zm-.878-1.353a1.8 1.8 0 01-.808.264.9.9 0 00-.89.745.426.426 0 00.41.593 1.228 1.228 0 001.175-.973l.113-.629z" transform="translate(-146 -88)"/></g><g id="Mastercard-3" data-name="Mastercard"><circle id="Ellipse_52_copy-2" data-name="Ellipse 52 copy" class="cls-43" cx="439.5" cy="13.5" r="12.5"/><circle class="cls-44" cx="454.5" cy="13.5" r="12.5"/><path id="Ellipse_52_copy_2" data-name="Ellipse 52 copy 2" class="cls-45" d="M588 101.5a12.467 12.467 0 015-9.983 12.466 12.466 0 010 19.966 12.467 12.467 0 01-5-9.983z" transform="translate(-146 -88)"/></g><g id="Maestro-3" data-name="Maestro"><circle id="Ellipse_52_copy_5-6" data-name="Ellipse 52 copy 5" class="cls-46" cx="509.5" cy="13.5" r="12.5"/><circle id="Ellipse_52_copy_4-6" data-name="Ellipse 52 copy 4" class="cls-47" cx="524.5" cy="13.5" r="12.5"/><path id="Ellipse_52_copy_3-3" data-name="Ellipse 52 copy 3" class="cls-48" d="M658 101.5a12.467 12.467 0 015-9.983 12.466 12.466 0 010 19.966 12.467 12.467 0 01-5-9.983z" transform="translate(-146 -88)"/></g><g id="Сбербанк-3" data-name="Сбербанк"><path id="Rectangle_293_copy_9-3" data-name="Rectangle 293 copy 9" class="cls-40" d="M720.985 104.95v.008-.008l16.56-9.3a12.225 12.225 0 011.455 5.755 13.007 13.007 0 01-26 0c0-.309.015-.613.038-.916zm.015-1.55l-7.763-4.358a12.071 12.071 0 01.322-1.275l7.431 4.172v.008-.008l15.087-8.469a12.79 12.79 0 01.772 1.022zm14.14-10.952L721 100.383l-6.961-3.908a12.392 12.392 0 01.571-1.135l6.38 3.582v.008-.008l13.106-7.357a12.962 12.962 0 011.039.88zm-14.145 3.47v-.008L731.524 90a12.958 12.958 0 011.337.705L721 97.368l-5.658-3.168q.378-.522.806-1l4.837 2.715z" transform="translate(-146 -88)"/></g><g id="alfabank_copy-3" data-name="alfabank copy"><path id="Rounded_Rectangle_230-6" data-name="Rounded Rectangle 230" class="cls-49" d="M787.342 106.926l-2.887 1.081a.374.374 0 01-.475-.228l-1.5-3.8h-7l-1.48 3.83a.373.373 0 01-.474.227l-2.881-1.081a.369.369 0 01-.231-.47l5.825-15.646a2.969 2.969 0 015.491 0l5.84 15.617a.369.369 0 01-.228.47zm-7.9-12.115l-.459-1.325v-.01l-2.636 7.5h5.275zM769.984 111h18.032a.985.985 0 01.984.984v1.032a.985.985 0 01-.984.984h-18.032a.985.985 0 01-.984-.984v-1.032a.985.985 0 01.984-.984z" transform="translate(-146 -88)"/></g><g id="mir_copy-3" data-name="mir copy"><path id="Rectangle_295_copy-6" data-name="Rectangle 295 copy" class="cls-50" d="M835.546 110V99.9h-.446l-3.2 10.1h-3.811L824.9 99.9h-.443V110H819V93h5.465a3.176 3.176 0 013.049 2.24l2.246 7.857h.473l2.25-7.857a3.18 3.18 0 013.063-2.24h5.465v17h-5.465z" transform="translate(-146 -88)"/><path class="cls-50" d="M856.449 110V99.989h-.431l-3.727 8.387a2.762 2.762 0 01-2.52 1.624h-4.776V93h5.5v10.011h.451l3.774-8.4.029-.064v-.006A2.762 2.762 0 01857.231 93h4.776v17h-5.558zm21.684-4.992h-6.552V110h-5.562v-9H884.5a6.821 6.821 0 01-6.367 4.008z" transform="translate(-146 -88)"/><path id="Ellipse_53_copy_2-6" data-name="Ellipse 53 copy 2" d="M884.85 99h-10.571c-4.591 0-8.408-2.772-9.212-6h13.561c3.511 0 6.356 2.434 6.356 5.035a3.549 3.549 0 01-.134.965z" transform="translate(-146 -88)" fill="url(#linear-gradient-3)" fill-rule="evenodd"/></g><g id="JCB-2" data-name="JCB"><path id="Rounded_Rectangle_233-2" data-name="Rounded Rectangle 233" class="cls-52" d="M919.344 89h5.663v20.578a4.377 4.377 0 01-4.331 4.422h-5.664V93.422A4.378 4.378 0 01919.344 89z" transform="translate(-146 -88)"/><path id="Rounded_Rectangle_233_copy-2" data-name="Rounded Rectangle 233 copy" class="cls-53" d="M931.333 89h5.659v20.578a4.376 4.376 0 01-4.328 4.422h-5.659V93.422A4.376 4.376 0 01931.333 89z" transform="translate(-146 -88)"/><path id="Rounded_Rectangle_233_copy_2-2" data-name="Rounded Rectangle 233 copy 2" class="cls-54" d="M943.337 89H949v20.578a4.377 4.377 0 01-4.331 4.422h-5.663V93.422A4.377 4.377 0 01943.337 89z" transform="translate(-146 -88)"/><path class="cls-2" d="M931.837 104.306a8.988 8.988 0 004.225-1.089v2.131a11.144 11.144 0 01-3.8.652 9.984 9.984 0 01-5.262-1.393v-6.214A9.989 9.989 0 01932.266 97a11.139 11.139 0 013.8.652v2.132a9.017 9.017 0 00-4.225-1.091 2.806 2.806 0 10-.004 5.613z" transform="translate(-146 -88)"/><path id="Rounded_Rectangle_231_copy_2-6" data-name="Rounded Rectangle 231 copy 2" class="cls-2" d="M920.173 106h-1.207a14.566 14.566 0 01-3.966-.783V103.4a8.33 8.33 0 003.635 1.115h.3c1.354 0 2.073-.746 2.073-1.666V97h4v5.6c-.003 1.873-2.018 3.4-4.835 3.4z" transform="translate(-146 -88)"/><path id="Rounded_Rectangle_232_copy-2" data-name="Rounded Rectangle 232 copy" class="cls-2" d="M947.979 103.753a2.306 2.306 0 01-2.243 2.247H939v-9h5.867a2.255 2.255 0 010 4.506h.866a2.306 2.306 0 012.246 2.247z" transform="translate(-146 -88)"/><path id="Rounded_Rectangle_232-2" data-name="Rounded Rectangle 232" class="cls-55" d="M942.96 100.671h-1.978v-2h1.978a1 1 0 110 2z" transform="translate(-146 -88)"/><path id="Rounded_Rectangle_232_copy_2-6" data-name="Rounded Rectangle 232 copy 2" class="cls-55" d="M943.305 104.355h-2.292v-2.041h2.292a1.021 1.021 0 110 2.041z" transform="translate(-146 -88)"/></g><g id="Assist-2" data-name="Assist"><path class="cls-68" d="M980.5 99.465s1.629 2.074 6.474 2.074c5.09 0 9.8-4.968 14.831-5.027 5.34-.063 6.72 2.011 6.72 2.011" transform="translate(-146 -88)"/><path id="Shape_453_copy-3" data-name="Shape 453 copy" class="cls-68" d="M980.5 104.465s2.381 2.074 7.226 2.074c5.09 0 10.253-4.955 15.279-5.027 4.43-.063 5.52 2.011 5.52 2.011" transform="translate(-146 -88)"/><path id="Ellipse_54_copy-3" data-name="Ellipse 54 copy" class="cls-68" d="M1005.45 102.5a11 11 0 01-20.819 3.85m-1.047-6.146a11 11 0 0120.726-3.664" transform="translate(-146 -88)"/></g><g id="Яндекс_Касса-2" data-name="Яндекс Касса"><path class="cls-57" d="M1042.44 95.817l8.14-7.817 7.41 7.1-8.15 7.815z" transform="translate(-146 -88)"/><path id="Rectangle_301_copy-6" data-name="Rectangle 301 copy" d="M1047.62 97.948l10.37 9.946-7.41 7.1-8.14-7.814a7.811 7.811 0 010-11.366l1.48-1.421 3.7-3.552a4.888 4.888 0 000 7.107z" transform="translate(-146 -88)" fill="url(#linear-gradient-4)" fill-rule="evenodd"/><circle class="cls-59" cx="914.5" cy="13.5" r="3.5"/></g></g></svg>