<svg width="42" height="42" fill="none" xmlns="http://www.w3.org/2000/svg"><circle cx="21" cy="18" r="7" stroke="#EB222D" stroke-width="4"/><path d="M37 18c0 6.246-3.374 11.772-7.311 15.836-1.953 2.015-3.987 3.609-5.683 4.686-.85.54-1.588.933-2.167 1.184-.498.216-.76.273-.828.289a.527.527 0 00-.011.002.527.527 0 00-.011-.002c-.069-.015-.33-.073-.828-.29-.58-.25-1.318-.644-2.167-1.183-1.696-1.077-3.73-2.67-5.683-4.686C8.374 29.772 5 24.246 5 18 5 9.163 12.163 2 21 2s16 7.163 16 16z" stroke="#EB222D" stroke-width="4"/></svg>