<svg width="48" height="48" fill="none" xmlns="http://www.w3.org/2000/svg"><path fill-rule="evenodd" clip-rule="evenodd" d="M24.168 3c7.146 0 14.976 1.02 17.814 1.869a4.706 4.706 0 012.964 4.371C45 13.668 45 21.834 45 28.599 45 38.382 30.783 47.925 24.078 48H24c-6.672 0-21-9.579-21-19.401 0-6.765 0-14.931.054-19.359a4.706 4.706 0 012.964-4.371C8.877 4.011 16.812 2.985 24 3h.168zm8.259 13.053c.42.027.822.123 1.2.309a3.03 3.03 0 011.659 2.547 3.05 3.05 0 01-.111.96 3.14 3.14 0 01-.669 1.2 322.328 322.328 0 01-10.524 10.524c-.243.213-.51.396-.807.528a3.04 3.04 0 01-2.424 0 3.22 3.22 0 01-.81-.528 189.805 189.805 0 01-6.168-6.168 3.163 3.163 0 01-.669-1.2 3.083 3.083 0 01-.102-1.098 3.06 3.06 0 01.303-1.062c.144-.288.336-.555.564-.783a3.029 3.029 0 012.943-.765c.495.141.927.411 1.299.765l3.852 3.852c2.766-2.769 5.475-5.598 8.304-8.304.105-.09.105-.09.213-.177a3.22 3.22 0 011.533-.591c.138-.009.276-.015.414-.009z" fill="#333"/></svg>