<svg width="22" height="25" fill="none" xmlns="http://www.w3.org/2000/svg"><path fill-rule="evenodd" clip-rule="evenodd" d="M19.102 12.5l-3.496-4.02a.71.71 0 010-.905c.217-.25.57-.25.787 0l4.444 5.112a.69.69 0 01.163.452.69.69 0 01-.163.452l-4.444 5.111a.506.506 0 01-.787 0 .71.71 0 010-.904l3.496-4.02H7.111c-.307 0-.556-.286-.556-.64 0-.352.25-.638.556-.638h11.991zm-6.436 10.222c.307 0 .556.286.556.64 0 .352-.249.638-.556.638H3.778C2.244 24 1 22.57 1 20.806V4.194C1 2.43 2.244 1 3.778 1h8.888c.307 0 .556.286.556.639 0 .353-.249.639-.556.639H3.778c-.92 0-1.667.858-1.667 1.916v16.612c0 1.058.746 1.916 1.667 1.916h8.888z" fill="#EB222D"/><path d="M19.102 12.5v1h2.196l-1.441-1.656-.755.656zm-3.496-4.02l-.755.656.755-.656zm.787-.905l.754-.656-.754.656zm4.444 5.112l-.755.656h.001l.754-.656zm0 .904l-.754-.657v.001l.754.656zm-4.444 5.111l-.755-.656.755.656zm-.787-.904l-.755-.657.755.657zm3.496-4.02l.755.656 1.44-1.656h-2.195v1zm.755-1.934l-3.497-4.02-1.508 1.312 3.496 4.02 1.509-1.312zm-3.496-4.02a.312.312 0 01.082.204c0 .05-.016.127-.082.204l-1.51-1.313a1.709 1.709 0 000 2.217l1.51-1.312zm0 .408a.481.481 0 01-.362.156.481.481 0 01-.361-.156l1.51-1.313a1.506 1.506 0 00-2.297 0l1.51 1.313zm-.723 0l4.444 5.11 1.51-1.312-4.445-5.11-1.509 1.312zm4.445 5.112a.312.312 0 01-.083-.205h2a1.69 1.69 0 00-.41-1.11l-1.507 1.315zM20 13.139a.31.31 0 01.083-.205l1.508 1.314a1.69 1.69 0 00.409-1.11h-2zm.082-.204l-4.444 5.111 1.51 1.313 4.443-5.112-1.509-1.312zm-4.444 5.111a.481.481 0 01.361-.156c.16 0 .289.072.362.156l-1.51 1.313c.616.708 1.68.708 2.296 0l-1.509-1.313zm.723 0a.312.312 0 01.082.204c0 .05-.016.127-.082.204l-1.51-1.313a1.709 1.709 0 000 2.218l1.51-1.313zm0 .408l3.496-4.02-1.51-1.313-3.496 4.02 1.51 1.313zm2.741-5.676H7.111v2h11.991v-2zm-11.991 0c.172 0 .297.082.362.156a.314.314 0 01.082.205h-2c0 .77.57 1.639 1.556 1.639v-2zm.444.36c0 .058-.02.133-.082.205a.481.481 0 01-.362.157v-2c-.986 0-1.556.87-1.556 1.639h2zm-.444.362h11.991v-2H7.111v2zm5.555 10.222a.481.481 0 01-.362-.157.314.314 0 01-.082-.204h2c0-.77-.57-1.639-1.556-1.639v2zm-.444-.36c0-.058.02-.133.082-.205a.481.481 0 01.362-.157v2c.986 0 1.556-.87 1.556-1.639h-2zm.444-.362H3.778v2h8.888v-2zm-8.888 0C2.923 23 2 22.153 2 20.806H0C0 22.986 1.565 25 3.778 25v-2zM2 20.806V4.194H0v16.612h2zM2 4.194C2 2.847 2.923 2 3.778 2V0C1.565 0 0 2.014 0 4.194h2zM3.778 2h8.888V0H3.778v2zm8.888 0a.481.481 0 01-.362-.157.314.314 0 01-.082-.204h2c0-.77-.57-1.639-1.556-1.639v2zm-.444-.361a.32.32 0 01.082-.205.481.481 0 01.362-.156v2c.986 0 1.556-.87 1.556-1.64h-2zm.444-.361H3.778v2h8.888v-2zm-8.888 0c-1.6 0-2.667 1.441-2.667 2.916h2c0-.642.425-.916.667-.916v-2zM1.11 4.194v16.612h2V4.194h-2zm0 16.612c0 1.474 1.067 2.916 2.667 2.916v-2c-.242 0-.667-.274-.667-.916h-2zm2.667 2.916h8.888v-2H3.778v2z" fill="#EB222D"/></svg>