<svg width="24" height="24" fill="none" xmlns="http://www.w3.org/2000/svg"><path fill-rule="evenodd" clip-rule="evenodd" d="M4.8 3h.4c.89 0 1.376.002 1.726.03l.04.004.003.04C6.998 3.424 7 3.91 7 4.8v.4c0 .89-.002 1.376-.03 1.726l-.004.04-.04.003C6.576 6.998 6.09 7 5.2 7h-.4c-.89 0-1.376-.002-1.726-.03l-.04-.004-.003-.04C3.002 6.576 3 6.09 3 5.2v-.4c0-.89.002-1.376.03-1.726l.004-.04.04-.003C3.424 3.002 3.91 3 4.8 3zM0 4.8c0-1.68 0-2.52.327-3.162A3 3 0 011.638.327C2.28 0 3.12 0 4.8 0h.4c1.68 0 2.52 0 3.162.327a3 3 0 011.311 1.311C10 2.28 10 3.12 10 4.8v.4c0 1.68 0 2.52-.327 3.162a3 3 0 01-1.311 1.311C7.72 10 6.88 10 5.2 10h-.4c-1.68 0-2.52 0-3.162-.327A3 3 0 01.327 8.362C0 7.72 0 6.88 0 5.2v-.4zM4.8 17h.4c.89 0 1.376.002 1.726.03l.04.004.003.04c.029.35.031.836.031 1.726v.4c0 .89-.002 1.376-.03 1.726l-.004.04-.04.003c-.35.029-.836.031-1.726.031h-.4c-.89 0-1.376-.002-1.726-.03l-.04-.004-.003-.04C3.002 20.576 3 20.09 3 19.2v-.4c0-.89.002-1.376.03-1.726l.004-.04.04-.003C3.424 17.002 3.91 17 4.8 17zM0 18.8c0-1.68 0-2.52.327-3.162a3 3 0 011.311-1.311C2.28 14 3.12 14 4.8 14h.4c1.68 0 2.52 0 3.162.327a3 3 0 011.311 1.311C10 16.28 10 17.12 10 18.8v.4c0 1.68 0 2.52-.327 3.162a3 3 0 01-1.311 1.311C7.72 24 6.88 24 5.2 24h-.4c-1.68 0-2.52 0-3.162-.327a3 3 0 01-1.311-1.311C0 21.72 0 20.88 0 19.2v-.4zM19.2 3h-.4c-.89 0-1.376.002-1.726.03l-.04.004-.003.04C17.002 3.424 17 3.91 17 4.8v.4c0 .89.002 1.376.03 1.726l.004.04.04.003c.35.029.836.031 1.726.031h.4c.89 0 1.376-.002 1.726-.03l.04-.004.003-.04c.029-.35.031-.836.031-1.726v-.4c0-.89-.002-1.376-.03-1.726l-.004-.04-.04-.003C20.576 3.002 20.09 3 19.2 3zm-4.873-1.362C14 2.28 14 3.12 14 4.8v.4c0 1.68 0 2.52.327 3.162a3 3 0 001.311 1.311C16.28 10 17.12 10 18.8 10h.4c1.68 0 2.52 0 3.162-.327a3 3 0 001.311-1.311C24 7.72 24 6.88 24 5.2v-.4c0-1.68 0-2.52-.327-3.162A3 3 0 0022.362.327C21.72 0 20.88 0 19.2 0h-.4c-1.68 0-2.52 0-3.162.327a3 3 0 00-1.311 1.311zM18.8 17h.4c.89 0 1.376.002 1.726.03l.04.004.003.04c.029.35.031.836.031 1.726v.4c0 .89-.002 1.376-.03 1.726l-.004.04-.04.003c-.35.029-.836.031-1.726.031h-.4c-.89 0-1.376-.002-1.726-.03l-.04-.004-.003-.04c-.029-.35-.031-.836-.031-1.726v-.4c0-.89.002-1.376.03-1.726l.004-.04.04-.003c.35-.029.836-.031 1.726-.031zM14 18.8c0-1.68 0-2.52.327-3.162a3 3 0 011.311-1.311C16.28 14 17.12 14 18.8 14h.4c1.68 0 2.52 0 3.162.327a3 3 0 011.311 1.311C24 16.28 24 17.12 24 18.8v.4c0 1.68 0 2.52-.327 3.162a3 3 0 01-1.311 1.311C21.72 24 20.88 24 19.2 24h-.4c-1.68 0-2.52 0-3.162-.327a3 3 0 01-1.311-1.311C14 21.72 14 20.88 14 19.2v-.4z" fill="#EB222D"/></svg>