<svg width="70" height="50" fill="none" xmlns="http://www.w3.org/2000/svg"><path d="M0 19.2C0 12.48 0 9.12 1.308 6.552a12 12 0 015.244-5.244C9.12 0 12.48 0 19.2 0h26.478c3.873 0 5.81 0 7.558.546a12 12 0 014.213 2.329c1.393 1.189 2.423 2.829 4.484 6.108l3.646 5.8c2.329 3.705 3.493 5.558 3.947 7.546a11.998 11.998 0 010 5.342c-.454 1.988-1.618 3.84-3.947 7.546l-3.646 5.8c-2.06 3.28-3.091 4.92-4.484 6.108a12 12 0 01-4.213 2.329C51.488 50 49.55 50 45.678 50H19.2c-6.72 0-10.08 0-12.648-1.308a12 12 0 01-5.244-5.244C0 40.88 0 37.52 0 30.8V19.2z" fill="#EB222D"/></svg>