<svg width="48" height="48" fill="none" xmlns="http://www.w3.org/2000/svg"><path fill-rule="evenodd" clip-rule="evenodd" d="M15 39v1.5c0 2.484-2.016 4.5-4.5 4.5A4.502 4.502 0 016 40.5V39c-1.656 0-3-1.344-3-3V24c-1.656 0-3-1.344-3-3v-6c0-1.656 1.344-3 3-3V9c0-4.968 4.032-9 9-9h24c4.968 0 9 4.032 9 9v3c1.656 0 3 1.344 3 3v6c0 1.656-1.344 3-3 3v12c0 1.656-1.344 3-3 3v1.5c0 2.484-2.016 4.5-4.5 4.5a4.502 4.502 0 01-4.5-4.5V39H15zm-3-12a3.001 3.001 0 010 6 3.001 3.001 0 010-6zm24 0a3.001 3.001 0 010 6 3.001 3.001 0 010-6zm0-6c1.656 0 3-1.344 3-3V9c0-1.656-1.344-3-3-3H12c-1.656 0-3 1.344-3 3v9c0 1.656 1.344 3 3 3h24z" fill="#333"/></svg>