<svg width="42" height="42" fill="none" xmlns="http://www.w3.org/2000/svg"><path fill-rule="evenodd" clip-rule="evenodd" d="M29 16c0-1.656-1.344-3-3-3H16c-1.656 0-3 1.344-3 3v10c0 1.656 1.344 3 3 3h10c1.656 0 3-1.344 3-3V16zm-13.555 1.514h1.322c.33 0 .457.139.584.508.648 1.868 1.729 3.508 2.173 3.508.166 0 .242-.077.242-.496v-1.932c-.031-.549-.223-.788-.364-.966-.088-.11-.157-.196-.157-.317 0-.153.127-.305.33-.305h2.059c.28 0 .381.152.381.483v2.605c0 .279.115.381.204.381.165 0 .305-.102.61-.407.94-1.054 1.614-2.681 1.614-2.681.089-.191.241-.369.572-.369h1.309c.394 0 .483.204.394.483-.14.64-1.288 2.334-1.647 2.864-.07.102-.11.161-.107.161-.14.229-.191.33 0 .585.069.093.214.236.38.398.172.17.367.36.522.542.559.635.991 1.169 1.106 1.538.101.368-.076.559-.458.559h-1.309c-.346 0-.525-.2-.906-.623-.164-.182-.365-.406-.632-.673-.775-.75-1.118-.852-1.309-.852-.266 0-.343.064-.343.445v1.182c0 .318-.101.508-.94.508-1.385 0-2.923-.839-4.003-2.402C15.445 19.954 15 18.225 15 17.882c0-.19.064-.368.445-.368z" fill="#BDBDBD"/><circle cx="21" cy="21" r="19.5" stroke="#BDBDBD" stroke-width="3"/></svg>