<svg width="42" height="42" fill="none" xmlns="http://www.w3.org/2000/svg"><path fill-rule="evenodd" clip-rule="evenodd" d="M13 21c0-1.841.331-3.465.833-4.423a3.204 3.204 0 011.159-1.426C15.912 14.479 18.256 14 21 14s5.088.479 6.008 1.151c.513.349.919.844 1.159 1.426.502.958.833 2.582.833 4.423 0 1.841-.331 3.465-.833 4.423a3.204 3.204 0 01-1.159 1.426C26.088 27.521 23.744 28 21 28s-5.088-.479-6.008-1.151a3.204 3.204 0 01-1.159-1.426C13.331 24.465 13 22.841 13 21zm6.833 2.897a.522.522 0 01-.833-.418v-4.958a.522.522 0 01.833-.418l3.931 2.443-.002.003a.546.546 0 010 .902l.002.003-3.931 2.443z" fill="#BDBDBD"/><circle cx="21" cy="21" r="19.5" stroke="#BDBDBD" stroke-width="3"/></svg>