<svg width="24" height="24" viewBox="0 0 24 24" fill="none" xmlns="http://www.w3.org/2000/svg">
<path fill-rule="evenodd" clip-rule="evenodd" d="M18.9999 18V3.04998C20.141 3.28156 21 4.29047 21 5.5V15C21 15.8284 21.6716 16.5 22.5 16.5C23.3284 16.5 24 15.8284 24 15V5.5C24 2.46243 21.5376 0 18.5 0H4.72169C2.24994 0 0.369763 2.21947 0.776117 4.6576L1.91821 11.5102C1.97255 11.8362 1.99985 12.1661 1.99985 12.4966V18C1.99985 21.3137 4.68614 24 7.99985 24H12.9999C16.3136 24 18.9999 21.3137 18.9999 18ZM7 3H4.72169C4.10375 3 3.63371 3.55487 3.7353 4.1644L4.8774 11.017C4.95889 11.506 4.99985 12.0008 4.99985 12.4966V18C4.99985 19.6569 6.343 21 7.99985 21H12.9999C14.6567 21 15.9999 19.6569 15.9999 18V3H10V14.5C10 15.3284 9.32843 16 8.5 16C7.67157 16 7 15.3284 7 14.5V3Z" fill="#888E94"/>
</svg>
