<svg width="24" height="24" viewBox="0 0 24 24" fill="none" xmlns="http://www.w3.org/2000/svg">
<path fill-rule="evenodd" clip-rule="evenodd" d="M8.00142 8.00142C5.39499 10.6079 4.01503 13.0114 3.28084 14.8388C2.56493 16.6206 3.29558 18.7029 5.04514 20.4525L5.85343 21.2608C6.43921 21.8465 6.43921 22.7963 5.85343 23.3821C5.26764 23.9679 4.31789 23.9679 3.73211 23.3821L2.92382 22.5738C0.750576 20.4005 -0.855215 17.0862 0.497122 13.7203C1.38185 11.5183 2.98681 8.77339 5.8801 5.8801C8.77339 2.98681 11.5183 1.38185 13.7203 0.497122C17.0862 -0.855215 20.4005 0.750574 22.5738 2.92382L23.3821 3.73211C23.9679 4.31789 23.9679 5.26764 23.3821 5.85343C22.7963 6.43921 21.8465 6.43921 21.2608 5.85343L20.4525 5.04514C18.7029 3.29558 16.6206 2.56493 14.8388 3.28084C13.0114 4.01503 10.6079 5.39499 8.00142 8.00142Z" fill="#888E94"/>
<path fill-rule="evenodd" clip-rule="evenodd" d="M4.51066 15.8201C5.09644 15.2343 6.04619 15.2343 6.63198 15.8201L8.96204 18.1501C9.54783 18.7359 9.54783 19.6857 8.96204 20.2715C8.37625 20.8573 7.42651 20.8573 6.84072 20.2715L4.51066 17.9414C3.92487 17.3556 3.92487 16.4059 4.51066 15.8201Z" fill="#888E94"/>
<path fill-rule="evenodd" clip-rule="evenodd" d="M15.8962 4.43456C16.482 3.84878 17.4317 3.84878 18.0175 4.43456L20.3476 6.76462C20.9334 7.35041 20.9334 8.30016 20.3476 8.88594C19.7618 9.47173 18.812 9.47173 18.2262 8.88594L15.8962 6.55588C15.3104 5.9701 15.3104 5.02035 15.8962 4.43456Z" fill="#888E94"/>
<path fill-rule="evenodd" clip-rule="evenodd" d="M6.34437 12.0301C6.93016 11.4443 7.87991 11.4443 8.46569 12.0301L11.7738 15.3382C12.3596 15.924 12.3596 16.8737 11.7738 17.4595C11.188 18.0453 10.2383 18.0453 9.65249 17.4595L6.34437 14.1514C5.75859 13.5656 5.75859 12.6159 6.34437 12.0301Z" fill="#888E94"/>
<path fill-rule="evenodd" clip-rule="evenodd" d="M8.70272 8.70396C9.2885 8.11817 10.2383 8.11817 10.824 8.70396L14.6162 12.4961C15.202 13.0819 15.202 14.0316 14.6162 14.6174C14.0304 15.2032 13.0806 15.2032 12.4949 14.6174L8.70272 10.8253C8.11693 10.2395 8.11693 9.28975 8.70272 8.70396Z" fill="#888E94"/>
<path fill-rule="evenodd" clip-rule="evenodd" d="M12.0675 6.30694C12.6533 5.72116 13.6031 5.72116 14.1888 6.30694L17.497 9.61507C18.0827 10.2009 18.0827 11.1506 17.497 11.7364C16.9112 12.3222 15.9614 12.3222 15.3756 11.7364L12.0675 8.42826C11.4817 7.84248 11.4817 6.89273 12.0675 6.30694Z" fill="#888E94"/>
</svg>
