<svg width="24" height="24" viewBox="0 0 24 24" fill="none" xmlns="http://www.w3.org/2000/svg">
<path fill-rule="evenodd" clip-rule="evenodd" d="M6.61927 2.40566C6.83248 1.80867 7.39797 1.41016 8.03189 1.41016H15.9468C16.5797 1.41016 17.1445 1.80737 17.3585 2.40298L23.8903 20.5832C24.0554 21.0428 23.9865 21.5539 23.7055 21.9533C23.4246 22.3527 22.9669 22.5904 22.4786 22.5904H1.53907C1.05128 22.5904 0.593946 22.3532 0.312951 21.9545C0.0319569 21.5557 -0.0376041 21.0453 0.126456 20.5859L6.61927 2.40566ZM7.96795 7.54909L11.8976 19.5904H3.66757L7.96795 7.54909ZM15.0534 19.5904H20.3458L14.8919 4.41016H10.0993L15.0534 19.5904Z" fill="#888E94"/>
</svg>
