<svg width="24" height="24" viewBox="0 0 24 24" fill="none" xmlns="http://www.w3.org/2000/svg">
<path fill-rule="evenodd" clip-rule="evenodd" d="M15 3.00024H9C6.79086 3.00024 5 4.79111 5 7.00024V17.0002C5 19.2094 6.79086 21.0002 9 21.0002H15C17.2091 21.0002 19 19.2094 19 17.0002V7.00024C19 4.79111 17.2091 3.00024 15 3.00024ZM9 0.000244141C5.13401 0.000244141 2 3.13425 2 7.00024V17.0002C2 20.8662 5.13401 24.0002 9 24.0002H15C18.866 24.0002 22 20.8662 22 17.0002V7.00024C22 3.13425 18.866 0.000244141 15 0.000244141H9Z" fill="#888E94"/>
<path d="M7 7.00024C7 5.89567 7.89543 5.00024 9 5.00024C10.1046 5.00024 11 5.89567 11 7.00024V9.00024C11 10.1048 10.1046 11.0002 9 11.0002C7.89543 11.0002 7 10.1048 7 9.00024V7.00024Z" fill="#888E94"/>
</svg>
