<svg width="24" height="24" viewBox="0 0 24 24" fill="none" xmlns="http://www.w3.org/2000/svg">
<path fill-rule="evenodd" clip-rule="evenodd" d="M18.0705 4.28719C16.0735 2.29022 12.8358 2.29022 10.8388 4.28719L4.92198 10.204C4.37735 10.7486 3.49433 10.7486 2.9497 10.204C2.40508 9.65938 2.40508 8.77636 2.9497 8.23173L8.86652 2.31491C11.9528 -0.771312 16.9565 -0.771312 20.0427 2.31491C23.129 5.40114 23.129 10.4049 20.0427 13.4911L11.1675 22.3664C8.989 24.5449 5.45693 24.5449 3.27842 22.3664C1.0999 20.1878 1.0999 16.6558 3.27842 14.4773L12.1536 5.60204C13.4244 4.33124 15.4848 4.33124 16.7556 5.60204C18.0264 6.87284 18.0264 8.93321 16.7556 10.204L11.4962 15.4634C10.9516 16.008 10.0686 16.008 9.52395 15.4634C8.97932 14.9188 8.97932 14.0358 9.52395 13.4911L14.7833 8.23173C14.9649 8.05019 14.9649 7.75585 14.7833 7.57431C14.6018 7.39277 14.3075 7.39277 14.1259 7.57431L5.25069 16.4495C4.16143 17.5388 4.16143 19.3048 5.25069 20.3941C6.33995 21.4833 8.10598 21.4833 9.19524 20.3941L18.0705 11.5189C20.0674 9.52189 20.0674 6.28416 18.0705 4.28719Z" fill="#888E94"/>
</svg>
