<svg width="24" height="24" viewBox="0 0 24 24" fill="none" xmlns="http://www.w3.org/2000/svg">
<path fill-rule="evenodd" clip-rule="evenodd" d="M11.2716 11.2389C11.3578 10.415 12.0957 9.81696 12.9196 9.90316C13.3144 9.94447 13.6905 10.1206 13.9197 10.2401C14.2056 10.3892 14.5208 10.5895 14.8351 10.8339C15.4508 11.3128 16.1638 12.0402 16.6028 13.0074C16.9452 13.7618 16.6113 14.6509 15.8569 14.9933C15.1026 15.3357 14.2135 15.0017 13.8711 14.2474C13.6947 13.8589 13.3639 13.4903 12.9933 13.202C12.8143 13.0628 12.6507 12.9618 12.5328 12.9003C12.5006 12.8835 12.4754 12.8716 12.4577 12.8636C11.7123 12.7094 11.1907 12.0121 11.2716 11.2389ZM12.4289 12.8515L12.4311 12.8524C12.4213 12.8492 12.4202 12.8483 12.4289 12.8515Z" fill="#888E94"/>
<path fill-rule="evenodd" clip-rule="evenodd" d="M14 4.5C14 2.01472 11.9853 0 9.5 0C7.01472 0 5 2.01472 5 4.5V5.4C5 5.67307 5.0304 5.93904 5.08801 6.19471C3.22509 7.45256 2 9.58323 2 11.9999V17.9999C2 21.3137 4.68629 23.9999 8 23.9999H16C19.3137 23.9999 22 21.3164 22 18.0027V14.9999C22 9.44991 16.532 6.08706 14 5.22266V4.5ZM10.4 3.29989C10.2512 3.1881 10.0809 3.10334 9.89638 3.05293C9.77011 3.01842 9.63721 3 9.5 3C9.36279 3 9.22989 3.01842 9.10362 3.05293C8.91914 3.10334 8.74883 3.1881 8.6 3.29989C8.23567 3.57355 8 4.00925 8 4.5V5.4C8 5.73137 8.26863 6 8.6 6H10.4C10.7314 6 11 5.73137 11 5.4V4.5C11 4.00925 10.7643 3.57355 10.4 3.29989ZM12.8767 8.01266C12.2314 8.6246 11.3595 9 10.4 9H8.6C7.99262 9 7.42037 8.84958 6.91847 8.58397C5.76795 9.28662 5 10.5539 5 11.9999V17.9999C5 19.6568 6.34315 20.9999 8 20.9999H16C17.6586 20.9999 19 19.6578 19 18.0027V14.9999C19 12.998 17.8527 11.267 16.1628 9.88431C15.3392 9.21051 14.4743 8.69782 13.7628 8.36336C13.4078 8.19647 13.1213 8.08828 12.9267 8.02775C12.9084 8.02208 12.8918 8.01707 12.8767 8.01266Z" fill="#888E94"/>
</svg>
