<svg width="24" height="24" viewBox="0 0 24 24" fill="none" xmlns="http://www.w3.org/2000/svg">
<path fill-rule="evenodd" clip-rule="evenodd" d="M13.3728 12.5217C15.2015 12.5217 16.8391 11.7031 17.9392 10.4123C19.5247 10.248 20.8465 9.19558 21.3991 7.76099H22.5005C23.3286 7.76099 24 7.08941 24 6.26099C24 5.43256 23.3286 4.76099 22.5005 4.76099H21.3992C20.8467 3.32621 19.5248 2.27368 17.9392 2.10934C16.839 0.818551 15.2015 0 13.3728 0H4.99846C2.23789 0 0 2.23858 0 5V7.52174C0 9.28366 0.911059 10.8327 2.28765 11.7233C2.33189 11.9744 2.37462 12.2418 2.41366 12.5227C2.52607 13.3314 2.60799 14.2521 2.60799 15.2179C2.60799 16.6678 2.37628 18.7017 2.13127 20.4472C1.87091 22.3019 3.28972 24.0002 5.1621 24.0002H5.85815C7.63998 24.0002 9.20682 22.8209 9.70043 21.1082L12.1752 12.5217H13.3728ZM13.3728 3H4.99846C3.97509 3 3.1313 3.76909 3.01321 4.76099H5.57208C6.40025 4.76099 7.07162 5.43256 7.07162 6.26099C7.07162 7.08941 6.40025 7.76099 5.57208 7.76099H3.01323C3.13143 8.75276 3.97517 9.52174 4.99846 9.52174H13.3728C13.83 9.52174 14.2633 9.41942 14.651 9.23643C14.1105 8.61906 13.7829 7.81045 13.7829 6.9253V5.59635C13.7829 4.71123 14.1104 3.90265 14.6509 3.28528C14.2632 3.10231 13.83 3 13.3728 3ZM5.43805 12.5227C5.53801 13.3433 5.60707 14.257 5.60707 15.2179C5.60707 16.8959 5.34727 19.1114 5.10121 20.8643C5.0976 20.8901 5.10002 20.9085 5.10488 20.9247C5.11059 20.9438 5.12103 20.9633 5.13471 20.9794C5.14545 20.9921 5.1541 20.998 5.15747 21L5.1621 21.0002H5.85815C6.30361 21.0002 6.69532 20.7053 6.81872 20.2772L9.05368 12.5227H5.43805ZM17.504 5.08691H17.2912C17.01 5.08691 16.7819 5.315 16.7819 5.59635V6.9253C16.7819 7.20666 17.01 7.43474 17.2912 7.43474H17.504C18.1522 7.43474 18.6776 6.90916 18.6776 6.26083C18.6776 5.61249 18.1522 5.08691 17.504 5.08691Z" fill="#888E94"/>
</svg>
