<svg width="24" height="24" viewBox="0 0 24 24" fill="none" xmlns="http://www.w3.org/2000/svg">
<path fill-rule="evenodd" clip-rule="evenodd" d="M24 12C24 18.6274 18.6274 24 12 24C5.37258 24 0 18.6274 0 12C0 5.37258 5.37258 0 12 0C18.6274 0 24 5.37258 24 12ZM21 12C21 13.1881 20.7698 14.3224 20.3515 15.3608C20.3082 14.2146 20.0591 13.0405 19.4895 11.9815C19.0971 11.2519 18.1875 10.9785 17.4579 11.371C16.7283 11.7634 16.455 12.673 16.8474 13.4026C17.336 14.3109 17.4645 15.549 17.2758 16.8481C17.0869 18.1486 16.6118 19.287 16.1519 19.9136C16.125 19.9502 16.1 19.9877 16.077 20.0258C15.8229 20.1551 15.5619 20.2727 15.2946 20.3779C15.8453 19.0183 16.1731 17.3122 15.8467 15.3307C15.7121 14.5133 14.9403 13.9598 14.1229 14.0944C13.3055 14.229 12.752 15.0008 12.8866 15.8182C13.2822 18.2204 12.2661 20.0394 11.4895 20.9858C8.98321 20.8456 6.75079 19.68 5.20495 17.9017C6.41437 18.2647 7.77121 18.3535 9.22413 18.0399C10.0339 17.8652 10.5487 17.067 10.3739 16.2572C10.1991 15.4475 9.40099 14.9327 8.59121 15.1075C6.02533 15.6613 3.91246 14.223 3.01604 12.5419C3.0054 12.3626 3 12.1819 3 12C3 7.77895 5.90586 4.2366 9.82625 3.26427C8.01468 4.58295 6.494 6.62934 5.7937 9.6217C5.60493 10.4283 6.10581 11.2353 6.91244 11.424C7.71907 11.6128 8.52601 11.1119 8.71478 10.3053C9.85858 5.41781 13.8837 4.03755 16.6427 4.28837C16.9305 4.46199 17.2077 4.65126 17.4733 4.855C16.666 4.94291 15.8523 5.13858 15.0738 5.47085C13.0618 6.32957 11.399 8.05898 10.7519 10.855C10.5651 11.662 11.0679 12.4678 11.875 12.6545C12.6821 12.8413 13.4878 12.3385 13.6746 11.5314C14.1038 9.67705 15.112 8.71634 16.2514 8.23005C17.4146 7.73362 18.8192 7.69526 20.0472 7.96551C20.6568 9.17901 21 10.5494 21 12Z" fill="#888E94"/>
</svg>
