<svg width="24" height="24" viewBox="0 0 24 24" fill="none" xmlns="http://www.w3.org/2000/svg">
<path fill-rule="evenodd" clip-rule="evenodd" d="M2.09615 7.44355C1.41319 6.65448 1 5.62549 1 4.5C1 2.01472 3.01472 0 5.5 0H18.5C20.9853 0 23 2.01472 23 4.5C23 6.98528 20.9853 9 18.5 9H6C4.34315 9 3 10.3431 3 12C3 13.6569 4.34315 15 6 15H20.25C20.6642 15 21 14.6642 21 14.25C21 13.8358 20.6642 13.5 20.25 13.5H6C5.17157 13.5 4.5 12.8284 4.5 12C4.5 11.1716 5.17157 10.5 6 10.5H20.25C22.3211 10.5 24 12.1789 24 14.25C24 15.5088 23.3797 16.6228 22.4281 17.3029C22.7923 17.9527 23 18.7021 23 19.5C23 21.9853 20.9853 24 18.5 24H5.5C3.01472 24 1 21.9853 1 19.5C1 18.3745 1.41319 17.3455 2.09615 16.5565C0.812979 15.456 0 13.823 0 12C0 10.177 0.812978 8.54396 2.09615 7.44355ZM5.5 3H18.5C19.3284 3 20 3.67157 20 4.5C20 5.32843 19.3284 6 18.5 6H5.5C4.67157 6 4 5.32843 4 4.5C4 3.67157 4.67157 3 5.5 3ZM18.5 18C19.3284 18 20 18.6716 20 19.5C20 20.3284 19.3284 21 18.5 21H5.5C4.67157 21 4 20.3284 4 19.5C4 18.6716 4.67157 18 5.5 18H18.5Z" fill="#888E94"/>
</svg>
