<svg width="24" height="24" viewBox="0 0 24 24" fill="none" xmlns="http://www.w3.org/2000/svg">
<path d="M7.5 12.0002C8.32843 12.0002 9 11.3287 9 10.5002C9 9.67182 8.32843 9.00024 7.5 9.00024C6.67157 9.00024 6 9.67182 6 10.5002C6 11.3287 6.67157 12.0002 7.5 12.0002Z" fill="#888E94"/>
<path d="M15 13.5002C15 14.3287 14.3284 15.0002 13.5 15.0002C12.6716 15.0002 12 14.3287 12 13.5002C12 12.6718 12.6716 12.0002 13.5 12.0002C14.3284 12.0002 15 12.6718 15 13.5002Z" fill="#888E94"/>
<path d="M14.5 9.00024C15.3284 9.00024 16 8.32867 16 7.50024C16 6.67182 15.3284 6.00024 14.5 6.00024C13.6716 6.00024 13 6.67182 13 7.50024C13 8.32867 13.6716 9.00024 14.5 9.00024Z" fill="#888E94"/>
<path fill-rule="evenodd" clip-rule="evenodd" d="M23 11.0002C23 13.6168 22.0864 16.02 20.5608 17.9082C20.7371 18.1382 20.8714 18.3585 20.9631 18.5408C21.393 19.3957 22.0109 21.7416 19.9682 23.2736C19.3393 23.7453 18.5744 24.0002 17.7882 24.0002H6.21045C5.42429 24.0002 4.65935 23.7453 4.03042 23.2736C1.98776 21.7416 2.60562 19.3957 3.03556 18.5408C3.12737 18.3583 3.2619 18.1376 3.43847 17.9074C1.9133 16.0193 1 13.6164 1 11.0002C1 4.92511 5.92487 0.000244141 12 0.000244141C18.0751 0.000244141 23 4.92511 23 11.0002ZM12 3.00024C16.4183 3.00024 20 6.58197 20 11.0002C20 13.0581 19.223 14.9345 17.9464 16.352C17.5836 16.3148 17.1904 16.3333 16.7673 16.4263C15.2771 16.7539 13.6092 17.0002 11.9993 17.0002C10.3895 17.0002 8.72155 16.7539 7.23135 16.4263C6.80872 16.3334 6.41595 16.3148 6.05348 16.3519C4.77694 14.9344 4 13.058 4 11.0002C4 6.58197 7.58172 3.00024 12 3.00024ZM17.412 19.3563C15.8908 19.6907 14.1304 19.9641 12.3551 19.9969C12.2367 19.9991 12.1183 20.0002 11.9999 20.0002L11.9777 20.0002C11.8667 20.0001 11.7557 19.999 11.6447 19.9969C10.5737 19.9771 9.50804 19.8698 8.49709 19.7144C7.95141 19.6304 7.42165 19.5325 6.91556 19.4267C6.80494 19.4036 6.69547 19.3801 6.5872 19.3563C6.54401 19.3468 6.50117 19.3423 6.45892 19.3423C6.11153 19.3423 5.80376 19.6465 5.66847 19.9965C5.54472 20.3163 5.56458 20.6742 5.83042 20.8736C5.94006 20.9558 6.0734 21.0002 6.21045 21.0002H17.7882C17.9252 21.0002 18.0586 20.9558 18.1682 20.8736C18.6531 20.5099 18.3212 19.618 17.7882 19.394C17.7093 19.3608 17.626 19.3423 17.5403 19.3423C17.498 19.3423 17.4552 19.3468 17.412 19.3563Z" fill="#888E94"/>
</svg>
