<svg width="24" height="24" viewBox="0 0 24 24" fill="none" xmlns="http://www.w3.org/2000/svg">
<path fill-rule="evenodd" clip-rule="evenodd" d="M8.28436 3.7214C7.55027 2.06826 8.76042 0.206787 10.5692 0.206787L13.458 0.206787C15.2831 0.206787 16.4931 2.09914 15.7273 3.75582L13.4663 8.64678V9.94604C13.4995 9.95914 13.5326 9.9727 13.5655 9.98673L20.7618 13.0496C24.0065 14.4306 24.0065 19.0296 20.7618 20.4106L13.5655 23.4735C12.5646 23.8995 11.4334 23.8995 10.4325 23.4735L3.23623 20.4106C-0.00843096 19.0296 -0.0084331 14.4306 3.23623 13.0496L10.4325 9.98672L10.4663 9.97255V8.63491L8.28436 3.7214ZM11.9937 4.68271L12.676 3.20679H11.3383L11.9937 4.68271ZM11.6074 12.7471L4.41111 15.81C3.59995 16.1552 3.59994 17.305 4.41111 17.6502L11.6074 20.7131C11.8576 20.8196 12.1404 20.8196 12.3906 20.7131L18.1836 18.2475H11.1289C10.3005 18.2475 9.62891 17.576 9.62891 16.7475C9.62891 15.9191 10.3005 15.2475 11.1289 15.2475L18.2655 15.2475L12.3906 12.7471C12.1404 12.6406 11.8576 12.6406 11.6074 12.7471Z" fill="#888E94"/>
</svg>
