<svg width="24" height="24" viewBox="0 0 24 24" fill="none" xmlns="http://www.w3.org/2000/svg">
<path fill-rule="evenodd" clip-rule="evenodd" d="M10.4492 6.04517C10.4492 5.1895 11.1429 4.49585 11.9985 4.49585C12.4761 4.49585 12.9023 4.71014 13.1888 5.0533C13.7198 5.68918 14.6658 5.7742 15.3016 5.2432C15.9375 4.71221 16.0225 3.76627 15.4915 3.1304C14.6594 2.13389 13.4028 1.49585 11.9985 1.49585C9.48602 1.49585 7.44922 3.53265 7.44922 6.04517C7.44922 8.03277 8.72387 9.72267 10.5003 10.342V11.3158L0.553471 19.867C0.0777765 20.2759 -0.0931996 20.9377 0.124874 21.5259C0.342948 22.114 0.904008 22.5044 1.53132 22.5044H22.4676C23.0949 22.5044 23.6559 22.1141 23.874 21.5259C24.0921 20.9378 23.9212 20.276 23.4455 19.867L13.5003 11.3159V9.24023C13.5003 9.20948 13.4994 9.17893 13.4976 9.14863C13.4982 9.13066 13.4985 9.11261 13.4985 9.09448C13.4985 8.26605 12.827 7.59448 11.9985 7.59448C11.1429 7.59448 10.4492 6.90083 10.4492 6.04517ZM5.57712 19.5044L12.0002 13.9826L18.4223 19.5044H5.57712Z" fill="#888E94"/>
</svg>
