<svg width="24" height="24" viewBox="0 0 24 24" fill="none" xmlns="http://www.w3.org/2000/svg">
<path fill-rule="evenodd" clip-rule="evenodd" d="M11.2422 4.00987L18.0821 2.98356C18.9014 2.86049 19.4657 2.0966 19.3426 1.27737C19.2196 0.458133 18.4557 -0.10622 17.6364 0.016849L6.26401 1.72325C6.26406 1.72325 6.26397 1.72326 6.26401 1.72325L5.27496 1.87171C2.5441 2.28147 0.662482 4.82743 1.07224 7.55829C1.33814 9.33042 2.72852 10.6555 4.41018 10.9178C3.54699 10.7832 2.76054 10.3686 2.16349 9.75729L0.108116 18.4926C-0.482667 21.0034 1.42239 23.4088 4.00178 23.4088H7.17975C9.29766 23.4088 11.0485 21.7579 11.1729 19.6437L11.2489 18.35C11.28 17.8215 11.7177 17.4088 12.2472 17.4088H21.9514C23.0559 17.4088 23.9514 16.5133 23.9514 15.4088V13.4088C23.9514 11.1996 22.9512 9.90877 19.9512 9.49261C18.7754 9.32951 16.6403 9.12777 14.6821 8.94273C13.4096 8.82249 12.2115 8.70929 11.4 8.61834C11.879 7.84207 12.0964 6.89871 11.9505 5.92604C11.8449 5.22279 11.5978 4.57585 11.2422 4.00987ZM6.70904 4.69011L5.72011 4.8385C4.62777 5.0024 3.87512 6.02079 4.03903 7.11313C4.12098 7.6593 4.63017 8.03562 5.17634 7.95367L8.14313 7.50851C8.6893 7.42656 9.06563 6.91737 8.98368 6.3712C8.81977 5.27885 7.80138 4.52621 6.70904 4.69011ZM3.02837 19.1797L4.96129 10.9648C5.17874 10.9682 5.39936 10.9538 5.6215 10.9205L8.12971 10.5441C8.67368 11.0197 9.35051 11.3511 10.1063 11.4749C10.7074 11.5734 12.374 11.7316 14.1998 11.9049C16.1761 12.0924 18.339 12.2977 19.539 12.4642C20.4608 12.592 20.8042 12.7834 20.8927 12.8432C20.9159 12.9135 20.9514 13.0795 20.9514 13.4088V14.4088H12.2472C10.1293 14.4088 8.37849 16.0596 8.25412 18.1739L8.17803 19.4675C8.14694 19.9961 7.70923 20.4088 7.17975 20.4088H4.00178C3.35694 20.4088 2.88067 19.8074 3.02837 19.1797ZM20.8733 12.8003C20.8733 12.8003 20.8789 12.8064 20.8861 12.8246C20.8761 12.8103 20.8733 12.8003 20.8733 12.8003Z" fill="#888E94"/>
</svg>
