<svg width="24" height="24" viewBox="0 0 24 24" fill="none" xmlns="http://www.w3.org/2000/svg">
<path fill-rule="evenodd" clip-rule="evenodd" d="M19.0001 19.9999V13.0826C19.0001 12.7563 18.8409 12.4505 18.5736 12.2633L12.5736 8.06334C12.2293 7.82231 11.771 7.82231 11.4267 8.06334L5.42667 12.2633C5.15934 12.4505 5.00013 12.7563 5.00013 13.0826V19.9999C5.00013 20.5522 5.44784 20.9999 6.00013 20.9999H18.0001C18.5524 20.9999 19.0001 20.5522 19.0001 19.9999ZM3.70628 9.80564C2.63697 10.5542 2.00013 11.7773 2.00013 13.0826V19.9999C2.00013 22.2091 3.79099 23.9999 6.00013 23.9999H18.0001C20.2093 23.9999 22.0001 22.2091 22.0001 19.9999V13.0826C22.0001 11.7773 21.3633 10.5542 20.294 9.80564L14.294 5.60564C12.9167 4.64154 11.0836 4.64155 9.70628 5.60564L3.70628 9.80564Z" fill="#888E94"/>
<path fill-rule="evenodd" clip-rule="evenodd" d="M13.4338 3.83449C12.573 3.23193 11.4273 3.23193 10.5665 3.83449L2.86032 9.22879C2.18165 9.70387 1.24635 9.53881 0.771281 8.86014C0.296209 8.18146 0.461261 7.24617 1.13994 6.7711L8.84608 1.37679C10.7398 0.0511618 13.2604 0.0511585 15.1542 1.37679L22.8603 6.7711C23.539 7.24617 23.7041 8.18146 23.229 8.86014C22.7539 9.53881 21.8186 9.70387 21.1399 9.22879L13.4338 3.83449Z" fill="#888E94"/>
</svg>
