<svg width="24" height="24" viewBox="0 0 24 24" fill="none" xmlns="http://www.w3.org/2000/svg">
<path fill-rule="evenodd" clip-rule="evenodd" d="M3 0.543701C3.82843 0.543701 4.5 1.21527 4.5 2.0437V8.79956C4.5 9.61747 4.89278 10.3436 5.5 10.7997V2.58149C5.5 1.75307 6.17157 1.08149 7 1.08149C7.82843 1.08149 8.5 1.75307 8.5 2.58149V10.7997C9.10722 10.3436 9.5 9.61746 9.5 8.79956V2.0437C9.5 1.21527 10.1716 0.543701 11 0.543701C11.8284 0.543701 12.5 1.21527 12.5 2.0437V8.79956C12.5 11.3171 10.8085 13.4396 8.5 14.0925V22.4798C8.5 23.3083 7.82843 23.9798 7 23.9798C6.17157 23.9798 5.5 23.3083 5.5 22.4798V14.0925C3.1915 13.4396 1.5 11.3171 1.5 8.79956V2.0437C1.5 1.21527 2.17157 0.543701 3 0.543701ZM19.5 8.83785L18.3457 12.1404C18.2321 12.4655 18.4734 12.8054 18.8177 12.8054H19.5V8.83785ZM19.5 15.8054V22.4798C19.5 23.3083 20.1716 23.9798 21 23.9798C21.8284 23.9798 22.5 23.3083 22.5 22.4798V2.94601C22.5 0.693771 19.3551 0.160074 18.612 2.28611L15.5137 11.1506C14.7184 13.4259 16.4074 15.8054 18.8177 15.8054H19.5Z" fill="#888E94"/>
</svg>
