<svg width="24" height="24" viewBox="0 0 24 24" fill="none" xmlns="http://www.w3.org/2000/svg">
<path fill-rule="evenodd" clip-rule="evenodd" d="M5.5434 5C4.57296 2.89917 5.90321 0 8.73322 0H15.1481C17.971 0 19.3118 2.89626 18.3372 5H20.5C22.433 5 24 6.567 24 8.5V10C24 11.3962 23.1825 12.6015 22 13.1632V20.5C22 22.433 20.433 24 18.5 24H5.5C3.567 24 2 22.433 2 20.5V13.1632C0.817526 12.6015 0 11.3962 0 10V8.5C0 6.567 1.567 5 3.5 5H5.5434ZM10.5 8H3.5C3.22386 8 3 8.22386 3 8.5V10C3 10.2761 3.22386 10.5 3.5 10.5H10.5V8ZM10.5 13.5H5V20.5C5 20.7761 5.22386 21 5.5 21H10.5V13.5ZM13.5 21V13.5H19V20.5C19 20.7761 18.7761 21 18.5 21H13.5ZM13.5 10.5V8H20.5C20.7761 8 21 8.22386 21 8.5V10C21 10.2761 20.7761 10.5 20.5 10.5H13.5ZM13.5 4.83861L15.3631 3.95143C15.5213 3.87609 15.5821 3.78878 15.6125 3.71975C15.6496 3.63554 15.6649 3.51855 15.6358 3.38981C15.6067 3.26107 15.5426 3.16202 15.4729 3.10194C15.4158 3.0527 15.3233 3 15.1481 3H13.5V4.83861ZM10.5 3H8.73322C8.55533 3 8.46289 3.05367 8.40638 3.1029C8.33691 3.1634 8.27282 3.26364 8.24455 3.39415C8.21628 3.52466 8.23315 3.64243 8.27135 3.72626C8.30243 3.79447 8.36437 3.88157 8.52632 3.95518L10.5 4.85231V3Z" fill="#888E94"/>
</svg>
