<svg width="24" height="24" viewBox="0 0 24 24" fill="none" xmlns="http://www.w3.org/2000/svg">
<path d="M5.5 16C6.32843 16 7 15.3284 7 14.5C7 13.6716 6.32843 13 5.5 13C4.67157 13 4 13.6716 4 14.5C4 15.3284 4.67157 16 5.5 16Z" fill="#888E94"/>
<path d="M18.5 16C19.3284 16 20 15.3284 20 14.5C20 13.6716 19.3284 13 18.5 13C17.6716 13 17 13.6716 17 14.5C17 15.3284 17.6716 16 18.5 16Z" fill="#888E94"/>
<path fill-rule="evenodd" clip-rule="evenodd" d="M2.1145 6.63138C1.75652 6.47079 1.33637 6.44997 0.943313 6.6072C0.174138 6.91487 -0.199986 7.78782 0.107684 8.557L0.694621 10.0243L0.62014 10.2023C0.210799 11.1805 3.60887e-09 12.2303 3.60887e-09 13.2906V20.3684C3.60887e-09 21.473 0.895431 22.3684 2 22.3684H7.12719C8.23176 22.3684 9.12719 21.473 9.12719 20.3684V19.4737H14.8728V20.3684C14.8728 21.473 15.7682 22.3684 16.8728 22.3684H22C23.1046 22.3684 24 21.473 24 20.3684V13.2906C24 12.2303 23.7892 11.1805 23.3799 10.2023L23.3058 10.0253L23.8931 8.557C24.2008 7.78782 23.8267 6.91487 23.0575 6.6072C22.6642 6.44988 22.2437 6.47081 21.8856 6.63168L20.9751 4.45584C20.3526 2.96829 18.8977 2 17.2852 2H6.71484C5.10228 2 3.64742 2.96829 3.02491 4.45584L2.1145 6.63138ZM6.12901 19.3684C6.18446 17.7603 7.50557 16.4737 9.12719 16.4737H14.8728C16.4944 16.4737 17.8155 17.7603 17.871 19.3684H21V13.2906C21 12.8539 20.9428 12.42 20.8305 11.9999H3.16947C3.05722 12.42 3 12.8539 3 13.2906V19.3684H6.12901ZM4.37542 8.99991L5.79236 5.61396C5.94799 5.24207 6.3117 5 6.71484 5H17.2852C17.6883 5 18.052 5.24207 18.2076 5.61396L19.6246 8.99991H4.37542Z" fill="#888E94"/>
</svg>
