<svg width="24" height="24" viewBox="0 0 24 24" fill="none" xmlns="http://www.w3.org/2000/svg">
<path d="M17.707 2.48746C17.3164 2.09693 17.3164 1.46377 17.707 1.07324L18.4141 0.366135C18.8046 -0.0243889 19.4378 -0.0243888 19.8283 0.366135L20.5354 1.07324C20.9259 1.46377 20.9259 2.09693 20.5354 2.48746L19.8283 3.19456C19.4378 3.58509 18.8046 3.58509 18.4141 3.19456L17.707 2.48746Z" fill="#888E94"/>
<path fill-rule="evenodd" clip-rule="evenodd" d="M1.17157 9.17167L6.75736 3.58588C8.31946 2.02378 10.8521 2.02379 12.4142 3.58588L18 9.17167C19.5621 10.7338 19.5621 13.2664 18 14.8285L12.4142 20.4143C10.8521 21.9764 8.31945 21.9764 6.75736 20.4143L1.17157 14.8285C-0.390527 13.2664 -0.390521 10.7338 1.17157 9.17167ZM3.29289 11.293C2.90237 11.6835 2.90237 12.3167 3.29289 12.7072L8.87868 18.293C9.2692 18.6835 9.90237 18.6835 10.2929 18.293L15.8787 12.7072C16.2692 12.3167 16.2692 11.6835 15.8787 11.293L10.2929 5.7072C9.90237 5.31668 9.26921 5.31668 8.87868 5.7072L3.29289 11.293Z" fill="#888E94"/>
<path d="M17.707 19.0732C17.3164 19.4637 17.3164 20.0969 17.707 20.4874L19.7788 22.5592C20.1693 22.9498 20.8025 22.9498 21.193 22.5592L23.2648 20.4874C23.6553 20.0969 23.6553 19.4637 23.2648 19.0732L21.193 17.0014C20.8025 16.6109 20.1693 16.6109 19.7788 17.0014L17.707 19.0732Z" fill="#888E94"/>
</svg>
