<svg width="419" height="200" viewBox="0 0 419 200" fill="none" xmlns="http://www.w3.org/2000/svg">
<rect width="419" height="200" rx="12" fill="#F6F8FA"/>
<path fill-rule="evenodd" clip-rule="evenodd" d="M129 162C132.866 162 136 158.866 136 155C136 151.134 132.866 148 129 148C125.134 148 122 151.134 122 155C122 158.866 125.134 162 129 162ZM129 166C135.075 166 140 161.075 140 155C140 148.925 135.075 144 129 144C122.925 144 118 148.925 118 155C118 161.075 122.925 166 129 166Z" fill="#DEE1E5"/>
<path fill-rule="evenodd" clip-rule="evenodd" d="M129 162.5C130.381 162.5 131.5 163.619 131.5 165V173.5C131.5 174.881 130.381 176 129 176C127.619 176 126.5 174.881 126.5 173.5V165C126.5 163.619 127.619 162.5 129 162.5Z" fill="#DEE1E5"/>
<circle cx="40.5713" cy="171.809" r="4.19048" fill="#DEE1E5"/>
<circle cx="54.2862" cy="171.809" r="4.19048" fill="#DEE1E5"/>
<path fill-rule="evenodd" clip-rule="evenodd" d="M27.5234 146.286C27.5234 145.181 28.4189 144.286 29.5234 144.286H33.952C34.837 144.286 35.6167 144.867 35.869 145.716L40.6104 161.657H54.952V159.257H43.9996C42.8951 159.257 41.9996 158.362 41.9996 157.257C41.9996 156.153 42.8951 155.257 43.9996 155.257H54.952V152.857H42.1663C41.0617 152.857 40.1663 151.962 40.1663 150.857C40.1663 149.753 41.0617 148.857 42.1663 148.857H56.952C58.0566 148.857 58.952 149.753 58.952 150.857V163.657C58.952 164.762 58.0566 165.657 56.952 165.657H40.2374L39.325 167.143H56.952C58.0566 167.143 58.952 168.038 58.952 169.143C58.952 170.247 58.0566 171.143 56.952 171.143H35.7496C35.0254 171.143 34.3577 170.751 34.0042 170.119C33.6506 169.487 33.6664 168.713 34.0454 168.096L36.9471 163.371L32.4603 148.286H29.5234C28.4189 148.286 27.5234 147.39 27.5234 146.286Z" fill="#DEE1E5"/>
<path fill-rule="evenodd" clip-rule="evenodd" d="M300.589 171.163C304.265 167.358 308 162.087 308 157C308 152.029 303.971 148 299 148C294.029 148 290 152.029 290 157C290 162.087 293.735 167.358 297.411 171.163C298.323 172.107 299.677 172.107 300.589 171.163ZM303.466 173.942C307.227 170.049 312 163.774 312 157C312 149.82 306.18 144 299 144C291.82 144 286 149.82 286 157C286 163.774 290.773 170.049 294.534 173.942C297.019 176.514 300.981 176.514 303.466 173.942Z" fill="#DEE1E5"/>
<circle cx="299" cy="157" r="3" fill="#DEE1E5"/>
<circle cx="384" cy="160" r="14" stroke="#DEE1E5" stroke-width="4"/>
<path d="M380.5 146.5C383.5 150 382 154.5 379.5 155.5C377 156.5 375 158 372 154.5M372 162.5C375 161 379 161.5 379 165C379 167.8 378 170.5 379 172.5M397 157.5C391 156 386.5 158 387 160C387.5 162 390.106 164.211 391 166C391.5 167 393 170.5 389 173" stroke="#DEE1E5" stroke-width="4" stroke-linecap="round"/>
<path fill-rule="evenodd" clip-rule="evenodd" d="M198 149.784C198 148.908 198.57 148.133 199.407 147.874L206.295 145.736C207.84 145.257 209.493 145.257 211.038 145.736L218.741 148.126C219.127 148.246 219.54 148.246 219.926 148.126L227.407 145.805C228.694 145.405 230 146.367 230 147.715V170.216C230 171.092 229.43 171.867 228.593 172.126L221.705 174.264C220.16 174.743 218.507 174.743 216.962 174.264L209.259 171.874C208.873 171.754 208.46 171.754 208.074 171.874L200.593 174.195C199.306 174.595 198 173.633 198 172.285V149.784ZM202 169.57V151.257L207 149.705L207 168.02C206.963 168.031 206.925 168.042 206.888 168.053L202 169.57ZM211 168.226L217 170.088L217 151.774L211 149.912L211 168.226ZM221 151.98L221 170.295L226 168.743V150.43L221.112 151.947C221.075 151.958 221.037 151.969 221 151.98Z" fill="#DEE1E5"/>
<path fill-rule="evenodd" clip-rule="evenodd" d="M42.9957 24.2704C43.6167 23.9099 44.3833 23.9099 45.0043 24.2704L59.0043 32.3995C59.6207 32.7574 60 33.4163 60 34.129V45.871C60 46.5837 59.6207 47.2426 59.0043 47.6005L45.0043 55.7296C44.3833 56.0901 43.6167 56.0901 42.9957 55.7296L28.9957 47.6005C28.3793 47.2426 28 46.5837 28 45.871V34.129C28 33.4163 28.3793 32.7574 28.9957 32.3995L42.9957 24.2704ZM32 37.603V44.7196L42 50.526V43.4095L39 41.6675V43C39 44.1046 38.1046 45 37 45C35.8954 45 35 44.1046 35 43V39.345L32 37.603ZM40.983 38.1935L44 39.9454L54.017 34.129L51 32.3772L40.983 38.1935ZM47.017 30.0645L44 28.3127L33.983 34.129L37 35.8808L47.017 30.0645ZM56 37.603L46 43.4095V50.526L56 44.7196V37.603Z" fill="#DEE1E5"/>
<path fill-rule="evenodd" clip-rule="evenodd" d="M373 102V104H395V102H373ZM395 98H373V96H395V98ZM395 92V90H373V92H395ZM395 108H373L373 110H395V108ZM373 86H395C397.209 86 399 87.7909 399 90V110C399 112.209 397.209 114 395 114H373C370.791 114 369 112.209 369 110V90C369 87.7909 370.791 86 373 86Z" fill="#DEE1E5"/>
<path fill-rule="evenodd" clip-rule="evenodd" d="M208 32.5C206.895 32.5 206 31.6046 206 30.5V29C204.343 29 203 30.3431 203 32V34H225V32C225 30.3431 223.657 29 222 29V30.5C222 31.6046 221.105 32.5 220 32.5C218.895 32.5 218 31.6046 218 30.5V29H210V30.5C210 31.6046 209.105 32.5 208 32.5ZM222 25C225.866 25 229 28.134 229 32V48C229 51.866 225.866 55 222 55H206C202.134 55 199 51.866 199 48V32C199 28.134 202.134 25 206 25H222ZM203 38V48C203 49.6569 204.343 51 206 51H222C223.657 51 225 49.6569 225 48V38H203Z" fill="#DEE1E5"/>
<path fill-rule="evenodd" clip-rule="evenodd" d="M44 88C47.3137 88 50 90.6863 50 94H38C38 90.6863 40.6863 88 44 88ZM34 94C34 88.4772 38.4772 84 44 84C49.5228 84 54 88.4772 54 94H55.0842C57.6206 94 59.5166 96.3304 59.0006 98.8138L56.0915 112.814C55.7059 114.67 54.0706 116 52.1752 116H35.8266C33.9311 116 32.2958 114.67 31.9102 112.814L29.0011 98.8138C28.4851 96.3304 30.3811 94 32.9175 94H34ZM54 98H34H32.9175L32.9175 98L35.8266 112L52.1752 112L55.0842 98H54Z" fill="#DEE1E5"/>
<path fill-rule="evenodd" clip-rule="evenodd" d="M127.586 24.5858C128.367 23.8047 129.633 23.8047 130.414 24.5858C130.928 25.0992 131.815 25.6703 133.008 26.2449C134.171 26.8047 135.491 27.3056 136.757 27.7276C138.018 28.148 139.194 28.4797 140.056 28.7065C140.486 28.8196 140.835 28.906 141.075 28.9636C141.195 28.9924 141.287 29.0139 141.348 29.028L141.416 29.0435L141.431 29.047L141.434 29.0476L141.434 29.0477L141.434 29.0477C142.349 29.2512 143 30.0627 143 31V40.4981C143 43.7562 142.159 47.228 139.784 49.9103C138.605 51.2417 137.075 52.7335 135.294 53.9044C133.52 55.0707 131.372 56 129 56C126.628 56 124.48 55.0707 122.706 53.9044C120.925 52.7335 119.395 51.2417 118.216 49.9103C115.841 47.228 115 43.7562 115 40.4981V31C115 30.0627 115.651 29.2511 116.566 29.0477C116.566 29.0477 116.566 29.0476 116.566 29.0476L116.569 29.047L116.584 29.0435L116.652 29.028C116.713 29.0139 116.805 28.9924 116.925 28.9636C117.165 28.906 117.514 28.8196 117.944 28.7065C118.806 28.4797 119.982 28.148 121.243 27.7276C122.509 27.3056 123.829 26.8047 124.992 26.2449C126.185 25.6703 127.072 25.0992 127.586 24.5858ZM119 32.5648V40.4981C119 43.1283 119.683 45.5326 121.211 47.2586C122.254 48.4367 123.52 49.6526 124.904 50.5621C125.606 51.0241 126.308 51.3864 127 51.6318V36C127 34.8954 127.895 34 129 34C130.105 34 131 34.8954 131 36V51.6318C131.692 51.3864 132.394 51.0241 133.096 50.5621C134.48 49.6526 135.746 48.4367 136.789 47.2586C138.317 45.5326 139 43.1283 139 40.4981V32.5648C138.084 32.3231 136.838 31.9708 135.493 31.5224C134.134 31.0694 132.642 30.5078 131.273 29.8489C130.498 29.4756 129.714 29.0486 129 28.5635C128.286 29.0486 127.502 29.4756 126.727 29.8489C125.358 30.5078 123.866 31.0694 122.507 31.5224C121.162 31.9708 119.916 32.3231 119 32.5648Z" fill="#DEE1E5"/>
<path fill-rule="evenodd" clip-rule="evenodd" d="M304 35V33C304 30.2386 301.761 28 299 28C296.239 28 294 30.2386 294 33V35H304ZM290 33V35H289.5C287.567 35 286 36.567 286 38.5V43C286 50.1797 291.82 56 299 56C306.18 56 312 50.1797 312 43V38.5C312 36.567 310.433 35 308.5 35H308V33C308 28.0294 303.971 24 299 24C294.029 24 290 28.0294 290 33ZM290 43V39H308L308 43C308 47.9706 303.971 52 299 52C294.029 52 290 47.9706 290 43ZM299 49C300.657 49 302 47.6569 302 46C302 44.3431 300.657 43 299 43C297.343 43 296 44.3431 296 46C296 47.6569 297.343 49 299 49Z" fill="#DEE1E5"/>
<path fill-rule="evenodd" clip-rule="evenodd" d="M398.702 27.8727C399.736 27.4849 400.26 26.332 399.873 25.2978C399.485 24.2636 398.332 23.7396 397.298 24.1274L393.298 25.6274C392.517 25.9201 392 26.6664 392 27.5001V45.0001H370C368.895 45.0001 368 45.8955 368 47.0001C368 48.1046 368.895 49.0001 370 49.0001H394C395.105 49.0001 396 48.1046 396 47.0001V28.8861L398.702 27.8727ZM377 53C377 54.6569 375.657 56 374 56C372.343 56 371 54.6569 371 53C371 51.3431 372.343 50 374 50C375.657 50 377 51.3431 377 53ZM395 53C395 54.6569 393.657 56 392 56C390.343 56 389 54.6569 389 53C389 51.3431 390.343 50 392 50C393.657 50 395 51.3431 395 53Z" fill="#DEE1E5"/>
</svg>
