<svg width="418" height="200" viewBox="0 0 418 200" fill="none" xmlns="http://www.w3.org/2000/svg">
<rect width="418" height="200" rx="12" fill="#F6F8FA"/>
<path fill-rule="evenodd" clip-rule="evenodd" d="M49.0135 37.8996L36.6066 50.3064C35.8255 51.0875 34.5592 51.0875 33.7782 50.3064L28.5858 45.1141C27.8047 44.333 27.8047 43.0667 28.5858 42.2856L40.9927 29.8787C41.6525 29.2189 42.5818 28.9037 43.5069 29.0259L48.3642 29.6676C48.8126 29.7269 49.1653 30.0797 49.2246 30.528L49.8663 35.3853C49.9885 36.3104 49.6733 37.2397 49.0135 37.8996ZM38.1642 27.0503C39.7039 25.5107 41.8723 24.7752 44.0309 25.0604L48.8881 25.7021C51.1299 25.9983 52.8939 27.7623 53.1901 30.0041L53.8319 34.8614C54.1171 37.02 53.3815 39.1884 51.8419 40.728L39.435 53.1349C37.0919 55.478 33.2929 55.478 30.9497 53.1349L25.7574 47.9425C23.4142 45.5993 23.4142 41.8003 25.7574 39.4572L38.1642 27.0503ZM45.0156 36.3654C46.3963 36.3654 47.5156 35.2461 47.5156 33.8654C47.5156 32.4846 46.3963 31.3654 45.0156 31.3654C43.6349 31.3654 42.5156 32.4846 42.5156 33.8654C42.5156 35.2461 43.6349 36.3654 45.0156 36.3654Z" fill="#DEE1E5"/>
<path fill-rule="evenodd" clip-rule="evenodd" d="M124 29.4681L121.554 33.4018C120.581 34.9664 119.036 36.0892 117.247 36.5309L112.75 37.6414L115.736 41.1831C116.923 42.5917 117.514 44.4084 117.381 46.246L117.047 50.8661L121.338 49.1212C123.045 48.4272 124.955 48.4272 126.662 49.1212L130.953 50.8661L130.619 46.246C130.486 44.4084 131.077 42.5917 132.264 41.1831L135.25 37.6414L130.753 36.5309C128.964 36.0892 127.419 34.9664 126.446 33.4018L124 29.4681ZM126.604 26.0805C125.404 24.1509 122.596 24.1509 121.396 26.0805L118.157 31.2898C117.735 31.9687 117.065 32.4559 116.288 32.6475L110.333 34.1181C108.127 34.6629 107.26 37.3337 108.724 39.071L112.677 43.7611C113.193 44.3724 113.449 45.1607 113.391 45.958L112.95 52.0762C112.786 54.3424 115.058 55.9931 117.163 55.1372L122.845 52.8266C123.586 52.5254 124.414 52.5254 125.155 52.8266L130.837 55.1372C132.942 55.9931 135.214 54.3424 135.05 52.0762L134.609 45.958C134.551 45.1607 134.807 44.3724 135.323 43.7611L139.276 39.071C140.74 37.3337 139.873 34.6629 137.667 34.1181L131.712 32.6475C130.935 32.4559 130.265 31.9687 129.843 31.2898L126.604 26.0805Z" fill="#DEE1E5"/>
<path fill-rule="evenodd" clip-rule="evenodd" d="M201 34C202.105 34 203 33.1046 203 32C203 30.8954 202.105 30 201 30C199.895 30 199 30.8954 199 32C199 33.1046 199.895 34 201 34ZM201 38C204.314 38 207 35.3137 207 32C207 28.6863 204.314 26 201 26C197.686 26 195 28.6863 195 32C195 35.3137 197.686 38 201 38Z" fill="#DEE1E5"/>
<path fill-rule="evenodd" clip-rule="evenodd" d="M217 50C218.105 50 219 49.1046 219 48C219 46.8954 218.105 46 217 46C215.895 46 215 46.8954 215 48C215 49.1046 215.895 50 217 50ZM217 54C220.314 54 223 51.3137 223 48C223 44.6863 220.314 42 217 42C213.686 42 211 44.6863 211 48C211 51.3137 213.686 54 217 54Z" fill="#DEE1E5"/>
<path fill-rule="evenodd" clip-rule="evenodd" d="M221.414 27.5858C222.195 28.3668 222.195 29.6332 221.414 30.4142L199.414 52.4142C198.633 53.1953 197.367 53.1953 196.586 52.4142C195.805 51.6332 195.805 50.3668 196.586 49.5858L218.586 27.5858C219.367 26.8047 220.633 26.8047 221.414 27.5858Z" fill="#DEE1E5"/>
<path fill-rule="evenodd" clip-rule="evenodd" d="M292.866 45.2432L302.226 51.4835C305.549 53.6987 310 51.3167 310 47.3232V30.0084C310 26.0149 305.549 23.633 302.226 25.8482L292 32.6658H283C280.239 32.6658 278 34.9043 278 37.6658V39.6658C278 42.0847 279.718 44.1025 282 44.5658V50.8158C282 52.9421 283.724 54.6658 285.85 54.6658C287.98 54.6658 289.884 53.3382 290.62 51.3398L292.866 45.2432ZM296 42.5251L304.445 48.1553C305.11 48.5983 306 48.1219 306 47.3232V30.0084C306 29.2097 305.11 28.7333 304.445 29.1764L296 34.8066V42.5251ZM292 36.6658V40.6658H290V36.6658H292ZM288.816 44.6658L286.867 49.9569C286.727 50.3353 286.391 50.6008 286 50.6554V44.6658H288.816ZM286 36.6658H283C282.448 36.6658 282 37.1135 282 37.6658V39.6658C282 40.2181 282.448 40.6658 283 40.6658H286V36.6658Z" fill="#DEE1E5"/>
<path fill-rule="evenodd" clip-rule="evenodd" d="M383.64 24.1051C384.687 24.4584 385.249 25.5932 384.896 26.6397L381.051 38.029L381.442 39.2219L383.129 43.9729C384.389 42.7517 386.107 42 388 42C391.866 42 395 45.134 395 49C395 52.866 391.866 56 388 56C384.545 56 381.674 53.4965 381.103 50.2044C381.081 50.1552 381.061 50.1048 381.043 50.0532L378.966 44.2044L376.834 50.5201C376.14 53.6552 373.344 56 370 56C366.134 56 363 52.866 363 49C363 45.134 366.134 42 370 42C371.875 42 373.578 42.7373 374.835 43.9378L376.075 40.2625L374.623 39.4765C370.79 37.403 369.322 32.6438 371.32 28.7716L373.224 25.0829C373.593 24.3666 374.357 23.9422 375.16 24.0064C375.964 24.0706 376.65 24.6108 376.901 25.3767L378.971 31.6858L381.106 25.3604C381.459 24.3138 382.594 23.7518 383.64 24.1051ZM372.96 49.4916C372.986 49.3317 373 49.1674 373 49C373 47.3431 371.657 46 370 46C368.343 46 367 47.3431 367 49C367 50.6569 368.343 52 370 52C371.15 52 372.149 51.3526 372.653 50.4024C372.656 50.3925 372.659 50.3827 372.662 50.3728L372.96 49.4916ZM374.614 31.2372C374.099 32.8643 374.681 34.6572 376.067 35.6691L374.614 31.2372ZM388 52C389.657 52 391 50.6569 391 49C391 47.3431 389.657 46 388 46C386.343 46 385 47.3431 385 49C385 50.6569 386.343 52 388 52Z" fill="#DEE1E5"/>
<path fill-rule="evenodd" clip-rule="evenodd" d="M128.56 167.032L132 171.765V151C132 149.895 131.105 149 130 149H118C116.895 149 116 149.895 116 151V171.765L119.44 167.032L119.603 166.857C121.977 164.3 126.023 164.3 128.397 166.857L128.56 167.032ZM118.931 174.536C116.457 177.2 112 175.449 112 171.814V151C112 147.686 114.686 145 118 145H130C133.314 145 136 147.686 136 151V171.814C136 175.449 131.543 177.2 129.069 174.536L125.466 169.578C124.674 168.726 123.326 168.726 122.534 169.578L118.931 174.536Z" fill="#DEE1E5"/>
<path fill-rule="evenodd" clip-rule="evenodd" d="M219.712 157.9C218.284 158.695 216.55 159.937 215.323 161.777C214.37 163.206 213.942 164.932 213.736 166.413C212.388 165.597 210.713 164.976 208.757 164.976C206.262 164.976 204.346 165.937 202.924 167.171C201.891 165.642 200.424 162.586 200.424 159.017C200.424 156.952 201.285 155.585 202.507 154.633C203.845 153.591 205.637 153.059 207.131 153.059C207.928 153.059 208.554 153.135 209.029 153.233C210.789 153.598 212.605 153.186 213.937 152.571C214.307 152.4 214.759 152.156 215.223 151.827C215.672 152.589 216.317 153.464 217.241 154.139C218.392 154.979 219.445 155.684 220.337 156.246C220.491 156.343 220.605 156.468 220.674 156.584C220.74 156.696 220.75 156.775 220.75 156.815C220.75 156.824 220.751 156.933 220.593 157.153C220.422 157.392 220.121 157.672 219.712 157.9ZM218.651 163.996C217.753 165.343 217.507 167.75 217.53 169.984C217.531 170.106 217.533 170.228 217.536 170.348C217.545 170.744 217.562 171.131 217.585 171.504C217.602 171.78 217.622 172.048 217.645 172.305C217.721 173.176 217.05 173.955 216.176 173.955C215.619 173.955 215.12 173.628 214.834 173.151C214.724 172.968 214.602 172.777 214.468 172.582C214.265 172.285 214.033 171.979 213.776 171.677C213.711 171.6 213.644 171.524 213.575 171.447C212.404 170.148 210.755 168.976 208.757 168.976C206.719 168.976 205.276 170.196 204.354 171.527C204.322 171.574 204.29 171.622 204.258 171.669C204.11 171.893 203.977 172.119 203.858 172.341C203.774 172.497 203.698 172.65 203.629 172.801C203.323 173.462 202.695 173.955 201.968 173.955C201.077 173.955 200.354 173.232 200.354 172.341V171.145C200.354 170.985 200.335 170.827 200.298 170.673C200.29 170.639 200.281 170.604 200.271 170.57C200.192 170.3 200.062 170.044 199.893 169.814C198.727 168.218 197.053 165.091 196.563 161.216C195.359 161.323 194.008 160.899 193.254 159.489C192.733 158.515 193.101 157.303 194.075 156.782C194.858 156.364 195.794 156.518 196.401 157.101C196.521 156.985 196.655 156.791 196.726 156.481C196.744 156.399 196.768 156.32 196.795 156.244C198.185 151.336 203.2 149.059 207.131 149.059C208.182 149.059 209.082 149.159 209.842 149.317C211.234 149.605 213.559 148.694 213.851 147.302C214.23 145.496 217.057 145.561 217.621 147.319C218.148 148.959 218.801 150.325 219.6 150.908C220.673 151.692 221.651 152.345 222.471 152.862C223.835 153.722 224.75 155.202 224.75 156.815C224.75 158.773 223.369 160.442 221.659 161.394C220.527 162.025 219.391 162.886 218.651 163.996ZM206.589 158.94C205.866 159.006 205.361 159.154 205.18 159.253C204.211 159.783 202.996 159.428 202.465 158.459C201.934 157.491 202.29 156.275 203.258 155.744C204.163 155.249 205.322 155.039 206.226 154.957C207.137 154.873 208.195 154.885 208.986 155.089C210.056 155.365 210.699 156.456 210.423 157.525C210.147 158.595 209.056 159.238 207.987 158.962C207.839 158.924 207.306 158.875 206.589 158.94ZM196.181 157.242C196.181 157.242 196.183 157.242 196.186 157.241C196.183 157.242 196.181 157.242 196.181 157.242Z" fill="#DEE1E5"/>
<path fill-rule="evenodd" clip-rule="evenodd" d="M289.781 149.558L288.908 151.556C288.275 153.005 287.106 154.154 285.646 154.762L283.633 155.599L284.429 157.63C285.006 159.102 284.992 160.741 284.389 162.203L283.558 164.219L285.556 165.092C287.005 165.725 288.154 166.894 288.762 168.354L289.599 170.367L291.63 169.571C293.102 168.994 294.741 169.008 296.203 169.611L298.219 170.442L299.092 168.444C299.725 166.995 300.894 165.846 302.354 165.238L304.367 164.401L303.571 162.37C302.994 160.898 303.008 159.259 303.611 157.797L304.442 155.781L302.444 154.908C300.995 154.275 299.846 153.106 299.238 151.646L298.401 149.633L296.37 150.429C294.898 151.006 293.259 150.992 291.797 150.389L289.781 149.558ZM289.612 145.161C288.54 144.72 287.313 145.216 286.849 146.278L285.243 149.955C285.023 150.458 284.617 150.857 284.109 151.069L280.404 152.61C279.335 153.056 278.817 154.275 279.24 155.353L280.705 159.09C280.905 159.601 280.9 160.17 280.691 160.678L279.161 164.388C278.72 165.46 279.216 166.687 280.278 167.151L283.955 168.757C284.458 168.977 284.857 169.383 285.069 169.891L286.61 173.596C287.056 174.665 288.275 175.183 289.353 174.76L293.09 173.295C293.601 173.095 294.17 173.1 294.678 173.309L298.388 174.839C299.46 175.28 300.687 174.784 301.151 173.722L302.757 170.045C302.977 169.542 303.383 169.143 303.891 168.931L307.596 167.39C308.665 166.944 309.183 165.725 308.76 164.647L307.295 160.91C307.095 160.399 307.1 159.83 307.309 159.322L308.839 155.612C309.28 154.54 308.784 153.313 307.722 152.849L304.045 151.243C303.542 151.023 303.143 150.617 302.931 150.109L301.39 146.404C300.944 145.335 299.725 144.817 298.647 145.24L294.91 146.705C294.399 146.905 293.83 146.9 293.322 146.691L289.612 145.161Z" fill="#DEE1E5"/>
<path fill-rule="evenodd" clip-rule="evenodd" d="M371 148H387C388.105 148 389 148.895 389 150V153.05C388.838 153.017 388.671 153 388.5 153H387.312C385.932 153 384.812 154.119 384.812 155.5C384.812 156.881 385.932 158 387.312 158H388.5C388.671 158 388.838 157.983 389 157.95V170C389 171.105 388.105 172 387 172H371C369.895 172 369 171.105 369 170V157.95C369.162 157.983 369.329 158 369.5 158H370.687C372.068 158 373.188 156.881 373.188 155.5C373.188 154.119 372.068 153 370.688 153H369.5C369.329 153 369.162 153.017 369 153.05V150C369 148.895 369.895 148 371 148ZM365 150C365 146.686 367.686 144 371 144H387C390.314 144 393 146.686 393 150V170C393 173.314 390.314 176 387 176H371C367.686 176 365 173.314 365 170V150ZM377.812 153C376.432 153 375.312 154.119 375.312 155.5C375.312 156.881 376.432 158 377.812 158H380.188C381.568 158 382.688 156.881 382.688 155.5C382.688 154.119 381.568 153 380.188 153H377.812Z" fill="#DEE1E5"/>
<path fill-rule="evenodd" clip-rule="evenodd" d="M39 149.16C38.8026 149.028 38.5431 148.823 38.23 148.575C36.825 147.464 34.3404 145.5 31.5378 145.5C26.364 145.5 19.9736 150.778 24.5922 160.46C27.9105 167.416 34.0135 172.109 37.4959 174.438C38.4201 174.993 39.5812 174.995 40.5041 174.438C43.9865 172.109 50.0895 167.416 53.4078 160.46C58.0264 150.778 51.636 145.5 46.4622 145.5C43.6596 145.5 41.175 147.464 39.77 148.575C39.4569 148.823 39.1974 149.028 39 149.16ZM39 170.622C42.3261 168.305 47.1513 164.285 49.7976 158.738C51.6479 154.859 50.9949 152.655 50.2671 151.55C49.4007 150.235 47.8179 149.5 46.4622 149.5C45.8553 149.5 45.0319 149.78 43.9928 150.438C43.5048 150.747 43.0462 151.09 42.6032 151.436C42.5383 151.486 42.4608 151.548 42.3748 151.616C42.0368 151.884 41.5672 152.256 41.2182 152.488C39.8749 153.383 38.1251 153.383 36.7818 152.488C36.4328 152.256 35.9632 151.884 35.6252 151.616C35.5392 151.548 35.4617 151.486 35.3968 151.436C34.9538 151.09 34.4952 150.747 34.0072 150.438C32.9681 149.78 32.1447 149.5 31.5378 149.5C30.1821 149.5 28.5993 150.235 27.7329 151.55C27.0051 152.655 26.3521 154.859 28.2024 158.738C30.8487 164.285 35.6739 168.305 39 170.622Z" fill="#DEE1E5"/>
<path fill-rule="evenodd" clip-rule="evenodd" d="M40.6454 88.8877C40.099 90.1392 39.3953 91.5411 38.5589 92.5316C37.1808 94.1638 34.9896 95.9093 33.4121 97.055C33.801 98.1386 34 99.2815 34 100.433V107.19C34 108.274 33.8236 109.352 33.4776 110.38L33.4196 110.552L35.2549 111.603C35.7088 111.863 36.2227 112 36.7458 112H43.666C44.8586 112 45.938 111.294 46.4153 110.201L49.9164 102.184C49.9715 102.057 50 101.921 50 101.783V99.5096C50 98.9573 49.5523 98.5096 49 98.5096H40.9077C40.2005 98.5096 39.5458 98.1361 39.186 97.5273C38.8261 96.9184 38.8145 96.1648 39.1555 95.5453L41.6696 90.9773L40.6454 88.8877ZM29.3223 110.186L29.6866 109.104C29.8941 108.487 30 107.841 30 107.19V100.433C30 99.7223 29.8736 99.017 29.6268 98.3502L29.6078 98.2988H29C27.8954 98.2988 27 99.1943 27 100.299V109.866C27 110.664 27.8901 111.141 28.5547 110.698L29.3223 110.186ZM30.3857 94.2988C31.8192 93.3044 34.2216 91.4683 35.5026 89.9511C36.0573 89.2942 36.6696 88.0555 37.2566 86.6335C37.8156 85.2795 39.0196 84.3171 40.4902 84.2636C41.9655 84.21 43.2377 85.0883 43.8859 86.4107L45.2613 89.2167C45.835 90.3872 45.8024 91.7639 45.1739 92.9059L44.2913 94.5096H49C51.7614 94.5096 54 96.7482 54 99.5096V101.783C54 102.472 53.8577 103.153 53.5821 103.785L50.081 111.801C48.9673 114.352 46.4488 116 43.666 116H36.7458C35.5253 116 34.326 115.681 33.267 115.074L31.0798 113.822L30.7735 114.026C27.4507 116.241 23 113.859 23 109.866V100.299C23 96.9851 25.6863 94.2988 29 94.2988H30.3857Z" fill="#DEE1E5"/>
<path fill-rule="evenodd" clip-rule="evenodd" d="M370.391 90.6667C369.097 87.8656 370.871 84 374.644 84H383.197C386.961 84 388.749 87.8617 387.45 90.6667H390.333C392.911 90.6667 395 92.756 395 95.3333V97.3333C395 99.1949 393.91 100.802 392.333 101.551V111.333C392.333 113.911 390.244 116 387.667 116H370.333C367.756 116 365.667 113.911 365.667 111.333V101.551C364.09 100.802 363 99.1949 363 97.3333V95.3333C363 92.756 365.089 90.6667 367.667 90.6667H370.391ZM377 94.6667H367.667C367.298 94.6667 367 94.9651 367 95.3333V97.3333C367 97.7015 367.298 98 367.667 98H377V94.6667ZM377 102H369.667V111.333C369.667 111.702 369.965 112 370.333 112H377V102ZM381 112V102H388.333V111.333C388.333 111.702 388.035 112 387.667 112H381ZM381 98V94.6667H390.333C390.702 94.6667 391 94.9651 391 95.3333V97.3333C391 97.7015 390.702 98 390.333 98H381ZM381 90.4515L383.484 89.2686C383.695 89.1681 383.776 89.0517 383.817 88.9597C383.866 88.8474 383.887 88.6914 383.848 88.5197C383.809 88.3481 383.723 88.216 383.631 88.1359C383.554 88.0703 383.431 88 383.197 88H381V90.4515ZM377 88H374.644C374.407 88 374.284 88.0716 374.209 88.1372C374.116 88.2179 374.03 88.3515 373.993 88.5255C373.955 88.6996 373.978 88.8566 374.028 88.9683C374.07 89.0593 374.152 89.1754 374.368 89.2736L377 90.4697V88Z" fill="#DEE1E5"/>
</svg>
