<svg width="419" height="200" viewBox="0 0 419 200" fill="none" xmlns="http://www.w3.org/2000/svg">
<rect y="0.000244141" width="419" height="200" rx="12" fill="#F6F8FA"/>
<path d="M36.0007 160C37.1052 160 38.0007 159.105 38.0007 158C38.0007 156.895 37.1052 156 36.0007 156C34.8961 156 34.0007 156.895 34.0007 158C34.0007 159.105 34.8961 160 36.0007 160Z" fill="#DEE1E5"/>
<path d="M46.0007 162C46.0007 163.105 45.1052 164 44.0007 164C42.8961 164 42.0007 163.105 42.0007 162C42.0007 160.895 42.8961 160 44.0007 160C45.1052 160 46.0007 160.895 46.0007 162Z" fill="#DEE1E5"/>
<path d="M45.334 156C46.4386 156 47.334 155.105 47.334 154C47.334 152.895 46.4386 152 45.334 152C44.2294 152 43.334 152.895 43.334 154C43.334 155.105 44.2294 156 45.334 156Z" fill="#DEE1E5"/>
<path fill-rule="evenodd" clip-rule="evenodd" d="M56.6673 158.667C56.6673 162.155 55.4492 165.36 53.4151 167.877C53.6501 168.184 53.8292 168.478 53.9514 168.721C54.5247 169.861 55.3485 172.988 52.625 175.031C51.7864 175.66 50.7665 176 49.7182 176H34.2812C33.233 176 32.2131 175.66 31.3745 175.031C28.651 172.988 29.4748 169.861 30.0481 168.721C30.1705 168.477 30.3498 168.183 30.5853 167.876C28.5517 165.359 27.334 162.155 27.334 158.667C27.334 150.566 33.9005 144 42.0007 144C50.1008 144 56.6673 150.566 56.6673 158.667ZM42.0007 148C47.8917 148 52.6673 152.776 52.6673 158.667C52.6673 161.41 51.6313 163.912 49.9292 165.802C49.4454 165.753 48.9212 165.777 48.357 165.901C46.3701 166.338 44.1462 166.667 41.9997 166.667C39.8533 166.667 37.6294 166.338 35.6425 165.901C35.0789 165.777 34.5553 165.753 34.072 165.802C32.3699 163.912 31.334 161.41 31.334 158.667C31.334 152.776 36.1096 148 42.0007 148ZM49.2167 169.808C47.1884 170.254 44.8412 170.618 42.4741 170.662C42.3163 170.665 42.1584 170.667 42.0005 170.667L41.9709 170.667C41.8229 170.666 41.6749 170.665 41.5269 170.662C40.0989 170.636 38.678 170.493 37.3301 170.285C36.6025 170.174 35.8962 170.043 35.2214 169.902C35.0739 169.871 34.9279 169.84 34.7836 169.808C34.726 169.795 34.6689 169.789 34.6125 169.789C34.1494 169.789 33.739 170.195 33.5586 170.662C33.3936 171.088 33.4201 171.565 33.7745 171.831C33.9207 171.941 34.0985 172 34.2812 172H49.7182C49.901 172 50.0788 171.941 50.2249 171.831C50.8714 171.346 50.4289 170.157 49.7182 169.858C49.6131 169.814 49.502 169.789 49.3877 169.789C49.3314 169.789 49.2743 169.795 49.2167 169.808Z" fill="#DEE1E5"/>
<path fill-rule="evenodd" clip-rule="evenodd" d="M122.046 148.962C121.067 146.758 122.681 144.276 125.092 144.276L128.944 144.276C131.378 144.276 132.991 146.799 131.97 149.008L128.955 155.529V157.262C128.999 157.279 129.043 157.297 129.087 157.316L138.682 161.4C143.009 163.241 143.009 169.373 138.682 171.214L129.087 175.298C127.753 175.866 126.245 175.866 124.91 175.298L115.315 171.214C110.989 169.373 110.989 163.241 115.315 161.4L124.91 157.316L124.955 157.297V155.513L122.046 148.962ZM126.992 150.244L127.901 148.276H126.118L126.992 150.244ZM126.477 160.996L116.881 165.08C115.8 165.54 115.8 167.073 116.881 167.534L126.477 171.618C126.81 171.76 127.187 171.76 127.521 171.618L135.245 168.33H125.839C124.734 168.33 123.839 167.435 123.839 166.33C123.839 165.226 124.734 164.33 125.839 164.33L135.354 164.33L127.521 160.996C127.187 160.854 126.81 160.854 126.477 160.996Z" fill="#DEE1E5"/>
<path fill-rule="evenodd" clip-rule="evenodd" d="M200 144.725C201.105 144.725 202 145.62 202 146.725V155.733C202 156.823 202.524 157.791 203.333 158.4V147.442C203.333 146.337 204.229 145.442 205.333 145.442C206.438 145.442 207.333 146.337 207.333 147.442V158.4C208.143 157.791 208.667 156.823 208.667 155.733V146.725C208.667 145.62 209.562 144.725 210.667 144.725C211.771 144.725 212.667 145.62 212.667 146.725V155.733C212.667 159.089 210.411 161.919 207.333 162.79V173.973C207.333 175.078 206.438 175.973 205.333 175.973C204.229 175.973 203.333 175.078 203.333 173.973V162.79C200.255 161.919 198 159.089 198 155.733V146.725C198 145.62 198.895 144.725 200 144.725ZM222 155.784L220.461 160.187C220.309 160.621 220.631 161.074 221.09 161.074H222V155.784ZM222 165.074V173.973C222 175.078 222.895 175.973 224 175.973C225.105 175.973 226 175.078 226 173.973V147.928C226 144.925 221.807 144.213 220.816 147.048L216.685 158.867C215.625 161.901 217.876 165.074 221.09 165.074H222Z" fill="#DEE1E5"/>
<path fill-rule="evenodd" clip-rule="evenodd" d="M295.99 149.346L305.109 147.978C306.202 147.814 306.954 146.795 306.79 145.703C306.626 144.611 305.608 143.858 304.515 144.022L289.352 146.298C289.352 146.298 289.352 146.298 289.352 146.298L288.033 146.496C284.392 147.042 281.883 150.437 282.43 154.078C282.784 156.441 284.638 158.207 286.88 158.557C285.729 158.378 284.681 157.825 283.885 157.01L281.144 168.657C280.356 172.005 282.897 175.212 286.336 175.212H290.573C293.397 175.212 295.731 173.011 295.897 170.192L295.999 168.467C296.04 167.762 296.624 167.212 297.33 167.212H310.268C311.741 167.212 312.935 166.018 312.935 164.545V161.878C312.935 158.933 311.602 157.212 307.602 156.657C306.034 156.439 303.187 156.17 300.576 155.924C298.879 155.763 297.282 155.612 296.2 155.491C296.839 154.456 297.129 153.198 296.934 151.901C296.793 150.964 296.464 150.101 295.99 149.346ZM289.945 150.253L288.627 150.451C287.17 150.67 286.167 152.028 286.385 153.484C286.495 154.212 287.174 154.714 287.902 154.605L291.858 154.011C292.586 153.902 293.088 153.223 292.978 152.495C292.76 151.038 291.402 150.035 289.945 150.253ZM285.038 169.573L287.615 158.62C287.905 158.624 288.199 158.605 288.495 158.561L291.84 158.059C292.565 158.693 293.467 159.135 294.475 159.3C295.277 159.431 297.499 159.642 299.933 159.873C302.568 160.123 305.452 160.397 307.052 160.619C308.281 160.789 308.739 161.045 308.857 161.124C308.888 161.218 308.935 161.439 308.935 161.878V163.212H297.33C294.506 163.212 292.171 165.413 292.005 168.232L291.904 169.957C291.863 170.661 291.279 171.212 290.573 171.212H286.336C285.476 171.212 284.841 170.41 285.038 169.573ZM308.831 161.067C308.831 161.067 308.839 161.075 308.848 161.099C308.835 161.08 308.831 161.067 308.831 161.067Z" fill="#DEE1E5"/>
<path fill-rule="evenodd" clip-rule="evenodd" d="M397 161C397 169.837 389.836 177 381 177C372.163 177 365 169.837 365 161C365 152.164 372.163 145 381 145C389.836 145 397 152.164 397 161ZM393 161C393 162.584 392.693 164.097 392.135 165.481C392.077 163.953 391.745 162.387 390.986 160.975C390.463 160.003 389.25 159.638 388.277 160.161C387.304 160.685 386.94 161.897 387.463 162.87C388.115 164.081 388.286 165.732 388.034 167.464C387.782 169.198 387.149 170.716 386.536 171.551C386.5 171.6 386.467 171.65 386.436 171.701C386.097 171.873 385.749 172.03 385.393 172.17C386.127 170.358 386.564 168.083 386.129 165.441C385.949 164.351 384.92 163.613 383.83 163.793C382.741 163.972 382.003 165.001 382.182 166.091C382.71 169.294 381.355 171.719 380.319 172.981C376.978 172.794 374.001 171.24 371.94 168.869C373.552 169.353 375.362 169.471 377.299 169.053C378.378 168.82 379.065 167.756 378.832 166.676C378.599 165.597 377.535 164.91 376.455 165.143C373.034 165.882 370.217 163.964 369.021 161.723C369.007 161.484 369 161.243 369 161C369 155.372 372.874 150.649 378.102 149.352C375.686 151.111 373.659 153.839 372.725 157.829C372.473 158.904 373.141 159.98 374.217 160.232C375.292 160.484 376.368 159.816 376.62 158.74C378.145 152.224 383.512 150.383 387.19 150.718C387.574 150.949 387.944 151.202 388.298 151.473C387.221 151.591 386.136 151.852 385.098 152.295C382.416 153.44 380.199 155.745 379.336 159.473C379.087 160.549 379.757 161.624 380.833 161.873C381.909 162.122 382.984 161.451 383.233 160.375C383.805 157.903 385.149 156.622 386.668 155.973C388.219 155.312 390.092 155.26 391.73 155.621C392.542 157.239 393 159.066 393 161Z" fill="#DEE1E5"/>
<path fill-rule="evenodd" clip-rule="evenodd" d="M136.333 48.0002V28.0669C137.855 28.3757 139 29.7209 139 31.3336V44.0002C139 45.1048 139.895 46.0002 141 46.0002C142.105 46.0002 143 45.1048 143 44.0002V31.3336C143 27.2835 139.717 24.0002 135.667 24.0002H117.296C114 24.0002 111.493 26.9595 112.035 30.2104L113.558 39.3472C113.63 39.7818 113.666 40.2217 113.666 40.6623V48.0002C113.666 52.4185 117.248 56.0002 121.666 56.0002H128.333C132.751 56.0002 136.333 52.4185 136.333 48.0002ZM120.333 28.0002H117.296C116.472 28.0002 115.845 28.7401 115.98 29.5528L117.503 38.6896C117.612 39.3415 117.666 40.0014 117.666 40.6623V48.0002C117.666 50.2094 119.457 52.0002 121.666 52.0002H128.333C130.542 52.0002 132.333 50.2094 132.333 48.0002V28.0002H124.333V43.3336C124.333 44.4381 123.438 45.3336 122.333 45.3336C121.229 45.3336 120.333 44.4381 120.333 43.3336V28.0002Z" fill="#DEE1E5"/>
<path fill-rule="evenodd" clip-rule="evenodd" d="M211.028 38.9855C211.143 37.8869 212.127 37.0895 213.225 37.2045C213.752 37.2595 214.253 37.4944 214.559 37.6537C214.94 37.8525 215.36 38.1196 215.779 38.4454C216.6 39.084 217.551 40.0538 218.136 41.3435C218.593 42.3493 218.148 43.5348 217.142 43.9913C216.136 44.4478 214.951 44.0025 214.494 42.9967C214.259 42.4787 213.818 41.9872 213.324 41.6029C213.085 41.4173 212.867 41.2826 212.71 41.2006C212.667 41.1782 212.633 41.1623 212.61 41.1518C211.616 40.9461 210.92 40.0163 211.028 38.9855ZM212.571 41.1356L212.574 41.1367C212.561 41.1324 212.56 41.1313 212.571 41.1356Z" fill="#DEE1E5"/>
<path fill-rule="evenodd" clip-rule="evenodd" d="M214.666 30.0002C214.666 26.6865 211.98 24.0002 208.666 24.0002C205.352 24.0002 202.666 26.6865 202.666 30.0002V31.2002C202.666 31.5643 202.707 31.919 202.783 32.2599C200.299 33.937 198.666 36.7779 198.666 40.0002V48.0002C198.666 52.4184 202.248 56.0002 206.666 56.0002H217.333C221.751 56.0002 225.333 52.4221 225.333 48.0038V44.0002C225.333 36.6001 218.042 32.1163 214.666 30.9638V30.0002ZM209.866 28.4001C209.668 28.251 209.44 28.138 209.195 28.0708C209.026 28.0248 208.849 28.0002 208.666 28.0002C208.483 28.0002 208.306 28.0248 208.138 28.0708C207.892 28.138 207.664 28.251 207.466 28.4001C206.98 28.765 206.666 29.3459 206.666 30.0002V31.2002C206.666 31.6421 207.024 32.0002 207.466 32.0002H209.866C210.308 32.0002 210.666 31.6421 210.666 31.2002V30.0002C210.666 29.3459 210.352 28.765 209.866 28.4001ZM213.168 34.6838C212.308 35.4997 211.145 36.0002 209.866 36.0002H207.466C206.656 36.0002 205.893 35.7997 205.224 35.4455C203.69 36.3824 202.666 38.0721 202.666 40.0002V48.0002C202.666 50.2093 204.457 52.0002 206.666 52.0002H217.333C219.544 52.0002 221.333 50.2106 221.333 48.0038V44.0002C221.333 41.3309 219.803 39.0229 217.55 37.1793C216.452 36.2809 215.298 35.5973 214.35 35.1514C213.876 34.9289 213.494 34.7846 213.235 34.7039C213.211 34.6964 213.188 34.6897 213.168 34.6838Z" fill="#DEE1E5"/>
<path fill-rule="evenodd" clip-rule="evenodd" d="M291.669 34.6689C288.193 38.1442 286.353 41.3489 285.374 43.7854C284.42 46.1612 285.394 48.9376 287.727 51.2703L288.805 52.348C289.586 53.1291 289.586 54.3954 288.805 55.1765C288.024 55.9575 286.757 55.9575 285.976 55.1765L284.898 54.0988C282.001 51.2011 279.86 46.782 281.663 42.2942C282.842 39.3581 284.982 35.6982 288.84 31.8405C292.698 27.9828 296.358 25.8428 299.294 24.6632C303.782 22.8601 308.201 25.0011 311.098 27.8988L312.176 28.9765C312.957 29.7576 312.957 31.0239 312.176 31.8049C311.395 32.586 310.129 32.586 309.348 31.8049L308.27 30.7272C305.937 28.3945 303.161 27.4203 300.785 28.3748C298.349 29.3537 295.144 31.1937 291.669 34.6689Z" fill="#DEE1E5"/>
<path fill-rule="evenodd" clip-rule="evenodd" d="M287.014 45.0938C287.795 44.3128 289.062 44.3128 289.843 45.0938L292.949 48.2006C293.73 48.9816 293.73 50.2479 292.949 51.029C292.168 51.81 290.902 51.81 290.121 51.029L287.014 47.9222C286.233 47.1412 286.233 45.8749 287.014 45.0938Z" fill="#DEE1E5"/>
<path fill-rule="evenodd" clip-rule="evenodd" d="M302.195 29.9131C302.976 29.1321 304.242 29.1321 305.023 29.9131L308.13 33.0199C308.911 33.8009 308.911 35.0672 308.13 35.8483C307.349 36.6293 306.083 36.6293 305.302 35.8483L302.195 32.7415C301.414 31.9605 301.414 30.6942 302.195 29.9131Z" fill="#DEE1E5"/>
<path fill-rule="evenodd" clip-rule="evenodd" d="M289.459 40.0405C290.24 39.2594 291.507 39.2594 292.288 40.0405L296.698 44.4513C297.479 45.2324 297.479 46.4987 296.698 47.2797C295.917 48.0608 294.651 48.0608 293.87 47.2797L289.459 42.8689C288.678 42.0879 288.678 40.8215 289.459 40.0405Z" fill="#DEE1E5"/>
<path fill-rule="evenodd" clip-rule="evenodd" d="M292.604 35.6056C293.385 34.8246 294.651 34.8246 295.432 35.6056L300.488 40.6618C301.269 41.4429 301.269 42.7092 300.488 43.4903C299.707 44.2713 298.441 44.2713 297.66 43.4903L292.604 38.4341C291.823 37.653 291.823 36.3867 292.604 35.6056Z" fill="#DEE1E5"/>
<path fill-rule="evenodd" clip-rule="evenodd" d="M297.09 32.4096C297.871 31.6286 299.137 31.6286 299.918 32.4096L304.329 36.8205C305.11 37.6015 305.11 38.8678 304.329 39.6489C303.548 40.4299 302.282 40.4299 301.501 39.6489L297.09 35.2381C296.309 34.457 296.309 33.1907 297.09 32.4096Z" fill="#DEE1E5"/>
<path fill-rule="evenodd" clip-rule="evenodd" d="M391.333 50.6669V41.4437C391.333 41.0086 391.121 40.6009 390.764 40.3514L382.764 34.7514C382.305 34.43 381.694 34.43 381.235 34.7514L373.235 40.3514C372.878 40.6009 372.666 41.0086 372.666 41.4437V50.6669C372.666 51.4033 373.263 52.0002 374 52.0002H390C390.736 52.0002 391.333 51.4033 391.333 50.6669ZM370.941 37.0745C369.515 38.0725 368.666 39.7034 368.666 41.4437V50.6669C368.666 53.6124 371.054 56.0002 374 56.0002H390C392.945 56.0002 395.333 53.6124 395.333 50.6669V41.4437C395.333 39.7034 394.484 38.0725 393.058 37.0745L385.058 31.4745C383.222 30.189 380.777 30.189 378.941 31.4745L370.941 37.0745Z" fill="#DEE1E5"/>
<path fill-rule="evenodd" clip-rule="evenodd" d="M383.911 29.1129C382.763 28.3095 381.236 28.3095 380.088 29.1129L369.813 36.3053C368.908 36.9388 367.661 36.7187 367.028 35.8138C366.394 34.9089 366.614 33.6618 367.519 33.0284L377.794 25.836C380.319 24.0685 383.68 24.0685 386.205 25.836L396.48 33.0284C397.385 33.6618 397.605 34.9089 396.971 35.8138C396.338 36.7187 395.091 36.9388 394.186 36.3053L383.911 29.1129Z" fill="#DEE1E5"/>
<path fill-rule="evenodd" clip-rule="evenodd" d="M368.795 93.925C367.884 92.8729 367.333 91.5009 367.333 90.0002C367.333 86.6865 370.02 84.0002 373.333 84.0002H390.667C393.98 84.0002 396.667 86.6865 396.667 90.0002C396.667 93.314 393.98 96.0002 390.667 96.0002H374C371.791 96.0002 370 97.7911 370 100C370 102.209 371.791 104 374 104H393C393.552 104 394 103.553 394 103C394 102.448 393.552 102 393 102H374C372.895 102 372 101.105 372 100C372 98.8957 372.895 98.0002 374 98.0002H393C395.761 98.0002 398 100.239 398 103C398 104.679 397.173 106.164 395.904 107.071C396.39 107.937 396.667 108.936 396.667 110C396.667 113.314 393.98 116 390.667 116H373.333C370.02 116 367.333 113.314 367.333 110C367.333 108.5 367.884 107.128 368.795 106.076C367.084 104.608 366 102.431 366 100C366 97.5696 367.084 95.3922 368.795 93.925ZM373.333 88.0002H390.667C391.771 88.0002 392.667 88.8957 392.667 90.0002C392.667 91.1048 391.771 92.0002 390.667 92.0002H373.333C372.229 92.0002 371.333 91.1048 371.333 90.0002C371.333 88.8957 372.229 88.0002 373.333 88.0002ZM390.667 108C391.771 108 392.667 108.896 392.667 110C392.667 111.105 391.771 112 390.667 112H373.333C372.229 112 371.333 111.105 371.333 110C371.333 108.896 372.229 108 373.333 108H390.667Z" fill="#DEE1E5"/>
<path fill-rule="evenodd" clip-rule="evenodd" d="M43.8304 100.696C46.2687 100.696 48.4521 99.6044 49.919 97.8833C52.0329 97.6642 53.7953 96.261 54.5321 94.3482H56.0006C57.1048 94.3482 58 93.4528 58 92.3482C58 91.2437 57.1048 90.3482 56.0006 90.3482H54.5322C53.7956 88.4352 52.033 87.0318 49.9189 86.8127C48.452 85.0916 46.2686 84.0002 43.8304 84.0002H32.6646C28.9838 84.0002 26 86.985 26 90.6669V94.0292C26 96.3785 27.2147 98.4439 29.0502 99.6313C29.1092 99.9661 29.1662 100.323 29.2182 100.697C29.3681 101.775 29.4773 103.003 29.4773 104.291C29.4773 106.224 29.1684 108.936 28.8417 111.263C28.4946 113.736 30.3863 116 32.8828 116H33.8109C36.1866 116 38.2758 114.428 38.9339 112.145L42.2336 100.696H43.8304ZM43.8304 88.0002H32.6646C31.3001 88.0002 30.1751 89.0257 30.0176 90.3482H33.4294C34.5337 90.3482 35.4288 91.2437 35.4288 92.3482C35.4288 93.4528 34.5337 94.3482 33.4294 94.3482H30.0176C30.1752 95.6706 31.3002 96.6959 32.6646 96.6959H43.8304C44.44 96.6959 45.0177 96.5595 45.5346 96.3155C44.8139 95.4923 44.3772 94.4142 44.3772 93.234V91.462C44.3772 90.2819 44.8139 89.2038 45.5346 88.3806C45.0176 88.1367 44.44 88.0002 43.8304 88.0002ZM33.2507 100.697C33.384 101.791 33.4761 103.01 33.4761 104.291C33.4761 106.528 33.1297 109.482 32.8016 111.819C32.7968 111.854 32.8 111.878 32.8065 111.9C32.8141 111.925 32.828 111.951 32.8463 111.973C32.8606 111.99 32.8721 111.998 32.8766 112L32.8828 112H33.8109C34.4048 112 34.9271 111.607 35.0916 111.036L38.0716 100.697H33.2507ZM49.3387 90.7828H49.055C48.6799 90.7828 48.3759 91.0869 48.3759 91.462V93.234C48.3759 93.6091 48.6799 93.9132 49.055 93.9132H49.3387C50.2029 93.9132 50.9035 93.2125 50.9035 92.348C50.9035 91.4836 50.2029 90.7828 49.3387 90.7828Z" fill="#DEE1E5"/>
<path d="M33.3333 45.3335C34.4379 45.3335 35.3333 44.4381 35.3333 43.3335C35.3333 42.229 34.4379 41.3335 33.3333 41.3335C32.2288 41.3335 31.3333 42.229 31.3333 43.3335C31.3333 44.4381 32.2288 45.3335 33.3333 45.3335Z" fill="#DEE1E5"/>
<path d="M50.6667 45.3335C51.7712 45.3335 52.6667 44.4381 52.6667 43.3335C52.6667 42.229 51.7712 41.3335 50.6667 41.3335C49.5621 41.3335 48.6667 42.229 48.6667 43.3335C48.6667 44.4381 49.5621 45.3335 50.6667 45.3335Z" fill="#DEE1E5"/>
<path fill-rule="evenodd" clip-rule="evenodd" d="M28.8193 32.842C28.342 32.6279 27.7818 32.6002 27.2578 32.8098C26.2322 33.22 25.7334 34.384 26.1436 35.4095L26.9262 37.366L26.8269 37.6033C26.2811 38.9075 26 40.3072 26 41.721V51.1581C26 52.6309 27.1939 53.8248 28.6667 53.8248H35.5029C36.9757 53.8248 38.1696 52.6309 38.1696 51.1581V49.9651H45.8304V51.1581C45.8304 52.6309 47.0243 53.8248 48.4971 53.8248H55.3333C56.8061 53.8248 58 52.6309 58 51.1581V41.721C58 40.3072 57.7189 38.9075 57.1731 37.6033L57.0744 37.3673L57.8575 35.4095C58.2677 34.384 57.7689 33.22 56.7433 32.8098C56.2189 32.6 55.6583 32.628 55.1808 32.8424L53.9668 29.9413C53.1368 27.9579 51.197 26.6669 49.0469 26.6669H34.9531C32.803 26.6669 30.8632 27.9579 30.0332 29.9413L28.8193 32.842ZM34.172 49.8248C34.2459 47.6806 36.0074 45.9651 38.1696 45.9651H45.8304C47.9926 45.9651 49.7541 47.6806 49.828 49.8248H54V41.721C54 41.1387 53.9237 40.5602 53.774 40.0001H30.226C30.0763 40.5602 30 41.1387 30 41.721V49.8248H34.172ZM31.8339 36.0001L33.7231 31.4855C33.9307 30.9896 34.4156 30.6669 34.9531 30.6669H49.0469C49.5844 30.6669 50.0693 30.9896 50.2768 31.4855L52.1661 36.0001H31.8339Z" fill="#DEE1E5"/>
</svg>
