<svg width="189" height="64" viewBox="0 0 189 64" fill="none" xmlns="http://www.w3.org/2000/svg">
<path d="M0.5 19.2C0.5 15.8314 0.500389 13.3351 0.66183 11.3591C0.822794 9.38904 1.14136 7.98035 1.75343 6.77911C2.85597 4.61525 4.61525 2.85597 6.77911 1.75343C7.98035 1.14136 9.38904 0.822794 11.3591 0.66183C13.3351 0.500389 15.8314 0.5 19.2 0.5H154.682C157.773 0.5 159.233 0.503489 160.594 0.84424C161.813 1.14938 162.973 1.65221 164.03 2.33276C165.209 3.09274 166.211 4.15561 168.324 6.4103L180.324 19.2103C182.497 21.5284 184.107 23.2459 185.278 24.7122C186.445 26.1737 187.15 27.3542 187.533 28.5877C188.224 30.8102 188.224 33.1899 187.533 35.4123C187.15 36.6458 186.445 37.8263 185.278 39.2878C184.107 40.7541 182.497 42.4716 180.324 44.7897L168.324 57.5897C166.211 59.8444 165.209 60.9073 164.03 61.6672C162.973 62.3478 161.813 62.8506 160.594 63.1558C159.233 63.4965 157.773 63.5 154.682 63.5H19.2C15.8314 63.5 13.3351 63.4996 11.3591 63.3382C9.38904 63.1772 7.98035 62.8586 6.77911 62.2466C4.61525 61.144 2.85597 59.3848 1.75343 57.2209C1.14136 56.0197 0.822794 54.611 0.66183 52.6409C0.500389 50.6649 0.5 48.1686 0.5 44.8V19.2Z" stroke="#EB222D"/>
</svg>
