<svg width="48" height="48" viewBox="0 0 48 48" fill="none" xmlns="http://www.w3.org/2000/svg">
<path fill-rule="evenodd" clip-rule="evenodd" d="M24 27.951C22.344 27.951 21 29.295 21 30.951V45C21 46.656 22.344 48 24 48C25.656 48 27 46.656 27 45V30.951C27 29.295 25.656 27.951 24 27.951ZM9 39C7.344 39 6 40.344 6 42V45C6 46.656 7.344 48 9 48C10.656 48 12 46.656 12 45V42C12 40.344 10.656 39 9 39ZM39 39C37.344 39 36 40.344 36 42V45C36 46.656 37.344 48 39 48C40.656 48 42 46.656 42 45V42C42 40.344 40.656 39 39 39ZM6 24C9.312 24 12 26.688 12 30C12 33.312 9.312 36 6 36C2.688 36 0 33.312 0 30C0 26.688 2.688 24 6 24ZM42 24C45.312 24 48 26.688 48 30C48 33.312 45.312 36 42 36C38.688 36 36 33.312 36 30C36 26.688 38.688 24 42 24ZM34.809 8.241C36.312 8.241 37.533 9.462 37.533 10.965C37.533 11.943 37.017 12.804 36.24 13.284H36.243L36.213 13.299C36.111 13.362 36.006 13.416 35.895 13.464L30.852 16.074L33.522 22.947C34.185 24.231 33.726 25.824 32.46 26.553C31.485 27.117 30.303 27.006 29.457 26.367L24.024 22.452L18.588 26.367C17.742 27.006 16.56 27.117 15.585 26.553C14.49 25.923 14.001 24.648 14.316 23.484V23.481C14.364 23.307 14.43 23.133 14.514 22.968L17.16 16.074L12.165 13.473C11.19 13.059 10.506 12.093 10.506 10.965C10.506 9.462 11.727 8.241 13.23 8.241H19.032L21.414 1.974C21.456 1.821 21.516 1.668 21.585 1.527V1.524C22.026 0.621 22.95 0 24.021 0C25.092 0 26.019 0.621 26.457 1.524C26.532 1.677 26.592 1.836 26.637 2.001L28.977 8.241H34.809Z" fill="#333333"/>
</svg>
