<svg width="48" height="48" viewBox="0 0 48 48" fill="none" xmlns="http://www.w3.org/2000/svg">
<path fill-rule="evenodd" clip-rule="evenodd" d="M8.00658 42L5.14458 44.988L5.13258 44.997L5.12358 45.009C4.58058 45.546 3.83658 45.879 3.01458 45.879C1.36158 45.879 0.0175781 44.532 0.0175781 42.879V18C0.0175781 14.688 2.70258 12 6.01158 12H7.78158V27.525C7.78158 32.784 12.0446 37.053 17.2976 37.053H33.6416C33.1436 39.864 30.6896 42 27.7406 42H8.00658ZM47.9996 37.176C47.9996 38.832 46.6556 40.176 45.0026 40.176C44.1806 40.176 43.4366 39.846 42.8966 39.309L42.8936 39.306L42.8846 39.297L42.8756 39.288L36.7316 33H18.0356C14.7296 33 12.0446 30.312 12.0446 27V9C12.0446 5.688 14.7296 3 18.0356 3H42.0056C45.3146 3 47.9996 5.688 47.9996 9V37.176ZM21.0326 15C22.6856 15 24.0296 16.344 24.0296 18C24.0296 19.656 22.6856 21 21.0326 21C19.3796 21 18.0356 19.656 18.0356 18C18.0356 16.344 19.3796 15 21.0326 15ZM30.0206 15C31.6766 15 33.0176 16.344 33.0176 18C33.0176 19.656 31.6766 21 30.0206 21C28.3676 21 27.0236 19.656 27.0236 18C27.0236 16.344 28.3676 15 30.0206 15ZM39.0116 15C40.6646 15 42.0056 16.344 42.0056 18C42.0056 19.656 40.6646 21 39.0116 21C37.3556 21 36.0146 19.656 36.0146 18C36.0146 16.344 37.3556 15 39.0116 15Z" fill="#333333"/>
</svg>
