<svg width="24" height="24" viewBox="0 0 24 24" fill="none" xmlns="http://www.w3.org/2000/svg">
<path fill-rule="evenodd" clip-rule="evenodd" d="M3.84662 17.8601C4.04362 17.9561 4.26562 18.0101 4.49962 18.0101H19.4996C19.7336 18.0101 19.9556 17.9561 20.1526 17.8601L14.2446 12.3001L12.3176 13.8861C12.1329 14.0383 11.8663 14.0383 11.6816 13.8861L9.75462 12.2991L3.84662 17.8601ZM3.14301 17.15C3.14758 17.1453 3.15225 17.1406 3.15701 17.136L8.97701 11.658L3.18201 6.88601C3.16948 6.8756 3.15747 6.86458 3.14601 6.85301C3.04948 7.05501 2.99958 7.27613 3.00001 7.50001V16.51C3.00001 16.739 3.05101 16.956 3.14301 17.15ZM20.8567 17.15C20.9487 16.956 20.9997 16.739 20.9997 16.51V7.50001C20.9997 7.26801 20.9477 7.05001 20.8537 6.85301C20.8423 6.86458 20.8303 6.8756 20.8177 6.88601L15.0227 11.658L20.8427 17.136L20.8567 17.15ZM20.1439 6.14489C19.9428 6.04914 19.7227 5.9996 19.4999 5.99989H4.49994C4.26994 5.99989 4.04994 6.05189 3.85594 6.14489L11.9999 12.8519L20.1439 6.14489ZM4.49979 5H19.4998C20.8805 5 21.9998 6.11929 21.9998 7.5V16.51C21.9998 17.8907 20.8805 19.01 19.4998 19.01H4.49979C3.11907 19.01 1.99979 17.8907 1.99979 16.51V7.5C1.99979 6.11929 3.11907 5 4.49979 5Z" fill="#EB222D"/>
</svg>
