<svg width="24" height="18" viewBox="0 0 24 18" fill="none" xmlns="http://www.w3.org/2000/svg">
    <path fill-rule="evenodd" clip-rule="evenodd" d="M9.75861 4.95332C9.91256 4.66993 10 4.34518 10 4C10 3.63571 9.90261 3.29417 9.73244 3C9.38663 2.4022 8.74028 2 8 2C7.25972 2 6.61337 2.4022 6.26756 3C6.25864 3.01543 6.24991 3.03099 6.24139 3.04668C6.08744 3.33007 6 3.65482 6 4C6 4.36429 6.09739 4.70583 6.26756 5C6.61337 5.5978 7.25972 6 8 6C8.74028 6 9.38663 5.5978 9.73244 5C9.74136 4.98457 9.75009 4.96901 9.75861 4.95332ZM11.874 5C11.4299 6.72523 9.86384 8 8 8C6.13616 8 4.57006 6.72523 4.12602 5H1C0.447716 5 0 4.55228 0 4C0 3.44772 0.447715 3 1 3H4.12602C4.57006 1.27477 6.13616 0 8 0C9.86384 0 11.4299 1.27477 11.874 3H23C23.5523 3 24 3.44772 24 4C24 4.55228 23.5523 5 23 5H11.874ZM17.7586 14.9533C17.9126 14.6699 18 14.3452 18 14C18 13.6357 17.9026 13.2942 17.7324 13C17.3866 12.4022 16.7403 12 16 12C15.2597 12 14.6134 12.4022 14.2676 13C14.2586 13.0154 14.2499 13.031 14.2414 13.0467C14.0874 13.3301 14 13.6548 14 14C14 14.3643 14.0974 14.7058 14.2676 15C14.6134 15.5978 15.2597 16 16 16C16.7403 16 17.3866 15.5978 17.7324 15C17.7414 14.9846 17.7501 14.969 17.7586 14.9533ZM19.874 15C19.4299 16.7252 17.8638 18 16 18C14.1362 18 12.5701 16.7252 12.126 15H1C0.447716 15 0 14.5523 0 14C0 13.4477 0.447715 13 1 13H12.126C12.5701 11.2748 14.1362 10 16 10C17.8638 10 19.4299 11.2748 19.874 13H23C23.5523 13 24 13.4477 24 14C24 14.5523 23.5523 15 23 15H19.874Z" fill="#333333"/>
</svg>
