<svg width="42" height="42" viewBox="0 0 42 42" fill="none" xmlns="http://www.w3.org/2000/svg">
<path fill-rule="evenodd" clip-rule="evenodd" d="M24.52 29H17.48C15.007 29 13 26.993 13 24.52V17.48C13 15.007 15.007 13 17.48 13H24.52C26.993 13 29 15.007 29 17.48V24.52C29 26.993 26.993 29 24.52 29ZM24.48 15H17.52C16.129 15 15 16.129 15 17.52V24.48C15 25.871 16.129 27 17.52 27H24.48C25.871 27 27 25.871 27 24.48V17.52C27 16.129 25.871 15 24.48 15ZM25 16C25.552 16 26 16.448 26 17C26 17.552 25.552 18 25 18C24.448 18 24 17.552 24 17C24 16.448 24.448 16 25 16ZM21 17C23.208 17 25 18.792 25 21C25 23.208 23.208 25 21 25C18.792 25 17 23.208 17 21C17 18.792 18.792 17 21 17ZM21 19C22.104 19 23 19.896 23 21C23 22.104 22.104 23 21 23C19.896 23 19 22.104 19 21C19 19.896 19.896 19 21 19Z" fill="#BDBDBD"/>
<circle cx="21" cy="21" r="19.5" stroke="#BDBDBD" stroke-width="3"/>
</svg>
