<svg width="34" height="34" viewBox="0 0 34 34" fill="none" xmlns="http://www.w3.org/2000/svg">
<path d="M16.9987 4.93967L12.9554 3.2243C7.8076 1.0404 1.92955 3.99289 0.607908 9.42632C-0.187994 12.6984 0.700217 16.1516 3.0118 18.6004C7.57459 23.4339 14.9768 31.0935 16.7989 31.8909C16.8452 31.9356 16.8945 31.9587 16.9468 31.9587C16.963 31.9587 16.9803 31.9573 16.9987 31.9545C17.0172 31.9573 17.0345 31.9587 17.0507 31.9587C17.103 31.9587 17.1523 31.9356 17.1986 31.8909C19.0207 31.0935 26.4229 23.4339 30.9857 18.6004C33.2973 16.1516 34.1855 12.6984 33.3896 9.42632C32.0679 3.99289 26.1899 1.0404 21.0421 3.2243L16.9987 4.93967Z" fill="#EB222D"/>
</svg>
