<svg width="32" height="29" viewBox="0 0 32 29" fill="none" xmlns="http://www.w3.org/2000/svg">
<path d="M15.4142 4.00722L16 4.25575L16.5858 4.00722L20.4652 2.36144C24.5522 0.627527 29.2191 2.97166 30.2684 7.28553C30.9141 9.9399 30.1916 12.7299 28.3288 14.7032C26.1438 17.0179 23.2878 19.9998 20.765 22.4941C19.5021 23.7427 18.3358 24.8562 17.3853 25.699C16.9094 26.121 16.5012 26.463 16.1708 26.7158C16.1099 26.7624 16.053 26.805 16 26.8437C15.947 26.805 15.8901 26.7624 15.8292 26.7158C15.4988 26.463 15.0906 26.121 14.6147 25.699C13.6642 24.8562 12.4978 23.7427 11.235 22.4941C8.71224 19.9998 5.85623 17.0179 3.6712 14.7032C1.80835 12.7299 1.0859 9.93989 1.73156 7.28553C2.78088 2.97166 7.44775 0.627527 11.5348 2.36144L15.4142 4.00722Z" stroke="#333333" stroke-width="3"/>
</svg>
