<svg width="42" height="42" viewBox="0 0 42 42" fill="none" xmlns="http://www.w3.org/2000/svg">
<path d="M20.2189 7.91334L21 8.24471L21.7811 7.91334L26.8727 5.75324C32.2193 3.48502 38.3243 6.55151 39.697 12.1947C40.5419 15.6685 39.5964 19.3194 37.1588 21.9016C34.291 24.9396 30.5428 28.8529 27.232 32.1264C25.5748 33.7649 24.0443 35.226 22.7975 36.3316C22.1731 36.8852 21.638 37.3335 21.2052 37.6648C21.1325 37.7205 21.0641 37.7717 21 37.8187C20.9359 37.7717 20.8675 37.7205 20.7948 37.6648C20.362 37.3336 19.8269 36.8852 19.2025 36.3316C17.9557 35.226 16.4252 33.7649 14.768 32.1264C11.4572 28.8529 7.70895 24.9396 4.84118 21.9016C2.40358 19.3194 1.45807 15.6685 2.30303 12.1947C3.67571 6.55151 9.78071 3.48502 15.1272 5.75324L20.2189 7.91334Z" stroke="#EB222D" stroke-width="4"/>
</svg>
