<svg width="200" height="59" viewBox="0 0 200 59" fill="none" xmlns="http://www.w3.org/2000/svg">
<path d="M58.2069 17.1983H58.1171L57.3809 18.8431L56.633 20.4391C56.525 20.6839 56.4176 20.846 56.3063 20.9364C56.1969 21.0289 56.0368 21.0757 55.8253 21.0757H54.8587C54.6172 21.0757 54.4519 21.0289 54.362 20.9364C54.2676 20.846 54.1661 20.6839 54.0515 20.4391L53.4039 19.1445L52.5662 17.3714H52.4802V21.9831C52.4802 22.1191 52.4542 22.1992 52.4113 22.2226C52.3605 22.2467 52.2765 22.2552 52.1639 22.2552H50.1585C50.0556 22.2552 49.973 22.2467 49.9144 22.2226C49.859 22.1992 49.8271 22.1191 49.8271 21.9831V13.3097C49.8271 12.8561 49.9105 12.5534 50.0725 12.3978C50.2385 12.2442 50.5002 12.1687 50.8653 12.1687H51.9771C52.2843 12.1687 52.505 12.224 52.6404 12.3334C52.7732 12.444 52.9027 12.6263 53.0277 12.8743L54.1811 15.267L55.3052 17.6292H55.3664L56.4885 15.2963L57.64 12.9192C57.7656 12.6686 57.9049 12.4798 58.0592 12.3562C58.2102 12.2312 58.4738 12.1687 58.8357 12.1687H59.7288C59.8824 12.1687 60.023 12.1798 60.1499 12.2045C60.2729 12.2299 60.3829 12.2761 60.4721 12.3497C60.5658 12.4226 60.6342 12.5234 60.6823 12.6653C60.7279 12.8059 60.7539 12.9849 60.7539 13.2062V21.9831C60.7539 22.1191 60.7279 22.1992 60.6823 22.2226C60.6342 22.2467 60.5496 22.2552 60.422 22.2552H58.522C58.4139 22.2552 58.3358 22.2467 58.2818 22.2226C58.2291 22.1992 58.2069 22.1191 58.2069 21.9831V17.1983ZM67.7284 14.7515H69.2717C69.4104 14.7515 69.5197 14.8628 69.5197 15.0021V22.0091C69.5197 22.1452 69.4104 22.2552 69.2717 22.2552H67.7284C67.5917 22.2552 67.4804 22.1452 67.4804 22.0091V21.6811C67.1439 21.9909 66.7827 22.1836 66.4507 22.2994C65.9749 22.4674 65.5622 22.4856 65.3624 22.4856C64.3658 22.4856 63.4096 22.0762 62.7216 21.3367C62.0916 20.665 61.686 19.7186 61.686 18.5678C61.686 17.4163 62.0903 16.4152 62.7477 15.7005C63.4253 14.9604 64.3658 14.5263 65.4138 14.5263C65.9527 14.5263 66.4357 14.6415 66.8582 14.8609C67.0873 14.9819 67.2956 15.1336 67.4804 15.3191V15.0021C67.4804 14.8628 67.5917 14.7515 67.7284 14.7515ZM66.9473 17.1293C66.6421 16.8071 66.2066 16.6151 65.6807 16.6151C65.1469 16.6151 64.6991 16.8175 64.3802 17.1553C64.054 17.5029 63.8659 17.9943 63.8659 18.5678C63.8659 19.1022 64.0534 19.563 64.3769 19.8885C64.688 20.2042 65.1378 20.3923 65.6807 20.3923C66.2079 20.3923 66.6479 20.2042 66.9545 19.8794C67.2663 19.5467 67.4401 19.0664 67.4401 18.4903C67.4401 17.939 67.2617 17.4625 66.9473 17.1293ZM70.6432 22.0091V15.0021C70.6432 14.8628 70.7545 14.7515 70.8912 14.7515H74.8617C74.9991 14.7515 75.1123 14.8628 75.1123 15.0021V16.4927C75.1123 16.6294 74.9991 16.7426 74.8617 16.7426H72.8211V22.0091C72.8211 22.1452 72.7105 22.2552 72.5725 22.2552H70.8912C70.7545 22.2552 70.6432 22.1452 70.6432 22.0091ZM81.3903 14.7515H82.9343C83.0697 14.7515 83.1803 14.8628 83.1803 15.0021V22.0091C83.1803 22.1452 83.0697 22.2552 82.9343 22.2552H81.3903C81.2549 22.2552 81.1397 22.1452 81.1397 22.0091V21.6811C80.8071 21.9909 80.4433 22.1836 80.1107 22.2994C79.6355 22.4674 79.2248 22.4856 79.0249 22.4856C78.029 22.4856 77.0716 22.0762 76.3803 21.3367C75.7541 20.665 75.3473 19.7186 75.3473 18.5678C75.3473 17.4163 75.7541 16.4152 76.4057 15.7005C77.0852 14.9604 78.0264 14.5263 79.0731 14.5263C79.614 14.5263 80.0989 14.6415 80.5207 14.8609C80.7466 14.9819 80.9536 15.1336 81.1397 15.3191V15.0021C81.1397 14.8628 81.2549 14.7515 81.3903 14.7515ZM80.6053 17.1293C80.3046 16.8071 79.8659 16.6151 79.3413 16.6151C78.8095 16.6151 78.3604 16.8175 78.0414 17.1553C77.7173 17.5029 77.5291 17.9943 77.5291 18.5678C77.5291 19.1022 77.7134 19.563 78.0362 19.8885C78.3512 20.2042 78.8023 20.3923 79.3413 20.3923C79.8705 20.3923 80.3105 20.2042 80.6171 19.8794C80.9243 19.5467 81.102 19.0664 81.102 18.4903C81.102 17.939 80.923 17.4625 80.6053 17.1293ZM86.4616 16.7452C86.3652 16.8259 86.3099 16.9451 86.2949 17.0805C86.291 17.2139 86.1804 17.3239 86.045 17.3239H84.3656L84.3468 17.3226C84.2114 17.3154 84.1059 17.1983 84.115 17.0609C84.1573 16.3573 84.4372 15.6914 84.9397 15.2182C85.3908 14.7932 86.0137 14.5263 86.8026 14.5263C87.6352 14.5263 88.2535 14.7567 88.6857 15.1082C89.2019 15.5332 89.4427 16.1308 89.4427 16.7335C89.4427 17.1319 89.3138 17.4944 89.0841 17.7958C88.963 17.9507 88.8146 18.0894 88.6506 18.2033C88.8621 18.3315 89.0418 18.4962 89.1804 18.6862C89.4414 19.0377 89.569 19.483 89.569 19.9464C89.569 20.6982 89.2878 21.3387 88.7794 21.7943C88.2952 22.2311 87.602 22.4856 86.7649 22.4856C86.7577 22.4856 86.7213 22.4856 86.6614 22.481C85.5874 22.4576 84.9065 22.0514 84.4913 21.504C84.0766 20.9625 83.936 20.2888 83.936 19.7173V19.6594V19.6444C83.936 19.5083 84.0493 19.3951 84.1834 19.3951H85.8673C86.004 19.3951 86.1172 19.5083 86.1172 19.6444C86.1172 19.8566 86.1771 20.0662 86.3119 20.2042C86.4212 20.3226 86.5911 20.3923 86.8287 20.3923C86.8638 20.3923 87.0187 20.3923 87.1574 20.3239C87.2765 20.266 87.3872 20.1462 87.3872 19.9073C87.3872 19.6652 87.3025 19.55 87.2049 19.4921C87.0916 19.4302 86.9517 19.4218 86.8905 19.4218H86.5C86.3639 19.4218 86.2546 19.3124 86.2546 19.1757V17.7314C86.2546 17.5966 86.3639 17.4847 86.5 17.4847H86.817C86.9992 17.4847 87.1177 17.4424 87.186 17.376C87.2706 17.2979 87.3025 17.1722 87.3025 17.0499C87.3025 16.8396 87.2342 16.7335 87.1509 16.6814C87.0578 16.6229 86.9283 16.6151 86.841 16.6151C86.6803 16.6151 86.5507 16.6626 86.4616 16.7452ZM90.3768 22.0091V15.0021C90.3768 14.8628 90.4874 14.7515 90.6215 14.7515H92.3054C92.4434 14.7515 92.5541 14.8628 92.5541 15.0021V18.7409L95.2046 14.8739C95.2469 14.8023 95.3256 14.7515 95.4174 14.7515H97.1C97.2354 14.7515 97.346 14.8628 97.346 15.0021V22.0091C97.346 22.1452 97.2354 22.2552 97.1 22.2552H95.4174C95.282 22.2552 95.1694 22.1452 95.1694 22.0091V18.2677L92.5209 22.1348C92.476 22.207 92.3985 22.2552 92.3054 22.2552H90.6215C90.4874 22.2552 90.3768 22.1452 90.3768 22.0091ZM98.4682 22.0091V15.0021C98.4682 14.8628 98.5821 14.7515 98.7208 14.7515H100.402C100.54 14.7515 100.65 14.8628 100.65 15.0021V17.333H102.761V15.0021C102.761 14.8628 102.87 14.7515 103.006 14.7515H104.688C104.828 14.7515 104.94 14.8628 104.94 15.0021V22.0091C104.94 22.1452 104.828 22.2552 104.688 22.2552H103.006C102.87 22.2552 102.761 22.1452 102.761 22.0091V19.3222H100.65V22.0091C100.65 22.1452 100.54 22.2552 100.402 22.2552H98.7208C98.5821 22.2552 98.4682 22.1452 98.4682 22.0091Z" fill="white"/>
<path d="M58.478 33.8906C58.478 34.0058 58.4592 34.0832 58.4266 34.1255C58.3921 34.1705 58.2958 34.19 58.1337 34.19H56.0847C55.864 34.19 55.754 34.0924 55.754 33.8906V26.4377H52.5541V33.8906C52.5541 34.0058 52.5379 34.0832 52.5034 34.1255C52.4708 34.1705 52.3706 34.19 52.2098 34.19H50.1594C49.9394 34.19 49.8281 34.0924 49.8281 33.8906V25.0545C49.8281 24.7368 49.8867 24.5012 50.0045 24.3404C50.1184 24.1829 50.3723 24.1035 50.7667 24.1035H57.5407C57.9332 24.1035 58.1884 24.1829 58.3049 24.3404C58.4201 24.5012 58.478 24.7368 58.478 25.0545V33.8906ZM60.4151 27.6074C61.1181 26.9018 62.1003 26.4605 63.2297 26.4605C64.357 26.4605 65.3367 26.9018 66.0429 27.6074C66.7628 28.3364 67.1944 29.3459 67.1944 30.4512C67.1944 31.5519 66.7628 32.553 66.0403 33.2748C65.3334 33.9797 64.3512 34.4204 63.2297 34.4204C62.1017 34.4204 61.122 33.9797 60.4151 33.2748C59.6907 32.553 59.2591 31.5519 59.2591 30.4512C59.2591 29.3459 59.6907 28.3364 60.4151 27.6074ZM64.4963 29.0771C64.1891 28.7549 63.7556 28.5486 63.2297 28.5486C62.6979 28.5486 62.2663 28.7549 61.9598 29.0771C61.6252 29.4292 61.4384 29.9246 61.4384 30.4512C61.4384 30.9765 61.6252 31.4627 61.9598 31.807C62.2631 32.1299 62.6979 32.3297 63.2297 32.3297C63.7556 32.3297 64.1924 32.1299 64.4963 31.807C64.829 31.4627 65.0184 30.9765 65.0184 30.4512C65.0184 29.9246 64.829 29.4292 64.4963 29.0771ZM72.3632 32.2112C72.6333 32.111 72.9204 31.9216 73.1183 31.5662C73.1593 31.4829 73.2472 31.4204 73.3474 31.4204H75.2448C75.2702 31.4204 75.2975 31.4236 75.3255 31.4334C75.455 31.4777 75.526 31.6176 75.4811 31.7497C75.194 32.5588 74.7143 33.2442 74.0588 33.7181C73.4437 34.16 72.677 34.4204 71.7774 34.4204C70.5146 34.4204 69.5474 33.9739 68.8678 33.3106C68.0549 32.5132 67.6585 31.4048 67.6585 30.3893C67.6585 28.6482 68.9251 26.4605 71.7149 26.4605C72.6346 26.4605 73.4385 26.7254 74.0758 27.1888C74.7364 27.6666 75.2188 28.3526 75.4739 29.1715C75.4869 29.1995 75.4928 29.232 75.4928 29.2646C75.4928 29.4 75.3808 29.5132 75.2448 29.5132H73.3474C73.2556 29.5132 73.1703 29.4611 73.1254 29.3752C72.9855 29.1005 72.7922 28.8975 72.5604 28.7647C72.3124 28.6234 72.0189 28.5486 71.6895 28.5486C71.1226 28.5486 70.6722 28.7458 70.361 29.0589C70.0206 29.4032 69.837 29.8894 69.837 30.4147C69.837 30.9667 70.0239 31.4568 70.361 31.8038C70.6774 32.1299 71.1317 32.3297 71.6895 32.3297C71.8184 32.3297 72.0846 32.3199 72.3632 32.2112ZM75.7551 28.4295V26.935C75.7551 26.7976 75.8664 26.6889 76.0031 26.6889H81.0509C81.1889 26.6889 81.2989 26.7976 81.2989 26.935V28.4295C81.2989 28.5661 81.1889 28.6774 81.0509 28.6774H79.6163V33.9439C79.6163 34.0806 79.503 34.1919 79.367 34.1919H77.6883C77.5497 34.1919 77.4364 34.0806 77.4364 33.9439V28.6774H76.0031C75.8664 28.6774 75.7551 28.5661 75.7551 28.4295ZM82.6743 27.6074C83.3805 26.9018 84.3608 26.4605 85.492 26.4605C86.622 26.4605 87.6016 26.9018 88.3027 27.6074C89.0271 28.3364 89.4587 29.3459 89.4587 30.4512C89.4587 31.5519 89.0252 32.553 88.2994 33.2748C87.5958 33.9797 86.6142 34.4204 85.492 34.4204C84.3666 34.4204 83.3831 33.9797 82.6775 33.2748C81.953 32.553 81.5215 31.5519 81.5215 30.4512C81.5215 29.3459 81.953 28.3364 82.6743 27.6074ZM86.7587 29.0771C86.4554 28.7549 86.0199 28.5486 85.492 28.5486C84.9589 28.5486 84.5274 28.7549 84.2215 29.0771C83.8888 29.4292 83.702 29.9246 83.702 30.4512C83.702 30.9765 83.8888 31.4627 84.2215 31.807C84.5274 32.1299 84.9628 32.3297 85.492 32.3297C86.0173 32.3297 86.4554 32.1299 86.762 31.807C87.0926 31.4627 87.2775 30.9765 87.2775 30.4512C87.2775 29.9246 87.0926 29.4292 86.7587 29.0771ZM92.8896 26.6889H95.9372C96.0765 26.6889 96.1839 26.7976 96.1839 26.935V33.9439C96.1839 34.0806 96.0765 34.1919 95.9372 34.1919H94.2559C94.1172 34.1919 94.0066 34.0806 94.0066 33.9439V31.9795L92.3884 34.08C92.3441 34.1457 92.2699 34.1919 92.1827 34.1919H90.0822V34.19C90.0256 34.19 89.9657 34.1724 89.9176 34.1314C89.8141 34.0422 89.8043 33.8867 89.8941 33.7838L91.7323 31.6241C91.2968 31.4887 90.9349 31.244 90.6622 30.9205C90.2912 30.4805 90.0868 29.8986 90.0868 29.2646C90.0868 28.5622 90.3654 27.8827 90.8998 27.3945C91.3704 26.9643 92.0441 26.6889 92.8896 26.6889ZM92.9508 29.9383H94.0066V28.6774H92.9508C92.7308 28.6774 92.5589 28.7419 92.4444 28.8525C92.3285 28.9684 92.2641 29.1409 92.2641 29.3511C92.2641 29.5392 92.3311 29.6772 92.4346 29.771C92.5629 29.8829 92.7542 29.9383 92.9508 29.9383ZM97.3073 33.9439V26.935C97.3073 26.7976 97.4212 26.6889 97.5586 26.6889H99.2392C99.3772 26.6889 99.4872 26.7976 99.4872 26.935V29.2678H101.595V26.935C101.595 26.7976 101.708 26.6889 101.843 26.6889H103.529C103.666 26.6889 103.775 26.7976 103.775 26.935V33.9439C103.775 34.0806 103.666 34.1919 103.529 34.1919H101.843C101.708 34.1919 101.595 34.0806 101.595 33.9439V31.257H99.4872V33.9439C99.4872 34.0806 99.3772 34.1919 99.2392 34.1919H97.5586C97.4212 34.1919 97.3073 34.0806 97.3073 33.9439ZM104.899 33.9439V26.935C104.899 26.7976 105.008 26.6889 105.147 26.6889H106.829C106.965 26.6889 107.077 26.7976 107.077 26.935V29.2678H109.188V26.935C109.188 26.7976 109.298 26.6889 109.434 26.6889H111.118C111.254 26.6889 111.366 26.7976 111.366 26.935V33.9439C111.366 34.0806 111.254 34.1919 111.118 34.1919H109.434C109.298 34.1919 109.188 34.0806 109.188 33.9439V31.257H107.077V33.9439C107.077 34.0806 106.965 34.1919 106.829 34.1919H105.147C105.008 34.1919 104.899 34.0806 104.899 33.9439ZM112.488 33.9439V26.935C112.488 26.7976 112.595 26.6889 112.736 26.6889H114.417C114.554 26.6889 114.665 26.7976 114.665 26.935V29.1409H115.925C116.75 29.1409 117.371 29.4032 117.801 29.8165C118.295 30.2963 118.525 30.9693 118.525 31.6664C118.525 32.4358 118.258 33.0587 117.808 33.4929C117.34 33.9459 116.68 34.1919 115.925 34.1919H112.736C112.595 34.1919 112.488 34.0806 112.488 33.9439ZM115.748 31.1314H114.665V32.2041H115.748C115.802 32.2041 115.97 32.2002 116.111 32.1299C116.232 32.0654 116.347 31.9339 116.347 31.6664C116.347 31.5213 116.314 31.365 116.202 31.2661C116.115 31.1854 115.973 31.1314 115.748 31.1314ZM120.73 34.1919H119.047C118.913 34.1919 118.799 34.0806 118.799 33.9439V26.935C118.799 26.7976 118.913 26.6889 119.047 26.6889H120.73C120.866 26.6889 120.978 26.7976 120.978 26.935V33.9439C120.978 34.0806 120.866 34.1919 120.73 34.1919ZM123.791 34.1919H121.717V34.19C121.668 34.19 121.625 34.177 121.58 34.1516C121.465 34.0774 121.436 33.9218 121.511 33.8066L123.788 30.3477L121.71 27.0912C121.678 27.0476 121.658 26.9942 121.658 26.935C121.658 26.7976 121.771 26.6889 121.906 26.6889H123.866C123.95 26.6889 124.03 26.7312 124.076 26.8035L125.197 28.5746L126.303 26.8204C126.345 26.7403 126.426 26.6889 126.525 26.6889H128.485C128.532 26.6889 128.578 26.7 128.621 26.7293C128.733 26.8035 128.769 26.9597 128.693 27.0723L126.554 30.3477L128.891 33.7838C128.928 33.8281 128.949 33.8834 128.949 33.9439C128.949 34.0806 128.836 34.1919 128.701 34.1919H126.625C126.545 34.19 126.463 34.1516 126.413 34.0761L125.21 32.1461L124.01 34.0631C123.965 34.1405 123.888 34.1919 123.791 34.1919Z" fill="white"/>
<path d="M55.1776 39.4662C55.1776 39.3699 55.1646 39.2592 55.1366 39.1297C55.106 38.9975 55.0553 38.8791 54.985 38.7756C54.9108 38.6701 54.8073 38.5797 54.6745 38.5016C54.5404 38.4247 54.3659 38.3863 54.1557 38.3863H52.5987V40.5617H54.1557C54.4922 40.5617 54.7441 40.4497 54.9179 40.2239C55.0924 39.9954 55.1776 39.7461 55.1776 39.4662ZM64.1667 38.6181H65.7106C65.846 38.6181 65.9593 38.7313 65.9593 38.8661V45.8757C65.9593 46.015 65.846 46.1217 65.7106 46.1217H64.1667C64.0313 46.1217 63.9187 46.015 63.9187 45.8757V45.5476C63.5802 45.8581 63.2189 46.0475 62.8883 46.1666C62.4105 46.3339 61.9978 46.3515 61.7993 46.3515C60.8028 46.3515 59.8459 45.9421 59.1573 45.2033C58.5298 44.5316 58.1262 43.5851 58.1262 42.4369C58.1262 41.2796 58.5259 40.2837 59.1833 39.5651C59.8609 38.827 60.8028 38.3922 61.852 38.3922C62.3916 38.3922 62.8772 38.5048 63.2964 38.7274C63.5223 38.8478 63.7319 38.9995 63.9187 39.1857V38.8661C63.9187 38.7313 64.0313 38.6181 64.1667 38.6181ZM63.3843 40.9958C63.081 40.6736 62.6435 40.481 62.1183 40.481C61.5865 40.481 61.1373 40.6834 60.8184 41.0219C60.4929 41.3682 60.3029 41.8609 60.3029 42.4369C60.3029 42.9687 60.489 43.427 60.8112 43.755C61.1289 44.0694 61.578 44.2588 62.1183 44.2588C62.6455 44.2588 63.0849 44.0694 63.3927 43.7453C63.7019 43.4146 63.8796 42.9329 63.8796 42.3569C63.8796 41.8069 63.7 41.3278 63.3843 40.9958ZM71.4809 44.143C71.751 44.0434 72.0368 43.8514 72.2366 43.4979C72.277 43.4081 72.3629 43.3495 72.4664 43.3495H74.3586V43.3515C74.3879 43.3515 74.4159 43.3554 74.4432 43.3625C74.574 43.4081 74.6398 43.5493 74.5962 43.6795C74.3143 44.488 73.8294 45.1747 73.1759 45.6479C72.5601 46.0937 71.7934 46.3515 70.8964 46.3515C69.631 46.3515 68.6664 45.903 67.9888 45.2411C67.1706 44.4424 66.7775 43.3345 66.7775 42.3217C66.7775 40.5786 68.0441 38.3922 70.83 38.3922C71.7543 38.3922 72.5549 38.6571 73.1922 39.1199C73.8528 39.5977 74.3365 40.2837 74.5916 41.1006C74.6033 41.1319 74.6105 41.1625 74.6105 41.1937C74.6105 41.3311 74.4959 41.4417 74.3586 41.4417H72.4664C72.3733 41.4417 72.2854 41.3961 72.2438 41.3057C72.1032 41.0349 71.9105 40.8292 71.6768 40.6938C71.4321 40.5493 71.1359 40.481 70.8072 40.481C70.2396 40.481 69.7886 40.6782 69.4781 40.99C69.1363 41.3324 68.9567 41.8192 68.9567 42.3465C68.9567 42.8958 69.1435 43.386 69.4781 43.7342C69.7957 44.061 70.252 44.2588 70.8072 44.2588C70.9361 44.2588 71.1997 44.2478 71.4809 44.143ZM75.4287 45.8757V38.8661C75.4287 38.7313 75.5406 38.6181 75.6773 38.6181H81.6468C81.7848 38.6181 81.8955 38.7313 81.8955 38.8661V45.8757C81.8955 46.015 81.7848 46.1217 81.6468 46.1217H79.9662C79.8288 46.1217 79.7156 46.015 79.7156 45.8757V40.6092H77.6073V45.8757C77.6073 46.015 77.4953 46.1217 77.3586 46.1217H75.6773C75.5406 46.1217 75.4287 46.015 75.4287 45.8757ZM84.9469 48.4624H83.2663C83.1309 48.4624 83.0183 48.3524 83.0183 48.2164V38.8661C83.0183 38.7313 83.1309 38.6181 83.2663 38.6181H84.8083C84.9469 38.6181 85.0589 38.7313 85.0589 38.8661V39.1199C85.2379 38.9572 85.4338 38.827 85.633 38.7274C86.1719 38.4547 86.7382 38.3922 87.0845 38.3922C88.1364 38.3922 89.1023 38.8075 89.7949 39.5404C90.4451 40.233 90.8513 41.2009 90.8513 42.3699C90.8513 43.44 90.4738 44.4827 89.7688 45.2313C89.1244 45.9141 88.2177 46.3515 87.0845 46.3515C86.7786 46.3515 86.3841 46.3112 85.9773 46.1536C85.7143 46.0566 85.4468 45.9115 85.1956 45.7019V48.2164C85.1956 48.3524 85.0882 48.4624 84.9469 48.4624ZM88.6734 42.3569C88.6734 41.5322 88.1507 40.481 86.9087 40.481C86.3737 40.481 85.9259 40.6775 85.6069 41.0036C85.2847 41.3402 85.0979 41.8179 85.0979 42.3699C85.0979 42.9583 85.273 43.427 85.575 43.7472C85.8875 44.0785 86.3327 44.2588 86.8476 44.2588C87.3767 44.2588 87.8324 44.0649 88.1546 43.7296C88.48 43.3918 88.6734 42.9121 88.6734 42.3569ZM92.418 39.5404C93.1249 38.8309 94.1032 38.3922 95.2319 38.3922C96.3625 38.3922 97.3422 38.8309 98.0464 39.5404C98.7696 40.2694 99.2005 41.277 99.2005 42.3849C99.2005 43.4849 98.7676 44.4827 98.0464 45.2072C97.3396 45.9141 96.356 46.3515 95.2319 46.3515C94.1065 46.3515 93.1269 45.9141 92.4187 45.2072C91.6994 44.4827 91.2666 43.4849 91.2666 42.3849C91.2666 41.277 91.6968 40.2694 92.418 39.5404ZM96.5012 41.0102C96.1953 40.6847 95.7604 40.481 95.2319 40.481C94.7027 40.481 94.2692 40.6847 93.962 41.0102C93.6326 41.361 93.4471 41.8544 93.4471 42.3849C93.4471 42.9049 93.6326 43.3918 93.962 43.7368C94.2692 44.059 94.7066 44.2588 95.2319 44.2588C95.7604 44.2588 96.1953 44.059 96.5012 43.7368C96.8338 43.3918 97.0206 42.9049 97.0206 42.3849C97.0206 41.8544 96.8338 41.361 96.5012 41.0102ZM103.077 38.6181H104.591C104.688 38.6181 104.776 38.6721 104.817 38.7626L107.318 44.1326H107.995C108.132 44.1326 108.244 44.2458 108.244 44.3812V47.6462C108.244 47.7848 108.132 47.8942 107.995 47.8942H106.352C106.213 47.8942 106.103 47.7848 106.103 47.6462V46.1217H101.565V47.6462C101.565 47.7848 101.45 47.8942 101.317 47.8942H99.6731C99.5357 47.8942 99.4251 47.7848 99.4251 47.6462V44.3812C99.4251 44.2458 99.5357 44.1326 99.6731 44.1326H100.349L102.847 38.7723C102.884 38.6819 102.973 38.6181 103.077 38.6181ZM103.834 41.7587L102.786 44.1326H104.881L103.834 41.7587ZM114.509 38.6181H116.05C116.191 38.6181 116.302 38.7313 116.302 38.8661V45.8757C116.302 46.015 116.191 46.1217 116.05 46.1217H114.509C114.373 46.1217 114.261 46.015 114.261 45.8757V45.5476C113.925 45.8581 113.564 46.0475 113.232 46.1666C112.754 46.3339 112.341 46.3515 112.143 46.3515C111.149 46.3515 110.19 45.9421 109.503 45.2033C108.872 44.5316 108.467 43.5851 108.467 42.4369C108.467 41.2796 108.872 40.2837 109.529 39.5651C110.203 38.827 111.145 38.3922 112.193 38.3922C112.734 38.3922 113.219 38.5048 113.642 38.7274C113.865 38.8478 114.076 38.9995 114.261 39.1857V38.8661C114.261 38.7313 114.373 38.6181 114.509 38.6181ZM113.729 40.9958C113.424 40.6736 112.989 40.481 112.462 40.481C111.93 40.481 111.48 40.6834 111.161 41.0219C110.839 41.3682 110.647 41.8609 110.647 42.4369C110.647 42.9687 110.834 43.427 111.158 43.755C111.469 44.0694 111.922 44.2588 112.462 44.2588C112.991 44.2588 113.429 44.0694 113.733 43.7453C114.046 43.4146 114.225 42.9329 114.225 42.3569C114.225 41.8069 114.043 41.3278 113.729 40.9958ZM123.151 46.1217H121.465C121.329 46.1217 121.217 46.015 121.217 45.8757V43.3209L119.402 46.0052C119.361 46.0768 119.282 46.1217 119.193 46.1217H117.207C117.154 46.1217 117.106 46.1087 117.065 46.0768C116.95 46.0013 116.923 45.8477 117 45.7325L119.454 42.2111L117.169 39.0294C117.128 38.9852 117.106 38.9299 117.106 38.8661C117.106 38.7313 117.217 38.6181 117.358 38.6181H119.341C119.422 38.6181 119.501 38.6571 119.547 38.7313L121.217 41.2536V38.8661C121.217 38.7313 121.329 38.6181 121.465 38.6181H123.151C123.287 38.6181 123.396 38.7313 123.396 38.8661V41.2536L125.058 38.7437C125.101 38.6688 125.181 38.6181 125.275 38.6181H127.26C127.311 38.6181 127.361 38.6369 127.406 38.6688C127.518 38.7469 127.543 38.8993 127.461 39.0119L125.159 42.2111L127.609 45.7253C127.643 45.7676 127.66 45.8178 127.66 45.8757C127.66 46.015 127.55 46.1217 127.412 46.1217H125.424C125.346 46.1217 125.269 46.0833 125.22 46.015L123.396 43.3209V45.8757C123.396 46.015 123.287 46.1217 123.151 46.1217ZM52.5987 45.8379C52.5987 45.9532 52.5805 46.0313 52.5467 46.0677C52.5148 46.1055 52.4152 46.125 52.2537 46.125H50.204C49.9827 46.125 49.876 46.0313 49.876 45.8379V36.9882C49.876 36.7265 49.9339 36.5046 50.0478 36.3165C50.1591 36.1296 50.4169 36.0353 50.8107 36.0353H54.472C55.0364 36.0353 55.5415 36.1166 55.9776 36.2833C56.415 36.446 56.7828 36.6719 57.0822 36.9648C57.377 37.2609 57.6042 37.602 57.7591 37.9958C57.9114 38.3922 57.9882 38.8179 57.9882 39.2794C57.9882 39.433 57.9733 39.6263 57.9472 39.8561C57.9166 40.0872 57.8555 40.33 57.765 40.5753C57.6732 40.8259 57.543 41.0798 57.3699 41.3324C57.1961 41.5862 56.9631 41.816 56.6702 42.0184C56.3759 42.2221 56.0127 42.3849 55.574 42.5085C55.1366 42.6329 54.6139 42.6941 54.0112 42.6941H52.5987V45.8379Z" fill="white"/>
<path d="M196.905 3.1094C194.994 1.18922 192.36 7.62939e-06 189.464 7.62939e-06H10.5349C7.63645 7.62939e-06 5.00419 1.18922 3.09507 3.1094C1.18401 5.03023 0 7.67942 0 10.5961V48.1822C0 51.095 1.18401 53.7455 3.09507 55.6657C5.00419 57.5885 7.63645 58.7764 10.5349 58.7764H189.464C192.36 58.7764 194.994 57.5885 196.905 55.6657C198.816 53.7455 200 51.095 200 48.1822V10.5961C200 7.67942 198.816 5.03023 196.905 3.1094ZM189.967 22.0092C189.967 22.1452 189.86 22.2552 189.723 22.2552H188.039C187.9 22.2552 187.79 22.1452 187.79 22.0092V15.0021C187.79 14.8628 187.9 14.7509 188.039 14.7509H189.723C189.86 14.7509 189.967 14.8628 189.967 15.0021V22.0092ZM184.916 17.2074C185.745 17.2074 186.363 17.4684 186.793 17.8844C187.285 18.3608 187.516 19.0339 187.516 19.7297C187.516 20.501 187.246 21.1226 186.798 21.5587C186.33 22.0111 185.666 22.2552 184.916 22.2552H181.727C181.59 22.2552 181.479 22.1452 181.479 22.0092V15.0021C181.479 14.8628 181.59 14.7509 181.727 14.7509H183.408C183.546 14.7509 183.66 14.8628 183.66 15.0021V17.2074H184.916ZM175.294 46.1663C174.82 46.3336 174.408 46.3512 174.207 46.3512C173.209 46.3512 172.252 45.9418 171.562 45.203C170.934 44.5312 170.531 43.5848 170.531 42.4373C170.531 41.2793 170.933 40.2834 171.594 39.5648C172.268 38.8273 173.209 38.3925 174.257 38.3925C174.799 38.3925 175.281 38.5045 175.703 38.7271C175.929 38.8475 176.138 38.9992 176.323 39.1853V38.8664C176.323 38.731 176.438 38.6184 176.574 38.6184H178.114C178.253 38.6184 178.366 38.731 178.366 38.8664V45.876C178.366 46.0147 178.253 46.1214 178.114 46.1214H176.574C176.438 46.1214 176.323 46.0147 176.323 45.876V45.5473C175.986 45.8584 175.627 46.0472 175.294 46.1663ZM166.199 45.9418C166.172 46.0472 166.073 46.1214 165.959 46.1214H164.568C164.468 46.1214 164.371 46.0583 164.335 45.9606L162.947 42.1346V45.876C162.947 46.0147 162.834 46.1214 162.698 46.1214H161.014C160.875 46.1214 160.766 46.0147 160.766 45.876V38.8664C160.766 38.731 160.875 38.6184 161.014 38.6184H163.457C163.556 38.6184 163.653 38.6815 163.688 38.7831L165.264 43.1253L166.833 38.7987C166.864 38.6958 166.957 38.6184 167.075 38.6184H169.512C169.649 38.6184 169.763 38.731 169.763 38.8664V45.876C169.763 46.0147 169.649 46.1214 169.512 46.1214H167.83C167.695 46.1214 167.587 46.0147 167.587 45.876V42.1346L166.199 45.9418ZM145.158 34.1922V35.714C145.158 35.8514 145.048 35.9627 144.913 35.9627H143.269C143.13 35.9627 143.02 35.8514 143.02 35.714V32.453C143.02 32.3124 143.13 32.2037 143.269 32.2037H143.944L146.438 26.8383C146.477 26.7504 146.566 26.6892 146.67 26.6892H148.19C148.281 26.6892 148.371 26.7406 148.413 26.8291L150.914 32.2037H151.589C151.727 32.2037 151.839 32.3124 151.839 32.453V33.7633L154.656 26.8558C154.69 26.7575 154.785 26.6892 154.892 26.6892H156.409C156.506 26.6892 156.599 26.7465 156.638 26.8448L159.494 33.8388C159.51 33.8713 159.516 33.9065 159.516 33.9442C159.516 34.0809 159.407 34.1922 159.268 34.1922H157.397C157.297 34.1922 157.201 34.1291 157.164 34.0288L155.65 29.9294L154.142 34.0158C154.112 34.1187 154.016 34.1922 153.905 34.1922H152.035C152.001 34.1922 151.972 34.189 151.939 34.1766C151.898 34.1551 151.865 34.1291 151.839 34.0985V35.714C151.839 35.8514 151.727 35.9627 151.589 35.9627H149.945C149.809 35.9627 149.697 35.8514 149.697 35.714V34.1922H145.158ZM143.27 14.3799C143.131 14.3799 143.02 14.2666 143.02 14.1319V12.4037C143.02 12.2664 143.131 12.1538 143.27 12.1538H148.604C148.74 12.1538 148.854 12.2664 148.854 12.4037V14.1319C148.854 14.2666 148.74 14.3799 148.604 14.3799H147.069V22.0092C147.069 22.1452 146.963 22.2552 146.825 22.2552H145.048C144.91 22.2552 144.8 22.1452 144.8 22.0092V14.3799H143.27ZM148.994 18.5183C148.994 17.4105 149.426 16.4035 150.148 15.6739C150.853 14.967 151.835 14.5257 152.964 14.5257C154.092 14.5257 155.072 14.967 155.777 15.6739C156.497 16.4035 156.931 17.4105 156.931 18.5183C156.931 19.6145 156.497 20.6175 155.774 21.3407C155.068 22.0456 154.086 22.485 152.964 22.485C151.839 22.485 150.855 22.0456 150.151 21.3407C149.428 20.6175 148.994 19.6145 148.994 18.5183ZM163.146 18.7468C163.413 19.0762 163.556 19.483 163.556 19.9204C163.556 20.5687 163.308 21.1884 162.812 21.6277C162.372 22.0131 161.75 22.2552 160.946 22.2552H157.944C157.809 22.2552 157.698 22.1452 157.698 22.0092V15.0021C157.698 14.8628 157.809 14.7509 157.944 14.7509H161.033C161.744 14.7509 162.276 14.9755 162.646 15.3126C163.101 15.7266 163.305 16.3001 163.305 16.8364C163.305 17.2126 163.181 17.5485 162.972 17.8316C162.856 17.9924 162.715 18.135 162.555 18.2521C162.788 18.381 162.986 18.5522 163.146 18.7468ZM153.215 39.5407C153.919 38.8306 154.902 38.3925 156.03 38.3925C157.159 38.3925 158.138 38.8306 158.842 39.5407C159.566 40.2691 159.998 41.2773 159.998 42.3852C159.998 43.4846 159.566 44.4831 158.842 45.2069C158.137 45.9144 157.155 46.3512 156.03 46.3512C154.905 46.3512 153.924 45.9144 153.219 45.2069C152.496 44.4831 152.061 43.4846 152.061 42.3852C152.061 41.2773 152.494 40.2691 153.215 39.5407ZM159.864 34.1922V34.1903C159.808 34.1903 159.745 34.1727 159.701 34.131C159.6 34.0419 159.587 33.8869 159.676 33.7841L161.516 31.6244C161.08 31.4883 160.716 31.2443 160.446 30.9201C160.069 30.4801 159.868 29.8982 159.868 29.2648C159.868 28.5625 160.146 27.883 160.68 27.3948C161.154 26.9639 161.824 26.6892 162.672 26.6892H165.719C165.858 26.6892 165.966 26.7979 165.966 26.9352V33.9442C165.966 34.0809 165.858 34.1922 165.719 34.1922H164.035C163.901 34.1922 163.788 34.0809 163.788 33.9442V31.9791L162.172 34.0796C162.127 34.1453 162.049 34.1922 161.964 34.1922H159.864ZM169.716 22.0092V21.6811C169.379 21.9903 169.018 22.1836 168.684 22.2995C168.21 22.4674 167.794 22.485 167.597 22.485C166.599 22.485 165.644 22.0756 164.954 21.3368C164.326 20.665 163.923 19.7186 163.923 18.5678C163.923 17.4164 164.326 16.4146 164.983 15.7006C165.657 14.9605 166.599 14.5257 167.649 14.5257C168.19 14.5257 168.671 14.6415 169.092 14.8609C169.321 14.982 169.528 15.1336 169.716 15.3185V15.0021C169.716 14.8628 169.827 14.7509 169.963 14.7509H171.507C171.646 14.7509 171.753 14.8628 171.753 15.0021V22.0092C171.753 22.1452 171.646 22.2552 171.507 22.2552H169.963C169.827 22.2552 169.716 22.1452 169.716 22.0092ZM176.945 22.485C176.638 22.485 176.245 22.4414 175.835 22.2865C175.573 22.1869 175.308 22.0443 175.056 21.8354V24.3485C175.056 24.4878 174.946 24.5978 174.808 24.5978H173.127C172.986 24.5978 172.874 24.4878 172.874 24.3485V15.0021C172.874 14.8628 172.986 14.7509 173.127 14.7509H174.668C174.808 14.7509 174.917 14.8628 174.917 15.0021V15.256C175.095 15.09 175.29 14.9605 175.49 14.8609C176.032 14.5895 176.597 14.5257 176.945 14.5257C177.993 14.5257 178.958 14.9429 179.652 15.6739C180.304 16.3658 180.712 17.3356 180.712 18.5027C180.712 19.5761 180.331 20.6143 179.625 21.3667C178.984 22.0456 178.077 22.485 176.945 22.485ZM143.02 44.3809C143.02 44.2461 143.13 44.1322 143.269 44.1322H143.944L146.438 38.7727C146.477 38.6815 146.566 38.6184 146.67 38.6184H148.19C148.281 38.6184 148.371 38.6718 148.413 38.7622L150.914 44.1322H151.589C151.727 44.1322 151.839 44.2461 151.839 44.3809V47.6458C151.839 47.7845 151.727 47.8938 151.589 47.8938H149.945C149.809 47.8938 149.697 47.7845 149.697 47.6458V46.1214H145.158V47.6458C145.158 47.7845 145.048 47.8938 144.913 47.8938H143.269C143.13 47.8938 143.02 47.7845 143.02 47.6458V44.3809ZM5.3368 53.4096C3.99983 52.0681 3.17187 50.2182 3.17187 48.1822V10.5961C3.17187 8.5614 3.99983 6.70827 5.3368 5.36414C6.67311 4.02066 8.51258 3.18751 10.5349 3.18751H135.695V55.5902H10.5349C8.51258 55.5902 6.67311 54.7564 5.3368 53.4096Z" fill="white"/>
<path d="M147.428 41.7587L146.382 44.1326H148.478L147.428 41.7587Z" fill="white"/>
<path d="M167.915 16.6144C167.382 16.6144 166.932 16.8168 166.614 17.1553C166.291 17.5022 166.101 17.9937 166.101 18.5678C166.101 19.1022 166.285 19.5623 166.607 19.8884C166.923 20.2035 167.374 20.3916 167.915 20.3916C168.443 20.3916 168.882 20.2035 169.188 19.8793C169.496 19.5467 169.675 19.0664 169.675 18.4903C169.675 17.9383 169.494 17.4625 169.181 17.1292C168.876 16.8071 168.441 16.6144 167.915 16.6144Z" fill="white"/>
<path d="M156.03 44.2585C156.56 44.2585 156.992 44.0587 157.301 43.7365C157.631 43.3915 157.818 42.9047 157.818 42.3852C157.818 41.8541 157.631 41.3607 157.296 41.0099C156.992 40.6844 156.56 40.4813 156.03 40.4813C155.5 40.4813 155.068 40.6844 154.762 41.0099C154.428 41.3607 154.24 41.8541 154.24 42.3852C154.24 42.9047 154.428 43.3915 154.76 43.7365C155.065 44.0587 155.5 44.2585 156.03 44.2585Z" fill="white"/>
<path d="M154.23 19.872C154.563 19.5264 154.749 19.0408 154.749 18.5181C154.749 17.9902 154.563 17.4942 154.23 17.1447C153.924 16.8186 153.491 16.6142 152.964 16.6142C152.432 16.6142 151.997 16.8186 151.693 17.1447C151.359 17.4942 151.175 17.9902 151.175 18.5181C151.175 19.0408 151.359 19.5264 151.691 19.872C151.997 20.1923 152.434 20.3921 152.964 20.3921C153.489 20.3921 153.924 20.1923 154.23 19.872Z" fill="white"/>
<path d="M161.057 17.348C161.12 17.2868 161.159 17.1983 161.159 17.074C161.159 16.9737 161.133 16.8644 161.055 16.7908C160.992 16.7296 160.888 16.6919 160.73 16.6919H159.874V17.458H160.73C160.856 17.458 160.979 17.4222 161.057 17.348Z" fill="white"/>
<path d="M160.83 19.3981H159.874V20.3179H160.83C161.048 20.3179 161.191 20.2658 161.278 20.1922C161.385 20.1005 161.415 19.9625 161.415 19.8564C161.415 19.7815 161.396 19.626 161.278 19.5205C161.193 19.4522 161.055 19.3981 160.83 19.3981Z" fill="white"/>
<path d="M162.733 29.938H163.787V28.6772H162.733C162.513 28.6772 162.337 28.7416 162.223 28.8523C162.11 28.9681 162.046 29.1406 162.046 29.3509C162.046 29.539 162.111 29.677 162.214 29.7707C162.345 29.8827 162.533 29.938 162.733 29.938Z" fill="white"/>
<path d="M146.382 32.2041H148.478L147.428 29.8283L146.382 32.2041Z" fill="white"/>
<path d="M176.767 16.6146C176.23 16.6146 175.78 16.8132 175.465 17.1367C175.143 17.4745 174.956 17.9509 174.956 18.5029C174.956 19.0926 175.136 19.5606 175.433 19.8828C175.748 20.2135 176.19 20.3918 176.704 20.3918C177.234 20.3918 177.689 20.1966 178.011 19.8633C178.337 19.5268 178.53 19.0464 178.53 18.4905C178.53 17.6665 178.008 16.6146 176.767 16.6146Z" fill="white"/>
<path d="M183.66 20.2659H184.737C184.793 20.2659 184.959 20.2659 185.103 20.1923C185.222 20.1298 185.336 20.0009 185.336 19.7295C185.336 19.5883 185.302 19.4308 185.192 19.3305C185.108 19.2498 184.963 19.1964 184.737 19.1964H183.66V20.2659Z" fill="white"/>
<path d="M174.523 40.4813C173.99 40.4813 173.542 40.6831 173.227 41.0222C172.897 41.3679 172.71 41.8606 172.71 42.4373C172.71 42.9684 172.897 43.4273 173.218 43.7554C173.534 44.0691 173.986 44.2585 174.523 44.2585C175.053 44.2585 175.493 44.0691 175.797 43.7456C176.109 43.4143 176.287 42.9333 176.287 42.3572C176.287 41.8066 176.104 41.3275 175.79 40.9962C175.49 40.6733 175.049 40.4813 174.523 40.4813Z" fill="white"/>
<path d="M41.7746 38.7571H22.2513L23.2875 35.8775C23.4203 35.9322 23.5661 35.966 23.7178 35.966H41.6347C42.1202 35.966 42.7034 35.5612 42.7034 35.1134V21.9559C42.7034 21.4137 42.2237 20.6912 41.4472 20.6912H39.1117C39.4587 20.0989 39.6598 19.4076 39.6598 18.6727C39.6598 16.4635 37.8626 14.667 35.6515 14.667C33.4443 14.667 31.6471 16.4635 31.6471 18.6727C31.6471 19.4076 31.8463 20.0989 32.1952 20.6912H29.2726L35.7316 9.58018C36.0212 9.08614 35.8513 8.4528 35.3566 8.16445C34.8639 7.8774 34.2286 8.04664 33.9416 8.53938L26.8779 20.6912H23.1593C22.5442 20.6912 22.0443 21.1911 22.0443 21.8094C22.0443 22.4259 22.5442 22.9238 23.1593 22.9238H40.8184V24.9305H25.6093C24.9929 24.9305 24.493 25.4304 24.493 26.0469C24.493 26.662 24.9929 27.1632 25.6093 27.1632H40.8171L40.8217 29.2539H26.9111C26.2973 29.2539 25.7961 29.7531 25.7961 30.3682C25.7961 30.984 26.2973 31.4852 26.9111 31.4852H40.8171L40.821 33.7354H24.5119L18.2742 15.7521C18.1668 15.4442 17.9117 15.2496 17.5595 15.2496H10.4737C9.85732 15.2496 9.35938 15.7495 9.35938 16.3678C9.35938 16.9823 9.85732 17.4842 10.4737 17.4842H16.5109L22.2981 34.163C22.043 34.2489 21.8243 34.4455 21.7273 34.7215L20.0531 39.3722C19.9483 39.6554 19.9907 39.9717 20.1677 40.2249C20.3415 40.4697 20.6272 40.6161 20.9267 40.6161H21.7904C21.2541 41.2098 20.9267 41.9935 20.9267 42.8501C20.9267 44.6967 22.4303 46.197 24.2756 46.197C26.1229 46.197 27.6252 44.6967 27.6252 42.8501C27.6252 41.9935 27.2991 41.2098 26.764 40.6161H35.753C35.22 41.2098 34.8919 41.9935 34.8919 42.8501C34.8919 44.6967 36.3942 46.197 38.2415 46.197C40.0868 46.197 41.5891 44.6967 41.5891 42.8501C41.5891 41.9935 41.2604 41.2098 40.7312 40.6161H41.7746C42.2882 40.6161 42.7034 40.2015 42.7034 39.686C42.7034 39.175 42.2882 38.7571 41.7746 38.7571ZM35.6515 16.7363C36.7196 16.7363 37.5893 17.6059 37.5893 18.6727C37.5893 19.7396 36.7196 20.6092 35.6515 20.6092C34.586 20.6092 33.7183 19.7396 33.7183 18.6727C33.7183 17.6059 34.586 16.7363 35.6515 16.7363ZM24.2756 44.3361C23.4567 44.3361 22.7876 43.6708 22.7876 42.8501C22.7876 42.026 23.4567 41.3595 24.2756 41.3595C25.0977 41.3595 25.7655 42.026 25.7655 42.8501C25.7655 43.6708 25.0977 44.3361 24.2756 44.3361ZM38.2415 44.3361C37.4207 44.3361 36.7535 43.6708 36.7535 42.8501C36.7535 42.026 37.4207 41.3595 38.2415 41.3595C39.0623 41.3595 39.7281 42.026 39.7281 42.8501C39.7281 43.6708 39.0623 44.3361 38.2415 44.3361Z" fill="white"/>
<path d="M27.4088 15.3955C29.2496 15.3955 30.7454 13.8997 30.7454 12.0603C30.7454 10.2201 29.2496 8.72435 27.4088 8.72435C25.5694 8.72435 24.0723 10.2201 24.0723 12.0603C24.0723 13.8997 25.5694 15.3955 27.4088 15.3955ZM27.4088 10.7936C28.1079 10.7936 28.6755 11.3631 28.6755 12.0603C28.6755 12.758 28.1079 13.3269 27.4088 13.3269C26.7117 13.3269 26.1435 12.758 26.1435 12.0603C26.1435 11.3631 26.7117 10.7936 27.4088 10.7936Z" fill="white"/>
</svg>
