<svg width="29" height="28" viewBox="0 0 29 28" fill="none" xmlns="http://www.w3.org/2000/svg">
<path fill-rule="evenodd" clip-rule="evenodd" d="M6.08133 0.875H20.3767H24.5682C25.0094 0.875 25.3624 1.18385 25.4506 1.62506L28.4068 14.1776C28.5391 14.6629 28.2303 15.1483 27.7449 15.2586C27.2596 15.3689 26.7743 15.06 26.664 14.5747L23.8402 2.68398H21.1929C22.9798 7.75794 23.3107 17.222 21.3253 23.3769H5.13272C3.91938 19.1633 3.76495 13.4717 4.27235 8.68449L0.875 2.68398L6.08133 0.875V0.875ZM5.24302 25.1859H21.4356C22.1856 25.1859 22.8033 25.7815 22.8033 26.5316V27.8773H3.89732V26.5316C3.89732 25.7815 4.49296 25.1859 5.24302 25.1859ZM13.3393 6.72109C14.0894 6.72109 14.685 7.33879 14.685 8.06679V16.1851C14.685 16.9131 14.0894 17.5308 13.3393 17.5308C12.5892 17.5308 11.9936 16.9131 11.9936 16.1851V8.06679C11.9936 7.33879 12.5892 6.72109 13.3393 6.72109Z" fill="white"/>
</svg>
