<svg width="24" height="25" viewBox="0 0 24 25" fill="none" xmlns="http://www.w3.org/2000/svg">
<path d="M17.9544 6.21662C18.7295 6.99177 18.7295 8.24853 17.9544 9.02368C17.1792 9.79883 15.9225 9.79883 15.1473 9.02368C14.3722 8.24853 14.3722 6.99177 15.1473 6.21662C15.9225 5.44147 17.1792 5.44147 17.9544 6.21662Z" fill="#EB222D"/>
<path fill-rule="evenodd" clip-rule="evenodd" d="M13.4235 3.57686L3.5587 13.4417C2.78355 14.2169 2.78355 15.4736 3.5587 16.2488L7.76929 20.4594C8.54444 21.2345 9.80121 21.2345 10.5764 20.4594L20.4412 10.5945C20.9251 10.1106 21.1256 9.41151 20.9717 8.74466L20.1822 5.32356C20.0116 4.58398 19.4341 4.00649 18.6945 3.83582L15.2734 3.04633C14.6066 2.89244 13.9075 3.09294 13.4235 3.57686ZM1.4534 11.3364C-0.484468 13.2743 -0.484468 16.4162 1.4534 18.3541L5.664 22.5647C7.60187 24.5025 10.7438 24.5025 12.6817 22.5647L22.5465 12.6998C23.7563 11.49 24.2575 9.74229 23.8728 8.07518L23.0833 4.65407C22.6567 2.80514 21.2129 1.3614 19.364 0.934725L15.9429 0.145239C14.2758 -0.239479 12.5281 0.261759 11.3183 1.47157L1.4534 11.3364Z" fill="#EB222D"/>
</svg>
