<svg width="28" height="28" viewBox="0 0 28 28" fill="none" xmlns="http://www.w3.org/2000/svg">
<path d="M27.4996 7.60832C27.7227 7.24713 27.8174 6.82118 27.7683 6.39947C27.7191 5.97776 27.5291 5.58498 27.2289 5.28477L23.2371 1.29263C22.5494 0.605035 21.6168 0.21875 20.6443 0.21875C19.6719 0.21875 18.7393 0.605035 18.0516 1.29263L1.29263 18.0516C0.605035 18.7393 0.21875 19.6719 0.21875 20.6443C0.21875 21.6168 0.605035 22.5494 1.29263 23.2371L5.28477 27.2292C5.58498 27.5294 5.97776 27.7195 6.39947 27.7686C6.82118 27.8177 7.24713 27.723 7.60832 27.4999L1.83927 21.7308L2.53535 21.0347L8.33965 26.839L9.12014 26.0585L3.31583 20.2542L4.01191 19.5581L9.81621 25.3624L10.5967 24.582L4.79239 18.7777L5.48847 18.0816L11.2928 23.8859L12.0733 23.1054L6.26896 17.3011L6.96503 16.605L12.7693 22.4093L13.5498 21.6288L7.74552 15.8245L8.44159 15.1285L14.2459 20.9328L15.0264 20.1523L9.22208 14.348L9.91816 13.6519L15.7225 19.4562L16.5029 18.6757L10.6986 12.8714L11.3947 12.1753L17.199 17.9796L17.9795 17.1991L12.1752 11.3948L12.8713 10.6988L18.6756 16.5031L19.4561 15.7226L13.6518 9.91828L14.3478 9.2222L20.1521 15.0265L20.9326 14.246L15.1283 8.44172L15.8244 7.74564L21.6287 13.5499L22.4092 12.7695L16.6049 6.96515L17.301 6.26908L23.1053 12.0734L23.8858 11.2929L18.0815 5.48859L18.7775 4.79252L24.5818 10.5968L25.3623 9.81633L19.558 4.01203L20.2541 3.31595L26.0584 9.12026L26.8389 8.33977L21.0346 2.53547L21.7307 1.83939L27.4996 7.60832Z" fill="white"/>
</svg>
