<svg width="13" height="28" viewBox="0 0 13 28" fill="none" xmlns="http://www.w3.org/2000/svg">
<path d="M9.465 8.37725V5.18C9.465 4.84925 9.2445 4.62875 8.91375 4.62875H8.3625V0.77C8.3625 0.43925 8.142 0.21875 7.81125 0.21875H4.50375C4.173 0.21875 3.9525 0.43925 3.9525 0.77V4.62875H3.40125C3.0705 4.62875 2.85 4.84925 2.85 5.18V8.37725C1.19625 9.47975 0.09375 11.354 0.09375 13.4487V27.23C0.09375 27.5607 0.31425 27.7812 0.645 27.7812H11.67C12.0007 27.7812 12.2212 27.5607 12.2212 27.23V13.4487C12.2212 11.2989 11.1187 9.47975 9.465 8.37725ZM6.1575 10.6925C7.701 10.6925 8.91375 11.9052 8.91375 13.4487C8.91375 14.9922 7.701 16.205 6.1575 16.205C4.614 16.205 3.40125 14.9922 3.40125 13.4487C3.40125 11.9052 4.614 10.6925 6.1575 10.6925ZM5.055 1.32125H7.26V2.42375H6.70875C6.378 2.42375 6.1575 2.64425 6.1575 2.975C6.1575 3.30575 6.378 3.52625 6.70875 3.52625H7.26V4.62875H5.055V1.32125ZM3.9525 5.73125H4.50375H7.81125H8.3625V7.826C7.701 7.55037 6.92925 7.385 6.1575 7.385C5.38575 7.385 4.614 7.55037 3.9525 7.826V5.73125Z" fill="white"/>
</svg>
