<svg width="24" height="24" viewBox="0 0 24 24" fill="none" xmlns="http://www.w3.org/2000/svg">
<path fill-rule="evenodd" clip-rule="evenodd" d="M2.06543 5.8208C2.06543 3.61166 3.85629 1.8208 6.06543 1.8208H14.0752C14.6275 1.8208 15.0752 2.26852 15.0752 2.8208C15.0752 3.37309 14.6275 3.8208 14.0752 3.8208H6.06543C4.96086 3.8208 4.06543 4.71623 4.06543 5.8208V18.1792C4.06543 19.2838 4.96086 20.1792 6.06543 20.1792H14.0752C14.6275 20.1792 15.0752 20.6269 15.0752 21.1792C15.0752 21.7315 14.6275 22.1792 14.0752 22.1792H6.06543C3.85629 22.1792 2.06543 20.3883 2.06543 18.1792V5.8208ZM16.8644 6.35674C17.3189 6.043 17.9417 6.15712 18.2555 6.61164L21.7582 11.686C21.9969 12.0319 21.9939 12.4902 21.7506 12.8329L18.2479 17.7675C17.9282 18.2178 17.304 18.3238 16.8537 18.0041C16.4033 17.6844 16.2974 17.0602 16.617 16.6098L18.999 13.2541H8.48564C7.93335 13.2541 7.48564 12.8064 7.48564 12.2541C7.48564 11.7018 7.93335 11.2541 8.48564 11.2541H19.0298L16.6095 7.74779C16.2958 7.29327 16.4099 6.67047 16.8644 6.35674Z" fill="#EB222D"/>
</svg>
