<svg width="18" height="28" viewBox="0 0 18 28" fill="none" xmlns="http://www.w3.org/2000/svg">
<path fill-rule="evenodd" clip-rule="evenodd" d="M2.83461 11.5334C4.22876 10.1036 4.79917 8.37744 4.72966 6.53753H5.87968V8.26083H10.455V6.15208C10.6061 5.92518 10.9267 5.44438 11.1765 5.06985C11.2834 4.90958 11.462 4.81422 11.6545 4.81422H12.7941C12.9676 4.81422 13.1279 4.8912 13.237 5.02389C14.3784 6.50019 15.8375 9.13799 16.2264 10.6976C16.2896 10.9526 16.5205 11.133 16.7836 11.133C17.0754 11.133 17.3236 10.9107 17.3546 10.62C17.6419 7.97299 16.7187 4.64284 15.9732 1.95338C15.8467 1.49703 15.7253 1.05912 15.6158 0.646129C15.5491 0.395102 15.3205 0.21875 15.0603 0.21875H4.14604C3.9289 0.21875 3.72957 0.341679 3.6325 0.536412L3.21718 1.36762H0.699434C0.384644 1.36762 0.125 1.62669 0.125 1.94205V5.96309C0.125 6.27788 0.384644 6.53753 0.699434 6.53753H1.91379C2.18837 7.95753 2.1809 9.44474 1.85979 11.0187C1.85175 11.056 1.8483 11.0945 1.8483 11.133C1.8483 11.4484 2.10737 11.7074 2.42274 11.7074C2.57783 11.7074 2.72661 11.6448 2.83461 11.5334ZM3.04667 27.7813H13.2888C13.7559 27.7813 14.2022 27.5912 14.5256 27.254C14.8473 26.918 15.0202 26.4636 15.0012 25.9977V25.9966C14.9583 24.9648 14.8921 23.3761 14.821 21.6707C14.7226 19.3114 14.6149 16.7289 14.5468 15.0898C14.4957 13.8547 13.8759 12.711 12.8706 11.9924H12.8695C12.641 11.8297 12.4005 11.6576 12.1612 11.4864C11.9926 11.3659 11.8247 11.2457 11.662 11.1296C11.0773 10.7114 10.6763 10.0968 10.5235 9.40977H5.81142C5.65863 10.0968 5.2571 10.7114 4.67232 11.1296C4.4865 11.2623 4.29377 11.4002 4.10113 11.538C3.88584 11.6921 3.67068 11.846 3.46544 11.9924C2.4596 12.711 1.84036 13.8547 1.78924 15.0898C1.67148 17.9137 1.43711 23.5386 1.33486 25.9977C1.31533 26.4636 1.48708 26.918 1.80934 27.254C2.13217 27.5912 2.58023 27.7813 3.04667 27.7813ZM10.4569 13.4308H10.4649C11.4087 13.4308 12.198 14.1804 12.248 15.1225C12.3956 17.9246 12.7615 24.8891 12.7615 24.8891C12.7632 24.9063 12.7638 24.9229 12.7638 24.9402C12.7638 25.2555 12.5047 25.5146 12.1894 25.5146C11.878 25.5146 11.6201 25.2613 11.6149 24.9499L11.1002 15.1823C11.0819 14.8388 10.809 14.5797 10.4649 14.5797H10.4569C10.1415 14.5797 9.88244 14.32 9.88244 14.0052C9.88244 13.6899 10.1415 13.4308 10.4569 13.4308Z" fill="white"/>
</svg>
