<svg width="28" height="21" viewBox="0 0 28 21" fill="none" xmlns="http://www.w3.org/2000/svg">
<path fill-rule="evenodd" clip-rule="evenodd" d="M4.76584 7.25002C5.32495 6.02696 5.84912 4.76895 6.54802 3.37116C6.93241 2.70721 7.35175 2.11315 8.12053 2.04326H19.8969C20.6657 2.11315 21.085 2.70721 21.4694 3.37116C22.1683 4.76895 22.6925 6.02696 23.2516 7.25002H4.76584ZM10.2871 12.2821H17.6954C18.1497 12.2821 18.4991 12.6665 18.4991 13.1207C18.4991 13.5401 18.1497 13.9245 17.6954 13.9245H10.2871C9.86776 13.9245 9.48337 13.5401 9.48337 13.1207C9.48337 12.6665 9.86776 12.2821 10.2871 12.2821ZM8.12053 0.15625C6.86252 0.15625 6.09374 0.610531 5.0454 2.07821L3.29816 6.02696H0.642365C0.223029 6.02696 -0.545754 8.19353 2.24982 8.26342L1.30631 10.5348C1.34126 13.4352 1.34126 16.3007 1.34126 19.1662C1.34126 19.7602 1.83048 20.2494 2.42454 20.2494H6.05879C6.65285 20.2494 7.10713 19.7602 7.10713 19.1662V16.7899H20.8753V19.1662C20.8753 19.7602 21.3646 20.2494 21.9586 20.2494H25.5929C26.1869 20.2494 26.6412 19.7602 26.6412 19.1662C26.6412 16.3007 26.6762 13.4352 26.6762 10.5348L25.7327 8.26342C28.5632 8.19353 27.7594 6.02696 27.3751 6.02696H24.7193L22.972 2.07821C21.9237 0.610531 21.1549 0.15625 19.8969 0.15625H8.12053ZM22.7274 10.7445C21.7839 10.7445 20.9802 11.5133 20.9802 12.4917C20.9802 13.4352 21.7839 14.239 22.7274 14.239C23.7059 14.239 24.4746 13.4352 24.4746 12.4917C24.4746 11.5133 23.7059 10.7445 22.7274 10.7445ZM5.29001 10.7445C6.23352 10.7445 7.03724 11.5133 7.03724 12.4917C7.03724 13.4352 6.23352 14.239 5.29001 14.239C4.31156 14.239 3.54277 13.4352 3.54277 12.4917C3.54277 11.5133 4.31156 10.7445 5.29001 10.7445Z" fill="white"/>
</svg>
