<svg width="42" height="42" viewBox="0 0 42 42" fill="none" xmlns="http://www.w3.org/2000/svg">
<path fill-rule="evenodd" clip-rule="evenodd" d="M21 38C30.3888 38 38 30.3888 38 21C38 11.6112 30.3888 4 21 4C11.6112 4 4 11.6112 4 21C4 30.3888 11.6112 38 21 38ZM21 42C32.598 42 42 32.598 42 21C42 9.40202 32.598 0 21 0C9.40202 0 0 9.40202 0 21C0 32.598 9.40202 42 21 42Z" fill="white"/>
<path fill-rule="evenodd" clip-rule="evenodd" d="M31.498 16.3251L18.7607 30.7238L10.7806 24.5852L13.2194 21.4148L18.2393 25.2762L28.502 13.6749L31.498 16.3251Z" fill="white"/>
</svg>
