<svg width="42" height="42" viewBox="0 0 42 42" fill="none" xmlns="http://www.w3.org/2000/svg">
<path fill-rule="evenodd" clip-rule="evenodd" d="M17.3248 24.0281C16.8678 23.8131 16.5508 23.3491 16.5508 22.8111C16.5508 22.0691 17.1528 21.4671 17.8938 21.4671C18.1168 21.4671 18.3268 21.5221 18.5128 21.6181C19.2638 21.9861 20.1078 22.1921 20.9998 22.1921C21.8938 22.1921 22.7388 21.9851 23.4918 21.6161C23.6758 21.5211 23.8848 21.4671 24.1058 21.4671C24.8468 21.4671 25.4488 22.0691 25.4488 22.8111C25.4488 23.3491 25.1308 23.8151 24.6728 24.0291C24.1668 24.2781 23.6308 24.4771 23.0728 24.6191L24.9078 26.6991C25.3988 27.2551 25.3458 28.1051 24.7898 28.5961C24.2338 29.0861 23.3838 29.0331 22.8928 28.4771L20.9988 26.3311L19.1048 28.4771C18.6138 29.0331 17.7638 29.0861 17.2078 28.5961C16.6518 28.1051 16.5988 27.2551 17.0898 26.6991L18.9248 24.6191C18.3668 24.4761 17.8318 24.2771 17.3248 24.0281ZM20.9998 13.0681C23.2698 13.0681 25.1138 14.9121 25.1138 17.1821C25.1138 19.4521 23.2698 21.2961 20.9998 21.2961C18.7298 21.2961 16.8858 19.4521 16.8858 17.1821C16.8858 14.9121 18.7298 13.0681 20.9998 13.0681ZM20.9998 15.5671C21.8908 15.5671 22.6148 16.2911 22.6148 17.1821C22.6148 18.0731 21.8908 18.7971 20.9998 18.7971C20.1088 18.7971 19.3848 18.0731 19.3848 17.1821C19.3848 16.2911 20.1088 15.5671 20.9998 15.5671Z" fill="#BDBDBD"/>
<circle cx="21" cy="21" r="19.5" stroke="#BDBDBD" stroke-width="3"/>
</svg>
