<svg width="42" height="42" viewBox="0 0 42 42" fill="none" xmlns="http://www.w3.org/2000/svg">
<path d="M6 13V33C6 36.866 9.13401 40 13 40H29C32.866 40 36 36.866 36 33V13" stroke="#EB222D" stroke-width="4"/>
<path d="M0.711728 14.4702C-0.133169 15.1817 -0.241315 16.4434 0.470178 17.2883C1.18167 18.1332 2.44337 18.2413 3.28827 17.5298L0.711728 14.4702ZM38.7117 17.5298C39.5566 18.2413 40.8183 18.1332 41.5298 17.2883C42.2413 16.4434 42.1332 15.1817 41.2883 14.4702L38.7117 17.5298ZM26.1531 4.33944L24.8648 5.86926L26.1531 4.33944ZM3.28827 17.5298L17.1352 5.86926L14.5586 2.80962L0.711728 14.4702L3.28827 17.5298ZM24.8648 5.86926L38.7117 17.5298L41.2883 14.4702L27.4414 2.80962L24.8648 5.86926ZM17.1352 5.86926C19.3685 3.98855 22.6315 3.98855 24.8648 5.86926L27.4414 2.80962C23.7191 -0.324899 18.2809 -0.324899 14.5586 2.80962L17.1352 5.86926Z" fill="#EB222D"/>
<path d="M15 30C15 28.3431 16.3431 27 18 27H24C25.6569 27 27 28.3431 27 30V40H15V30Z" stroke="#EB222D" stroke-width="4"/>
<circle cx="21" cy="12" r="3" fill="#EB222D"/>
</svg>
