<svg width="42" height="42" viewBox="0 0 42 42" fill="none" xmlns="http://www.w3.org/2000/svg">
<path d="M7 11H32V7H7V11ZM32 17H7V21H32V17ZM36 25V34.5H40V25H36ZM36 15V24.5H40V15H36ZM7 17C5.34315 17 4 15.6569 4 14H0C0 17.866 3.13401 21 7 21V17ZM32 21C34.2091 21 36 22.7909 36 25H40C40 20.5817 36.4183 17 32 17V21ZM32 11C34.2091 11 36 12.7909 36 15H40C40 10.5817 36.4183 7 32 7V11ZM7 7C3.13401 7 0 10.134 0 14H4C4 12.3431 5.34315 11 7 11V7Z" fill="#EB222D"/>
<path d="M2 15V34C2 37.3137 4.68629 40 8 40H32C35.3137 40 38 37.3137 38 34V25" stroke="#EB222D" stroke-width="4"/>
</svg>
