<svg width="42" height="42" viewBox="0 0 42 42" fill="none" xmlns="http://www.w3.org/2000/svg">
<circle cx="21" cy="18" r="7" stroke="#EB222D" stroke-width="4"/>
<path d="M37 18C37 24.2457 33.6261 29.7724 29.6886 33.8362C27.7362 35.8513 25.7024 37.4449 24.006 38.5221C23.1567 39.0614 22.4181 39.4546 21.8393 39.7056C21.3409 39.9216 21.0797 39.9795 21.0111 39.9947C21.0065 39.9957 21.0029 39.9965 21 39.9972C20.9971 39.9965 20.9935 39.9957 20.9889 39.9947C20.9203 39.9795 20.6591 39.9216 20.1607 39.7056C19.5819 39.4546 18.8433 39.0614 17.994 38.5221C16.2976 37.4449 14.2638 35.8513 12.3114 33.8362C8.37392 29.7724 5 24.2457 5 18C5 9.16344 12.1634 2 21 2C29.8366 2 37 9.16344 37 18Z" stroke="#EB222D" stroke-width="4"/>
</svg>
