<svg width="48" height="48" viewBox="0 0 48 48" fill="none" xmlns="http://www.w3.org/2000/svg">
<path fill-rule="evenodd" clip-rule="evenodd" d="M24.168 3C31.314 3 39.144 4.02 41.982 4.869C43.77 5.58 44.946 7.314 44.946 9.24C45 13.668 45 21.834 45 28.599C45 38.382 30.783 47.925 24.078 48H24C17.328 48 3 38.421 3 28.599C3 21.834 3 13.668 3.054 9.24C3.054 7.314 4.23 5.58 6.018 4.869C8.877 4.011 16.812 2.985 24 3H24.168ZM32.427 16.053C32.847 16.08 33.249 16.176 33.627 16.362C34.59 16.842 35.235 17.832 35.286 18.909C35.301 19.233 35.262 19.557 35.175 19.869C35.046 20.319 34.812 20.718 34.506 21.069C31.08 24.657 27.57 28.167 23.982 31.593C23.739 31.806 23.472 31.989 23.175 32.121C22.407 32.457 21.516 32.457 20.751 32.121C20.451 31.989 20.187 31.806 19.941 31.593C17.838 29.583 15.78 27.528 13.773 25.425C13.467 25.071 13.233 24.675 13.104 24.225C13.005 23.868 12.969 23.496 13.002 23.127C13.038 22.758 13.14 22.398 13.305 22.065C13.449 21.777 13.641 21.51 13.869 21.282C14.631 20.52 15.774 20.223 16.812 20.517C17.307 20.658 17.739 20.928 18.111 21.282L21.963 25.134C24.729 22.365 27.438 19.536 30.267 16.83C30.372 16.74 30.372 16.74 30.48 16.653C30.942 16.323 31.446 16.128 32.013 16.062C32.151 16.053 32.289 16.047 32.427 16.053Z" fill="#333333"/>
</svg>
