<svg width="22" height="25" viewBox="0 0 22 25" fill="none" xmlns="http://www.w3.org/2000/svg">
<path fill-rule="evenodd" clip-rule="evenodd" d="M19.1024 12.5L15.606 8.48012C15.3888 8.2303 15.3888 7.82527 15.606 7.57545C15.8232 7.32564 16.1754 7.32564 16.3926 7.57545L20.8368 12.6866C20.9413 12.8064 21 12.9692 21 13.1389C21 13.3086 20.9413 13.4714 20.8368 13.5912L16.3926 18.7023C16.1754 18.9522 15.8232 18.9522 15.606 18.7023C15.3888 18.4525 15.3888 18.0475 15.606 17.7977L19.1024 13.7778L7.11091 13.7778C6.8041 13.7778 6.55539 13.4917 6.55539 13.1389C6.55539 12.786 6.8041 12.5 7.11091 12.5L19.1024 12.5ZM12.6662 22.7222C12.973 22.7222 13.2217 23.0083 13.2217 23.3611C13.2217 23.714 12.973 24 12.6662 24L3.77778 24C2.24375 24 1.00016 22.5698 1.00016 20.8056L1.00016 4.19444C1.00016 2.4302 2.24375 1 3.77778 1L12.6662 1C12.973 1 13.2217 1.28604 13.2217 1.63889C13.2217 1.99174 12.973 2.27778 12.6662 2.27778L3.77778 2.27778C2.85736 2.27778 2.11121 3.1359 2.11121 4.19444L2.11121 20.8056C2.11121 21.8641 2.85736 22.7222 3.77778 22.7222L12.6662 22.7222Z" fill="#EB222D"/>
<path d="M19.1024 12.5V13.5H21.2976L19.857 11.8437L19.1024 12.5ZM15.606 8.48012L14.8514 9.13628L14.8515 9.1364L15.606 8.48012ZM16.3926 7.57545L17.1472 6.9193L16.3926 7.57545ZM20.8368 12.6866L20.0822 13.3427L20.083 13.3437L20.8368 12.6866ZM20.8368 13.5912L20.083 12.9341L20.0822 12.9351L20.8368 13.5912ZM16.3926 18.7023L15.638 18.0462L16.3926 18.7023ZM15.606 17.7977L14.8515 17.1414L14.8514 17.1415L15.606 17.7977ZM19.1024 13.7778L19.857 14.4341L21.2976 12.7778H19.1024V13.7778ZM19.857 11.8437L16.3605 7.82384L14.8515 9.1364L18.3479 13.1563L19.857 11.8437ZM16.3606 7.82396C16.4274 7.90079 16.4431 7.97788 16.4431 8.02779C16.4431 8.07769 16.4274 8.15479 16.3606 8.23161L14.8514 6.9193C14.307 7.54538 14.307 8.5102 14.8514 9.13628L16.3606 7.82396ZM16.3606 8.23161C16.2879 8.31525 16.1592 8.38809 15.9993 8.38809C15.8394 8.38809 15.7107 8.31525 15.638 8.23161L17.1472 6.9193C16.5314 6.21102 15.4672 6.21102 14.8514 6.9193L16.3606 8.23161ZM15.638 8.23161L20.0822 13.3427L21.5914 12.0304L17.1472 6.9193L15.638 8.23161ZM20.083 13.3437C20.0175 13.2685 20 13.1931 20 13.1389H22C22 12.7453 21.8651 12.3443 21.5906 12.0295L20.083 13.3437ZM20 13.1389C20 13.0847 20.0175 13.0093 20.083 12.9341L21.5906 14.2483C21.8651 13.9335 22 13.5325 22 13.1389H20ZM20.0822 12.9351L15.638 18.0462L17.1472 19.3585L21.5914 14.2474L20.0822 12.9351ZM15.638 18.0462C15.7107 17.9625 15.8394 17.8897 15.9993 17.8897C16.1592 17.8897 16.2879 17.9625 16.3606 18.0462L14.8514 19.3585C15.4672 20.0668 16.5314 20.0668 17.1472 19.3585L15.638 18.0462ZM16.3606 18.0462C16.4274 18.123 16.4431 18.2001 16.4431 18.25C16.4431 18.2999 16.4274 18.377 16.3606 18.4538L14.8514 17.1415C14.307 17.7676 14.307 18.7324 14.8514 19.3585L16.3606 18.0462ZM16.3605 18.454L19.857 14.4341L18.3479 13.1215L14.8515 17.1414L16.3605 18.454ZM19.1024 12.7778L7.11091 12.7778V14.7778L19.1024 14.7778V12.7778ZM7.11091 12.7778C7.28285 12.7778 7.40822 12.8603 7.47272 12.9345C7.53547 13.0067 7.55539 13.082 7.55539 13.1389H5.55539C5.55539 13.9082 6.12511 14.7778 7.11091 14.7778V12.7778ZM7.55539 13.1389C7.55539 13.1958 7.53547 13.2711 7.47272 13.3433C7.40822 13.4175 7.28285 13.5 7.11091 13.5V11.5C6.12511 11.5 5.55539 12.3696 5.55539 13.1389H7.55539ZM7.11091 13.5L19.1024 13.5V11.5L7.11091 11.5V13.5ZM12.6662 23.7222C12.4942 23.7222 12.3689 23.6397 12.3044 23.5655C12.2416 23.4933 12.2217 23.418 12.2217 23.3611H14.2217C14.2217 22.5918 13.652 21.7222 12.6662 21.7222V23.7222ZM12.2217 23.3611C12.2217 23.3042 12.2416 23.2289 12.3044 23.1567C12.3689 23.0825 12.4942 23 12.6662 23V25C13.652 25 14.2217 24.1304 14.2217 23.3611H12.2217ZM12.6662 23L3.77778 23V25L12.6662 25V23ZM3.77778 23C2.92274 23 2.00016 22.1534 2.00016 20.8056H0.000162125C0.000162125 22.9862 1.56475 25 3.77778 25V23ZM2.00016 20.8056L2.00016 4.19444H0.000162125L0.000162125 20.8056H2.00016ZM2.00016 4.19444C2.00016 2.84662 2.92274 2 3.77778 2V0C1.56475 0 0.000162125 2.01378 0.000162125 4.19444H2.00016ZM3.77778 2L12.6662 2V0L3.77778 0V2ZM12.6662 2C12.4942 2 12.3689 1.91747 12.3044 1.84328C12.2416 1.77112 12.2217 1.69582 12.2217 1.63889H14.2217C14.2217 0.869619 13.652 0 12.6662 0V2ZM12.2217 1.63889C12.2217 1.58196 12.2416 1.50665 12.3044 1.43449C12.3689 1.36031 12.4942 1.27778 12.6662 1.27778L12.6662 3.27778C13.652 3.27778 14.2217 2.40816 14.2217 1.63889H12.2217ZM12.6662 1.27778L3.77778 1.27778V3.27778L12.6662 3.27778L12.6662 1.27778ZM3.77778 1.27778C2.17836 1.27778 1.11121 2.71948 1.11121 4.19444H3.11121C3.11121 3.55232 3.53636 3.27778 3.77778 3.27778V1.27778ZM1.11121 4.19444L1.11121 20.8056H3.11121L3.11121 4.19444H1.11121ZM1.11121 20.8056C1.11121 22.2805 2.17836 23.7222 3.77778 23.7222V21.7222C3.53636 21.7222 3.11121 21.4477 3.11121 20.8056H1.11121ZM3.77778 23.7222L12.6662 23.7222V21.7222L3.77778 21.7222V23.7222Z" fill="#EB222D"/>
</svg>
