<svg width="24" height="24" viewBox="0 0 24 24" fill="none" xmlns="http://www.w3.org/2000/svg">
<path fill-rule="evenodd" clip-rule="evenodd" d="M4.8 3H5.2C6.08958 3 6.57634 3.00233 6.9261 3.03091L6.96566 3.03434L6.96909 3.0739C6.99767 3.42366 7 3.91042 7 4.8V5.2C7 6.08958 6.99767 6.57634 6.96909 6.9261L6.96566 6.96566L6.9261 6.96909C6.57634 6.99767 6.08958 7 5.2 7H4.8C3.91042 7 3.42366 6.99767 3.0739 6.96909L3.03434 6.96566L3.03091 6.9261C3.00233 6.57634 3 6.08958 3 5.2V4.8C3 3.91042 3.00233 3.42366 3.03091 3.0739L3.03434 3.03434L3.0739 3.03091C3.42366 3.00233 3.91042 3 4.8 3ZM0 4.8C0 3.11984 0 2.27976 0.32698 1.63803C0.614601 1.07354 1.07354 0.614601 1.63803 0.32698C2.27976 0 3.11984 0 4.8 0H5.2C6.88016 0 7.72024 0 8.36197 0.32698C8.92646 0.614601 9.3854 1.07354 9.67302 1.63803C10 2.27976 10 3.11984 10 4.8V5.2C10 6.88016 10 7.72024 9.67302 8.36197C9.3854 8.92646 8.92646 9.3854 8.36197 9.67302C7.72024 10 6.88016 10 5.2 10H4.8C3.11984 10 2.27976 10 1.63803 9.67302C1.07354 9.3854 0.614601 8.92646 0.32698 8.36197C0 7.72024 0 6.88016 0 5.2V4.8ZM4.8 17H5.2C6.08958 17 6.57634 17.0023 6.9261 17.0309L6.96566 17.0343L6.96909 17.0739C6.99767 17.4237 7 17.9104 7 18.8V19.2C7 20.0896 6.99767 20.5763 6.96909 20.9261L6.96566 20.9657L6.9261 20.9691C6.57634 20.9977 6.08958 21 5.2 21H4.8C3.91042 21 3.42366 20.9977 3.0739 20.9691L3.03434 20.9657L3.03091 20.9261C3.00233 20.5763 3 20.0896 3 19.2V18.8C3 17.9104 3.00233 17.4237 3.03091 17.0739L3.03434 17.0343L3.0739 17.0309C3.42366 17.0023 3.91042 17 4.8 17ZM0 18.8C0 17.1198 0 16.2798 0.32698 15.638C0.614601 15.0735 1.07354 14.6146 1.63803 14.327C2.27976 14 3.11984 14 4.8 14H5.2C6.88016 14 7.72024 14 8.36197 14.327C8.92646 14.6146 9.3854 15.0735 9.67302 15.638C10 16.2798 10 17.1198 10 18.8V19.2C10 20.8802 10 21.7202 9.67302 22.362C9.3854 22.9265 8.92646 23.3854 8.36197 23.673C7.72024 24 6.88016 24 5.2 24H4.8C3.11984 24 2.27976 24 1.63803 23.673C1.07354 23.3854 0.614601 22.9265 0.32698 22.362C0 21.7202 0 20.8802 0 19.2V18.8ZM19.2 3H18.8C17.9104 3 17.4237 3.00233 17.0739 3.03091L17.0343 3.03434L17.0309 3.0739C17.0023 3.42366 17 3.91042 17 4.8V5.2C17 6.08958 17.0023 6.57634 17.0309 6.9261L17.0343 6.96566L17.0739 6.96909C17.4237 6.99767 17.9104 7 18.8 7H19.2C20.0896 7 20.5763 6.99767 20.9261 6.96909L20.9657 6.96566L20.9691 6.9261C20.9977 6.57634 21 6.08958 21 5.2V4.8C21 3.91042 20.9977 3.42366 20.9691 3.0739L20.9657 3.03434L20.9261 3.03091C20.5763 3.00233 20.0896 3 19.2 3ZM14.327 1.63803C14 2.27976 14 3.11984 14 4.8V5.2C14 6.88016 14 7.72024 14.327 8.36197C14.6146 8.92646 15.0735 9.3854 15.638 9.67302C16.2798 10 17.1198 10 18.8 10H19.2C20.8802 10 21.7202 10 22.362 9.67302C22.9265 9.3854 23.3854 8.92646 23.673 8.36197C24 7.72024 24 6.88016 24 5.2V4.8C24 3.11984 24 2.27976 23.673 1.63803C23.3854 1.07354 22.9265 0.614601 22.362 0.32698C21.7202 0 20.8802 0 19.2 0H18.8C17.1198 0 16.2798 0 15.638 0.32698C15.0735 0.614601 14.6146 1.07354 14.327 1.63803ZM18.8 17H19.2C20.0896 17 20.5763 17.0023 20.9261 17.0309L20.9657 17.0343L20.9691 17.0739C20.9977 17.4237 21 17.9104 21 18.8V19.2C21 20.0896 20.9977 20.5763 20.9691 20.9261L20.9657 20.9657L20.9261 20.9691C20.5763 20.9977 20.0896 21 19.2 21H18.8C17.9104 21 17.4237 20.9977 17.0739 20.9691L17.0343 20.9657L17.0309 20.9261C17.0023 20.5763 17 20.0896 17 19.2V18.8C17 17.9104 17.0023 17.4237 17.0309 17.0739L17.0343 17.0343L17.0739 17.0309C17.4237 17.0023 17.9104 17 18.8 17ZM14 18.8C14 17.1198 14 16.2798 14.327 15.638C14.6146 15.0735 15.0735 14.6146 15.638 14.327C16.2798 14 17.1198 14 18.8 14H19.2C20.8802 14 21.7202 14 22.362 14.327C22.9265 14.6146 23.3854 15.0735 23.673 15.638C24 16.2798 24 17.1198 24 18.8V19.2C24 20.8802 24 21.7202 23.673 22.362C23.3854 22.9265 22.9265 23.3854 22.362 23.673C21.7202 24 20.8802 24 19.2 24H18.8C17.1198 24 16.2798 24 15.638 23.673C15.0735 23.3854 14.6146 22.9265 14.327 22.362C14 21.7202 14 20.8802 14 19.2V18.8Z" fill="#EB222D"/>
</svg>
