<svg width="20" height="19" viewBox="0 0 20 19" fill="none" xmlns="http://www.w3.org/2000/svg">
<path d="M8.22104 1.4627C8.96499 0.0146272 11.035 0.0146263 11.779 1.4627L13.1495 4.13046C13.4399 4.69572 13.9817 5.08932 14.609 5.19084L17.5697 5.66994C19.1768 5.92999 19.8165 7.89871 18.6692 9.05373L16.5555 11.1816C16.1077 11.6324 15.9007 12.2693 15.998 12.8973L16.4573 15.8612C16.7066 17.47 15.0319 18.6867 13.5789 17.9525L10.902 16.5998C10.3348 16.3132 9.66518 16.3132 9.09799 16.5998L6.42112 17.9525C4.96809 18.6867 3.2934 17.47 3.54269 15.8612L4.00195 12.8973C4.09926 12.2693 3.89233 11.6325 3.44448 11.1816L1.33082 9.05373C0.18351 7.89871 0.823183 5.92999 2.43028 5.66994L5.39099 5.19084C6.01832 5.08932 6.56008 4.69572 6.85048 4.13046L8.22104 1.4627Z" fill="#D1DBE2"/>
</svg>
