<svg width="70" height="50" viewBox="0 0 70 50" fill="none" xmlns="http://www.w3.org/2000/svg">
<path d="M0 19.2C0 12.4794 0 9.11905 1.30792 6.55211C2.4584 4.29417 4.29417 2.4584 6.55211 1.30792C9.11905 0 12.4794 0 19.2 0H45.6775C49.551 0 51.4877 0 53.2358 0.546315C54.783 1.02985 56.2162 1.82185 57.4489 2.87452C58.8417 4.06384 59.8723 5.70362 61.9334 8.98316L65.5787 14.7832C67.9075 18.4884 69.0719 20.3411 69.5257 22.3292C69.9271 24.0871 69.9271 25.9129 69.5257 27.6708C69.0719 29.6589 67.9075 31.5116 65.5787 35.2168L61.9334 41.0168C59.8723 44.2964 58.8417 45.9362 57.4489 47.1255C56.2162 48.1782 54.783 48.9701 53.2358 49.4537C51.4877 50 49.551 50 45.6775 50H19.2C12.4794 50 9.11905 50 6.55211 48.6921C4.29417 47.5416 2.4584 45.7058 1.30792 43.4479C0 40.8809 0 37.5206 0 30.8V19.2Z" fill="#F6F8FA"/>
</svg>
