<svg width="48" height="48" viewBox="0 0 48 48" fill="none" xmlns="http://www.w3.org/2000/svg">
<path fill-rule="evenodd" clip-rule="evenodd" d="M15 39V40.5C15 42.984 12.984 45 10.5 45C8.016 45 6 42.984 6 40.5V39C4.344 39 3 37.656 3 36V24C1.344 24 0 22.656 0 21V15C0 13.344 1.344 12 3 12V9C3 4.032 7.032 0 12 0H36C40.968 0 45 4.032 45 9V12C46.656 12 48 13.344 48 15V21C48 22.656 46.656 24 45 24V36C45 37.656 43.656 39 42 39V40.5C42 42.984 39.984 45 37.5 45C35.016 45 33 42.984 33 40.5V39H15ZM12 27C13.656 27 15 28.344 15 30C15 31.656 13.656 33 12 33C10.344 33 9 31.656 9 30C9 28.344 10.344 27 12 27ZM36 27C37.656 27 39 28.344 39 30C39 31.656 37.656 33 36 33C34.344 33 33 31.656 33 30C33 28.344 34.344 27 36 27ZM36 21C37.656 21 39 19.656 39 18V9C39 7.344 37.656 6 36 6H12C10.344 6 9 7.344 9 9V18C9 19.656 10.344 21 12 21H36Z" fill="#333333"/>
</svg>
