<svg width="42" height="42" viewBox="0 0 42 42" fill="none" xmlns="http://www.w3.org/2000/svg">
<path fill-rule="evenodd" clip-rule="evenodd" d="M29 16C29 14.344 27.656 13 26 13H16C14.344 13 13 14.344 13 16V26C13 27.656 14.344 29 16 29H26C27.656 29 29 27.656 29 26V16ZM15.445 17.514H16.767C17.097 17.514 17.224 17.653 17.351 18.022C17.999 19.89 19.08 21.53 19.524 21.53C19.69 21.53 19.766 21.453 19.766 21.034V19.102C19.7345 18.5532 19.5433 18.3138 19.4016 18.1364C19.3138 18.0265 19.245 17.9403 19.245 17.819C19.245 17.666 19.372 17.514 19.575 17.514H21.634C21.914 17.514 22.015 17.666 22.015 17.997V20.602C22.015 20.881 22.13 20.983 22.219 20.983C22.384 20.983 22.524 20.881 22.829 20.576C23.769 19.522 24.443 17.895 24.443 17.895C24.532 17.704 24.684 17.526 25.015 17.526H26.324C26.718 17.526 26.807 17.73 26.718 18.009C26.5788 18.6489 25.4303 20.3431 25.0709 20.8731C25.0018 20.9751 24.9619 21.034 24.964 21.034C24.824 21.263 24.773 21.364 24.964 21.619C25.0327 21.7122 25.1777 21.8546 25.3437 22.0175C25.5159 22.1866 25.7107 22.3777 25.866 22.559C26.425 23.194 26.857 23.728 26.972 24.097C27.073 24.465 26.896 24.656 26.514 24.656H25.205C24.8587 24.656 24.6798 24.4568 24.2989 24.0329C24.1353 23.8508 23.9344 23.6271 23.667 23.36C22.892 22.61 22.549 22.508 22.358 22.508C22.092 22.508 22.015 22.572 22.015 22.953V24.135C22.015 24.453 21.914 24.643 21.075 24.643C19.69 24.643 18.152 23.804 17.072 22.241C15.445 19.954 15 18.225 15 17.882C15 17.692 15.064 17.514 15.445 17.514Z" fill="#BDBDBD"/>
<circle cx="21" cy="21" r="19.5" stroke="#BDBDBD" stroke-width="3"/>
</svg>
