<svg width="42" height="42" viewBox="0 0 42 42" fill="none" xmlns="http://www.w3.org/2000/svg">
<path fill-rule="evenodd" clip-rule="evenodd" d="M13 21C13 19.159 13.331 17.535 13.833 16.577C14.073 15.995 14.479 15.5 14.992 15.151C15.912 14.479 18.256 14 21 14C23.744 14 26.088 14.479 27.008 15.151C27.521 15.5 27.927 15.995 28.167 16.577C28.669 17.535 29 19.159 29 21C29 22.841 28.669 24.465 28.167 25.423C27.927 26.005 27.521 26.5 27.008 26.849C26.088 27.521 23.744 28 21 28C18.256 28 15.912 27.521 14.992 26.849C14.479 26.5 14.073 26.005 13.833 25.423C13.331 24.465 13 22.841 13 21ZM19.833 23.897C19.746 23.962 19.638 24 19.521 24C19.234 24 19 23.766 19 23.479V18.521C19 18.234 19.234 18 19.521 18C19.638 18 19.746 18.038 19.833 18.103L23.764 20.546L23.762 20.549C23.906 20.648 24 20.813 24 21C24 21.187 23.906 21.352 23.762 21.451L23.764 21.454L19.833 23.897Z" fill="#BDBDBD"/>
<circle cx="21" cy="21" r="19.5" stroke="#BDBDBD" stroke-width="3"/>
</svg>
